<?xml version="1.0" standalone="no"?>
<!DOCTYPE svg PUBLIC "-//W3C//DTD SVG 1.1//EN" "http://www.w3.org/Graphics/SVG/1.1/DTD/svg11.dtd" >
<svg xmlns="http://www.w3.org/2000/svg" xmlns:xlink="http://www.w3.org/1999/xlink" version="1.1">
<metadata>
Created by FontForge 20161116 at Thu May 25 15:12:41 2017
 By Jimmy Warting
TrueType Font: Copyright (c) 1992, 1994 TeamAXis Corp. All Rights reserved. Font Design: Copyright (c) 1992, 1994 TeamAXis Corp. All Rights reserved. Hinted using AXisType Toolkit - Copyright (c) 1992, 1994 by Dmitry Komissarov. All rights reserved.
</metadata>
<defs>
<font id="KarinaC-Italic" horiz-adv-x="1049" >
  <font-face 
    font-family="KarinaC"
    font-weight="400"
    font-style="italic"
    font-stretch="normal"
    units-per-em="2048"
    panose-1="4 2 114 0 0 0 0 0 0 0"
    ascent="1638"
    descent="-410"
    x-height="905"
    cap-height="1354"
    bbox="-123.003 -456 2111 1744"
    underline-thickness="100"
    underline-position="-473"
    slope="-12"
    unicode-range="U+0020-045F"
  />
<missing-glyph horiz-adv-x="748" 
d="M68 0v1365h544v-1365h-544zM136 68h408v1229h-408v-1229z" />
    <glyph glyph-name=".notdef" horiz-adv-x="748" 
d="M68 0v1365h544v-1365h-544zM136 68h408v1229h-408v-1229z" />
    <glyph glyph-name="space" unicode=" " horiz-adv-x="512" 
 />
    <glyph glyph-name="exclam" unicode="!" horiz-adv-x="405" 
d="M660 1233c-3.33301 -15.333 -8.66699 -33.666 -16 -54.999c-4 -12 -10 -31 -18 -57l-244 -785h-46l88 785l15 95c23.333 109.333 71.333 164 144 164l21 -2c42 -6.66699 63 -35.334 63 -86.001c0 -20 -2.33301 -39.667 -7 -59zM419.999 82
c-4 -16 -11.002 -31.001 -21.002 -45.001c-14.667 -22 -32.667 -38.333 -54 -49c-16.667 -10.667 -37.667 -16 -63 -16c-30.667 0 -56.667 9.66699 -78 29c-14 14 -21 31.333 -21 52c0 8.66699 1 17.334 3 26.001c6.66699 30.667 22 55 46 73c23.333 17.333 50 26 80 26
c22.667 0 42.334 -4 59.001 -12c8.66699 -4 16.334 -8.66699 23.001 -14c6 -5.33301 12 -12.333 18 -21c6.66699 -10 10 -20.333 10 -31c0 -1.33301 -0.666992 -7.33301 -2 -18z" />
    <glyph glyph-name="quotedbl" unicode="&#x22;" horiz-adv-x="595" 
d="M855 1289c-2 -12 -5.33301 -23 -10 -33l-158 -438h-10l27 437l5 37c6.66699 31.333 19 55.333 37 72c16 15.333 34.667 23 56 23c20 0 35.333 -8.33301 46 -25c7.33301 -9.33301 11 -22.666 11 -39.999c0 -6.66699 -0.333008 -12.334 -1 -17.001
c-0.666992 -6 -1.66699 -11.333 -3 -16zM527 1285l-9 -29.001l-158 -438h-14l31 437c0 2 0.166992 5.16699 0.5 9.5s0.833008 7.5 1.5 9.5c0 0.666992 0.333008 2.33398 1 5.00098s1.16699 5.16699 1.5 7.5s0.833008 4.83301 1.5 7.5c4.66699 25.333 14.667 46.333 30 63
c14.667 16.667 34 25 58 25c28 0 45 -8.66699 51 -26c5.33301 -12.667 8 -25.667 8 -39c0 -10 -1 -20.667 -3 -32z" />
    <glyph glyph-name="numbersign" unicode="#" horiz-adv-x="1433" 
d="M1623 922l-51 -89h-302l-171 -295h327l-56 -94h-323l-258 -447h-109l258 447h-301l-258 -447h-109l258 447h-317l56 94h317l167 295h-342l55 89h342l259 456h108l-262 -456h300l263 456h109l-262 -456h302zM1165 833h-305l-172 -295h304z" />
    <glyph glyph-name="dollar" unicode="$" horiz-adv-x="1003" 
d="M1102 476c-8 -34.667 -22.668 -71.334 -44.001 -110.001c-20.667 -31.333 -36 -53 -46 -65c-3.33301 -4.66699 -15 -17 -35 -37s-40.667 -36 -62 -48c-24 -13.333 -49.667 -25 -77 -35c-48 -14.667 -115 -28 -201 -40l-60 -280h-98l59 273c-28 0 -54.333 2 -79 6
c-28.667 6 -49.667 10 -63 12c-35.333 6 -73 15.667 -113 29c-32 9.33301 -65.667 23.333 -101 42l42 199h44c9.33301 -38 19 -67.333 29 -88c8 -14 17 -26 27 -36c10.667 -10.667 22.667 -19.334 36 -26.001c17.333 -8.66699 33.666 -16 48.999 -22
c16.667 -6.66699 35 -12 55 -16c24.667 -5.33301 44 -8.66602 58 -9.99902c25.333 -2.66699 46.666 -4 63.999 -4c112 0 202 34 270 102c23.333 26 39.333 57.333 48 94c3.33301 18.667 5 33 5 43c0 40.667 -15.667 71.667 -47 93c-30 20.667 -76.667 40.334 -140 59.001
l-201 58c-31.333 9.33301 -61.666 21.666 -90.999 36.999c-26.667 14.667 -50 30.334 -70 47.001c-16 15.333 -28 34.666 -36 57.999c-7.33301 22 -11 48.667 -11 80l8 50c36 170 187 269.667 453 299l51 239h98l-51 -240c89.333 0 183.666 -13 282.999 -39l-43 -205h-46
c-5.33301 55.333 -30.666 96 -75.999 122c-46 26 -103 39 -171 39c-32.667 0 -68 -3 -106 -9c-51.333 -11.333 -99 -34.666 -143 -69.999c-21.333 -17.333 -38 -35 -50 -53c-13.333 -20 -22.333 -40 -27 -60c-2 -9.33301 -3 -17.666 -3 -24.999c0 -38 23.333 -68 70 -90
c30.667 -14 88.334 -32.333 173.001 -55c38.667 -10 72.334 -19 101.001 -27c50 -14 77 -21.667 81 -23c24 -7.33301 44.333 -16 61 -26c18.667 -10.667 38.667 -24.667 60 -42c17.333 -12.667 32 -29.334 44 -50.001c11.333 -20 20 -42 26 -66v-31v-31
c-0.666992 -4 -1.5 -8.33301 -2.5 -13s-1.5 -7.66699 -1.5 -9z" />
    <glyph glyph-name="percent" unicode="%" horiz-adv-x="1390" 
d="M1435 282c-4.66699 -21.333 -10.332 -42.3369 -16.999 -63.0039c-5.33301 -16 -14.666 -35.667 -27.999 -59c-36 -62 -80.667 -108 -134 -138c-54 -30 -112.667 -45 -176 -45c-14.667 0 -25.667 0.333008 -33 1c-16 1.33301 -28 3 -36 5c-44 6.66699 -80 25 -108 55
c-26 30.667 -43 68.334 -51 113.001c-2 16 -3 32.667 -3 50c0 28 3 56 9 84c8 36 13.333 58 16 66c5.33301 14.667 14 33.334 26 56.001c6.66699 14.667 18.667 32.334 36 53.001c15.333 19.333 31.666 36 48.999 50c33.333 26.667 71.666 48 114.999 64
c42.667 16 82.667 24 120 24c61.333 0 111.333 -16 150 -48c33.333 -27.333 55.333 -64.666 66 -111.999c2.66699 -10 4.66699 -22 6 -36c1.33301 -18.667 2 -31.667 2 -39c0 -26 -3 -53 -9 -81zM1552 1368l-1216 -1392h-98l1020 1159l-10 15
c-69.333 -34 -130.666 -51 -183.999 -51c-22.667 0 -44 3 -64 9c-19.333 6 -41.666 17.333 -66.999 34l-12 -66c-20.667 -96.667 -61 -175.334 -121 -236.001s-139 -91 -237 -91c-58 0 -106.333 13.667 -145 41c-38 27.333 -63.667 65 -77 113
c-6.66699 22.667 -10 48.334 -10 77.001c0 25.333 3 51 9 77c7.33301 32 13.333 54 18 66c7.33301 19.333 16.666 39.666 27.999 60.999c25.333 41.333 52 74.666 80 99.999c32.667 25.333 66.667 45 102 59c20 6.66699 38 11.334 54 14.001c20 3.33301 38.333 5 55 5
s32.334 -1 47.001 -3c12.667 -2 28 -5.66699 46 -11c29.333 -6.66699 57.333 -19 84 -37c11.333 -6 22.666 -14.333 33.999 -25c12 -10.667 23 -22.667 33 -36c42.667 -52.667 99 -79 169 -79c60 0 123.333 18.667 190 56s126.334 84.333 179.001 141h93zM808 1070
c4 21.333 5.99707 41.999 5.99707 61.999c0 29.333 -5 56.666 -15 81.999c-8.66699 20.667 -22 37.334 -40 50.001c-17.333 12 -37.666 18 -60.999 18l-22 1c-59.333 0 -106.666 -20.667 -141.999 -62c-34.667 -40.667 -59.667 -93 -75 -157
c-6.66699 -29.333 -10 -57.666 -10 -84.999c0 -92 44.667 -138 134 -138c54.667 0 103.334 23.333 146.001 70c38.667 45.333 65 98.333 79 159zM1317 282.996c4 16.667 6.33496 32.666 7.00195 47.999c1.33301 25.333 2 43 2 53c-3.33301 32 -13.666 59.333 -30.999 82
c-18.667 24 -45 37.333 -79 40l-21 1c-54.667 0 -103 -22.667 -145 -68c-42.667 -45.333 -70.334 -98.333 -83.001 -159c-2.66699 -14.667 -4.33398 -25.334 -5.00098 -32.001c-1.33301 -13.333 -2 -23.333 -2 -30c0 -32.667 6.33301 -63 19 -91
c11.333 -21.333 27 -37.666 47 -48.999c19.333 -11.333 43.666 -17 72.999 -17c59.333 0 107.333 22 144 66c17.333 20.667 32.333 44 45 70c12 24.667 21.667 53.334 29 86.001z" />
    <glyph glyph-name="ampersand" unicode="&#x26;" horiz-adv-x="1433" 
d="M1542 544c-42.667 0 -74.665 -2.66699 -95.998 -8c-20.667 -5.33301 -39.334 -18.666 -56.001 -39.999c-14.667 -20 -29.334 -53 -44.001 -99s-34.667 -88.667 -60 -128c-23.333 -36.667 -54 -72.334 -92 -107.001c-71.333 -64 -153 -112.333 -245 -145
c-91.333 -32 -186.333 -48 -285 -48h-21c-90.667 0 -175 15 -253 45c-77.333 30 -136.666 76.667 -177.999 140c-27.333 41.333 -41 89 -41 143c0 26 3 53.333 9 82c13.333 64 36 118.333 68 163s74.333 84 127 118c22.667 13.333 50.667 27.666 84 42.999
c32 14.667 64.667 26.334 98 35.001l5 24c-22.667 11.333 -42 22.666 -58 33.999c-19.333 14 -34.666 27.333 -45.999 40c-26.667 28.667 -45 61.667 -55 99c-6 22 -9 44.333 -9 67c0 19.333 1.33301 35.333 4 48c9.33301 39.333 27 77.666 53 114.999
c97.333 141.333 256.666 212 477.999 212c115.333 0 242.666 -19 381.999 -57l-49 -229h-51c-7.33301 38.667 -24.333 72.334 -51 101.001c-27.333 29.333 -62 51.333 -104 66c-40 16 -84.667 24 -134 24c-101.333 0 -189.666 -30.667 -264.999 -92
c-49.333 -38 -81 -88 -95 -150c-3.33301 -20 -5 -35.667 -5 -47c0 -31.333 8 -61 24 -89c15.333 -27.333 39 -48.666 71 -63.999c25.333 -14.667 55.666 -24 90.999 -28s73.333 -6 114 -6h33l-22 -103c-56 0 -108 -4.33301 -156 -13c-52.667 -9.33301 -100 -22 -142 -38
c-89.333 -34 -153.333 -101 -192 -201c-0.666992 -2.66699 -2.16699 -7.5 -4.5 -14.5l-5.5 -16.5c-4 -14.667 -6.66699 -25.334 -8 -32.001c-4.66699 -19.333 -7 -41.333 -7 -66c0 -40 9 -75.333 27 -106c26 -48.667 67.667 -84.667 125 -108
c58 -23.333 120.667 -35 188 -35c69.333 0 140.333 12.667 213 38c70.667 24.667 132 62.334 184 113.001c51.333 50 85 111 101 183l2 12l2 10c1.33301 6.66699 2 11.667 2 15v12c0 34.667 -14.333 58 -43 70c-28 12 -69.667 18 -125 18l10 47h513z" />
    <glyph glyph-name="quotesingle" unicode="'" horiz-adv-x="278" 
d="M540 1284c-0.666992 -1.33301 -1.16602 -3.5 -1.49902 -6.5s-0.5 -5.16699 -0.5 -6.5c-1.33301 -4.66699 -3.33301 -9.66699 -6 -15l-164 -438h-16l22 438l4 33c7.33301 30 20.666 53.667 39.999 71c20 18 40.667 27 62 27s38.333 -9 51 -27c8 -12 12 -26.667 12 -44
c0 -9.33301 -1 -20 -3 -32z" />
    <glyph glyph-name="parenleft" unicode="(" horiz-adv-x="574" 
d="M494 -323l-55 -45.9971c-64 87.333 -116.667 175 -158 263c-20.667 45.333 -38 92 -52 140c-13.333 45.333 -23.666 94 -30.999 146c-2.66699 27.333 -4 49.333 -4 66c0 4.66699 -0.166992 10.667 -0.5 18s-0.5 12 -0.5 14c0 72.667 8 148.334 24 227.001
c9.33301 42.667 21 85.667 35 129s29.667 82.666 47 117.999c38 78.667 82.667 154.334 134 227.001c55.333 77.333 114 147.666 176 210.999c49.333 50 117 112.667 203 188l36 -46c-58.667 -60.667 -111.334 -121.667 -158.001 -183
c-48 -63.333 -93.667 -132.333 -137 -207c-20.667 -38.667 -38.334 -74.334 -53.001 -107.001c-19.333 -42.667 -34.666 -78.334 -45.999 -107.001s-24 -66.667 -38 -114c-8 -27.333 -17.667 -65.333 -29 -114c-21.333 -100.667 -32 -196.334 -32 -287.001
c0 -53.333 3.33301 -102.333 10 -147c18.667 -140 61.667 -269.667 129 -389z" />
    <glyph glyph-name="parenright" unicode=")" horiz-adv-x="535" 
d="M618 505c-10.667 -50.667 -22 -94.3301 -34 -130.997c-13.333 -41.333 -29.333 -81 -48 -119c-34 -77.333 -77.667 -152.333 -131 -225c-24 -34 -50.333 -68.667 -79 -104c-31.333 -38 -61.666 -71.667 -90.999 -101c-70.667 -70.667 -140 -135.334 -208 -194.001l-40 47
c55.333 55.333 108 115.333 158 180c48.667 63.333 94 133 136 209c24 41.333 43 77 57 107c18.667 40 34.334 76.667 47.001 110c26.667 73.333 48 147.333 64 222c11.333 50.667 19 90.667 23 120c5.33301 36 8 70.333 8 103v54c0 19.333 -0.666992 47 -2 83
c-0.666992 24 -3.33398 50 -8.00098 78c-8.66699 52 -15.334 88.333 -20.001 109c-7.33301 32 -16.666 64.667 -27.999 98c-20 61.333 -47.333 121.333 -82 180l60 47c13.333 -18.667 36 -51.334 68 -98.001c24 -37.333 43 -69.333 57 -96
c18.667 -34.667 34.667 -68.334 48 -101.001c14 -36 26 -71.333 36 -106c11.333 -41.333 19.666 -78.333 24.999 -111c6 -38 9 -75.333 9 -112c0 -50.667 -1.66699 -92.334 -5 -125.001c-4 -37.333 -10.667 -78.666 -20 -123.999z" />
    <glyph glyph-name="asterisk" unicode="*" horiz-adv-x="873" 
d="M1044 827c-2.66699 -14 -10.3311 -27.3291 -22.998 -39.9961c-20.667 -26 -43.334 -39 -68.001 -39c-27.333 0 -50.333 11.333 -69 34c-8.66699 9.33301 -17.334 22 -26.001 38c-6.66699 12 -12 22 -16 30c-6.66699 13.333 -12 23.666 -16 30.999
c-4.66699 8.66699 -11 18.334 -19 29.001c-6.66699 8.66699 -16 17.667 -28 27c-13.333 10.667 -33 24 -59 40c-6.66699 -36.667 -10 -55.667 -10 -57c-3.33301 -23.333 -5 -41.666 -5 -54.999c0 -9.33301 1 -19.666 3 -30.999c2.66699 -13.333 5.66699 -26.666 9 -39.999
c4 -14.667 7 -28.667 9 -42c2.66699 -17.333 4 -33.666 4 -48.999c0.666992 -2 1 -6.66699 1 -14c0 -0.666992 -0.666992 -6.33398 -2 -17.001c-4.66699 -20.667 -14.334 -39.334 -29.001 -56.001c-16 -16 -33.333 -24 -52 -24c-30.667 0 -52.667 7.66699 -66 23
c-8 10 -12 22.333 -12 37c0 12 0.666992 20.333 2 25l6 21l12 24c5.33301 11.333 18.333 32 39 62l44 79c5.33301 10 10.333 20.333 15 31c5.33301 12 9.33301 25 12 39c1.33301 4 2.66602 11 3.99902 21c1.33301 12 2 19.667 2 23c-42 -24 -70 -40.667 -84 -50
c-22.667 -14.667 -37.334 -25 -44.001 -31l-37 -38c-7.33301 -8 -19.666 -20 -36.999 -36c-2 -2.66699 -5.5 -6.33398 -10.5 -11.001s-8.83301 -8 -11.5 -10c-18 -16 -37.333 -30.333 -58 -43c-18.667 -10 -34.334 -15 -47.001 -15c-18 0 -33.667 12.667 -47 38
c-4.66699 8.66699 -7 18.667 -7 30c0 7.33301 0.333008 12 1 14c5.33301 20.667 18.333 38.667 39 54c22 18 46 29.667 72 35l71 7c15.333 0 31 1 47 3c10.667 1.33301 29 6.33301 55 15c20 6 34.667 11.667 44 17c12 6.66699 29.667 18 53 34
c-19.333 12.667 -35.666 22 -48.999 28c-20 9.33301 -32 14.666 -36 15.999c-2.66699 1.33301 -14 4.33301 -34 9c-6.66699 2 -24 4.66699 -52 8l-71 8c-24.667 4 -43.667 14 -57 30c-10 10 -15 22.333 -15 37c0 2.66699 1 8 3 16c3.33301 13.333 5.33301 20.666 6 21.999
c2.66699 6 7.33398 12.667 14.001 20c18 24.667 41 37 69 37c32.667 0 57.667 -14 75 -42l44 -80l37 -47c7.33301 -8 20 -19 38 -33c4.66699 -4 11.334 -9.16699 20.001 -15.5s14.667 -10.5 18 -12.5c6 26 9.66699 45.667 11 59c2 16 3 30 3 42c0 24.667 -2.33301 46 -7 64
c-1.33301 18.667 -2.66602 32 -3.99902 40c-2.66699 14 -6 28 -10 42c-1.33301 6.66699 -2 12 -2 16v17v18c0 4 0.666992 8.66699 2 14c4.66699 22 15.334 40.333 32.001 55c15.333 13.333 35.666 20 60.999 20c24.667 0 42.667 -7.66699 54 -23
c6.66699 -8.66699 10 -20 10 -34v-3.5c0 -1.66699 -0.166992 -3.33398 -0.5 -5.00098s-0.666016 -3.83398 -0.999023 -6.50098s-0.5 -5 -0.5 -7c-3.33301 -12 -5.33301 -19 -6 -21c-1.33301 -2 -2.83301 -4.83301 -4.5 -8.5s-2.5 -5.83398 -2.5 -6.50098
c-9.33301 -19.333 -17 -34.666 -23 -45.999c-0.666992 -2 -8.33398 -15 -23.001 -39c-17.333 -30.667 -26.666 -47.334 -27.999 -50.001c0 -0.666992 -7 -14 -21 -40c-4.66699 -8.66699 -9.66699 -22 -15 -40c-2.66699 -8 -7.33398 -27 -14.001 -57c32 18 60 34.667 84 50
c17.333 11.333 32.666 22.333 45.999 33c6 4.66699 14.667 12.667 26 24c5.33301 5.33301 16 16.666 32 33.999s27.333 29.333 34 36c11.333 11.333 18.666 18 21.999 20c27.333 21.333 55 32 83 32c30.667 0 49.667 -16.667 57 -50c1.33301 -12 2 -19 2 -21
c0 -4.66699 -0.333008 -7.66699 -1 -9c-4 -19.333 -16.333 -36.333 -37 -51c-19.333 -15.333 -42 -25.333 -68 -30c-16 0 -30 -0.666992 -42 -2c-10.667 -1.33301 -29 -4.33301 -55 -9c-12.667 0 -27 -2 -43 -6c-5.33301 -1.33301 -12 -3.16602 -20 -5.49902
s-13.667 -3.83301 -17 -4.5c-18.667 -5.33301 -33 -11 -43 -17c-16 -9.33301 -34.333 -21.333 -55 -36c32.667 -19.333 59.667 -33 81 -41c20 -5.33301 40.333 -9 61 -11l54 -6c6.66699 0 16 -1.66699 28 -5c1.33301 -0.666992 6.5 -2.16699 15.5 -4.5
s16.167 -4.16602 21.5 -5.49902c14.667 -4 28.334 -14.333 41.001 -31c8 -10.667 12 -22.334 12 -35.001c0 -6.66699 -0.333008 -11 -1 -13z" />
    <glyph glyph-name="plus" unicode="+" horiz-adv-x="1412" 
d="M1521 531h-526l-114 -534h-95l114 534h-527l20 93h527l113 528h95l-113 -528h526z" />
    <glyph glyph-name="comma" unicode="," horiz-adv-x="384" 
d="M395 60l-8.00098 -28.0029c-10 -30.667 -22.333 -58 -37 -82c-18 -28.667 -36.667 -53.334 -56 -74.001c-42 -44 -103.333 -100 -184 -168l-37 37c48.667 40.667 88.667 79.334 120 116.001c36 42 64.333 81.333 85 118c-50 6.66699 -84 20 -102 40
c-10 15.333 -15 32.333 -15 51c0 10 1 20 3 30s6.66699 20.667 14 32c8 12.667 18.667 24.334 32 35.001c26.667 22.667 56.334 34 89.001 34c13.333 0 27 -2 41 -6c29.333 -8 47.333 -23.333 54 -46c3.33301 -12 5 -26.333 5 -43v-26
c-0.666992 -3.33301 -1.5 -7.16602 -2.5 -11.499s-1.5 -7.16602 -1.5 -8.49902z" />
    <glyph glyph-name="hyphen" unicode="-" horiz-adv-x="595" 
d="M662 379h-482l31 143h482z" />
    <glyph glyph-name="period" unicode="." horiz-adv-x="384" 
d="M395 77c-3.33301 -16 -9.33301 -31.333 -18 -46c-14 -22.667 -32.333 -39.667 -55 -51c-24 -12 -46.333 -18 -67 -18c-32 0 -57.667 10.667 -77 32c-13.333 15.333 -20 34.333 -20 57c0 9.33301 0.666992 18 2 26c8 34.667 24 61 48 79c24.667 18.667 52 28 82 28
c33.333 0 61.333 -10.333 84 -31c16 -14 24 -31.667 24 -53c0 -7.33301 -1 -15 -3 -23z" />
    <glyph glyph-name="slash" unicode="/" horiz-adv-x="704" 
d="M977 1378l-924 -1559h-81l919 1559h86z" />
    <glyph glyph-name="zero" unicode="0" horiz-adv-x="1082" 
d="M1175 672c-16 -76 -39 -152.334 -69 -229.001c-16 -42.667 -32.333 -80 -49 -112c-18.667 -36.667 -40 -71.667 -64 -105c-43.333 -64.667 -97.666 -119.667 -162.999 -165s-138 -72.666 -218 -81.999l-63 -3c-112 0 -196.333 33.333 -253 100c-29.333 38 -52 77 -68 117
c-18 46 -27 94 -27 144c0 76 1.33301 136.333 4 181c3.33301 54 10 105.333 20 154c19.333 87.333 46 170.666 80 249.999c16.667 40 35.667 78.667 57 116c24 41.333 47.333 77 70 107c50 68.667 109.333 123 178 163c69.333 40.667 147.333 61 234 61
c11.333 0 20.666 -0.333008 27.999 -1c14.667 -1.33301 26 -2.66602 34 -3.99902c77.333 -9.33301 139.333 -36.333 186 -81c22.667 -24.667 41.334 -50.334 56.001 -77.001c14.667 -26 26 -55.333 34 -88c7.33301 -30.667 12.666 -64.667 15.999 -102
c3.33301 -41.333 5 -80 5 -116c0 -35.333 -2.66699 -73.666 -8 -114.999c-1.33301 -13.333 -8 -51 -20 -113zM1013 671.999c14 65.333 22.9971 128.667 26.9971 190c4 62 6 129.333 6 202c0 58.667 -15.333 104.667 -46 138s-74 54 -130 62
c-21.333 3.33301 -37.666 5 -48.999 5c-84.667 0 -157.667 -34 -219 -102c-57.333 -65.333 -102 -141.333 -134 -228c-31.333 -84.667 -56.666 -173.667 -75.999 -267c-25.333 -120.667 -38 -221.667 -38 -303c0 -198.667 71.667 -298 215 -298
c18.667 0 34.334 1.33301 47.001 4c114 16.667 200.667 83.667 260 201c58 114.667 103.667 246.667 137 396z" />
    <glyph glyph-name="one" unicode="1" horiz-adv-x="705" 
d="M671 -3l-474.001 0.00488281l10 44c22.667 0 44.667 1.66699 66 5s40 7.66602 56 12.999c32.667 10 54.667 37.667 66 83l227 1060c-106 -28.667 -200.333 -49.334 -283 -62.001l10 50c40.667 9.33301 76.334 18.666 107.001 27.999c52 16 84 26 96 30
c31.333 11.333 60.666 24.666 87.999 39.999c32 18 60.667 36.333 86 55h80l-257 -1201c-1.33301 -14.667 -2 -22.334 -2 -23.001c0 -12 2 -23 6 -33c8.66699 -12.667 19.667 -22 33 -28c14.667 -6.66699 33.334 -11 56.001 -13l39 -4z" />
    <glyph glyph-name="two" unicode="2" horiz-adv-x="1003" 
d="M992 -3l-933.002 0.00195312c34.667 122.667 92 223.334 172 302.001c40.667 39.333 89 79.666 145 120.999c54.667 40 119.334 82 194.001 126c138.667 82 242 150 310 204c67.333 53.333 111 126 131 218c4 21.333 6 41.333 6 60c0 34 -6.66699 66.333 -20 97
c-20 43.333 -52.667 76.666 -98 99.999s-97.666 35 -156.999 35c-84.667 0 -157.334 -18.333 -218.001 -55c-28 -17.333 -54.667 -39.666 -80 -66.999c-25.333 -26.667 -48.333 -58.667 -69 -96h-57l44 206c150.667 80 289.667 120 417 120c34 0 67.667 -2 101 -6
c30.667 -4 60.334 -10.667 89.001 -20c26.667 -8.66699 52 -21.667 76 -39c50 -30.667 87.333 -71.667 112 -123c19.333 -37.333 29 -78.333 29 -123v-15v-12c-1.33301 -8 -2 -12.333 -2 -13c0 -8 -1 -17 -3 -27c-0.666992 -4 -1.5 -8.33301 -2.5 -13s-1.5 -7.66699 -1.5 -9
c-5.33301 -26.667 -14 -54 -26 -82c-9.33301 -22.667 -24.666 -50.667 -45.999 -84c-36.667 -54.667 -79.667 -102.667 -129 -144c-50.667 -42.667 -107 -81.334 -169 -116.001l-140 -75c-48 -26.667 -80.333 -44.667 -97 -54c-28 -16 -53 -31 -75 -45
c-40.667 -24.667 -84 -56.667 -130 -96c-19.333 -16 -41 -36 -65 -60c-20 -20 -39.333 -42.333 -58 -67l-7 -31h605c28.667 0 54 3 76 9c21.333 6 39.666 17.667 54.999 35c15.333 15.333 26.333 34.666 33 57.999h35z" />
    <glyph glyph-name="three" unicode="3" horiz-adv-x="1003" 
d="M1085 453c-17.333 -76.667 -59.001 -151.662 -125.001 -224.995s-155.667 -133.666 -269 -180.999c-111.333 -46.667 -234.666 -70 -369.999 -70c-86 0 -172.667 9.33301 -260 28l45 208h57c0 -84.667 58 -127 174 -127h17h13c102.667 0 197.667 18.667 285 56
c90 38.667 160.333 100 211 184c23.333 40 39.333 81.333 48 124c4.66699 19.333 7 40.666 7 63.999c0 29.333 -5.66699 59 -17 89c-16.667 44.667 -50.667 78.667 -102 102c-40.667 20.667 -100 31 -178 31l-41 -1h-22l24 110h15c38.667 0 70.334 1.33301 95.001 4
c30 3.33301 57.333 7.66602 82 12.999c29.333 6.66699 54 15.334 74 26.001c22 12 44.333 28.333 67 49c37.333 31.333 62 73.333 74 126c3.33301 20 5 35 5 45c0 34 -10 64 -30 90c-8 10 -19.333 20.333 -34 31c-10.667 8 -26 15.333 -46 22
c-16.667 5.33301 -35.334 9.66602 -56.001 12.999c-22 3.33301 -43.333 5 -64 5c-68.667 0 -135 -14.667 -199 -44s-108.333 -69.333 -133 -120h-46l39 181c154.667 55.333 290.334 83 407.001 83c147.333 0 247 -46.333 299 -139c16 -28 24 -61.333 24 -100
c0 -12.667 -1.66699 -31.334 -5 -56.001c-10 -44.667 -28 -83.334 -54 -116.001s-57.333 -59.334 -94 -80.001c-30.667 -17.333 -78 -38.333 -142 -63l-4 -21c49.333 -14 90 -32 122 -54c31.333 -21.333 56.666 -48 75.999 -80c25.333 -42.667 38 -89 38 -139
c0 -17.333 -0.333008 -28.333 -1 -33c-1.33301 -8.66699 -3.33301 -20.334 -6 -35.001z" />
    <glyph glyph-name="four" unicode="4" 
d="M1101 308l-184 0.000976562c-4 -22 -11.333 -50 -22 -84l-17 -61c-3.33301 -21.333 -5 -37 -5 -47c0 -12 1.66699 -24.667 5 -38c9.33301 -20 28.333 -33 57 -39l-9 -42h-299l9 42c32 6 57 21.333 75 46c10 13.333 17.667 27 23 41c7.33301 19.333 13 37.666 17 54.999
l5 31l5 27l4 31l6 38h-656l28 131l875 904h120l-195 -912h184zM966 1155l-683 -710l-5 -21h523z" />
    <glyph glyph-name="five" unicode="5" horiz-adv-x="1003" 
d="M1120 538c-5.33301 -24 -13.999 -51.333 -25.999 -82c-12.667 -32 -26.334 -59.667 -41.001 -83c-33.333 -54 -73 -103 -119 -147c-24 -24 -47.667 -44.667 -71 -62c-26 -19.333 -53.333 -37.666 -82 -54.999c-56.667 -33.333 -115 -60.333 -175 -81
c-110 -33.333 -222 -50 -336 -50c-24.667 0 -54 1 -88 3c-20.667 1.33301 -55 4 -103 8l48 227h42c0 -42.667 12 -73 36 -91c12 -8.66699 27 -15 45 -19c20 -4.66699 40.333 -7 61 -7c14 0 25.667 0.333008 35 1c18.667 1.33301 33 2.66602 43 3.99902
c62 0 121 10.667 177 32c58 22 116.333 53.333 175 94c108 75.333 178.667 174.333 212 297l2 10l3 9c2 10 4 22 6 36c1.33301 9.33301 2 22.333 2 39c0 30.667 -4.66699 60 -14 88c-19.333 45.333 -48.666 79.333 -87.999 102c-40.667 23.333 -87.667 35 -141 35
c-62 0 -124.667 -16 -188 -48c-60.667 -30 -114.667 -74 -162 -132l-93 32l174 645h737l-84 -121h-566l-98 -371c24.667 16.667 52.334 33 83.001 49c26.667 14 52.667 25 78 33s50.666 14 75.999 18c26 4 51.667 6 77 6c70.667 0 136.667 -15.333 198 -46
s107.666 -74.667 138.999 -132c24.667 -44.667 37 -94.667 37 -150c0 -14.667 -1 -30 -3 -46z" />
    <glyph glyph-name="six" unicode="6" 
d="M1132 455c-8.66699 -39.333 -19.3369 -74.3311 -32.0039 -104.998s-30.334 -64.334 -53.001 -101.001c-39.333 -65.333 -90 -121.666 -152 -168.999c-63.333 -48 -129.666 -78 -198.999 -90c-52 -9.33301 -97.333 -14 -136 -14c-52.667 0 -100 7 -142 21s-78 36 -108 66
c-56 58 -90.667 135 -104 231c-4 30.667 -6 62.334 -6 95.001c0 67.333 8.33301 140.333 25 219c18.667 91.333 47.334 180 86.001 266c14.667 35.333 35.667 74.333 63 117c24.667 39.333 52.667 77 84 113c64 72 134.667 131.333 212 178
c40.667 22.667 80.667 40.667 120 54c40.667 13.333 82.667 22.666 126 27.999l55 3c44 0 87.667 -4.33301 131 -13c34.667 -8 57.334 -13.333 68.001 -16c18.667 -5.33301 38.334 -12.333 59.001 -21l-38 -179h-32c-6 44 -28.333 75.333 -67 94
c-37.333 21.333 -84 32 -140 32c-9.33301 0 -18.666 -0.666992 -27.999 -2s-15 -2 -17 -2c-128.667 -18 -235 -78.333 -319 -181c-41.333 -50 -77.666 -106 -108.999 -168c-32.667 -64.667 -59.667 -137.334 -81 -218.001c20 20.667 41.667 41 65 61c10 8.66699 26 21 48 37
c16.667 11.333 32 20.333 46 27c7.33301 4 23.666 11.667 48.999 23c20 8.66699 36.667 15 50 19c24 7.33301 40 11.666 48 12.999c4.66699 0.666992 9.66699 1.5 15 2.5s11.333 2.16699 18 3.5l15 3c14 2.66699 33 4 57 4c39.333 0 75 -4.66699 107 -14
c34 -10 65.667 -24.667 95 -44s55 -44.333 77 -75c37.333 -55.333 56 -119.333 56 -192c0 -34 -4 -69.333 -12 -106zM976.997 439.002c3.33301 13.333 5.33203 25 5.99902 35c1.33301 14.667 2 26.334 2 35.001c0 27.333 -4.66699 56.666 -14 87.999
c-17.333 50 -45 90.667 -83 122c-18.667 14.667 -41 26.334 -67 35.001c-23.333 8 -48.666 12 -75.999 12c-58 0 -114.667 -15.667 -170 -47c-29.333 -17.333 -55 -35 -77 -53c-22.667 -18.667 -44.667 -41.667 -66 -69c-38 -50.667 -63.333 -103.334 -76 -158.001
c-5.33301 -26.667 -8 -50.334 -8 -71.001c0 -26.667 4.66699 -56 14 -88c14.667 -50.667 42.667 -92.667 84 -126s90 -50 146 -50c58 0 114 16 168 48c25.333 14 50 32 74 54c24.667 22.667 46.667 46.334 66 71.001c39.333 52.667 65 106.667 77 162z" />
    <glyph glyph-name="seven" unicode="7" horiz-adv-x="982" 
d="M1262 1343c-15.333 -62.667 -37.335 -122.332 -66.002 -178.999c-14.667 -29.333 -30 -58 -46 -86c-13.333 -24 -31 -51.333 -53 -82c-4 -6 -25.667 -36.667 -65 -92c-35.333 -49.333 -64.666 -89.666 -87.999 -120.999c-49.333 -73.333 -76 -113 -80 -119
c-15.333 -22 -37 -54.667 -65 -98c-40.667 -64.667 -74.334 -123.334 -101.001 -176.001c-34 -66.667 -60.667 -128.667 -80 -186c-23.333 -68 -43 -137 -59 -207h-169c10 45.333 21.667 89 35 131c10.667 34 25.334 74.333 44.001 121c16.667 40.667 35.667 82 57 124
c23.333 45.333 46 85.666 68 120.999c46.667 81.333 102.667 162.333 168 243l132 159c18 22 41 51 69 87c22.667 28.667 46 59.667 70 93c44 62 71 113 81 153h-568c-45.333 0 -81.333 -8 -108 -24c-21.333 -12.667 -40.666 -39.667 -57.999 -81h-34l47 219h869z" />
    <glyph glyph-name="eight" unicode="8" horiz-adv-x="1082" 
d="M1110 373c-3.33301 -14 -6.00098 -24.333 -8.00098 -31c-5.33301 -16 -9.33301 -27.667 -12 -35c-27.333 -72.667 -68 -133.667 -122 -183c-55.333 -50 -119.666 -88 -192.999 -114c-76 -26.667 -150.333 -40 -223 -40c-74 0 -142.667 13.333 -206 40
c-61.333 25.333 -109.666 63 -144.999 113c-16 24 -27 51 -33 81c-6.66699 33.333 -10 67.666 -10 102.999c0 14.667 0.333008 23.667 1 27s3.66699 21 9 53c16 76.667 50 143 102 199c51.333 55.333 124.333 105.333 219 150l5 23
c-89.333 55.333 -134 126.666 -134 213.999c0 18.667 2 38 6 58c3.33301 17.333 8.66602 35 15.999 53s15.666 36 24.999 54c41.333 78 100.333 136 177 174c77.333 38.667 161.333 58 252 58c53.333 0 104 -7.33301 152 -22c46.667 -14 86.667 -35.333 120 -64
c35.333 -30 60.333 -66 75 -108c8 -23.333 12 -48 12 -74c0 -23.333 -2.33301 -45.666 -7 -66.999c-13.333 -62 -38.666 -114.333 -75.999 -157c-38 -43.333 -93.667 -83 -167 -119l-5 -23c23.333 -11.333 46 -25.666 68 -42.999c16 -12.667 32.333 -29.667 49 -51
c26.667 -34 45 -74.667 55 -122c4.66699 -18 7 -39.667 7 -65c0 -26 -3 -53.333 -9 -82zM1040 1032c3.33301 20 5.00098 35.666 5.00098 46.999c0 28.667 -6 55.334 -18 80.001c-16.667 33.333 -43.667 59.333 -81 78c-36 18 -76.667 27 -122 27
c-44 0 -86 -7.66699 -126 -23c-38.667 -15.333 -75.334 -40 -110.001 -74c-30 -31.333 -52.333 -70.333 -67 -117l-5 -21c-4 -18.667 -6 -36.334 -6 -53.001c0 -47.333 16.333 -86 49 -116c43.333 -40 99.666 -60 168.999 -60c46 0 90.333 8.66699 133 26
c43.333 17.333 80.333 43.333 111 78c32.667 36.667 55.334 79.334 68.001 128.001zM943 373.999c4.66699 20 7.33105 38.0029 7.99805 54.0029c1.33301 24 2 43 2 57c0 32.667 -8 64.667 -24 96c-12.667 28 -33 51.667 -61 71c-28 20 -61 32.333 -99 37l-66 4
c-90 0 -167 -25.667 -231 -77c-65.333 -52 -110.333 -125 -135 -219l-4 -19c-7.33301 -34.667 -11 -64.334 -11 -89.001c0 -52.667 14 -96.334 42 -131.001c42.667 -52.667 112.334 -79 209.001 -79c82.667 0 156.334 20.333 221.001 61
c66 41.333 111.333 101.666 136 180.999z" />
    <glyph glyph-name="nine" unicode="9" horiz-adv-x="1035" 
d="M1171 727c-20 -92.667 -48 -180.002 -84 -262.002c-32.667 -79.333 -80.667 -154.333 -144 -225c-63.333 -72 -134.333 -130.667 -213 -176c-78.667 -46 -161 -73 -247 -81l-67 -3c-84.667 0 -168 15.333 -250 46l38 180h36c2.66699 -26.667 12.667 -49.667 30 -69
c16.667 -16.667 40.334 -30.667 71.001 -42c30 -8.66699 61.333 -13 94 -13c25.333 0 44.666 1.33301 57.999 4c63.333 7.33301 124.333 29 183 65c59.333 36.667 112.333 82.334 159 137.001c14.667 17.333 31.667 41.333 51 72c18 28 32.667 54.333 44 79
c20.667 46.667 45 115.667 73 207c-46 -42 -83.667 -72.667 -113 -92c-37.333 -24.667 -71.333 -43.667 -102 -57c-70.667 -28 -138 -42 -202 -42c-62 0 -120 14.333 -174 43c-52.667 28 -93 70 -121 126c-19.333 40 -32.333 83.333 -39 130c-1.33301 8 -2 14.667 -2 20v18
c0 28.667 3.66699 62.334 11 101.001c12.667 60 36 118.333 70 175c32.667 54 74.667 104.333 126 151c29.333 24.667 56.333 45 81 61c27.333 18 57.333 33.667 90 47c34.667 14.667 66 25 94 31c30.667 6.66699 62 10 94 10c89.333 0 162 -17 218 -51s97 -82 123 -144
s39 -130 39 -204c0 -84 -8.33301 -164.667 -25 -242zM1040 900.998c4.66699 18 7.00098 38.666 7.00098 61.999c0 18 -2.66699 38.333 -8 61c-7.33301 38 -23.333 73 -48 105c-8.66699 14 -20.667 27 -36 39c-12 10 -28.667 21 -50 33c-38 18.667 -77.333 28 -118 28
c-26.667 0 -53 -3.66699 -79 -11s-52 -18.666 -78 -33.999c-49.333 -27.333 -93.666 -65 -132.999 -113c-18.667 -24.667 -33.667 -49 -45 -73c-10.667 -22.667 -19.334 -48.667 -26.001 -78c-6 -26.667 -9 -54 -9 -82c0 -53.333 12 -103.666 36 -150.999
c34.667 -70.667 94.667 -106 180 -106c58 0 116.333 14 175 42c29.333 15.333 56.666 32.666 81.999 51.999c26.667 20.667 49.667 43 69 67c40 49.333 67 102.333 81 159z" />
    <glyph glyph-name="colon" unicode=":" horiz-adv-x="405" 
d="M550 732c-0.666992 -3.33301 -2.66504 -9.33594 -5.99805 -18.0029c-2 -5.33301 -6 -12.333 -12 -21c-16 -22.667 -33.333 -39 -52 -49c-20.667 -11.333 -42.667 -17 -66 -17c-32.667 0 -58.667 9.66699 -78 29c-13.333 14.667 -20 32.334 -20 53.001v3.5
c0 1.66699 0.166992 3.33398 0.5 5.00098s0.666016 3.83398 0.999023 6.50098s0.5 5 0.5 7c4 16 10 30 18 42c9.33301 14 20.333 25.667 33 35c26.667 21.333 56 32 88 32l19 -1c27.333 -6 47.666 -19.667 60.999 -41c10 -14 15 -29.667 15 -47
c0 -0.666992 -0.666992 -7 -2 -19zM416.002 84.9971c-2.66699 -12.667 -9.33496 -26.332 -20.002 -40.999c-6 -9.33301 -13.333 -18 -22 -26c-8.66699 -7.33301 -19 -14.333 -31 -21c-20 -10 -41 -15 -63 -15c-31.333 0 -56.666 9.66699 -75.999 29
c-15.333 15.333 -23 33.666 -23 54.999c0 1.33301 0.666992 8 2 20c6.66699 30 24.334 56 53.001 78c27.333 21.333 56.333 32 87 32l21 -1c24 -6 43.667 -19.667 59 -41c10 -14 15 -30.333 15 -49c0 -1.33301 -0.666992 -8 -2 -20z" />
    <glyph glyph-name="semicolon" unicode=";" horiz-adv-x="405" 
d="M551 731c-2.66699 -13.333 -9.33301 -28.334 -20 -45.001c-14 -22.667 -31.667 -38.667 -53 -48c-20.667 -10.667 -42.334 -16 -65.001 -16c-31.333 0 -57.666 9.66699 -78.999 29c-14 14 -21 31.333 -21 52c0 7.33301 1 15.666 3 24.999
c7.33301 32.667 22.333 57.334 45 74.001c23.333 17.333 50.333 26 81 26c18 0 34 -2 48 -6c12.667 -3.33301 25 -10.666 37 -21.999c17.333 -13.333 26 -30.333 26 -51c0 -1.33301 -0.666992 -7.33301 -2 -18zM404.001 53.999l-7.99805 -32.001
c-8.66699 -27.333 -20.667 -53.666 -36 -78.999c-14 -23.333 -33 -47 -57 -71c-39.333 -41.333 -100 -96 -182 -164l-39 36c46.667 37.333 87.334 75.333 122.001 114s62 76.667 82 114c-25.333 2.66699 -46 7.33398 -62 14.001c-15.333 6 -28 14 -38 24
c-10 14.667 -15 31 -15 49c0 6.66699 0.666992 13.334 2 20.001c6 28 22 53 48 75s56.333 33 91 33c14 0 27 -2 39 -6c27.333 -6.66699 44.666 -21.334 51.999 -44.001c4 -12 6 -26 6 -42c0 -8.66699 -0.333008 -14.334 -1 -17.001
c-0.666992 -1.33301 -1.33398 -4.83301 -2.00098 -10.5s-1.33398 -10.167 -2.00098 -13.5z" />
    <glyph glyph-name="less" unicode="&#x3c;" horiz-adv-x="1412" 
d="M1412 70l-1027 465l18 82l1225 465l-22 -103l-1077 -405l905 -402z" />
    <glyph glyph-name="equal" unicode="=" horiz-adv-x="1412" 
d="M1562 719h-1148l19 92h1148zM1480 338h-1148l21 95h1148z" />
    <glyph glyph-name="greater" unicode="&#x3e;" horiz-adv-x="1412" 
d="M1511 535l-1225 -465l22 102l1078 402l-906 405l22 103l1027 -465z" />
    <glyph glyph-name="question" unicode="?" horiz-adv-x="873" 
d="M1041 870c-10.667 -51.333 -30.999 -102.329 -60.999 -152.996c-28.667 -48 -67.334 -91.333 -116.001 -130c-90.667 -72 -210.667 -108 -360 -108h-16l-28 2l-27 -125h-67l55 255l79 -3c80 0 149.667 14 209 42c60.667 28.667 112 79.667 154 153
c9.33301 17.333 17.333 35.666 24 54.999c8.66699 25.333 15 46 19 62c4.66699 19.333 7 42.333 7 69c0 11.333 -1 22.666 -3 33.999c-0.666992 2.66699 -2 11.667 -4 27c-2.66699 16 -8.66699 35.333 -18 58c-7.33301 17.333 -17.333 35 -30 53
c-22.667 35.333 -57.667 63.666 -105 84.999c-46 20.667 -95 31 -147 31c-53.333 0 -102 -12.333 -146 -37c-42.667 -24 -76.667 -60.667 -102 -110h-40l44 204c100 28.667 190 43 270 43c42.667 0 88 -4.66699 136 -14c46 -9.33301 89.333 -30 130 -62
c22.667 -18 41.667 -36 57 -54c16 -19.333 30.333 -41 43 -65c26 -46.667 42.667 -96 50 -148c1.33301 -8 2.33301 -17 3 -27c0.666992 -6.66699 1 -16.667 1 -30c0 -15.333 -1 -32.333 -3 -51c-1.33301 -14.667 -4 -33.334 -8 -56.001zM452.001 80.0039
c-1.33301 -6 -3.33398 -13.668 -6.00098 -23.001c-1.33301 -3.33301 -5.33301 -10 -12 -20c-14 -22 -31.333 -38.333 -52 -49c-21.333 -10.667 -42 -16 -62 -16c-27.333 0 -51.666 9.66699 -72.999 29c-11.333 14.667 -17 32.334 -17 53.001c0 8.66699 0.666992 17 2 25
c6.66699 32 21 56.333 43 73c23.333 16.667 49.333 25 78 25c31.333 0 57.333 -9.33301 78 -28c15.333 -14 23 -30.667 23 -50c0 -0.666992 -0.666992 -7 -2 -19z" />
    <glyph glyph-name="at" unicode="@" horiz-adv-x="1816" 
d="M1973 733c-13.333 -54.667 -30.6758 -106.664 -52.0088 -155.997c-22.667 -52.667 -47.667 -100 -75 -142c-14 -22.667 -29.333 -44 -46 -64c-18 -24 -37 -45.333 -57 -64c-36.667 -40.667 -79.667 -76.667 -129 -108c-78 -52 -154.667 -78 -230 -78
c-28.667 0 -57 5 -85 15c-28.667 12 -47.667 33.667 -57 65c-3.33301 9.33301 -5.33301 17.666 -6 24.999c-1.33301 10.667 -2 21.334 -2 32.001c0 18 0.666992 32.333 2 43c2.66699 24 4.33398 38 5.00098 42c-38 -42 -71 -76 -99 -102c-26 -24 -54.667 -46.333 -86 -67
c-53.333 -34 -109.333 -51 -168 -51c-20 0 -35 1.33301 -45 4c-70 9.33301 -115.333 43.333 -136 102c-14 36 -21 74.667 -21 116c0 11.333 0.666992 25.666 2 42.999c0.666992 8 4 26 10 54c5.33301 25.333 12.666 50.333 21.999 75c13.333 29.333 28 57.666 44 84.999
c15.333 25.333 34 51.333 56 78c41.333 50 88.333 96 141 138c48 38 100.333 70 157 96c27.333 10.667 54 19.334 80 26.001c22.667 6 45.334 9 68.001 9c49.333 0 87.333 -15.333 114 -46c16.667 -15.333 29.334 -34.333 38.001 -57c8.66699 -22 13 -48.667 13 -80h21
l83 165h117l-282 -572c-19.333 -36 -32.333 -69.333 -39 -100c-3.33301 -20 -5 -34 -5 -42c0 -50 25.333 -75 76 -75c20.667 0 48 6 82 18c44.667 15.333 91.334 40.333 140.001 75s89.334 71.667 122.001 111c18.667 22 35.667 43 51 63c16 21.333 31 43.666 45 66.999
c15.333 26.667 28 50 38 70c14.667 33.333 25.334 57.666 32.001 72.999c6.66699 17.333 13 35.666 19 54.999c4.66699 16 9.66699 36 15 60c6.66699 33.333 10.667 55.333 12 66c2 20 3 42 3 66c0 42.667 -3.66699 80.667 -11 114c-8 35.333 -19.667 69 -35 101
c-16 33.333 -36.333 63.666 -61 90.999c-27.333 30 -56 55.333 -86 76c-32 21.333 -67.667 39.333 -107 54c-43.333 16 -85.666 27.667 -126.999 35c-44 8 -91 12 -141 12c-38 0 -74.333 -2 -109 -6s-71.667 -11 -111 -21c-75.333 -16.667 -149.666 -42.667 -222.999 -78
c-74.667 -36 -142 -77 -202 -123c-52.667 -43.333 -99 -88 -139 -134c-40.667 -46.667 -79 -99 -115 -157c-34.667 -56 -65 -114 -91 -174c-24.667 -57.333 -43.667 -116.666 -57 -177.999c-12.667 -58.667 -19 -113.667 -19 -165c0 -45.333 5 -89 15 -131
c6.66699 -32.667 17.334 -64.667 32.001 -96c13.333 -28.667 31.333 -57.334 54 -86.001s45.334 -53 68.001 -73c21.333 -18.667 49.333 -38.334 84 -59.001c61.333 -36 126.666 -62.333 195.999 -79c73.333 -17.333 148 -26 224 -26c49.333 0 93.666 2.66699 132.999 8
c68.667 10.667 129.667 24.334 183 41.001s106.333 37 159 61c50 24.667 76 37.334 78 38.001c16.667 8.66699 44.667 24.334 84 47.001l11 -19c-108 -64 -222.667 -114.333 -344 -151c-122 -36.667 -242 -55 -360 -55c-114.667 0 -220 18.333 -316 55
c-95.333 36.667 -177.333 93.334 -246 170.001c-40.667 46.667 -73 100 -97 160c-14 33.333 -23.667 63.333 -29 90c-6 30 -9 61.333 -9 94c0 38 1 72 3 102c1.33301 23.333 6.33301 55 15 95c14.667 72 39.334 144.333 74.001 217c34 71.333 77.667 140.666 131 207.999
c50.667 64 108.334 122.667 173.001 176c55.333 45.333 112 84.666 170 117.999c58.667 34 120.334 62.333 185.001 85c128 47.333 255.333 71 382 71c34 0 64.333 -1.33301 91 -4c32.667 -3.33301 61.667 -7.66602 87 -12.999c104 -18 191.333 -55.667 262 -113
c69.333 -56.667 117.666 -130 144.999 -220c14.667 -46 22 -97.667 22 -155c0 -40 -4.66699 -85.333 -14 -136zM1389.99 708.003c6 28 8.99707 53.668 8.99707 77.001c0 30 -5 57 -15 81c-18 41.333 -55.333 62 -112 62l-25 -1c-79.333 -10 -160.333 -69.333 -243 -178
c-41.333 -57.333 -75.666 -109 -102.999 -155c-28.667 -49.333 -52.667 -97.333 -72 -144c-2.66699 -6 -9 -24.667 -19 -56c-7.33301 -22 -12.666 -41 -15.999 -57c-4 -19.333 -6 -39.333 -6 -60c0 -18 2.66699 -35.667 8 -53c18.667 -50.667 58 -76 118 -76
c25.333 0 50.333 5 75 15c40.667 16 82.667 43 126 81c38.667 34.667 79.334 80.667 122.001 138c15.333 21.333 31.666 46.666 48.999 75.999c13.333 23.333 28.666 52 45.999 86c14.667 30 26.334 58 35.001 84c10.667 33.333 18.334 60 23.001 80z" />
    <glyph glyph-name="A" unicode="A" horiz-adv-x="1293" 
d="M1274 -3l-264.997 0.000976562l9 42c34 8 54.667 22.667 62 44c1.33301 9.33301 0.666016 18.666 -2.00098 27.999l-82 443h-497l-263 -433c-6.66699 -8.66699 -10.334 -15.667 -11.001 -21c-1.33301 -8 -2 -14 -2 -18c0 -20.667 14.667 -35 44 -43l-9 -42h-233l9 42
c17.333 6 32.333 15.667 45 29c11.333 12 24.666 32 39.999 60l761 1226h118l247 -1247c2 -21.333 6 -37 12 -47s14.667 -17 26 -21zM977.003 658.001l-101 521l-312 -521h413z" />
    <glyph glyph-name="B" unicode="B" horiz-adv-x="1260" 
d="M1333 399c-8.66699 -46.667 -27.332 -94.333 -55.999 -143c-18 -30 -37 -56 -57 -78c-20.667 -22.667 -43.334 -43 -68.001 -61c-51.333 -36 -105 -62.333 -161 -79c-56.667 -17.333 -113.667 -28.333 -171 -33c-60.667 -5.33301 -127 -8 -199 -8h-516l9 41
c22 4 40 12 54 24c7.33301 6.66699 13.666 14.667 18.999 24c4.66699 8.66699 8.66699 21.334 12 38.001l236 1102c2 10 3 19.667 3 29c0 13.333 -2.66699 23.666 -8 30.999c-6 8 -11.333 13.333 -16 16c-8 4 -17.333 7.33301 -28 10l9 42h584c26 0 52.667 -1 80 -3
c21.333 -1.33301 47 -4 77 -8c26 -3.33301 48 -7.66602 66 -12.999c20 -6 39 -14 57 -24c38 -18 67 -44.333 87 -79c9.33301 -15.333 16 -34 20 -56c4 -20.667 6 -46.334 6 -77.001c0 -20.667 -2.33301 -40 -7 -58c-13.333 -60.667 -43.666 -113.667 -90.999 -159
c-48 -46 -117 -87.333 -207 -124c40.667 -9.33301 73.667 -19 99 -29c22.667 -9.33301 44.667 -20.333 66 -33c36.667 -20 64.667 -49.667 84 -89c17.333 -34.667 26 -73.667 26 -117c0 -26 -3 -54.667 -9 -86zM1203 1024l5.00098 30.001c1.33301 13.333 2 22.666 2 27.999
c0 46 -15.667 82.667 -47 110c-40 36 -100.333 54 -181 54h-380l-93 -436h380c68 0 131.667 15.667 191 47c27.333 14 51.666 34.333 72.999 61c20 25.333 35 54 45 86zM1160 404.002c2.66699 13.333 4.66797 25.335 6.00098 36.002c1.33301 14.667 2 26 2 34
c0 24.667 -3.33301 46 -10 64c-13.333 37.333 -34.333 68 -63 92c-28 23.333 -64.667 41.666 -110 54.999c-27.333 6.66699 -49.333 11 -66 13c-25.333 3.33301 -49.333 5 -72 5h-361l-127 -596h333c72.667 0 137.667 6.66699 195 20c60.667 14.667 115 42 163 82
c47.333 39.333 81.666 94.666 102.999 165.999z" />
    <glyph glyph-name="C" unicode="C" horiz-adv-x="1335" 
d="M1561 1187l-196.003 -158.999l-27 33c4 6.66699 8.66699 14 14 22c5.33301 7.33301 9 16.333 11 27c2 9.33301 3 16 3 20c0 22.667 -10 44.667 -30 66c-25.333 24 -60.666 42.667 -105.999 56c-46 13.333 -96 20 -150 20c-42 0 -84 -4 -126 -12
c-42.667 -8 -85 -20.333 -127 -37c-46.667 -18.667 -87 -40.334 -121 -65.001c-37.333 -27.333 -73.666 -60.666 -108.999 -99.999c-68 -76 -115.333 -173 -142 -291c-11.333 -56.667 -17 -108 -17 -154c0 -76 15.667 -148 47 -216
c48.667 -101.333 120.667 -179.666 216 -234.999s191 -83 287 -83c36 0 73.667 5.66699 113 17c38.667 11.333 70 27 94 47c22.667 20.667 41 45 55 73h42l-48 -227c-59.333 -6.66699 -109 -11.334 -149 -14.001c-51.333 -3.33301 -93.666 -5 -126.999 -5h-12h-11
c-18 0 -31.667 0.333008 -41 1c-18.667 1.33301 -33 2.66602 -43 3.99902c-18.667 0 -35.667 1.33301 -51 4c-2 0.666992 -21.333 4.33398 -58 11.001c-24.667 4.66699 -44 9.33398 -58 14.001c-6 2 -14.333 5 -25 9s-18.334 6.66699 -23.001 8c-30 12 -62 28.333 -96 49
c-28 17.333 -58 39.666 -90 66.999c-26.667 23.333 -51 49 -73 77c-23.333 29.333 -43 60 -59 92c-18 35.333 -31.667 68.333 -41 99c-11.333 37.333 -19 72 -23 104c-4.66699 40.667 -7 70.667 -7 90c0 50.667 5.33301 99.667 16 147c21.333 98 59 184.667 113 260
c56 78.667 122 145 198 199c77.333 55.333 162.333 98.333 255 129c94 31.333 184 47 270 47c91.333 0 175.333 -16 252 -48c32 -12.667 65 -31.334 99 -56.001c30.667 -22.667 64.334 -52.667 101.001 -90z" />
    <glyph glyph-name="D" unicode="D" horiz-adv-x="1409" 
d="M1477 585c-21.333 -98 -60.001 -188.332 -116.001 -270.999c-27.333 -41.333 -59.333 -79.333 -96 -114c-35.333 -33.333 -76.333 -64 -123 -92c-56 -34 -118.333 -59.333 -187 -76c-36 -8 -71.667 -15.333 -107 -22c-30 -5.33301 -58.333 -8 -85 -8
c-42 0 -81 -0.666992 -117 -2c-54 -2 -90 -3 -108 -3h-430l9 41c24 4 43.667 12 59 24c14.667 11.333 25 32 31 62l236 1102c2 10 3 19.333 3 28c0 14 -3.33301 25.667 -10 35c-3.33301 4.66699 -9.33301 9 -18 13c-7.33301 4 -17 7.33301 -29 10l9 42h226
c76 0 139 -1.33301 189 -4c56.667 -3.33301 110.334 -7.33301 161.001 -12c93.333 -10 176.666 -35 249.999 -75c68 -34.667 125.333 -88.334 172 -161.001s76.334 -154 89.001 -244c6 -38 9 -76 9 -114c0 -49.333 -5.66699 -102.333 -17 -159zM1299 587.001
c11.333 54.667 16.999 107.334 16.999 158.001v28c0 5.33301 -1.66699 23 -5 53c-14 126.667 -51.667 220 -113 280c-62.667 61.333 -138.667 100 -228 116c-90 16 -210.333 24 -361 24l-242 -1135h246l136 3c20 0 38.333 1.33301 55 4c27.333 4 47.333 7.66699 60 11
c41.333 7.33301 81.333 20.333 120 39c26.667 12.667 46.334 23 59.001 31c20 12.667 38.667 26.667 56 42c102 87.333 168.667 202.666 200 345.999z" />
    <glyph glyph-name="E" unicode="E" horiz-adv-x="1216" 
d="M1164 -3l-1066 -0.00488281l9 41c25.333 4 44.333 11.667 57 23c8.66699 6.66699 15.334 14.667 20.001 24c5.33301 10 9.33301 23 12 39l236 1102c2 10.667 3 20.334 3 29.001c0 14 -3 25.333 -9 34c-6 9.33301 -21.667 17 -47 23l9 42h1016l-45 -213h-38
c1.33301 14.667 2 22.334 2 23.001c0 28.667 -10.333 49.334 -31 62.001c-9.33301 4.66699 -24.333 9.33398 -45 14.001c-19.333 4 -40.333 6 -63 6h-44h-542l-91 -429h510c13.333 0 27.333 1.66699 42 5c12 2.66699 24 7.33398 36 14.001c20 12 35 29 45 51h36l-53 -244
h-35c0 47.333 -31 71 -93 71h-510l-129 -603h646c48.667 0 87.334 9.66699 116.001 29c27.333 18.667 47.666 48.667 60.999 90h35z" />
    <glyph glyph-name="F" unicode="F" horiz-adv-x="1237" 
d="M1433 1124l-34.998 0.00292969c0.666992 3.33301 1 10.666 1 21.999c0 30 -7.66699 53.667 -23 71c-21.333 19.333 -55.666 29 -102.999 29h-660l-91 -429h476c13.333 0 27.333 1.66699 42 5c13.333 3.33301 25.666 7.66602 36.999 12.999
c19.333 11.333 34.333 28.666 45 51.999h43l-53 -244h-43c0 47.333 -31 71 -93 71h-476l-127 -590c-2 -10.667 -3 -20.667 -3 -30c0 -12 2.66699 -22.667 8 -32c8 -10 24.333 -17.667 49 -23l-9 -42h-303l9 42c26.667 5.33301 46 13 58 23
c11.333 9.33301 20.666 30 27.999 62l236 1102c1.33301 8 2.33301 14.333 3 19s1 14 1 28c-2 14 -8.33301 23.333 -19 28c-2.66699 2.66699 -8.33398 5 -17.001 7l-10 2.5c-4 1 -6.66699 1.5 -8 1.5l9 42h1077z" />
    <glyph glyph-name="G" unicode="G" horiz-adv-x="1359" 
d="M1476 729c-26.667 -6 -46.334 -14.668 -59.001 -26.001c-6.66699 -4.66699 -13 -12.667 -19 -24c-4.66699 -8.66699 -8.66699 -22 -12 -40l-111 -518c-2.66699 -10 -4 -21 -4 -33c0 -28 12 -44.667 36 -50l-9 -42l-95 -10l-115 -9l-110 -3c-28 0 -51.333 0.666992 -70 2
c-28 2 -44.333 3 -49 3c-20 0 -37.667 1.33301 -53 4c-27.333 4.66699 -50 9.33398 -68 14.001c-45.333 8.66699 -85.333 19.667 -120 33c-37.333 14 -72.333 31.667 -105 53c-66.667 38.667 -124 89.667 -172 153c-23.333 30.667 -42.333 62.667 -57 96
c-13.333 29.333 -26 67 -38 113c-4.66699 19.333 -8 41 -10 65c-2.66699 28 -4 52 -4 72c0 25.333 0.666992 46 2 62c0.666992 10 2.66699 26.667 6 50l8 41c20.667 100 60.334 193 119.001 279c28 42 59.667 80.667 95 116c38 38 78.333 71.667 121 101
c88.667 60.667 184.667 102.667 288 126c67.333 14.667 131.333 22 192 22c67.333 0 131 -9 191 -27c25.333 -7.33301 54 -18 86 -32c25.333 -10.667 52.666 -25.334 81.999 -44.001c50 -33.333 95 -72.333 135 -117l-199 -159l-26 33
c10.667 14.667 18.667 31.334 24 50.001c1.33301 6.66699 2 14 2 22c0 32 -16.333 62.333 -49 91c-39.333 33.333 -81.333 56 -126 68c-40.667 9.33301 -80.667 14 -120 14c-105.333 0 -207.666 -26.333 -306.999 -79c-102 -54 -181 -126.333 -237 -217
c-42 -64.667 -72.667 -139 -92 -223c-10 -46 -15 -92 -15 -138c0 -43.333 5.66699 -90.333 17 -141c18 -89.333 57 -166 117 -230c52 -53.333 115.333 -94.333 190 -123c76 -29.333 156.333 -44 241 -44c39.333 0 84.666 3.66699 135.999 11l117 545
c0 1.33301 0.333008 3.83301 1 7.5s1 6.5 1 8.5c1.33301 6.66699 2 12.334 2 17.001c0 13.333 -3.33301 23.666 -10 30.999c-7.33301 11.333 -21.666 20 -42.999 26l8 38h295z" />
    <glyph glyph-name="H" unicode="H" horiz-adv-x="1434" 
d="M1354 -3l-301.997 -0.000976562l9 41c25.333 4 44.666 11.667 57.999 23c15.333 11.333 26 32.333 32 63l126 585h-793l-126 -585c-2 -10.667 -3 -20.334 -3 -29.001c0 -12.667 2.66699 -23.667 8 -33c8 -10 24.333 -17.667 49 -23l-9 -42h-302l9 41
c24.667 4 44 12 58 24c14.667 12.667 25 33.334 31 62.001l236 1102c2 10.667 3 20.334 3 29.001c0 14 -3 25.333 -9 34c-4 4.66699 -9.66699 9 -17 13c-6.66699 3.33301 -16.667 6.66602 -30 9.99902l9 42h302l-8 -41c-26 -5.33301 -45.333 -13 -58 -23
c-16 -14 -27 -35.333 -33 -64l-88 -413h793l88 414c0.666992 3.33301 1 9 1 17c0 2 0.166992 4.33301 0.5 7s0.5 4.33398 0.5 5.00098c0 14 -2.66699 25.667 -8 35c-7.33301 8.66699 -23.333 15.667 -48 21l9 42h302l-9 -42c-26.667 -4 -46 -11 -58 -21
c-6.66699 -5.33301 -12.334 -13 -17.001 -23c-5.33301 -11.333 -10 -25.333 -14 -42l-236 -1102c-2.66699 -10 -4 -21 -4 -33s2.66699 -21.667 8 -29c7.33301 -12 23.666 -20 48.999 -24z" />
    <glyph glyph-name="I" unicode="I" horiz-adv-x="513" 
d="M425 -3l-316.996 -0.000976562l9 42c27.333 5.33301 47.666 13 60.999 23c12 9.33301 21.667 30 29 62l236 1102c2 10.667 3 20.334 3 29.001c0 14.667 -3.33301 26.334 -10 35.001s-22.334 16 -47.001 22l9 42h317l-8 -41c-7.33301 -1.33301 -17 -3.66602 -29 -6.99902
l-6 -2c-2 -0.666992 -3.83301 -1.33398 -5.5 -2.00098s-2.83398 -1 -3.50098 -1c-13.333 -5.33301 -24 -14.333 -32 -27c-8 -10.667 -14 -26.667 -18 -48l-236 -1102c0 -1.33301 -0.166992 -3 -0.5 -5s-0.833008 -4.33301 -1.5 -7s-1 -4.66699 -1 -6
c-0.666992 -4 -1 -9.33301 -1 -16v-9c0.666992 -1.33301 1 -2.33301 1 -3l1 -2c2.66699 -11.333 10 -20.333 22 -27c4.66699 -2 10.667 -4 18 -6c9.33301 -2.66699 15.666 -4.33398 18.999 -5.00098z" />
    <glyph glyph-name="J" unicode="J" horiz-adv-x="1048" 
d="M1249 1313c-26 -5.33301 -45.333 -12.999 -58 -22.999c-16 -12.667 -27 -34 -33 -64l-165 -773c-16 -72.667 -40 -139.667 -72 -201c-20 -34 -38.333 -62 -55 -84c-13.333 -18 -34.333 -40 -63 -66c-47.333 -41.333 -102.666 -73.333 -165.999 -96
c-34.667 -13.333 -68.334 -22.666 -101.001 -27.999c-34.667 -6 -71.334 -9 -110.001 -9h-14l-15 -1c-46 0 -89 7 -129 21c-18 5.33301 -35.333 13 -52 23c-16 9.33301 -30.333 20 -43 32s-25 26 -37 42c-12 16.667 -22.333 33 -31 49
c-16 29.333 -31.333 69.666 -46 120.999l201 137l24 -35c-26 -22.667 -43 -50 -51 -82c-2 -8 -3 -16.333 -3 -25c0 -26 8 -51.333 24 -76c24 -32.667 53 -55 87 -67c16.667 -4.66699 34.334 -8.66699 53.001 -12c20 -3.33301 38 -5 54 -5c25.333 0 49.333 2 72 6
c22 4 45.667 11 71 21c26.667 8.66699 49.667 19.334 69 32.001c20 13.333 39.667 29.666 59 48.999c27.333 27.333 50 61.666 68 102.999c14 38 21.333 58.667 22 62c5.33301 19.333 11 42.666 17 69.999l10 55l9 41l149 696c3.33301 16.667 5 28.334 5 35.001
c0 13.333 -3.33301 23.666 -10 30.999c-7.33301 8.66699 -23.333 15.334 -48 20.001l9 42h307z" />
    <glyph glyph-name="K" unicode="K" horiz-adv-x="1342" 
d="M1291 -3l-312.998 -0.000976562l9 40c12.667 0 24.667 3 36 9c10 3.33301 17 7.33301 21 12c5.33301 6.66699 9 13.667 11 21c0.666992 8.66699 -0.333008 18.334 -3 29.001l-262 728l-329 -233l-103 -479c-2 -10.667 -3 -20.334 -3 -29.001
c0 -12.667 2.66699 -23.667 8 -33c8 -10 24.333 -17.667 49 -23l-9 -42h-302l9 42c26.667 5.33301 46 13 58 23c11.333 9.33301 20.666 30 27.999 62l236 1102c1.33301 11.333 2.33301 18.666 3 21.999c0.666992 2.66699 1 6 1 10c0 11.333 -3.33301 22 -10 32
c-5.33301 8.66699 -20 16 -44 22l9 42h302l-8 -41c-4.66699 -0.666992 -13.667 -3 -27 -7l-15 -5c-13.333 -5.33301 -23.333 -13.666 -30 -24.999c-8 -14 -14.333 -30.333 -19 -49l-101 -472l689 495c14 11.333 21.667 21 23 29
c3.33301 14.667 -4.33398 24.334 -23.001 29.001l-36 6l8 40h366l-8 -40c-20 0 -40.667 -3.33301 -62 -10c-18.667 -6 -36.667 -15 -54 -27l-464 -337l298 -831c18 -38 41.333 -61.333 70 -70z" />
    <glyph glyph-name="L" unicode="L" horiz-adv-x="1131" 
d="M1083 -3h-985.004l9 41c25.333 4 44.333 11.667 57 23c8.66699 6.66699 15.334 14.667 20.001 24c5.33301 10 9.33301 23 12 39l236 1102c2 10.667 3 20.334 3 29.001c0 14 -3 25.333 -9 34c-6 9.33301 -21.667 17 -47 23l9 42h309l-9 -42
c-24.667 -4.66699 -44 -12.334 -58 -23.001c-13.333 -12.667 -23.666 -33.667 -30.999 -63l-238 -1115h556c50.667 0 90.334 9.66699 119.001 29s48.334 49.333 59.001 90h38z" />
    <glyph glyph-name="M" unicode="M" horiz-adv-x="1570" 
d="M1540 -3l-276 -0.00195312l9 42c38 6.66699 61 26.334 69 59.001l2 18l41 1039l-501 -837h-71l-162 825l-409 -1027l-5 -15c-1.33301 -10.667 -2 -16.334 -2 -17.001c0 -25.333 16 -40.666 48 -45.999l-9 -41h-244l9 42c40 8.66699 68 33 84 73l448 1127
c2 10.667 3 20.334 3 29.001c0 12 -2.33301 20.333 -7 25c-4.66699 8 -15 14.333 -31 19l9 42h215l158 -797l480 797h221l-8 -41c-35.333 -5.33301 -57 -26.666 -65 -63.999l-5 -32l-44 -1105c2 -23.333 6.66699 -40.333 14 -51c2 -1.33301 4 -2.83301 6 -4.5
s3.66699 -2.83398 5 -3.50098l4 -2l1 -1l22 -11z" />
    <glyph glyph-name="N" unicode="N" horiz-adv-x="1414" 
d="M1312 -3h-259l9 42c24.667 4.66699 44.334 12 59.001 22c13.333 11.333 23.666 32.333 30.999 63l73 341l-683 721l-227 -1062c-2 -10.667 -3 -20.334 -3 -29.001c0 -12.667 2.66699 -23.667 8 -33c10 -10 26.333 -17.667 49 -23l-9 -42h-259l9 41c24.667 4 44 12 58 24
c14.667 12.667 25 33.334 31 62.001l236 1102c2 10.667 3 20.334 3 29.001c0 14 -3 25.333 -9 34c-4 4.66699 -9.66699 9 -17 13c-6.66699 3.33301 -16.667 6.66602 -30 9.99902l9 42h243l636 -678l118 550c2.66699 10 4 21 4 33c0 11.333 -2.66699 21.666 -8 30.999
c-8.66699 10 -25.334 17.333 -50.001 22l9 42h259l-9 -42c-25.333 -4 -44.333 -11.333 -57 -22c-12 -10.667 -21.667 -32 -29 -64l-236 -1102c-2.66699 -11.333 -4 -23.666 -4 -36.999c0 -11.333 2.33301 -20.333 7 -27c6.66699 -10 22.334 -17 47.001 -21z" />
    <glyph glyph-name="O" unicode="O" horiz-adv-x="1551" 
d="M1622 672c-23.333 -104 -60 -197.667 -110 -281c-22.667 -38.667 -51.334 -78.334 -86.001 -119.001c-34 -40 -68.333 -74.667 -103 -104c-72.667 -62.667 -156 -111.334 -250 -146.001c-96 -35.333 -195.667 -53 -299 -53s-193.666 17.333 -270.999 52
c-38.667 17.333 -73.667 38 -105 62c-29.333 22.667 -57 51 -83 85c-46.667 60 -78 134.333 -94 223c-2.66699 14 -4.66699 30.667 -6 50c-1.33301 25.333 -2 44 -2 56c0 58 6.33301 116.333 19 175c13.333 60 29.333 114 48 162c20 50 44.667 97.333 74 142
c57.333 92 125 167.333 203 226c76.667 58 161 102.667 253 134c90 30.667 179.333 46 268 46c90.667 0 174 -15.333 250 -46c36 -14 70.667 -32.667 104 -56c34 -23.333 64 -49.666 90 -78.999c52 -58 88 -133 108 -225c8 -38.667 12 -79.667 12 -123
c0 -57.333 -6.66699 -117.666 -20 -180.999zM1446 672c6.66699 31.333 11.3311 62.665 13.998 93.998c2.66699 29.333 4 62.666 4 99.999c0 34 -2.66699 64 -8 90c-6 28 -14.667 57.667 -26 89c-21.333 55.333 -54 102 -98 140c-17.333 17.333 -41 33 -71 47
c-26.667 12.667 -56.667 22 -90 28c-48 8 -89.333 12 -124 12c-105.333 0 -202.333 -26.333 -291 -79c-89.333 -53.333 -163.333 -124.666 -222 -213.999c-59.333 -90.667 -101 -193 -125 -307c-7.33301 -35.333 -12.666 -71.333 -15.999 -108
c-2.66699 -30 -4 -70.667 -4 -122c0 -33.333 5 -65.666 15 -96.999c8.66699 -27.333 22.334 -59 41.001 -95c30.667 -54 76.334 -97.333 137.001 -130c61.333 -32.667 132.666 -49 213.999 -49c84 0 162.667 16 236 48c74 32.667 138 76.334 192 131.001
c56.667 58 102.667 121.667 138 191c36 71.333 64 148.333 84 231z" />
    <glyph glyph-name="P" unicode="P" horiz-adv-x="1091" 
d="M1302 1004c-18 -82 -57.334 -153.668 -118.001 -215.001c-61.333 -62.667 -134.666 -116.667 -219.999 -162c-45.333 -23.333 -91.333 -45 -138 -65c-47.333 -20 -97.333 -39.333 -150 -58l-254 -87l-63 -293c0 -2.66699 -0.166992 -6 -0.5 -10
s-0.666016 -7 -0.999023 -9s-0.5 -3.66699 -0.5 -5c0 -15.333 3.66699 -28.666 11 -39.999c6.66699 -10.667 21.667 -18 45 -22l-9 -41h-303l9 41c24.667 4 44 12 58 24c14.667 12.667 25 33.334 31 62.001l236 1102c2 10 3 19.333 3 28c0 13.333 -3 24.666 -9 33.999
s-20.333 17.333 -43 24l9 42h409c32 0 64.667 -1 98 -3c26.667 -1.33301 58 -4 94 -8c60 -6.66699 114.667 -20.334 164 -41.001c47.333 -20 85.666 -51 114.999 -93c23.333 -35.333 35 -77.666 35 -126.999v-16c-1.33301 -10.667 -2 -16.667 -2 -18zM1128 975.999
c3.33301 21.333 5.00195 37.6699 5.00195 49.0029c0 21.333 -3.66699 44.666 -11 69.999c-10.667 35.333 -32 67 -64 95c-31.333 27.333 -69 45 -113 53c-62.667 5.33301 -129.334 8 -200.001 8l-74 -1h-71l-153 -716l180 63c37.333 13.333 65.666 23.666 84.999 30.999
c24.667 10.667 41.334 18 50.001 22c21.333 9.33301 42.333 19.333 63 30c30 15.333 53 28 69 38c23.333 13.333 39.666 23.333 48.999 30c24 17.333 49 36.666 75 57.999c57.333 48 94 104.667 110 170z" />
    <glyph glyph-name="Q" unicode="Q" horiz-adv-x="1616" 
d="M1561 -40c-32.667 -8 -63.666 -12.001 -92.999 -12.001c-46.667 0 -87.334 10 -122.001 30c-18.667 12 -37.667 26 -57 42s-44 39 -74 69c-34 -20.667 -69.667 -38.667 -107 -54c-34 -14 -71 -26.333 -111 -37c-45.333 -12 -83.333 -20 -114 -24
c-40.667 -5.33301 -79 -8 -115 -8c-88 0 -167.333 13.333 -238 40c-68 25.333 -125.333 61 -172 107c-42 45.333 -75.333 98 -100 158c-12 30.667 -22 62.334 -30 95.001c-7.33301 29.333 -11 62 -11 98c0 41.333 1 78 3 110c2 31.333 6.66699 64.333 14 99
c10 46 22 87.667 36 125c16.667 44.667 35.334 85.667 56.001 123c44 80.667 98.667 154.334 164 221.001c30 28 57.667 51.333 83 70c33.333 24.667 63.666 44.667 90.999 60c60 33.333 125.333 59.333 196 78c68 18 136 27 204 27c82.667 0 162.334 -13.667 239.001 -41
c42 -14.667 76.333 -30.667 103 -48c32 -20.667 62 -45 90 -73c54.667 -54.667 93.334 -118.667 116.001 -192c18 -62 27 -126 27 -192c0 -52 -5.33301 -102.667 -16 -152c-18.667 -88 -52.334 -173.667 -101.001 -257c-48.667 -82.667 -112.334 -163 -191.001 -241l45 -51
c4.66699 -6 12 -12.667 22 -20c2.66699 -2 8 -5.66699 16 -11c7.33301 -4.66699 14.333 -8.33398 21 -11.001c8.66699 -3.33301 18 -6.33301 28 -9l20 -1c42 0 69.667 20.667 83 62h34zM1447 668.999c6.66699 32.667 11.667 64.9961 15 96.9961
c2.66699 27.333 4 60.666 4 99.999c0 62.667 -12 122.334 -36 179.001c-20 54 -51.667 99.333 -95 136c-34.667 30.667 -76.667 53.667 -126 69c-51.333 16 -103.666 24 -156.999 24c-36 0 -81.333 -5.66699 -136 -17c-28 -7.33301 -51.667 -14.333 -71 -21
c-22.667 -7.33301 -42.667 -15.666 -60 -24.999c-70.667 -38 -130.334 -83.667 -179.001 -137c-50 -55.333 -93.333 -119 -130 -191c-16 -31.333 -31 -66.666 -45 -105.999c-14 -40.667 -24.333 -77 -31 -109c-12 -56 -18 -110.667 -18 -164c0 -30 2.66699 -63 8 -99
c12 -82.667 42.667 -151.334 92 -206.001c34 -42 77.667 -73.667 131 -95c54 -21.333 113.333 -32 178 -32c28 0 56.333 1.66699 85 5c20.667 2.66699 49.334 9 86.001 19c30 8.66699 58.667 18.667 86 30c22.667 10 54 26.667 94 50c-42 50 -83.333 86.667 -124 110
c-43.333 24.667 -86 37 -128 37h-39c-21.333 0 -37 -1.66699 -47 -5c-11.333 -4 -31 -13.667 -59 -29l-23 63c34.667 32 68.667 54 102 66s72.666 18 117.999 18c34.667 0 69 -6 103 -18c16 -5.33301 32.333 -12.666 49 -21.999c17.333 -9.33301 35 -20.666 53 -33.999
c20.667 -14.667 37 -27.334 49 -38.001c22.667 -19.333 41 -36.666 55 -51.999c25.333 26.667 48.666 56.334 69.999 89.001c18.667 29.333 37 62 55 98c32.667 68 56.334 138 71.001 210z" />
    <glyph glyph-name="R" unicode="R" horiz-adv-x="1251" 
d="M1199 -3h-217.001l-323 621h-195l-106 -494c0 -2.66699 -0.166992 -6 -0.5 -10s-0.666016 -7 -0.999023 -9s-0.5 -3.66699 -0.5 -5c0 -16.667 4 -30 12 -40c8.66699 -10.667 23.667 -18 45 -22l-9 -41h-303l9 41c24.667 4 44 12 58 24c14.667 12.667 25 33.334 31 62.001
l236 1102c2 10 3 19.333 3 28c0 13.333 -3 24.666 -9 33.999s-20.333 17.333 -43 24l9 42h595c72 0 134 -7.66699 186 -23c24 -6 47.667 -16.333 71 -31c21.333 -13.333 39.666 -30 54.999 -50c24.667 -27.333 40 -64.333 46 -111c2.66699 -16.667 4 -29 4 -37
c0 -2 0.166992 -5.16699 0.5 -9.5s0.5 -7.83301 0.5 -10.5c0 -25.333 -3 -51.333 -9 -78c-17.333 -78 -49 -144 -95 -198c-23.333 -26.667 -48.666 -49.334 -75.999 -68.001c-28.667 -20 -58.667 -37 -90 -51c-34 -15.333 -70.667 -27.666 -110 -36.999
c-41.333 -10 -86 -18 -134 -24l283 -533c10 -14.667 21.333 -26 34 -34c14.667 -9.33301 32 -16 52 -20zM1182 982c2.66699 13.333 4.33301 21.3301 5 23.9971c1.33301 9.33301 2 15 2 17c2 16.667 3 32.334 3 47.001c0 30.667 -5 54.334 -15 71.001
c-10.667 28 -29.334 50.667 -56.001 68c-26.667 14.667 -55.667 24.334 -87 29.001c-34 5.33301 -76.333 8 -127 8h-309l-111 -521h262c68.667 0 132.334 7 191.001 21c57.333 13.333 109 40 155 80c44.667 38.667 73.667 90.667 87 156z" />
    <glyph glyph-name="S" unicode="S" horiz-adv-x="1199" 
d="M1234 371c-9.33301 -41.333 -24.6689 -81.6719 -46.002 -121.005c-22 -41.333 -50.333 -79.666 -85 -114.999c-31.333 -30.667 -68.666 -58.667 -111.999 -84c-106.667 -58.667 -231 -88 -373 -88c-68 0 -129.333 6.33301 -184 19c-54 12.667 -102 33.334 -144 62.001
c-36 28.667 -65.667 64 -89 106c-10 16.667 -20.333 38.667 -31 66c-6 14.667 -15.333 42 -28 82l214 120l24 -41c-40 -29.333 -63.667 -61.666 -71 -96.999c-2 -8 -3 -15.667 -3 -23c0 -33.333 17.333 -67 52 -101c61.333 -58.667 150.333 -88 267 -88
c59.333 0 120 8.33301 182 25c37.333 10 69.666 22.333 96.999 37c26.667 14.667 53.667 33.334 81 56.001c47.333 41.333 78 92.666 92 153.999l7 51c0 85.333 -66.667 150.666 -200 195.999l-274 95c-39.333 12.667 -70.666 24.667 -93.999 36
c-28 14 -54.667 30.667 -80 50c-42.667 34 -69.667 80.667 -81 140c-4 16 -6 33 -6 51c0 4.66699 0.666992 13.667 2 27c0.666992 6.66699 2.33398 18 5.00098 34c19.333 90 66 164.333 140 223c115.333 91.333 243.333 137 384 137c58.667 0 118 -8.66699 178 -26
s114 -40.666 162 -69.999c52 -32 93.333 -63.667 124 -95l-177 -164l-30 27c14 21.333 23.333 42.333 28 63c2 9.33301 3 17.666 3 24.999c0 18.667 -6.66699 36.667 -20 54c-7.33301 10 -18 19.667 -32 29c-17.333 11.333 -33.333 20 -48 26c-54 21.333 -111 32 -171 32
c-70 0 -138.333 -13 -205 -39c-20 -8.66699 -40.333 -19.667 -61 -33c-18 -11.333 -37.333 -27 -58 -47c-17.333 -19.333 -31 -38 -41 -56c-10.667 -19.333 -18.334 -38.666 -23.001 -57.999c-0.666992 -4 -1.66699 -9.33301 -3 -16
c-0.666992 -3.33301 -1 -9.66602 -1 -18.999c0 -8.66699 0.666992 -16.334 2 -23.001c0.666992 -5.33301 1.66699 -9.33301 3 -12c7.33301 -22.667 17.333 -40.667 30 -54c12 -13.333 29.667 -25.666 53 -36.999c16.667 -8.66699 38 -17.667 64 -27l55 -21l218 -78
c24 -7.33301 50.333 -16.666 79 -27.999c22 -8.66699 47 -20.667 75 -36c42 -22 78 -52 108 -90c14.667 -19.333 26.667 -40.333 36 -63c9.33301 -24 14 -49 14 -75v-10c0 -22.667 -0.333008 -38 -1 -46c-1.33301 -14 -3.66602 -28 -6.99902 -42z" />
    <glyph glyph-name="T" unicode="T" horiz-adv-x="1197" 
d="M1430 1141l-38.002 -0.000976562c0 22.667 -1.33301 39.667 -4 51c-2.66699 12.667 -8.66699 23 -18 31c-19.333 15.333 -51.666 23 -96.999 23h-316l-240 -1122c-2 -10.667 -3 -20.667 -3 -30c0 -16 3.33301 -27.667 10 -35c4.66699 -4.66699 11.667 -9 21 -13
c6.66699 -3.33301 18 -6 34 -8l-9 -41h-324l9 41c14 0.666992 27 3.33398 39 8.00098s21 9 27 13c15.333 10 27 31.667 35 65l240 1122h-315c-43.333 0 -79.666 -7.66699 -108.999 -23c-24.667 -14.667 -44 -42 -58 -82h-35l45 213h1151z" />
    <glyph glyph-name="U" unicode="U" horiz-adv-x="1316" 
d="M1264 -3l-522.999 0.00390625h-21c-45.333 0 -87.333 2 -126 6c-20 0 -39.333 2 -58 6c-19.333 4 -41 10.333 -65 19c-40.667 14 -77 32.667 -109 56c-33.333 24.667 -60.666 53.667 -81.999 87c-20 31.333 -35.667 67.666 -47 108.999
c-10.667 38.667 -16 80.667 -16 126c0 44 5 89.333 15 136c6.66699 33.333 13.334 62.333 20.001 87c10 34.667 20.667 65 32 91c17.333 40 31 70.333 41 91c7.33301 15.333 23.333 46.333 48 93c31.333 54 67.666 112.333 108.999 175l44 54
c12.667 13.333 24.334 27 35.001 41c10.667 13.333 19 23.666 25 30.999c12 16 19.667 33 23 51c0.666992 2 1 6 1 12c0 22.667 -16 37.334 -48 44.001l9 42h320l-9 -42c-28.667 -8.66699 -57.334 -23.334 -86.001 -44.001c-30.667 -22 -59.334 -48.667 -86.001 -80
c-26 -30.667 -53.333 -66.667 -82 -108c-24 -36 -48 -75.667 -72 -119c-16 -30.667 -35.333 -69.334 -58 -116.001c-14 -29.333 -27.333 -61 -40 -95c-6 -16 -15.333 -44 -28 -84c-8.66699 -26.667 -16.334 -55 -23.001 -85c-11.333 -54.667 -17 -103.334 -17 -146.001
c0 -68 13.667 -127.667 41 -179c11.333 -25.333 29 -48 53 -68c23.333 -19.333 50.666 -35.666 81.999 -48.999c14.667 -6 33.667 -12 57 -18c6 -1.33301 13.167 -3 21.5 -5s12.833 -3 13.5 -3c4.66699 0 12.834 -0.5 24.501 -1.5s20.834 -1.83301 27.501 -2.5
c24 -1.33301 42.333 -2 55 -2h293l239 1119c2 10 3 19.333 3 28c0 14 -3.33301 25.667 -10 35c-10 10 -25.667 17.667 -47 23l9 42h302l-9 -42c-26 -4.66699 -45.333 -12.334 -58 -23.001c-6.66699 -6 -13 -14.333 -19 -25c-4 -8 -8 -20.667 -12 -38l-236 -1102
c-2 -12 -3 -22.333 -3 -31c0 -14 2.33301 -24.333 7 -31c9.33301 -10 25.666 -17.667 48.999 -23z" />
    <glyph glyph-name="V" unicode="V" horiz-adv-x="1200" 
d="M1459 1313c-20 -4.66699 -37.667 -13.668 -53 -27.001c-14 -12 -28.667 -32 -44 -60l-722 -1229h-99l-185 1246c0 20.667 -4 37 -12 49s-19 19 -33 21l8 41h277l-9 -42c-10 -1.33301 -16.667 -2.66602 -20 -3.99902c-5.33301 -2 -10.666 -4.66699 -15.999 -8
c-12 -6 -20 -16.667 -24 -32l-2 -28l150 -988l570 981l11 24c0.666992 2 1 5 1 9c-0.666992 20.667 -15.334 36 -44.001 46l9 42h245z" />
    <glyph glyph-name="W" unicode="W" horiz-adv-x="1848" 
d="M2102 1312c-35.333 -9.33301 -67.333 -37.666 -96 -84.999l-715 -1230h-88l-113 777l-454 -777h-98l-182 1246c0 22 -5 39 -15 51c-6.66699 10.667 -16.667 17 -30 19l8 41h272l-8 -41c-14.667 -2.66699 -26.667 -7 -36 -13c-14 -6.66699 -22 -15.334 -24 -26.001
c-2 -10 -3 -17.333 -3 -22c0 -1.33301 0.666992 -5.33301 2 -12l152 -1002l392 685l-45 321c-4 24.667 -9.33301 42 -16 52c-7.33301 9.33301 -18 15 -32 17l8 41h268l-9 -42c-37.333 -7.33301 -58.333 -22 -63 -44c-0.666992 -2 -1 -7 -1 -15
c0 -6.66699 0.333008 -11 1 -13l143 -988l572 982l10 24c0.666992 2 1 5.66699 1 11c0 22 -16 36.333 -48 43l9 42h247z" />
    <glyph glyph-name="X" unicode="X" horiz-adv-x="1284" 
d="M1272 -3l-359 0.00292969l9 42c46.667 11.333 72.334 27.666 77.001 48.999c2 9.33301 0.333008 18.666 -5 27.999l-238 496l-431 -485c-13.333 -13.333 -21.666 -27 -24.999 -41c-0.666992 -2 -1 -5 -1 -9c0 -22 17 -35 51 -39l-9 -41h-315l9 41
c14 3.33301 25.667 6.66602 35 9.99902s19.666 9 30.999 17c8 5.33301 19 13 33 23c10.667 8 20.667 18 30 30l549 596l-266 547c-9.33301 18 -20 31 -32 39c-12.667 8.66699 -28.334 13 -47.001 13l8 41h360l-8 -41c-46.667 -8.66699 -73 -25 -79 -49
c-2.66699 -8.66699 -1 -19.667 5 -33l196 -397l356 393c4.66699 4.66699 9.33398 11 14.001 19s7.33398 13.333 8.00098 16c1.33301 5.33301 2 10 2 14c0 10.667 -5.66699 19.667 -17 27c-4.66699 2 -10.334 4.33301 -17.001 7c-4.66699 2 -11 3 -19 3l8 41h305l-8 -41
c-40.667 -8 -82.334 -32.667 -125.001 -74l-463 -503l298 -618l25 -42l28 -26l7 -3.5c3.33301 -1.66699 6 -3.16699 8 -4.5c5.33301 -2.66699 12.333 -4 21 -4z" />
    <glyph glyph-name="Y" unicode="Y" horiz-adv-x="1179" 
d="M1445 1313c-30 -6 -61.667 -28.667 -95 -68l-554 -740l-82 -381c-2 -11.333 -3 -21 -3 -29c0 -12.667 2.66699 -23.667 8 -33c8 -10 24.333 -17.667 49 -23l-9 -42h-314l9 41c24 4 43.333 11.667 58 23c6.66699 6 13.334 14.333 20.001 25
c5.33301 9.33301 9.66602 22 12.999 38l81 381l-247 727c-8.66699 17.333 -15 29.666 -19 36.999c-6 10.667 -10.667 18.334 -14 23.001c-2.66699 3.33301 -8 7.33301 -16 12c-5.33301 2.66699 -12.666 5.33398 -21.999 8.00098l9 42h305l-8 -40
c-29.333 -3.33301 -47.333 -18 -54 -44c-1.33301 -6.66699 -2 -11.667 -2 -15c0 -4.66699 1.66699 -11.334 5 -20.001l201 -613l460 624c5.33301 7.33301 9.33301 15 12 23c3.33301 15.333 -1.33398 27 -14.001 35c-8.66699 4.66699 -18 7.66699 -28 9l8 41h251z" />
    <glyph glyph-name="Z" unicode="Z" horiz-adv-x="1070" 
d="M1048 -3l-992.998 -0.000976562l22 99l1013 1154h-508c-42.667 0 -76.334 -7 -101.001 -21c-21.333 -12 -38 -38 -50 -78h-39l43 203h874l-19 -89l-1021 -1158h622c24.667 0 47 2.33301 67 7c17.333 4 30.666 8.66699 39.999 14c8.66699 4.66699 16.667 12.334 24 23.001
c14 12.667 25.333 32 34 58h38z" />
    <glyph glyph-name="bracketleft" unicode="[" horiz-adv-x="510" 
d="M436 -334h-282l360 1688h282l-18 -86l-18 1l-32 1c-13.333 0 -26.666 -1.33301 -39.999 -4c-10.667 -2 -21 -6 -31 -12c-18.667 -10 -32 -32 -40 -66l-290 -1356c-2 -10 -3 -18.667 -3 -26c0 -10 1.33301 -18 4 -24c3.33301 -7.33301 7.33301 -13 12 -17
c5.33301 -4 11 -7 17 -9c3.33301 -2 9.66602 -3.66699 18.999 -5c4.66699 -0.666992 14 -1 28 -1l27 1h23z" />
    <glyph glyph-name="backslash" unicode="\" horiz-adv-x="704" 
d="M644 -181h-86l-253 1559h81z" />
    <glyph glyph-name="bracketright" unicode="]" horiz-adv-x="405" 
d="M327 -334h-278.001l18 85h22l25 -1c28.667 0 52.334 5.33301 71.001 16c19.333 10.667 32.333 32.667 39 66l291 1362l-125 70l19 90h278z" />
    <glyph glyph-name="asciicircum" unicode="^" horiz-adv-x="792" 
d="M1007 1037h-31l-200 215l-290 -215h-35l293 331h110z" />
    <glyph glyph-name="underscore" unicode="_" horiz-adv-x="1003" 
d="M903 -456h-982l23 111h982z" />
    <glyph glyph-name="grave" unicode="`" horiz-adv-x="683" 
d="M898 1037l-39.999 -0.000976562l-297 206c-28 18 -42 39.333 -42 64c0 3.33301 1 11 3 23c2 10.667 8.66699 20.334 20 29.001c13.333 10 28.666 15 45.999 15c33.333 0 63.333 -18.333 90 -55z" />
    <glyph glyph-name="a" unicode="a" horiz-adv-x="993" 
d="M946 -3l-198.999 0.00195312l4 110c-68.667 -40.667 -133.334 -70.667 -194.001 -90c-32.667 -11.333 -63 -19.333 -91 -24c-30.667 -5.33301 -59.667 -8 -87 -8c-117.333 0 -195.333 45.333 -234 136c-11.333 28 -17 55.667 -17 83c0 19.333 2.33301 38.666 7 57.999
c5.33301 22 12.666 43.333 21.999 64c10.667 22.667 23.667 45.334 39 68.001c31.333 44.667 68.666 81.667 111.999 111c70.667 46 149.334 78 236.001 96c82 17.333 190.667 33.666 326 48.999c1.33301 8 2 14.667 2 20v15c0 30 -7 55.667 -21 77
c-15.333 27.333 -39.666 48 -72.999 62c-31.333 13.333 -68 20 -110 20c-36 0 -75 -6 -117 -18s-80 -29 -114 -51c-33.333 -24 -59.333 -48.667 -78 -74h-35l33 154c56 24.667 115.667 44.334 179 59.001c58.667 14 115 21 169 21c50 0 96 -5 138 -15
c43.333 -10 77 -23.333 101 -40c25.333 -17.333 44 -39.333 56 -66c11.333 -25.333 17 -57 17 -95c0 -29.333 -4.66699 -67.333 -14 -114l-104 -490c-2.66699 -8.66699 -4 -18.334 -4 -29.001c0 -14 3.33301 -25.667 10 -35c9.33301 -10.667 25.333 -18.334 48 -23.001z
M849.001 556.002c-100 -10 -179.669 -22.001 -239.002 -36.001s-117.666 -37.333 -174.999 -70c-33.333 -18 -64 -44.667 -92 -80c-13.333 -18 -23.666 -34.667 -30.999 -50c-8 -17.333 -14 -32.666 -18 -45.999c-3.33301 -12 -5 -26 -5 -42c0 -22.667 6 -43.667 18 -63
c30.667 -48.667 78 -73 142 -73c54 0 111 15 171 45c30.667 14.667 58.667 31 84 49c26.667 18.667 53 40 79 64z" />
    <glyph glyph-name="b" unicode="b" horiz-adv-x="1056" 
d="M1131 502c-12.667 -64 -40.334 -127.332 -83.001 -189.999c-43.333 -64 -94.666 -118.667 -153.999 -164c-61.333 -46.667 -126.666 -83.334 -195.999 -110.001c-72 -27.333 -143.333 -41 -214 -41h-408l7 33c27.333 5.33301 47.666 13.333 60.999 24
c14.667 12 25 33 31 63l238 1112c2.66699 11.333 4 24 4 38s-3 24.667 -9 32c-8.66699 10.667 -27 19 -55 25l6 30h225l-112 -527c122 58.667 235.667 88 341 88c52.667 0 103.334 -8.66699 152.001 -26c24 -9.33301 44.667 -20.333 62 -33s33.666 -28.667 48.999 -48
c30 -36 50 -82.667 60 -140c4 -22 6 -45 6 -69c0 -14 -1 -29.667 -3 -47c-1.33301 -13.333 -4 -30 -8 -50zM969 510.001c5.33301 28.667 8.00195 54.668 8.00195 78.001v16c-0.666992 3.33301 -1 6.66602 -1 9.99902c-1.33301 17.333 -4 34 -8 50
c-3.33301 13.333 -9 26.666 -17 39.999c-4.66699 12.667 -12.334 24.667 -23.001 36c-8.66699 10 -21 20.667 -37 32c-23.333 18.667 -56.666 31 -99.999 37l-49 3c-40.667 0 -86 -8.66699 -136 -26c-48 -16.667 -101.333 -42.667 -160 -78l-131 -616l103 -2
c41.333 0 68.666 0.666992 81.999 2c21.333 2 43.333 5.33301 66 10c18.667 4 42 10.333 70 19c20 6.66699 43 16.334 69 29.001c43.333 24 82.333 54 117 90c36 37.333 67 80.333 93 129c9.33301 18 19.666 41.667 30.999 71c11.333 28.667 19 52 23 70z" />
    <glyph glyph-name="c" unicode="c" horiz-adv-x="993" 
d="M1121 782l-167.003 -147.998l-25 23c17.333 21.333 28 41.666 32 60.999c1.33301 6.66699 2 11 2 13c0 35.333 -33 64.333 -99 87c-33.333 9.33301 -66.666 14 -99.999 14c-53.333 0 -104 -10 -152 -30c-49.333 -20.667 -93.666 -50.667 -132.999 -90
c-17.333 -16 -34 -35.667 -50 -59c-15.333 -21.333 -29.666 -47.333 -42.999 -78c-13.333 -28.667 -24.333 -60.667 -33 -96c-6 -28.667 -9 -56.667 -9 -84c0 -48.667 10 -93 30 -133c32.667 -62 78.667 -109.333 138 -142c28 -16.667 57.333 -29 88 -37
c30 -8 61 -12 93 -12c43.333 0 80.666 8 111.999 24s55.333 38 72 66h32l-36 -170c-60.667 -12 -121 -18 -181 -18c-89.333 0 -172.333 14.667 -249 44c-60.667 24.667 -112.334 61 -155.001 109s-72.667 102.667 -90 164c-9.33301 35.333 -14 69 -14 101
c0 14 1 29.333 3 46c1.33301 12.667 4 28.667 8 48c6 33.333 16.333 65.666 31 96.999c22.667 52 52.667 99 90 141c16 20 34.667 39 56 57c14.667 12.667 36.667 28.667 66 48c21.333 14 46.333 28 75 42c24.667 12 50.334 22 77.001 30c32.667 10 59.667 17 81 21
c28.667 5.33301 55.334 8 80.001 8h12l16 1c70.667 0 134 -13.333 190 -40c50 -22.667 100.667 -58.667 152 -108z" />
    <glyph glyph-name="d" unicode="d" horiz-adv-x="1113" 
d="M1041 -3h-193.997v118c-36 -27.333 -69 -49.333 -99 -66s-58.333 -30.334 -85 -41.001c-33.333 -10.667 -63.666 -18 -90.999 -22c-30 -4.66699 -62.667 -7 -98 -7c-26.667 0 -55.334 4.33301 -86.001 13c-27.333 8 -53.666 20 -78.999 36
c-48 28 -84.667 66.667 -110 116c-12.667 25.333 -21.334 51.333 -26.001 78c-5.33301 30 -8 59.333 -8 88c0 12 1.66699 29.667 5 53c0 2.66699 0.333008 5.83398 1 9.50098s1.66699 8.16699 3 13.5s2.33301 10 3 14c12.667 57.333 31.667 110.333 57 159
c28 52 62.333 100.333 103 145c25.333 26 47.666 47 66.999 63c25.333 20.667 49.666 38 72.999 52c76 42.667 155 70.334 237 83.001c49.333 8 94.666 13.333 135.999 16c52 3.33301 107 5 165 5l66 306c2.66699 11.333 4 23.666 4 36.999c0 12.667 -2.66699 23.667 -8 33
c-8.66699 10.667 -27 19 -55 25l6 30h227l-265 -1240c-1.33301 -5.33301 -2.33301 -11.333 -3 -18c-0.666992 -4.66699 -1 -10.334 -1 -17.001c0 -3.33301 1 -9.66602 3 -18.999c2 -10 8.33301 -17.333 19 -22c4 -1.33301 17.333 -5 40 -11zM994.003 823
c-43.333 0 -83.999 -1 -121.999 -3c-32 -2 -65 -4.66699 -99 -8c-58 -7.33301 -115.333 -25.333 -172 -54c-45.333 -24 -86.333 -54.667 -123 -92c-16 -16.667 -32.667 -36.667 -50 -60c-12.667 -16.667 -26.334 -38.667 -41.001 -66c-24 -44 -41 -90.333 -51 -139
c-6 -29.333 -9 -57 -9 -83c0 -49.333 10.333 -92.333 31 -129c18.667 -32 42.667 -56.333 72 -73c30.667 -17.333 66.667 -26 108 -26c36 0 66 2.66699 90 8c26.667 6 53 15 79 27c25.333 12 52 27.667 80 47c30 20.667 56.333 41.667 79 63z" />
    <glyph glyph-name="e" unicode="e" horiz-adv-x="940" 
d="M1031 477h-695.002c-6.66699 -34 -10 -68.333 -10 -103c0 -25.333 2 -48 6 -68c4 -21.333 10 -41.666 18 -60.999c24 -59.333 61 -103.333 111 -132c49.333 -28.667 104 -43 164 -43s114.333 12.667 163 38c50.667 26.667 87.334 60 110.001 100h32l-36 -172
c-118.667 -44 -226.667 -66 -324 -66c-67.333 0 -129 11 -185 33c-58 24 -104.667 59.667 -140 107c-36 48 -59.333 102.333 -70 163c-4 24.667 -6 49.667 -6 75c0 37.333 4 75.333 12 114c7.33301 31.333 12.333 51 15 59c4.66699 15.333 12.334 34.666 23.001 57.999
c30 66.667 71 127 123 181s111.333 96.333 178 127c66 30.667 132 46 198 46c42 0 82.667 -6 122 -18c62.667 -18.667 109.667 -50.334 141 -95.001c18.667 -26 32.667 -50.667 42 -74c10 -24.667 15 -52 15 -82c2 -21.333 3 -43.333 3 -66
c0 -41.333 -3.33301 -81.666 -10 -120.999zM887.998 566c4.66699 26 7.00195 53.334 7.00195 82.001c0 48 -10 87.667 -30 119c-14.667 21.333 -36.334 38.333 -65.001 51c-26.667 12 -61.334 18 -104.001 18c-45.333 0 -92.333 -12 -141 -36c-24 -12 -46 -26 -66 -42
s-38.333 -34.333 -55 -55c-17.333 -20 -31.333 -41 -42 -63c-11.333 -22.667 -20.333 -47.334 -27 -74.001h523z" />
    <glyph glyph-name="f" unicode="f" horiz-adv-x="616" 
d="M866 1190l-32 -0.000976562c-4 28.667 -17 51 -39 67c-24 20 -52.667 30 -86 30c-52.667 0 -92.334 -25 -119.001 -75c-14 -28.667 -27.333 -74 -40 -136l-18 -92l-17 -86h202l-21 -100h-202l-146 -681c-2 -10 -3 -18.667 -3 -26c0 -6.66699 0.666992 -13.334 2 -20.001
c0.666992 -2 3 -7.33301 7 -16c8.66699 -10 25.334 -18 50.001 -24l-8 -34h-297l7 33c27.333 4.66699 47.666 12.334 60.999 23.001c12.667 10 23 31.333 31 64l146 681h-99l21 100h99l16 79l11 59c7.33301 34.667 17 68.667 29 102c11.333 32.667 24.333 62 39 88
c28 50 71 89 129 117c46.667 23.333 96 35 148 35c25.333 0 51 -2.33301 77 -7c28.667 -5.33301 57.334 -12.666 86.001 -21.999z" />
    <glyph glyph-name="g" unicode="g" horiz-adv-x="1027" 
d="M1228 872c-14 -3.33301 -26.667 -7.33203 -38 -11.999c-10.667 -4 -19 -8.66699 -25 -14c-12.667 -10 -23.667 -33 -33 -69l-131 -614c-8.66699 -45.333 -13.334 -70.666 -14.001 -75.999c-6 -32 -12.667 -60.333 -20 -85c0 -9.33301 -2.66699 -25.333 -8 -48
c-1.33301 -6.66699 -3.66602 -16.5 -6.99902 -29.5s-5.66602 -22.5 -6.99902 -28.5c-12 -46.667 -22.667 -80 -32 -100c-12.667 -26.667 -35 -55.334 -67 -86.001c-24.667 -24 -52.334 -43.333 -83.001 -58c-21.333 -10 -55.333 -22.667 -102 -38
c-42.667 -12.667 -84.334 -22.667 -125.001 -30c-38 -6.66699 -80.333 -10 -127 -10c-22.667 0 -46 0.666992 -70 2c-14 0.666992 -34.667 4 -62 10c-108 24 -196.667 80.333 -266 169l187 136l19 -21c-20.667 -26.667 -32 -45 -34 -55s-3 -17 -3 -21
c0 -14.667 6.66699 -29.667 20 -45c51.333 -47.333 130 -71 236 -71c18 0 31.667 0.333008 41 1c18.667 1.33301 32.667 2.66602 42 3.99902c56 9.33301 95.333 18 118 26c34.667 11.333 65 27.666 91 48.999c28 22.667 47.333 52.334 58 89.001
c8 31.333 15 60.666 21 87.999c0.666992 2.66699 2.83398 12.334 6.50098 29.001s6.83398 32 9.50098 46c10.667 55.333 18 95 22 119c-32.667 -26 -63.667 -47.667 -93 -65c-29.333 -18 -59 -32 -89 -42c-34 -12 -63 -20 -87 -24c-30 -5.33301 -58.333 -8 -85 -8
c-79.333 0 -149 20 -209 60c-60.667 40 -98.334 95.333 -113.001 166c-6 30 -9 59.333 -9 88c0 31.333 3 63 9 95c8.66699 43.333 24 87 46 131c20 39.333 47.667 79 83 119c69.333 77.333 151 138.333 245 183c96.667 46 193.667 69 291 69h401zM989 804.001
c-44.667 4 -80.667 6 -108 6c-125.333 0 -231.333 -27.333 -318 -82c-54.667 -32.667 -103 -80.667 -145 -144c-40 -60.667 -68 -126 -84 -196c-6.66699 -27.333 -10 -55.333 -10 -84c0 -24.667 2.33301 -46 7 -64c10 -44 32.333 -79.667 67 -107
c37.333 -27.333 85 -41 143 -41c60.667 0 116.334 12 167.001 36c27.333 14 52.666 29.333 75.999 46c30.667 22 58 43 82 63z" />
    <glyph glyph-name="h" unicode="h" horiz-adv-x="1073" 
d="M1044 -3l-295 0.000976562l7 33c25.333 4.66699 45.666 12.667 60.999 24c15.333 14.667 26.333 35.667 33 63l79 371l10 47c8 39.333 12.333 61.666 13 66.999c2.66699 18 4 35.667 4 53c0 22 -1.33301 38.667 -4 50c-2.66699 12 -9 25.667 -19 41
c-14 26.667 -43 46.334 -87 59.001c-16.667 4.66699 -29.334 7.66699 -38.001 9c-11.333 2 -23.666 3 -36.999 3c-44 0 -91.667 -11.667 -143 -35c-50 -22.667 -109.667 -59.334 -179 -110.001l-119 -555c-2.66699 -11.333 -4 -24 -4 -38c0 -8 0.666992 -14.333 2 -19
c2 -7.33301 8.66699 -13.666 20 -18.999l35 -11l-7 -33h-289l7 33c24.667 4.66699 44.667 13.334 60 26.001c14.667 12 25 32.333 31 61l238 1112c3.33301 14.667 5 22.667 5 24v16c0 12.667 -2.66699 22.667 -8 30c-2.66699 6 -8.66699 11 -18 15
c-8 3.33301 -20.667 6.66602 -38 9.99902l6 30h224l-121 -566c72.667 48.667 138.334 84 197.001 106c27.333 10 56 18 86 24c28.667 6 56 9 82 9c57.333 0 112.333 -14 165 -42c69.333 -37.333 104 -102.666 104 -195.999c0 -16 -1 -33 -3 -51
c-2 -20 -5.33301 -39.333 -10 -58l-99 -463c-3.33301 -16.667 -5 -28.667 -5 -36v-9c0 -1.33301 0.333008 -2.33301 1 -3s1 -1.33398 1 -2.00098c3.33301 -12.667 10.333 -21.334 21 -26.001l38 -11z" />
    <glyph glyph-name="i" unicode="i" horiz-adv-x="438" 
d="M590 1183c-2.66699 -10.667 -8.66797 -24 -18.001 -40c-12 -21.333 -28.333 -37.333 -49 -48c-21.333 -11.333 -43 -17 -65 -17c-29.333 0 -54.333 10 -75 30c-14 14 -21 31 -21 51c0 9.33301 1.33301 20.333 4 33c2.66699 14 10.667 29 24 45c6 6 14 13 24 21
c10.667 8.66699 19.334 15 26.001 19c20 8 39.333 12 58 12l22 -1c26 -6 45.333 -19.333 58 -40c9.33301 -12.667 14 -27 14 -43c0 -8 -0.666992 -15.333 -2 -22zM396.999 -3l-328 -0.000976562l8 34c30 4 51.667 11 65 21c16 10 28 31.667 36 65l142 665
c2.66699 13.333 4 23 4 29c0 12.667 -4.66699 24.334 -14 35.001c-8.66699 10 -27 17.333 -55 22l7 31h245l-167 -782c-2.66699 -10 -4 -20.667 -4 -32c0 -14.667 3.33301 -25.667 10 -33c4 -3.33301 11.333 -7.33301 22 -12c8.66699 -4 21 -7 37 -9z" />
    <glyph glyph-name="j" unicode="j" horiz-adv-x="513" 
d="M699 1192c-1.33301 -6.66699 -3.66699 -13.999 -7 -21.999c-2.66699 -6.66699 -7 -14.667 -13 -24c-14 -20 -31 -35.333 -51 -46c-5.33301 -2.66699 -15.333 -6.33398 -30 -11.001c-8 -2.66699 -18.333 -4 -31 -4c-30 0 -54.667 9.66699 -74 29
c-13.333 15.333 -20 33 -20 53l2 22c7.33301 34 22.333 59 45 75c24 16.667 50.333 25 79 25c16.667 0 31.667 -2 45 -6c12.667 -4 24 -11 34 -21c14.667 -14.667 22 -33 22 -55c0 -8 -0.333008 -13 -1 -15zM399.999 -89.999
c-9.33301 -40.667 -17.999 -72.6709 -25.999 -96.0039c-10 -29.333 -21.667 -55.666 -35 -78.999c-22.667 -45.333 -59.667 -82.666 -111 -111.999c-57.333 -32 -119.666 -48 -186.999 -48c-48.667 0 -92 8.33301 -130 25l33 156h37c0 -52 29 -78 87 -78
c52.667 0 91.334 18.333 116.001 55c11.333 18.667 20.666 38.334 27.999 59.001c9.33301 25.333 17.333 53.333 24 84l192 901c2.66699 11.333 4 23.333 4 36c0 14 -2.66699 24.333 -8 31c-4.66699 6 -11.334 11 -20.001 15
c-8.66699 4.66699 -21.334 8.33398 -38.001 11.001l6 30h238l-195 -915l-7 -34z" />
    <glyph glyph-name="k" unicode="k" horiz-adv-x="1024" 
d="M1009 -3h-325l7 32c5.33301 0 11 1 17 3c2 0.666992 9.66699 3 23 7c20.667 8.66699 33 20.667 37 36c2 7.33301 1 15 -3 23l-190 413l-188 -127l-57 -267c-2.66699 -11.333 -4 -23.333 -4 -36c0 -11.333 2 -20 6 -26c4.66699 -11.333 19.334 -19.666 44.001 -24.999
l-7 -33h-282l7 33c22.667 5.33301 41.667 13.333 57 24c16.667 14 28 35 34 63l238 1112c3.33301 18.667 5 31.667 5 39c0 13.333 -3 23.666 -9 30.999c-8.66699 10.667 -27 19 -55 25l6 30h224l-184 -863l446 307c10.667 9.33301 17 18 19 26
c2 8.66699 1.66699 15.334 -1 20.001c-3.33301 6 -9.33301 10.667 -18 14c-12.667 5.33301 -23.334 8.66602 -32.001 9.99902l7 30h324l-6 -29c-10.667 -0.666992 -19 -2.33398 -25 -5.00098l-15 -6c-4.66699 -2 -10.667 -5 -18 -9l-28 -18l-369 -241l252 -497
c14 -29.333 37.667 -49.666 71 -60.999z" />
    <glyph glyph-name="l" unicode="l" horiz-adv-x="449" 
d="M397 -3h-324l7 33c16 2.66699 31 6.33398 45 11.001c2 0.666992 4 1.5 6 2.5s3.5 2 4.5 3s1.83301 1.5 2.5 1.5c8.66699 6 16 13.333 22 22c7.33301 11.333 13.333 27 18 47l239 1119c2 10.667 3 20.334 3 29.001c0 15.333 -3.33301 26.666 -10 33.999
c-11.333 9.33301 -29 17.333 -53 24l6 31h241l-264 -1237c-2.66699 -11.333 -4 -23 -4 -35c0 -8 0.333008 -13 1 -15c5.33301 -12.667 13.333 -21.334 24 -26.001l43 -11z" />
    <glyph glyph-name="m" unicode="m" horiz-adv-x="1745" 
d="M1664 -3l-286.998 -0.00195312l8 34c26 4 45.667 11.667 59 23c12.667 10.667 23 32 31 64l101 470c2.66699 10.667 4.66699 23.334 6 38.001c1.33301 18.667 2 31 2 37v18c-1.33301 10.667 -2 16.334 -2 17.001c-2.66699 32 -17.667 59.667 -45 83
c-34 26 -75.333 39 -124 39c-62 0 -128.333 -20.333 -199 -61c-20.667 -12 -47.334 -32.333 -80.001 -61c-30.667 -26.667 -48 -50.334 -52 -71.001l-109 -509c-2 -10.667 -3 -20.667 -3 -30c0 -12 2.66699 -23.333 8 -34c4.66699 -9.33301 18.667 -16.666 42 -21.999
l-8 -35h-276l8 34c19.333 2.66699 36.666 10.667 51.999 24c13.333 15.333 23.333 36.333 30 63l101 470c6 26.667 9 51.667 9 75c0 106 -56.333 159 -169 159c-53.333 0 -104.333 -12.333 -153 -37c-40.667 -22.667 -66 -37 -76 -43c-20 -12.667 -49.667 -32.667 -89 -60
l-121 -564c-2 -11.333 -3 -21 -3 -29c0 -13.333 2.66699 -24.666 8 -33.999c8 -10 24.333 -17.667 49 -23l-8 -35h-287l8 34c24 4 43.333 11.667 58 23c14.667 14 25 35.333 31 64l142 662c0.666992 2.66699 1.5 6.16699 2.5 10.5s1.5 6.83301 1.5 7.5
c0.666992 3.33301 1 10 1 20c0 12 -2.66699 21.667 -8 29c-5.33301 10 -23.666 18.667 -54.999 26l6 32h222l-19 -116c20.667 16 43 31.667 67 47c19.333 12.667 39 23.667 59 33c36 17.333 73.333 31 112 41c39.333 10 76.333 15 111 15
c61.333 0 112.666 -13.333 153.999 -40c42.667 -27.333 76.334 -69 101.001 -125c138.667 111.333 266 167 382 167c39.333 0 76.333 -5 111 -15c59.333 -16 104 -49.333 134 -100c18.667 -34.667 28 -73 28 -115c0 -15.333 -0.333008 -25.333 -1 -30
c-0.666992 -7.33301 -2.66699 -18.333 -6 -33l-110 -516c-2 -12 -3 -22.333 -3 -31c0 -14.667 2.33301 -25.334 7 -32.001c9.33301 -10 25.666 -17.667 48.999 -23z" />
    <glyph glyph-name="n" unicode="n" horiz-adv-x="1104" 
d="M1055 -3l-288.001 0.000976562l8 34c20.667 4 38.334 11.667 53.001 23c14 11.333 25 32.666 33 63.999l86 402c12 54 18 101 18 141c0 24.667 -3 49.667 -9 75c-6 24.667 -21.333 45.334 -46 62.001c-24 16 -55.333 24 -94 24l-31 2
c-26.667 0 -52.334 -3.33301 -77.001 -10c-26 -6.66699 -51.333 -16.334 -76 -29.001c-27.333 -14 -54 -29 -80 -45c-32.667 -21.333 -63 -42 -91 -62l-120 -560c-2.66699 -11.333 -4 -24 -4 -38c0 -5.33301 1 -12 3 -20s8.33301 -14.333 19 -19
c4.66699 -2 11.667 -4.33301 21 -7c2.66699 -0.666992 5.66699 -1.33398 9 -2.00098s5.33301 -1 6 -1l-8 -34h-289l8 34c23.333 4 43 12.333 59 25c14.667 11.333 25 32 31 62l142 662c3.33301 16.667 5 29 5 37c0 14 -3 24 -9 30c-7.33301 11.333 -25.666 20 -54.999 26
l6 31h224l-24 -111c30.667 21.333 65 42.333 103 63c30.667 16.667 61.667 31 93 43c27.333 10 56.333 18.333 87 25c28.667 6 56 9 82 9c58.667 0 113.667 -14 165 -42c69.333 -37.333 104 -103 104 -197c0 -36 -4.33301 -72.667 -13 -110l-100 -466
c-3.33301 -16.667 -5 -28.667 -5 -36c0 -5.33301 1 -10 3 -14c2 -12 8.66699 -21 20 -27c8 -3.33301 21 -6.66602 39 -9.99902z" />
    <glyph glyph-name="o" unicode="o" horiz-adv-x="1050" 
d="M1103 452c-6.66699 -31.333 -16.665 -62.668 -29.998 -94.001c-12.667 -30 -28.334 -60.667 -47.001 -92c-18 -30 -38 -58 -60 -84c-22.667 -27.333 -47.334 -52.666 -74.001 -75.999c-54 -46.667 -113 -83.334 -177 -110.001c-66 -27.333 -131.667 -41 -197 -41
c-66.667 0 -126.667 13.667 -180 41c-52.667 26.667 -95.667 63.334 -129 110.001c-34 47.333 -57.333 100.666 -70 159.999c-5.33301 33.333 -8 62.333 -8 87c0 15.333 1 31.333 3 48c1.33301 11.333 4 28.333 8 51c12.667 61.333 38 122.333 76 183
c36 57.333 81 110 135 158c24.667 20.667 52 40.334 82 59.001c28 17.333 58.667 33.333 92 48c61.333 26.667 126.333 40 195 40c62.667 0 122 -12.667 178 -38c24 -10.667 48 -25.334 72 -44.001c21.333 -16.667 42 -37.667 62 -63c36 -44.667 60 -96.667 72 -156
c2.66699 -11.333 4.66699 -24.333 6 -39c1.33301 -20 2 -35 2 -45c0 -15.333 -0.666992 -32.333 -2 -51c-0.666992 -13.333 -3.66699 -30.666 -9 -51.999zM956.002 460.998c4 20.667 6.99805 42.667 8.99805 66s3 44.666 3 63.999s-2.33301 38 -7 56
c-5.33301 20 -11.666 38.333 -18.999 55c-14 33.333 -35 62 -63 86s-62.333 40 -103 48c-16.667 2.66699 -30 4.33398 -40 5.00098c-17.333 1.33301 -29 2 -35 2c-102 0 -188.333 -37.333 -259 -112c-34.667 -36.667 -63.667 -78.334 -87 -125.001
c-23.333 -46 -41.333 -97.333 -54 -154c-8.66699 -39.333 -13 -79.666 -13 -120.999c0 -16.667 0.333008 -29 1 -37c1.33301 -16 2.66602 -28 3.99902 -36c8 -58 32.667 -105.667 74 -143s99.333 -56 174 -56c64.667 0 127.667 19 189 57
c28.667 19.333 55.334 41.333 80.001 66c20.667 20.667 42 48.667 64 84c20.667 33.333 37.334 65.333 50.001 96c14 35.333 24.667 68.333 32 99z" />
    <glyph glyph-name="p" unicode="p" horiz-adv-x="1056" 
d="M1131 516c-4 -17.333 -10.333 -40.6709 -19 -70.0039c-6.66699 -22 -16 -43.667 -28 -65c-22.667 -48 -47 -88 -73 -120c-31.333 -38.667 -66 -73 -104 -103c-42 -33.333 -83.333 -60.666 -124 -81.999c-30 -15.333 -59.667 -28 -89 -38c-24 -8 -56.333 -15 -97 -21
c-63.333 -9.33301 -137.666 -14 -222.999 -14h-82l-67 -310c-2.66699 -11.333 -4 -24 -4 -38c0 -6 0.333008 -9.66699 1 -11c3.33301 -13.333 10 -22.666 20 -27.999c0.666992 -0.666992 6.66699 -3 18 -7l21 -7l-6 -30h-292l6 31c27.333 6 47.333 14.333 60 25
s23 32.334 31 65.001l233 1088c3.33301 16.667 5 29 5 37c0 14 -3 24 -9 30c-6.66699 10.667 -25 19 -55 25l6 32h224l-23 -110l56 36c28 17.333 53.333 31.333 76 42c38.667 20 75 34.667 109 44c20.667 5.33301 39 9.33301 55 12c15.333 2.66699 34.333 4 57 4
c18 0 38.667 -1.66699 62 -5c18.667 -2.66699 40 -8 64 -16c22 -7.33301 42.333 -17.333 61 -30c20 -11.333 37 -24.666 51 -39.999c13.333 -14.667 26.666 -32 39.999 -52c23.333 -36.667 38 -78.667 44 -126c0 -3.33301 0.166992 -8 0.5 -14s0.833008 -10.667 1.5 -14
c1.33301 -12 2 -22.667 2 -32c0 -28 -3 -57.333 -9 -88zM971 513.995c3.33301 10 5.33398 21.999 6.00098 35.999c1.33301 18.667 2 31.334 2 38.001c0 38.667 -6 72.334 -18 101.001c-12.667 31.333 -28.334 55.666 -47.001 72.999c-18.667 18 -43.334 32.667 -74.001 44
c-28 10.667 -57 16 -87 16c-88 0 -193.333 -46.667 -316 -140l-124 -578c44.667 -4 81.667 -6 111 -6c106 0 199.333 19.667 280 59c18.667 10 39 23 61 39c18.667 13.333 38.667 30.666 60 51.999c37.333 38.667 68.333 81.334 93 128.001
c24.667 47.333 42.334 93.333 53.001 138z" />
    <glyph glyph-name="q" unicode="q" 
d="M937 -428l-299.001 0.000976562l6 31c29.333 7.33301 51.333 15.333 66 24c6.66699 4.66699 13.334 13 20.001 25c6 11.333 11 25 15 41l86 402c-37.333 -24 -69 -41.333 -95 -52c-19.333 -8.66699 -48.333 -19.334 -87 -32.001c-25.333 -6.66699 -53 -12.667 -83 -18
c-27.333 -4.66699 -54 -7 -80 -7c-90.667 0 -167.667 24 -231 72c-30.667 24.667 -54.667 55.334 -72 92.001s-26 77 -26 121c0 35.333 0.333008 58 1 68c1.33301 16 4.33301 35.333 9 58c14.667 72 45.667 143.667 93 215c46 69.333 103.333 127.333 172 174
c32 22.667 65.667 41.667 101 57c36 15.333 73.333 27.666 112 36.999c79.333 16.667 164.333 25 255 25h321l-6 -31c-29.333 -7.33301 -49.333 -15.666 -60 -24.999c-6.66699 -4.66699 -12.667 -12.334 -18 -23.001c-6 -12 -10.667 -24.667 -14 -38l-234 -1095
c-1.33301 -8 -2.33301 -13.667 -3 -17s-1 -8.66602 -1 -15.999c0 -6.66699 1 -12.334 3 -17.001c2 -13.333 8.33301 -22.333 19 -27l36 -14zM855.999 211.001l127.998 596.999c-11.333 1.33301 -27.666 2.33301 -48.999 3c-29.333 1.33301 -48.666 2 -57.999 2
c-124.667 0 -230.667 -27 -318 -81c-28.667 -18 -55.334 -38.667 -80.001 -62c-22 -20.667 -44.333 -48 -67 -82c-40.667 -59.333 -68 -121.666 -82 -186.999c-6 -28 -9 -55 -9 -81c0 -48 11 -91.333 33 -130c30.667 -58 88.334 -91.667 173.001 -101l11 -1h10
c44 0 91 10 141 30c54 21.333 109.667 52.333 167 93z" />
    <glyph glyph-name="r" unicode="r" horiz-adv-x="685" 
d="M785 726l-30.001 -0.00292969c-7.33301 25.333 -21.333 45.333 -42 60c-21.333 15.333 -46.666 23 -75.999 23c-21.333 0 -41 -3 -59 -9c-19.333 -6.66699 -38 -16 -56 -28c-34.667 -26 -56.667 -59 -66 -99l-118 -551c-3.33301 -18.667 -5 -31.667 -5 -39
c0 -13.333 2.66699 -23.666 8 -30.999c8.66699 -10 28 -17 58 -21l-8 -34h-304l8 34c20.667 2.66699 39.667 10.334 57 23.001c18 16.667 29.333 38 34 64l143 669c2.66699 8.66699 4 18.334 4 29.001c0 13.333 -3 23.666 -9 30.999
c-2.66699 4.66699 -8.33398 9.33398 -17.001 14.001c-9.33301 5.33301 -20 9.33301 -32 12l6 32h206l-18 -85c44 35.333 86.333 61.333 127 78c38.667 16 76.667 24 114 24c34.667 0 72.334 -7 113.001 -21z" />
    <glyph glyph-name="s" unicode="s" horiz-adv-x="897" 
d="M906 262c-7.33301 -36 -21 -69.3271 -41 -99.9941c-26.667 -44.667 -61.667 -81.334 -105 -110.001c-42 -27.333 -90 -47.666 -144 -60.999c-51.333 -12.667 -103.333 -19 -156 -19c-50 0 -90 2.66699 -120 8c-32.667 6 -63.334 15 -92.001 27
c-27.333 11.333 -53.333 27 -78 47c-24.667 19.333 -48 43 -70 71l175 142l19 -25c-14.667 -18.667 -24 -35 -28 -49c-1.33301 -9.33301 -2 -14.666 -2 -15.999c0 -34 24 -59.333 72 -76c26 -9.33301 53.333 -16.333 82 -21c30.667 -5.33301 59.334 -8 86.001 -8h18
c13.333 1.33301 23.333 2.66602 30 3.99902c47.333 9.33301 90 27 128 53c36.667 26 60.667 59.667 72 101c2 8 3 15.333 3 22v10v9v7v7c0.666992 2 1 4.33301 1 7c-6 38.667 -56.667 72 -152 100l-68 20c-17.333 4 -30 7.33301 -38 10c-18 6 -33.333 11.333 -46 16
c-32 9.33301 -59 19.666 -81 30.999c-11.333 7.33301 -21 13.666 -29 18.999c-5.33301 3.33301 -14 10.666 -26 21.999c-33.333 31.333 -50 71 -50 119c0 11.333 1.66699 28 5 50c12 56.667 41 104.334 87 143.001c81.333 74.667 181.666 112 300.999 112
c64 0 124.667 -11.333 182 -34c58 -22.667 106 -51.667 144 -87l-150 -148l-24 24c6.66699 6.66699 12.334 14 17.001 22s7.33398 14.333 8.00098 19c1.33301 8 2 13.667 2 17c0 20 -10 37 -30 51c-19.333 13.333 -46.666 24.666 -81.999 33.999c-18 3.33301 -34 6 -48 8
c-16 2 -32.667 3 -50 3c-54 0 -101.333 -13.667 -142 -41c-22 -13.333 -38.333 -27.333 -49 -42c-12 -16 -20 -33 -24 -51c-1.33301 -10.667 -2 -16.334 -2 -17.001c0 -18.667 7 -37.334 21 -56.001c14.667 -20 39.667 -36.667 75 -50l16 -6
c5.33301 -2 9.66602 -3.5 12.999 -4.5s5.66602 -1.83301 6.99902 -2.5c22 -7.33301 39.667 -12.666 53 -15.999l104 -28c29.333 -8.66699 56 -19 80 -31c14 -6.66699 26.667 -13.667 38 -21c7.33301 -4.66699 19 -13.334 35 -26.001c26 -20.667 43.333 -47.667 52 -81
c4.66699 -14.667 7 -32 7 -52c0 -18.667 -2 -37.334 -6 -56.001z" />
    <glyph glyph-name="t" unicode="t" horiz-adv-x="619" 
d="M577 1c-62.667 -16.667 -124 -25.001 -184 -25.001c-128.667 0 -193 49 -193 147c0 22 2.33301 42.667 7 62l131 617h-128l22 101h128l53 249l155 38l-61 -287h219l-22 -101h-219l-132 -620c-2 -10 -3 -19.333 -3 -28c0 -23.333 6.66699 -41.666 20 -54.999
c17.333 -19.333 41.333 -29 72 -29c27.333 0 53.333 7.66699 78 23c24 14.667 43.667 36 59 64h32z" />
    <glyph glyph-name="u" unicode="u" horiz-adv-x="1038" 
d="M1009 -2h-224.001l23 110c-70.667 -48 -134 -82.333 -190 -103c-58 -21.333 -113.667 -32 -167 -32c-31.333 0 -61.666 3.33301 -90.999 10c-122 24 -183 99.333 -183 226c0 16.667 1 34 3 52c2 20.667 5.33301 40.667 10 60l99 466c2.66699 13.333 4 23 4 29
c0 14.667 -3.33301 25.667 -10 33c-7.33301 10 -24.333 18 -51 24l6 32h221l-108 -506l-7 -36c-6.66699 -24.667 -11 -47.667 -13 -69c-2.66699 -23.333 -4 -35.666 -4 -36.999c-0.666992 -4 -1 -9.66699 -1 -17c0 -12 1.33301 -26 4 -42c2.66699 -18 10.667 -36 24 -54
c4.66699 -6.66699 12 -14 22 -22c12 -10 23.667 -17.667 35 -23c30 -14 62 -21 96 -21c47.333 0 99 13 155 39c30.667 15.333 57.667 30.333 81 45c30.667 19.333 60.667 39.666 90 60.999l120 564c2.66699 10 4 21 4 33c0 13.333 -3 23 -9 29
c-6.66699 10 -23.667 18 -51 24l6 32h220l-167 -783c-3.33301 -16.667 -5 -29 -5 -37c0 -6.66699 1 -12 3 -16c2 -11.333 9 -20.666 21 -27.999c2 -0.666992 5.33301 -1.5 10 -2.5s8 -1.83301 10 -2.5c9.33301 -2.66699 16.333 -4.33398 21 -5.00098z" />
    <glyph glyph-name="v" unicode="v" horiz-adv-x="919" 
d="M1092 875c-17.333 -2 -32.334 -8.33398 -45.001 -19.001c-2 -2 -8.66699 -9.33301 -20 -22c-3.33301 -4 -10.666 -13.667 -21.999 -29l-491 -812h-111l-143 805c-4 14 -7.66699 24.667 -11 32c-4.66699 11.333 -9 19 -13 23c-7.33301 9.33301 -20 16 -38 20l6 32h274
l-6 -30c-34.667 0 -54.667 -14.667 -60 -44c-1.33301 -10.667 -2 -16.334 -2 -17.001c0 -4.66699 0.333008 -7.66699 1 -9l108 -622l361 603c4 6.66699 7 12.334 9 17.001l5 15c1.33301 4 2 8.33301 2 13c0 12.667 -5.33301 23.334 -16 32.001c-5.33301 4 -11.333 7 -18 9
c-4.66699 1.33301 -12.667 2 -24 2l6 31h254z" />
    <glyph glyph-name="w" unicode="w" horiz-adv-x="1348" 
d="M1532 874c-34.667 -2.66699 -63.333 -26 -86 -70l-469 -811h-114l-76 520l-304 -520h-108l-130 805c-2.66699 10.667 -6.33398 22 -11.001 34c-2.66699 8 -6.66699 15 -12 21c-7.33301 9.33301 -20.333 16 -39 20l6 32h270l-6 -30c-17.333 0 -31 -4 -41 -12
c-10.667 -8.66699 -17 -17.667 -19 -27c-2 -10 -3 -17 -3 -21c0 -0.666992 0.666992 -4.33398 2 -11.001l98 -607l269 454c-5.33301 7.33301 -8 32 -8 74c0 20.667 -1.66699 38.667 -5 54c-3.33301 16.667 -8.66602 35.667 -15.999 57c-8 23.333 -23.667 36 -47 38l6 31h255
l-6 -30c-31.333 -3.33301 -49.333 -17.666 -54 -42.999c-2 -7.33301 -2.33301 -15.333 -1 -24l99 -603l339 582c5.33301 8 9 16.667 11 26c2 8.66699 3 14.667 3 18c0 12.667 -5.33301 23 -16 31c-11.333 8 -25.333 12 -42 12l6 31h255z" />
    <glyph glyph-name="x" unicode="x" horiz-adv-x="919" 
d="M904 -3l-310.998 0.00195312l7 33c21.333 0 37.666 3.33301 48.999 10c12 7.33301 19.667 17 23 29c0.666992 8.66699 -0.333008 16.334 -3 23.001l-150 311l-269 -308c-4.66699 -4.66699 -8.66699 -11.334 -12 -20.001c-3.33301 -15.333 2 -27.333 16 -36
c12.667 -5.33301 24.334 -8 35.001 -8l-8 -34h-275l8 34c33.333 5.33301 62 20.333 86 45l378 413l-167 336c-16 27.333 -40.667 43.666 -74 48.999l6 31h315l-6 -30c-12 -2 -24 -5.66699 -36 -11c-14 -6 -23 -15.667 -27 -29c-1.33301 -10.667 0 -19.334 4 -26.001
l117 -238l202 224c5.33301 6.66699 8.66602 10.667 9.99902 12c6 8 9.33301 15 10 21c4.66699 24 -10 39.333 -44 46l6 31h267l-6 -30c-16.667 0 -33.334 -5 -50.001 -15c-17.333 -10 -34 -24 -50 -42l-302 -337l192 -398c16.667 -30.667 39 -48 67 -52z" />
    <glyph glyph-name="y" unicode="y" horiz-adv-x="940" 
d="M1130 874c-33.333 -8.66699 -61.666 -32.6699 -84.999 -72.0029l-553 -928c-28 -46 -59 -88.667 -93 -128c-31.333 -36 -66.666 -68.333 -105.999 -97c-73.333 -52 -152 -78 -236 -78c-31.333 0 -61.333 3 -90 9l37 173h31c0 -52 26 -78 78 -78
c35.333 0 75.666 14 120.999 42c12.667 9.33301 24 18.333 34 27c9.33301 8 22.666 21 39.999 39c26 28 50 58.667 72 92c14.667 22.667 24 38.334 28 47.001c5.33301 10.667 10 24.667 14 42c2.66699 10.667 4 21.334 4 32.001c0 6 -0.333008 10 -1 12l-155 794
c-7.33301 25.333 -15 42.666 -23 51.999c-6 8.66699 -16.667 15.667 -32 21l6 30h271l-6 -30c-31.333 -7.33301 -49.333 -22.666 -54 -45.999c-0.666992 -1.33301 -1 -5.66602 -1 -12.999c0 -6 0.333008 -10 1 -12l120 -648l371 633l10 25c0.666992 2 1 6.66699 1 14
c0 23.333 -15.333 39 -46 47l6 30h242z" />
    <glyph glyph-name="z" unicode="z" horiz-adv-x="779" 
d="M738 -3h-697.001l22 103l645 718h-320c-15.333 0 -28.666 -2 -39.999 -6s-22 -11.667 -32 -23c-16 -16 -30.333 -37 -43 -63h-33l38 179h614l-20 -94l-643 -714h353c80.667 0 137 37 169 111h32z" />
    <glyph glyph-name="braceleft" unicode="{" horiz-adv-x="834" 
d="M778 -230c-45.333 0 -84.667 2.00195 -118 6.00195c-28 3.33301 -58 10.333 -90 21c-47.333 17.333 -78.333 47.666 -93 90.999c-6.66699 18 -10 42.333 -10 73c0 36 5 78.333 15 127l43 204c10 44 15 81.667 15 113c0 5.33301 -0.666992 14 -2 26
c-1.33301 11.333 -3 19.666 -5 24.999c-8 40 -31.333 68.333 -70 85c-15.333 7.33301 -36.333 14.666 -63 21.999c-19.333 5.33301 -49 11 -89 17l9 41c70 8.66699 126.333 21 169 37c21.333 8.66699 41 19.667 59 33s33.667 30.333 47 51c24 36 44.667 91.667 62 167
l44 204c18 89.333 44.333 156 79 200c35.333 45.333 79 76 131 92c28.667 8 62.334 15 101.001 21c34 5.33301 74.333 8 121 8l-6 -29c-36.667 0 -68 -3.33301 -94 -10c-29.333 -8 -54.666 -17.333 -75.999 -28c-40.667 -20.667 -69.667 -51 -87 -91
c-17.333 -38.667 -34.333 -95.667 -51 -171l-7 -34l-17 -81c-8.66699 -42 -17.667 -78.333 -27 -109c-10.667 -36 -20.334 -63.667 -29.001 -83c-20 -44 -52.667 -81.667 -98 -113c-46 -32 -113.333 -57.333 -202 -76l-4 -20c33.333 -7.33301 60 -15 80 -23
c19.333 -7.33301 39.666 -17.666 60.999 -30.999c16 -10 29.667 -21.667 41 -35c10.667 -13.333 18.334 -27 23.001 -41c6 -12.667 9.33301 -26.667 10 -42c1.33301 -22.667 2 -41.667 2 -57c0 -24 -3.33301 -52.667 -10 -86l-15 -66l-17 -82l-7 -33
c-8.66699 -37.333 -14.334 -69 -17.001 -95c-3.33301 -31.333 -5 -55.333 -5 -72c0 -39.333 16.333 -70 49 -92c18 -10 39.333 -18 64 -24c28 -6.66699 58 -10 90 -10z" />
    <glyph glyph-name="bar" unicode="|" horiz-adv-x="468" 
d="M208 -429h-123l32 149l382 1786h123l-32 -149z" />
    <glyph glyph-name="braceright" unicode="}" horiz-adv-x="834" 
d="M955 580c-38.667 -4.66699 -70.9961 -10.002 -96.9961 -16.002c-32.667 -8 -57.667 -15.667 -75 -23c-44.667 -16 -81 -44.333 -109 -85c-24 -36.667 -44.333 -91.334 -61 -164.001l-43 -204c-18.667 -88.667 -45.334 -155.667 -80.001 -201
c-17.333 -22 -36.333 -39.667 -57 -53c-23.333 -15.333 -48.333 -27.666 -75 -36.999c-27.333 -7.33301 -60 -13.666 -98 -18.999c-39.333 -5.33301 -80 -8 -122 -8l6 29c36 0 67 3 93 9c30.667 7.33301 55.334 15.333 74.001 24c42 21.333 71.667 51 89 89
c17.333 36.667 33 89.334 47 158.001l10 47l17 82c13.333 59.333 26.666 109.666 39.999 150.999c8 22.667 15.333 40.334 22 53.001c6.66699 12 18 27.333 34 46c11.333 16 24.666 30 39.999 42c13.333 10.667 32 22.334 56 35.001c45.333 20.667 100.333 38.667 165 54
l4 20c-79.333 19.333 -136.333 45.333 -171 78c-32 30.667 -48 68 -48 112c0 42.667 8.66699 106.334 26 191.001l17 81l10 48c8 38 13.333 69 16 93c3.33301 31.333 5 54 5 68c0 38 -16.667 67.667 -50 89c-17.333 10 -39 18.667 -65 26c-24 6.66699 -53.333 10 -88 10
l6 29c41.333 0 79.666 -2.66699 114.999 -8c33.333 -5.33301 64.333 -12.333 93 -21c46 -16 76.667 -47 92 -93c7.33301 -23.333 11 -48.333 11 -75c0 -20 -1.33301 -38.333 -4 -55c-6.66699 -43.333 -10.334 -66.333 -11.001 -69l-44 -204c-5.33301 -26.667 -9 -50 -11 -70
c-2 -23.333 -3 -44.333 -3 -63s2.33301 -34 7 -46c5.33301 -13.333 13.333 -26 24 -38c19.333 -20.667 45.333 -36.334 78 -47.001c12.667 -4.66699 30 -9 52 -13c25.333 -4.66699 49.333 -8.33398 72 -11.001z" />
    <glyph glyph-name="asciitilde" unicode="~" horiz-adv-x="792" 
d="M1063 1319c-28.667 -66.667 -59.999 -114.333 -93.999 -143c-32 -30 -71.667 -45 -119 -45c-35.333 0 -77.333 7.33301 -126 22s-82.667 22 -102 22c-28.667 0 -52.667 -7.33301 -72 -22c-18.667 -14 -37.667 -37.667 -57 -71h-30c26.667 61.333 58 109 94 143
c20.667 18.667 41 32 61 40c22.667 9.33301 46 14 70 14c25.333 0 55 -5.66699 89 -17c10 -2 18.333 -4 25 -6c1.33301 -0.666992 3.83301 -1.5 7.5 -2.5s8.16699 -2.33301 13.5 -4s10.666 -3.5 15.999 -5.5c28.667 -8.66699 52 -13 70 -13c48 0 89.333 29.333 124 88h30z
" />
    <glyph glyph-name="uni0401" unicode="&#x401;" horiz-adv-x="1254" 
d="M1301 1584c-1.33301 -8 -3 -14.002 -5 -18.002c-4 -8.66699 -8 -16 -12 -22c-13.333 -21.333 -29.333 -37.333 -48 -48s-38.667 -16 -60 -16c-28 0 -51.333 10 -70 30c-12.667 12.667 -19 29.334 -19 50.001c0 8.66699 1.33301 19.334 4 32.001
c3.33301 14.667 11.333 30 24 46c16 16 31.333 29 46 39c19.333 8 38 12 56 12l20 -1c24 -6.66699 41.667 -19.667 53 -39c9.33301 -13.333 14 -28 14 -44c0 -7.33301 -1 -14.333 -3 -21zM797 1584c-1.33301 -8 -3.00098 -14.002 -5.00098 -18.002
c-4 -8.66699 -8 -16 -12 -22c-13.333 -21.333 -29.333 -37.333 -48 -48s-38.667 -16 -60 -16c-28 0 -51.333 10 -70 30c-12.667 12.667 -19 29.334 -19 50.001c0 8.66699 1.33301 19.334 4 32.001c3.33301 14.667 11.333 30 24 46c16 16 31.333 29 46 39
c18.667 8 37.334 12 56.001 12l20 -1c24 -6.66699 41.667 -19.667 53 -39c9.33301 -13.333 14 -28 14 -44c0 -7.33301 -1 -14.333 -3 -21zM1164 -3.00391l-1066 -0.00390625l9 41c25.333 4 44.333 11.667 57 23c15.333 12.667 26 34 32 64l236 1108c2 11.333 3 21 3 29
c0 14.667 -3 26.334 -9 35.001c-6 9.33301 -21.667 17 -47 23l9 42h1016l-45 -214h-38c1.33301 14.667 2 22.334 2 23.001c0 28.667 -10.333 49.334 -31 62.001c-10.667 6 -25.667 11 -45 15c-16 3.33301 -37 5 -63 5h-44h-542l-91 -431h510c13.333 0 27.333 1.66699 42 5
c12 2.66699 24 7.33398 36 14.001c20 12 35 29 45 51h36l-53 -245h-35c0 47.333 -31 71 -93 71h-510l-129 -606h646c48.667 0 87.334 9.66699 116.001 29c27.333 18.667 47.666 48.667 60.999 90h35z" />
    <glyph glyph-name="uni0402" unicode="&#x402;" horiz-adv-x="1661" 
d="M1424 129c-5.33301 -20.667 -19.6631 -55.668 -42.9961 -105.001c-30 -62.667 -62 -118.334 -96 -167.001c-33.333 -46 -69 -93 -107 -141c-40.667 -50 -71.334 -86 -92.001 -108l-62 48c18 22 42.333 54.333 73 97c37.333 53.333 66.666 99.333 87.999 138
c25.333 45.333 46.333 98.666 63 159.999c5.33301 22 11.333 48.333 18 79l105 491c1.33301 12 2 19.333 2 22c0 20 -5.33301 39.333 -16 58c-12.667 24.667 -29.334 43.667 -50.001 57c-20.667 10 -47 17.333 -79 22c-35.333 5.33301 -67.666 8 -96.999 8
c-64.667 0 -113.334 -9.66699 -146.001 -29c-66 -40 -116.333 -67.333 -151 -82l-118 -552c-2.66699 -10 -4 -20.667 -4 -32c0 -15.333 3 -26.333 9 -33c3.33301 -3.33301 10.333 -7.33301 21 -12c9.33301 -4 20.666 -7 33.999 -9l-8 -41h-323l8 41
c14 0.666992 27 3.33398 39 8.00098s21 9 27 13c16 11.333 28 33 36 65l239 1122h-241c-42.667 0 -79 -8 -109 -24c-26 -15.333 -45.333 -42.666 -58 -81.999h-35l45 213h1011l-45 -213h-38c0 17.333 -1 33 -3 47c-2 12.667 -8.33301 24 -19 34
c-9.33301 8.66699 -22 15 -38 19c-15.333 4 -35 6 -59 6h-250l-99 -464c86 47.333 144 78.333 174 93c49.333 24 102.666 36 159.999 36c95.333 0 180 -20 254 -60c33.333 -17.333 57.333 -49.666 72 -96.999c10 -31.333 15 -63 15 -95c0 -11.333 -0.333008 -20 -1 -26
c-1.33301 -12 -2.66602 -21 -3.99902 -27z" />
    <glyph glyph-name="uni0403" unicode="&#x403;" 
d="M1203 1742l-348 -327h-16l181 329zM1480 1130l-33.998 -0.00195312c5.33301 21.333 8 38 8 50c0 17.333 -4 32 -12 44c-15.333 19.333 -47.666 29 -96.999 29h-503l-481 -1128c-8.66699 -18 -13 -34 -13 -48c0 -6 1 -11 3 -15c8 -10 23 -17.667 45 -23l-18 -42h-304
l18 42c26 4.66699 47 12.334 63 23.001c15.333 10 29.333 31 42 63l473 1108c5.33301 13.333 8.66602 23 9.99902 29c1.33301 4 2.16602 7.16699 2.49902 9.5s0.666016 4.16602 0.999023 5.49902s0.5 2.33301 0.5 3c0 8.66699 -0.666992 14.334 -2 17.001
c-2.66699 5.33301 -5.33398 9 -8.00098 11c-3.33301 2 -9 4.33301 -17 7c-9.33301 2.66699 -15.666 4.33398 -18.999 5.00098l18 42h922z" />
    <glyph glyph-name="uni0406" unicode="&#x406;" horiz-adv-x="524" 
d="M712 1560c-1.33301 -5.33301 -3.33301 -11.335 -6 -18.002c-4.66699 -10.667 -8.33398 -18 -11.001 -22c-13.333 -21.333 -29 -37.333 -47 -48c-18.667 -10.667 -39 -16 -61 -16c-27.333 0 -50.666 10 -69.999 30c-12.667 12.667 -19 29.334 -19 50.001
c0 8.66699 1.33301 19.334 4 32.001c3.33301 14.667 11.333 30 24 46c16 16 31.333 29 46 39c19.333 8 38 12 56 12l20 -1c24 -6.66699 41.667 -19.667 53 -39c9.33301 -13.333 14 -28 14 -44c0 -7.33301 -1 -14.333 -3 -21zM425 -3.00195h-316.996l9 42
c27.333 5.33301 47.666 13 60.999 23c12 9.33301 21.667 30.333 29 63l236 1108c2 11.333 3 21.333 3 30c0 14.667 -3.33301 26.334 -10 35.001s-22.334 16 -47.001 22l9 42h317l-8 -41c-7.33301 -1.33301 -17 -3.66602 -29 -6.99902l-6 -2
c-2 -0.666992 -3.83301 -1.33398 -5.5 -2.00098s-2.83398 -1 -3.50098 -1c-13.333 -5.33301 -24 -14 -32 -26s-14 -28.667 -18 -50l-236 -1108c-0.666992 -3.33301 -1.66699 -9 -3 -17c-0.666992 -4 -1 -9.66699 -1 -17v-8c1.33301 -4 2 -6.33301 2 -7
c2.66699 -11.333 10 -20.333 22 -27c4.66699 -2 10.667 -4 18 -6c9.33301 -2.66699 15.666 -4.33398 18.999 -5.00098z" />
    <glyph glyph-name="uni0407" unicode="&#x407;" horiz-adv-x="700" 
d="M998 1576c-2.66699 -10.667 -8.66797 -24 -18.001 -40c-13.333 -21.333 -30 -37.333 -50 -48c-16.667 -10.667 -36.667 -16 -60 -16c-28 0 -52.667 10 -74 30c-13.333 13.333 -20 30 -20 50c0 6.66699 1 14.667 3 24c2 8 5 17.333 9 28c4 9.33301 9.33301 18 16 26
c2.66699 2.66699 5.33398 5.16699 8.00098 7.5s5 4.33301 7 6s3.66699 3.16699 5 4.5l3 3c7.33301 6.66699 16 12.667 26 18c18 8 36.667 12 56 12l21 -1c25.333 -6 44 -19 56 -39c9.33301 -12.667 14 -27 14 -43c0 -8 -0.666992 -15.333 -2 -22zM598.999 1568
c-3.33301 -14 -8.99805 -27.332 -16.998 -39.999c-13.333 -22 -29.333 -38 -48 -48c-19.333 -10.667 -40.333 -16 -63 -16c-28.667 0 -53.334 10 -74.001 30c-13.333 13.333 -20 30 -20 50c0 6.66699 1 14.667 3 24c1.33301 7.33301 4.66602 16.666 9.99902 27.999
c4.66699 10.667 10 19.334 16 26.001c14 14 23.333 22.667 28 26c6 4 12.667 8.33301 20 13c18.667 8 38 12 58 12l19 -1c25.333 -6 44 -19 56 -39c9.33301 -12.667 14 -27.334 14 -44.001c0 -7.33301 -0.666992 -14.333 -2 -21zM507.001 -2.99902h-328l10 42
c28.667 5.33301 49 12.666 61 21.999c6.66699 4.66699 12.667 12.334 18 23.001c6 12 10.667 25.667 14 41l244 1108c2 11.333 3 21.333 3 30c0 14 -3.66699 25.333 -11 34c-7.33301 9.33301 -23.333 17 -48 23l9 42h328l-9 -41c-10.667 -2 -18.334 -3.66699 -23.001 -5
l-4 -1c-2.66699 -0.666992 -5.66699 -1.66699 -9 -3s-7 -2.66602 -11 -3.99902c-12 -4.66699 -22.333 -13.334 -31 -26.001c-9.33301 -13.333 -15.666 -29.666 -18.999 -48.999l-244 -1108c-0.666992 -3.33301 -1.66699 -9 -3 -17c-0.666992 -4 -1 -9.66699 -1 -17v-8
c1.33301 -4 2 -6.33301 2 -7c3.33301 -12.667 11 -21.667 23 -27c8 -2.66699 13.333 -4.33398 16 -5.00098c2 -0.666992 5.66699 -1.66699 11 -3s9 -2.33301 11 -3z" />
    <glyph glyph-name="uni0409" unicode="&#x409;" horiz-adv-x="2082" 
d="M1983 396c-8.66699 -44.667 -27.3301 -91.335 -55.9971 -140.002c-34 -58 -76 -104.667 -126 -140c-46.667 -33.333 -100 -59 -160 -77c-28 -8 -56.333 -15 -85 -21c-40.667 -8 -68 -12.667 -82 -14c-18 -1.33301 -49 -2.66602 -93 -3.99902
c-25.333 -0.666992 -62.333 -1 -111 -1h-461l10 39c25.333 4 44.333 11.667 57 23c15.333 12 26 33 32 63l223 1042c0.666992 6.66699 1.66699 12.667 3 18c1.33301 6.66699 2 13.334 2 20.001c0 8 -1.33301 15 -4 21c-6 12 -19.667 19 -41 21h-333
c-20 0 -36.667 -8 -50 -24c-5.33301 -6 -10 -15.333 -14 -28l-10 -35l-26 -124l-36 -172c-29.333 -140 -54.666 -250 -75.999 -330c-22.667 -84.667 -43.667 -150.667 -63 -198c-20 -50.667 -42.667 -99 -68 -145c-22 -39.333 -46.667 -76 -74 -110
c-24 -29.333 -50.333 -52.666 -79 -69.999c-27.333 -16 -56 -24 -86 -24s-55.333 5.33301 -76 16s-35 25 -43 43c-0.666992 2 -1.33398 4.16699 -2.00098 6.5s-1.33398 4.16602 -2.00098 5.49902s-1.33398 2.83301 -2.00098 4.5s-1 3.16699 -1 4.5
c-0.666992 3.33301 -1 9.33301 -1 18l2 16c6 20.667 19.667 39.334 41 56.001c21.333 16 44 24 68 24c16 0 29.333 -4 40 -12c0.666992 0 1.66699 -0.333008 3 -1s2.33301 -1 3 -1c0.666992 -0.666992 2.16699 -1.16699 4.5 -1.5s3.83301 -0.5 4.5 -0.5
c15.333 0 33.666 11.667 54.999 35c15.333 17.333 31.666 42.333 48.999 75c15.333 29.333 27 60.666 35 93.999l51 208l71 297l48 221l29 135c1.33301 5.33301 2 9.33301 2 12v9c0 16 -5.33301 29.333 -16 40c-12 10 -31 17.667 -57 23l6 41h946l-9 -42
c-24 -5.33301 -42.333 -13.333 -55 -24c-13.333 -11.333 -23.666 -32 -30.999 -62l-89 -416h292c97.333 0 184 -18 260 -54c37.333 -16.667 70 -38 98 -64c27.333 -25.333 49.333 -55 66 -89c9.33301 -22.667 15.333 -39.667 18 -51c4 -16.667 6 -33 6 -49
c0.666992 -3.33301 1 -8 1 -14v-14c0 -20.667 -2.66699 -47 -8 -79zM1811 403.999c3.33301 10.667 5.33301 22.665 6 35.998c1.33301 17.333 2 29.333 2 36c0 22.667 -3 43.334 -9 62.001c-12 36.667 -33.333 67.667 -64 93c-26.667 23.333 -62.667 41.333 -108 54
c-27.333 6.66699 -49.333 11 -66 13c-25.333 3.33301 -49 5 -71 5h-274l-127 -596h246c74 0 140 7 198 21s110.667 40.667 158 80c46.667 38.667 80.667 94.334 102 167.001z" />
    <glyph glyph-name="uni040A" unicode="&#x40a;" horiz-adv-x="2046" 
d="M2024 392c-9.33301 -45.333 -27.998 -92 -55.998 -140c-33.333 -58 -75.333 -104.667 -126 -140c-48.667 -34 -102 -59.667 -160 -77c-22.667 -7.33301 -48.667 -13.666 -78 -18.999c-35.333 -6.66699 -64 -11 -86 -13s-39 -3 -51 -3h-55h-90h-512l9 38
c24.667 4 43.667 11.667 57 23c16 11.333 27 32.333 33 63l126 586h-608l-126 -586c-2 -10.667 -3 -20 -3 -28c0 -14.667 3 -26 9 -34c8.66699 -10 24.667 -17.667 48 -23l-8 -40h-300l8 39c23.333 4 42.666 11.667 57.999 23c14.667 12.667 25 33.667 31 63l236 1102
c2 10.667 3 20.334 3 29.001c0 14 -3 25.333 -9 34c-10 10 -25.667 17.667 -47 23l9 42h300l-8 -41c-25.333 -5.33301 -44.333 -13 -57 -23c-16.667 -14 -28 -35.333 -34 -64l-88 -413h608l88 414c1.33301 9.33301 2 18.666 2 27.999c0 16 -3.33301 28.333 -10 37
c-6.66699 8 -22 14.667 -46 20l9 42h334l-9 -46c-24.667 -5.33301 -43.334 -13.333 -56.001 -24c-14 -11.333 -24.333 -32 -31 -62l-89 -416h335c96.667 0 183 -18 259 -54c36 -16 68.333 -37.333 97 -64s51 -56.334 67 -89.001c8 -18.667 13.667 -35.667 17 -51
c4.66699 -20 7 -36.667 7 -50c1.33301 -16 2 -25 2 -27c0 -17.333 -0.333008 -28.333 -1 -33zM1852 400c6 25.333 8.99902 48.668 8.99902 70.001c0 22 -3.33301 43.333 -10 64c-13.333 36.667 -34.666 67.667 -63.999 93c-14 11.333 -30 21.666 -48 30.999
c-13.333 7.33301 -33 15 -59 23c-27.333 6.66699 -49.333 11 -66 13c-25.333 3.33301 -49.333 5 -72 5h-316l-127 -596h288c73.333 0 139 7 197 21s110.667 40.667 158 80c48 39.333 82.333 95 103 167z" />
    <glyph glyph-name="uni040B" unicode="&#x40b;" horiz-adv-x="1661" 
d="M1498 0l-301.002 0.00292969l9 41c24 5.33301 43.333 14 58 26c16.667 13.333 27.334 33.666 32.001 60.999l105 492c2 8 3 16.333 3 25c0 18 -5.33301 36.333 -16 55c-12.667 24.667 -29.334 43.667 -50.001 57c-22 10 -43 17.667 -63 23c-22 6 -45.333 9 -70 9
c-13.333 0 -22 -0.333008 -26 -1c-50 -4.66699 -90.333 -11.334 -121 -20.001c-30 -8 -61.333 -19.333 -94 -34c-24.667 -10.667 -48.167 -21 -70.5 -31s-38 -17 -47 -21s-13.833 -6 -14.5 -6l-118 -552c-1.33301 -9.33301 -2.33301 -16 -3 -20
c-0.666992 -2.66699 -1 -6.33398 -1 -11.001c0 -6.66699 1 -13 3 -19c2 -5.33301 4.66699 -10.333 8 -15c3.33301 -3.33301 10.333 -7.66602 21 -12.999c6 -3.33301 17 -6 33 -8l-9 -41h-322l9 41c14 0.666992 27 3.33398 39 8.00098s21 9 27 13c14.667 10 26 31.667 34 65
l240 1122h-240c-46 0 -81.667 -7.33301 -107 -22s-45.666 -42.334 -60.999 -83.001h-34l45 213h1001l-45 -213h-37c0 20.667 -1.66699 37.667 -5 51c-2.66699 12 -8.66699 22 -18 30s-21.666 14 -36.999 18c-16 4 -35.667 6 -59 6h-242l-99 -463
c30 14.667 74.333 36.667 133 66c42.667 21.333 79.667 36.666 111 45.999c36 10.667 76.667 16 122 16c94 0 178.667 -19.667 254 -59c32.667 -18 56.667 -50.667 72 -98c10 -30.667 15 -62 15 -94c0 -19.333 -1.66699 -37.333 -5 -54l-103 -478c-2 -11.333 -3 -21 -3 -29
c0 -14 3 -25.333 9 -34c10 -10 25.667 -17.667 47 -23z" />
    <glyph glyph-name="uni040C" unicode="&#x40c;" horiz-adv-x="1326" 
d="M1286 1718l-348 -327h-15l169 327h194zM1291 -3l-312.998 0.000976562l9 40c12.667 0 24.667 3 36 9c10 3.33301 17 7.33301 21 12c5.33301 6.66699 9 13.667 11 21c0.666992 10 -0.333008 20 -3 30l-262 732l-329 -234l-103 -482c-2 -10.667 -3 -20.334 -3 -29.001
c0 -13.333 2.66699 -24.666 8 -33.999c8 -10 24.333 -17.667 49 -23l-9 -42h-302l9 42c26.667 5.33301 46 13 58 23c11.333 9.33301 20.666 30.333 27.999 63l236 1108c1.33301 10 2.33301 17 3 21c0.666992 2.66699 1 6.33398 1 11.001c0 11.333 -3.33301 22 -10 32
c-6 9.33301 -20.667 17 -44 23l9 42h302l-8 -41c-4.66699 -0.666992 -13.667 -3 -27 -7l-15 -5c-12.667 -4.66699 -22.667 -13.334 -30 -26.001c-8 -14 -14.333 -30.333 -19 -49l-101 -475l689 498c14 11.333 21.667 21 23 29c3.33301 15.333 -4.33398 25.333 -23.001 30
l-36 6l8 40h366l-8 -40c-20 0 -40.667 -3.33301 -62 -10c-20 -6 -38 -15.333 -54 -28l-464 -338l298 -836c18 -38.667 41.333 -62.334 70 -71.001z" />
    <glyph glyph-name="uni040E" unicode="&#x40e;" horiz-adv-x="1197" 
d="M1212 1633c-2.66699 -12 -6.66504 -24.334 -11.998 -37.001c-2.66699 -7.33301 -10 -20 -22 -38c-28 -34 -62.667 -60.333 -104 -79c-22 -8.66699 -44.333 -15.667 -67 -21c-19.333 -4.66699 -41.333 -7 -66 -7c-44 0 -83.333 9.33301 -118 28
c-15.333 8.66699 -28.333 19.667 -39 33c-10 12 -18.333 27.333 -25 46c-2.66699 11.333 -4.33398 20.666 -5.00098 27.999c-1.33301 12 -2 20.333 -2 25c0 8 1 16 3 24c6 23.333 16.667 40 32 50c12 3.33301 20 5 24 5c10.667 0 17.667 -2.66699 21 -8
c2.66699 -4 5 -9.33301 7 -16c0.666992 -1.33301 1.16699 -3 1.5 -5s0.833008 -3.66699 1.5 -5s1 -2.33301 1 -3c6 -43.333 17.667 -77 35 -101c16 -25.333 43.667 -38 83 -38c34.667 0 66.667 12.667 96 38c23.333 21.333 47.666 55.333 72.999 102l1 2l3 3
c1.33301 1.33301 2.66602 3 3.99902 5l15 18c4.66699 5.33301 14 8 28 8c6 0 13 -1.66699 21 -5c8 -7.33301 12 -18 12 -32v-3c0 -1.33301 -0.166992 -2.66602 -0.5 -3.99902s-0.666016 -3.16602 -0.999023 -5.49902s-0.5 -4.83301 -0.5 -7.5zM1753 1321
c-28.667 -4 -54.001 -10.998 -76.001 -20.998c-22.667 -10 -45 -28.667 -67 -56l-875 -1027c-51.333 -62 -110.333 -115.667 -177 -161c-63.333 -43.333 -121.666 -65 -174.999 -65c-36 0 -68.333 12.333 -97 37l48 204l42 11c-0.666992 -2.66699 -1 -8.66699 -1 -18
c0 -24.667 5.33301 -45.667 16 -63c8 -10 17.333 -18 28 -24s23 -9 37 -9c23.333 0 48 9 74 27c26.667 18.667 57.667 50 93 94l81 96l-33 905c2.66699 20.667 -7 37.667 -29 51c-16.667 11.333 -34.667 18 -54 20l17 40h359l-18 -42c-12 -2 -22 -4 -30 -6
c-2.66699 -0.666992 -6.16699 -1.83398 -10.5 -3.50098s-7.16602 -2.5 -8.49902 -2.5c-16.667 -6.66699 -28.667 -18.667 -36 -36c-2.66699 -8 -4.33398 -13.333 -5.00098 -16c-1.33301 -5.33301 -2 -9.66602 -2 -12.999l17 -723l598 712
c0.666992 1.33301 2.16699 3.16602 4.5 5.49902s3.83301 4.16602 4.5 5.49902l10 18c3.33301 11.333 5 19 5 23c0 9.33301 -4.33301 17.333 -13 24c-9.33301 7.33301 -21.333 12 -36 14l17 40h309z" />
    <glyph glyph-name="uni040F" unicode="&#x40f;" horiz-adv-x="1454" 
d="M1355 1h-484.999c-32 -45.333 -56 -85 -72 -119c-18 -38 -32.667 -78.333 -44 -121l-11 -52h-145l11 52c5.33301 33.333 8 64 8 92c0 44.667 -9.33301 94 -28 148h-487l9 40c22.667 4 41.667 11.667 57 23c15.333 15.333 26 36.333 32 63l235 1099
c2 10.667 3 20.334 3 29.001c0 14 -3 25.333 -9 34c-4 4.66699 -9.66699 9 -17 13c-6.66699 3.33301 -16.667 6.66602 -30 9.99902l9 42h302l-8 -41c-26 -5.33301 -45.333 -13 -58 -23c-16 -14 -27 -35.333 -33 -64l-238 -1112h793l238 1113c0.666992 3.33301 1 9 1 17
c0 2 0.166992 4.33301 0.5 7s0.5 4.33398 0.5 5.00098c0 14 -2.66699 25.667 -8 35c-7.33301 8.66699 -23.333 15.667 -48 21l9 42h302l-9 -42c-26.667 -4 -46.334 -11.333 -59.001 -22s-22.667 -32 -30 -64l-235 -1099c-2 -8 -3 -15.667 -3 -23
c0 -18.667 5 -32.334 15 -41.001c12 -8.66699 19.667 -14 23 -16c5.33301 -3.33301 11.333 -5.33301 18 -6z" />
    <glyph glyph-name="uni0410" unicode="&#x410;" horiz-adv-x="1293" 
d="M1274 -3l-264.997 0.000976562l9 42c34 8 54.667 22.667 62 44c1.33301 9.33301 0.666016 18.666 -2.00098 27.999l-82 443h-497l-263 -433c-6.66699 -8.66699 -10.334 -15.667 -11.001 -21c-1.33301 -8 -2 -14 -2 -18c0 -20.667 14.667 -35 44 -43l-9 -42h-233l9 42
c17.333 6 32.333 15.667 45 29c11.333 12 24.666 32 39.999 60l761 1226h118l247 -1247c2 -21.333 6 -37 12 -47s14.667 -17 26 -21zM977.003 658.001l-101 521l-312 -521h413z" />
    <glyph glyph-name="uni0411" unicode="&#x411;" horiz-adv-x="1260" 
d="M1333 396c-8.66699 -44.667 -27.3311 -91.3311 -55.998 -139.998c-18 -30 -37 -56 -57 -78c-20.667 -22.667 -43.334 -43 -68.001 -61c-51.333 -36 -105 -62.333 -161 -79c-56.667 -17.333 -113.667 -28.333 -171 -33c-60.667 -5.33301 -127 -8 -199 -8h-516l9 41
c22 4 40 12 54 24c7.33301 6.66699 13.666 14.667 18.999 24c4.66699 8.66699 8.66699 21.334 12 38.001l236 1102c2 10 3 19.667 3 29c0 13.333 -2.66699 23.666 -8 30.999c-6 8 -11.333 13.333 -16 16c-8 4 -17.333 7.33301 -28 10l9 42h1032l-49 -230h-34
c0 23.333 -2 42 -6 56c-4.66699 15.333 -11 27.666 -19 36.999c-21.333 19.333 -56.333 29 -105 29h-612l-93 -436h380c97.333 0 184.333 -17.667 261 -53s132 -86.666 166 -153.999c8.66699 -22.667 14.667 -40.334 18 -53.001c4 -14.667 6 -30.667 6 -48v-16
c0 -2 0.166992 -4.33301 0.5 -7s0.5 -4.33398 0.5 -5.00098c0 -21.333 -2.66699 -47.333 -8 -78zM1160 404.003c2.66699 13.333 4.66797 25.335 6.00098 36.002c1.33301 14.667 2 26 2 34c0 24.667 -3.33301 46 -10 64c-13.333 37.333 -34.333 68 -63 92
c-28 23.333 -64.667 41.666 -110 54.999c-27.333 6.66699 -49.333 11 -66 13c-25.333 3.33301 -49.333 5 -72 5h-361l-127 -596h333c72.667 0 137.667 6.66699 195 20c60.667 14.667 115 42 163 82c47.333 39.333 81.666 94.666 102.999 165.999z" />
    <glyph glyph-name="uni0412" unicode="&#x412;" horiz-adv-x="1260" 
d="M1333 399c-8.66699 -46.667 -27.332 -94.333 -55.999 -143c-18 -30 -37 -56 -57 -78c-20.667 -22.667 -43.334 -43 -68.001 -61c-51.333 -36 -105 -62.333 -161 -79c-56.667 -17.333 -113.667 -28.333 -171 -33c-60.667 -5.33301 -127 -8 -199 -8h-516l9 41
c22 4 40 12 54 24c7.33301 6.66699 13.666 14.667 18.999 24c4.66699 8.66699 8.66699 21.334 12 38.001l236 1102c2 10 3 19.667 3 29c0 13.333 -2.66699 23.666 -8 30.999c-6 8 -11.333 13.333 -16 16c-8 4 -17.333 7.33301 -28 10l9 42h584c26 0 52.667 -1 80 -3
c21.333 -1.33301 47 -4 77 -8c26 -3.33301 48 -7.66602 66 -12.999c20 -6 39 -14 57 -24c38 -18 67 -44.333 87 -79c9.33301 -15.333 16 -34 20 -56c4 -20.667 6 -46.334 6 -77.001c0 -20.667 -2.33301 -40 -7 -58c-13.333 -60.667 -43.666 -113.667 -90.999 -159
c-48 -46 -117 -87.333 -207 -124c40.667 -9.33301 73.667 -19 99 -29c22.667 -9.33301 44.667 -20.333 66 -33c36.667 -20 64.667 -49.667 84 -89c17.333 -34.667 26 -73.667 26 -117c0 -26 -3 -54.667 -9 -86zM1203 1024l5.00098 30.001c1.33301 13.333 2 22.666 2 27.999
c0 46 -15.667 82.667 -47 110c-40 36 -100.333 54 -181 54h-380l-93 -436h380c68 0 131.667 15.667 191 47c27.333 14 51.666 34.333 72.999 61c20 25.333 35 54 45 86zM1160 404.002c2.66699 13.333 4.66797 25.335 6.00098 36.002c1.33301 14.667 2 26 2 34
c0 24.667 -3.33301 46 -10 64c-13.333 37.333 -34.333 68 -63 92c-28 23.333 -64.667 41.666 -110 54.999c-27.333 6.66699 -49.333 11 -66 13c-25.333 3.33301 -49.333 5 -72 5h-361l-127 -596h333c72.667 0 137.667 6.66699 195 20c60.667 14.667 115 42 163 82
c47.333 39.333 81.666 94.666 102.999 165.999z" />
    <glyph glyph-name="uni0413" unicode="&#x413;" 
d="M1278 1124l-34 0.000976562c0.666992 3.33301 1 9.66602 1 18.999c0 30.667 -8.33301 55.334 -25 74.001c-19.333 19.333 -53.666 29 -102.999 29h-503l-240 -1122c-2 -12 -3 -22.333 -3 -31c0 -14 2.33301 -24.333 7 -31c10.667 -10.667 27.334 -18.334 50.001 -23.001
l-9 -42h-304l9 42c26.667 5.33301 46 13 58 23c11.333 9.33301 20.666 30 27.999 62l236 1102c1.33301 8 2.33301 14.333 3 19s1 14 1 28c-2 14 -8.33301 23.333 -19 28c-2.66699 2.66699 -8.33398 5 -17.001 7l-10 2.5c-4 1 -6.66699 1.5 -8 1.5l9 42h922z" />
    <glyph glyph-name="uni0414" unicode="&#x414;" horiz-adv-x="1369" 
d="M1307 -275l-51.999 -0.000976562c7.33301 40.667 11 82 11 124c0 39.333 -12.667 75.333 -38 108c-20.667 28.667 -55 43 -103 43h-839c-44 0 -84.333 -15 -121 -45c-17.333 -16 -33 -32.667 -47 -50c-12.667 -15.333 -25 -35 -37 -59
c-5.33301 -11.333 -13 -31.333 -23 -60c-8.66699 -24.667 -15.334 -46 -20.001 -64h-51l83 392h108c52 46.667 103 119.667 153 219c31.333 70 62.333 159 93 267c31.333 110 62.333 234.667 93 374l48 235c1.33301 5.33301 2 9 2 11v9c0 20.667 -7.33301 38.334 -22 53.001
s-35 26 -61 34l8 38h1070l-8 -38c-26.667 -6 -46.667 -14 -60 -24c-12.667 -10 -22.667 -32 -30 -66l-238 -1112h164zM1063 113.999l226.998 1060c2 9.33301 3 17.666 3 24.999c0 27.333 -12 43.333 -36 48h-484c-26 0 -44.667 -8 -56 -24s-20.333 -39.333 -27 -70l-32 -152
l-45 -205c-3.33301 -14 -9.66602 -41.333 -18.999 -82c-0.666992 -2.66699 -2 -7.33398 -4 -14.001s-4.66699 -16.667 -8 -30s-6.66602 -25.666 -9.99902 -36.999c-18.667 -70.667 -34.667 -127 -48 -169c-17.333 -52.667 -33 -93.667 -47 -123
c-21.333 -52 -41.666 -94.333 -60.999 -127c-20.667 -35.333 -46.334 -68.666 -77.001 -99.999h724z" />
    <glyph glyph-name="uni0415" unicode="&#x415;" horiz-adv-x="1216" 
d="M1164 -3l-1066 -0.00488281l9 41c25.333 4 44.333 11.667 57 23c8.66699 6.66699 15.334 14.667 20.001 24c5.33301 10 9.33301 23 12 39l236 1102c2 10.667 3 20.334 3 29.001c0 14 -3 25.333 -9 34c-6 9.33301 -21.667 17 -47 23l9 42h1016l-45 -213h-38
c1.33301 14.667 2 22.334 2 23.001c0 28.667 -10.333 49.334 -31 62.001c-9.33301 4.66699 -24.333 9.33398 -45 14.001c-19.333 4 -40.333 6 -63 6h-44h-542l-91 -429h510c13.333 0 27.333 1.66699 42 5c12 2.66699 24 7.33398 36 14.001c20 12 35 29 45 51h36l-53 -244
h-35c0 47.333 -31 71 -93 71h-510l-129 -603h646c48.667 0 87.334 9.66699 116.001 29c27.333 18.667 47.666 48.667 60.999 90h35z" />
    <glyph glyph-name="uni0416" unicode="&#x416;" horiz-adv-x="1774" 
d="M1755 -3l-313.998 0.00292969l9 40c41.333 0 64.333 14.333 69 43c1.33301 6.66699 2 11 2 13c0 2.66699 -1.66699 8 -5 16l-262 728l-135 -108l-130 -605c-2 -12 -3 -22.333 -3 -31c0 -14 2.33301 -24.333 7 -31c8.66699 -10 24.667 -17.667 48 -23l-11 -42h-299l7 41
c22.667 4 42 11.667 58 23c14.667 10.667 25 31.667 31 63l130 605l-89 108l-576 -729c-8.66699 -11.333 -13.334 -20.333 -14.001 -27c-0.666992 -2.66699 -1 -6.33398 -1 -11.001c-0.666992 -10.667 3.5 -18.834 12.5 -24.501s22.5 -8.5 40.5 -8.5l-9 -40h-315l9 42
c38 9.33301 71.333 32.666 100 69.999l652 831l-316 337c-13.333 10.667 -29 19.667 -47 27c-16 6.66699 -34.333 10 -55 10l8 40h368l-8 -40c-20.667 0 -38.334 -3.33301 -53.001 -10c-13.333 -6 -20.333 -14 -21 -24c-2 -8 1 -18 9 -30l340 -358l71 334
c3.33301 16.667 5 28.334 5 35.001c0 12 -3 21.667 -9 29c-8.66699 10 -24.667 17.333 -48 22l11 42h298l-6 -41c-7.33301 -1.33301 -14 -3 -20 -5c-9.33301 -3.33301 -16.666 -6 -21.999 -8c-12 -4.66699 -22 -13.334 -30 -26.001c-7.33301 -10.667 -13 -26.667 -17 -48
l-71 -334l492 358c13.333 11.333 21 21.333 23 30c1.33301 10 -3 18 -13 24c-11.333 6.66699 -27 10 -47 10l8 40h364l-8 -40c-19.333 0 -39 -3.33301 -59 -10c-18.667 -6 -37.334 -15 -56.001 -27l-459 -337l296 -831c12.667 -38.667 35.667 -62 69 -70z" />
    <glyph glyph-name="uni0417" unicode="&#x417;" horiz-adv-x="1176" 
d="M1259 395c-10 -49.333 -31.3281 -95.3311 -63.9951 -137.998c-60.667 -84.667 -144.667 -150.667 -252 -198c-60 -24.667 -116.333 -43.334 -169 -56.001c-65.333 -16 -126.666 -24 -183.999 -24l-163 -4c-38 0 -67.667 0.333008 -89 1c-32 1.33301 -58 2.33301 -78 3
c-22 0 -42 1 -60 3c-37.333 4 -58 6.33301 -62 7l48 227h40c0 -82 78.667 -123 236 -123c20.667 0 46 1 76 3c14.667 1.33301 46 4 94 8c112 10 208.667 38.333 290 85s134.666 108.667 159.999 186l13 47c5.33301 26.667 8 49.667 8 69c0 32.667 -7 63 -21 91
c-20 43.333 -52 76 -96 98s-94.667 33 -152 33h-289l23 104h260c29.333 0 55.333 2.33301 78 7c23.333 4.66699 47.333 13 72 25c23.333 11.333 44.666 24 63.999 38c19.333 14.667 35.333 30 48 46c16 18 28.667 35 38 51s15.666 33 18.999 51c6 27.333 9 52 9 74
c0 48.667 -14.667 86.667 -44 114c-20 16.667 -47 30.334 -81 41.001c-32.667 10 -71.334 15 -116.001 15s-91.667 -4.33301 -141 -13c-45.333 -8 -85.666 -18.667 -120.999 -32c-40.667 -15.333 -72.334 -32.666 -95.001 -51.999c-24 -18.667 -39.333 -41.334 -46 -68.001
c-1.33301 -10.667 -2 -16.334 -2 -17.001c0 -12.667 2.33301 -25 7 -37l-40 -32l-132 158c41.333 30.667 86 57.667 134 81c53.333 28 101.666 49.667 144.999 65c40.667 14 89.334 26 146.001 36c54 9.33301 106 14 156 14c28.667 0 56 -1 82 -3
c22.667 -2 51.334 -5.66699 86.001 -11c17.333 -3.33301 32.666 -8 45.999 -14c12.667 -5.33301 30 -15.666 52 -30.999c36 -23.333 66.333 -55 91 -95c11.333 -18 19.666 -38 24.999 -60c5.33301 -22.667 8 -47.334 8 -74.001l-6 -41
c-12 -57.333 -39.667 -109.333 -83 -156c-22 -24 -48.333 -45.667 -79 -65c-28.667 -18 -68.667 -37.333 -120 -58c28.667 -6 54 -14 76 -24c15.333 -6.66699 32 -17.334 50 -32.001c17.333 -14 31.333 -27.667 42 -41c13.333 -17.333 23.666 -33.333 30.999 -48
c18 -34 30.333 -70.667 37 -110c2 -16 3 -32 3 -48c0 -20.667 -2.66699 -46 -8 -76z" />
    <glyph glyph-name="uni0418" unicode="&#x418;" horiz-adv-x="1369" 
d="M1354 -3l-301.997 -0.000976562l9 41c25.333 4 44.666 11.667 57.999 23c15.333 11.333 26 32.333 32 63l178 831l-944 -706l-27 -125c-2 -10.667 -3 -20.334 -3 -29.001c0 -12.667 2.66699 -23.667 8 -33c8 -10 24.333 -17.667 49 -23l-9 -42h-302l9 41
c24.667 4 44 12 58 24c14.667 12.667 25 33.334 31 62.001l236 1102c2 10.667 3 20.334 3 29.001c0 14 -3 25.333 -9 34c-4 4.66699 -9.66699 9 -17 13c-6.66699 3.33301 -16.667 6.66602 -30 9.99902l9 42h302l-8 -41c-26 -5.33301 -45.333 -13 -58 -23
c-16 -14 -27 -35.333 -33 -64l-176 -824l945 714l24 111c0.666992 3.33301 1 9 1 17c0 2 0.166992 4.33301 0.5 7s0.5 4.33398 0.5 5.00098c0 14 -2.66699 25.667 -8 35c-7.33301 8.66699 -23.333 15.667 -48 21l9 42h302l-9 -42c-26.667 -4 -46 -11 -58 -21
c-6.66699 -5.33301 -12.334 -13 -17.001 -23c-5.33301 -11.333 -10 -25.333 -14 -42l-236 -1102c-2.66699 -10 -4 -21 -4 -33s2.66699 -21.667 8 -29c7.33301 -12 23.666 -20 48.999 -24z" />
    <glyph glyph-name="uni0419" unicode="&#x419;" horiz-adv-x="1369" 
d="M1320 1624c-5.33301 -24.667 -16.665 -49.6689 -33.998 -75.002c-28.667 -34 -64 -60.667 -106 -80c-23.333 -8.66699 -46 -15.667 -68 -21c-19.333 -4.66699 -41.666 -7 -66.999 -7c-45.333 0 -85.333 9.33301 -120 28c-32 19.333 -53.667 46 -65 80
c-3.33301 16.667 -5 26.334 -5 29.001c-1.33301 12 -2 20.667 -2 26c0 8 0.666992 15.333 2 22c4.66699 22.667 15.667 39.667 33 51c12 3.33301 20 5 24 5c11.333 0 19 -3.33301 23 -10c2 -5.33301 4.33301 -11.333 7 -18l4 -9c3.33301 -23.333 7.66602 -43 12.999 -59
c6 -18 13.333 -32.333 22 -43c16 -25.333 44 -38 84 -38c34 0 66.667 12.667 98 38c22 20 47 54.333 75 103c1.33301 1.33301 2.66602 3.33301 3.99902 6s2.66602 4.66699 3.99902 6c2 2.66699 6.66699 7.66699 14 15c6 6 15.333 9 28 9c4.66699 0 12 -1.66699 22 -5
c8 -7.33301 12 -17.666 12 -30.999c0 -8 -0.666992 -15.333 -2 -22zM1354 -3.00195l-301.997 0.00195312l9 40c26 5.33301 45.333 13.333 58 24c15.333 11.333 26 32.333 32 63l177 828l-943 -704l-27 -124c-2 -10.667 -3 -20.334 -3 -29.001
c0 -12.667 2.66699 -23.667 8 -33c8.66699 -10.667 25 -18.667 49 -24l-9 -41h-302l9 40c25.333 5.33301 44.666 13.666 57.999 24.999c14.667 12.667 25 33.334 31 62.001l235 1099c1.33301 9.33301 2.33301 16 3 20c0.666992 2.66699 1 6.33398 1 11.001
c0 14 -3.33301 24.667 -10 32c-7.33301 8.66699 -22.666 16.334 -45.999 23.001l8 41h302l-8 -40c-24 -5.33301 -43.333 -13.333 -58 -24c-14.667 -13.333 -25.667 -34.333 -33 -63l-175 -822l945 712l24 111c1.33301 16 2 24.333 2 25c0 17.333 -3 30 -9 38
c-2.66699 4 -8.33398 8 -17.001 12c-6.66699 3.33301 -16.667 6.66602 -30 9.99902l8 41h302l-8 -41c-26.667 -4 -46.334 -11.333 -59.001 -22c-7.33301 -6.66699 -13.333 -14.334 -18 -23.001c-4 -8.66699 -8.33301 -22.334 -13 -41.001l-235 -1099
c-2.66699 -10 -4 -21 -4 -33s2.66699 -21.667 8 -29c7.33301 -12 23.666 -20.333 48.999 -25z" />
    <glyph glyph-name="uni041A" unicode="&#x41a;" horiz-adv-x="1342" 
d="M1291 -3l-312.998 -0.000976562l9 40c12.667 0 24.667 3 36 9c10 3.33301 17 7.33301 21 12c5.33301 6.66699 9 13.667 11 21c0.666992 8.66699 -0.333008 18.334 -3 29.001l-262 728l-329 -233l-103 -479c-2 -10.667 -3 -20.334 -3 -29.001
c0 -12.667 2.66699 -23.667 8 -33c8 -10 24.333 -17.667 49 -23l-9 -42h-302l9 42c26.667 5.33301 46 13 58 23c11.333 9.33301 20.666 30 27.999 62l236 1102c1.33301 11.333 2.33301 18.666 3 21.999c0.666992 2.66699 1 6 1 10c0 11.333 -3.33301 22 -10 32
c-5.33301 8.66699 -20 16 -44 22l9 42h302l-8 -41c-4.66699 -0.666992 -13.667 -3 -27 -7l-15 -5c-13.333 -5.33301 -23.333 -13.666 -30 -24.999c-8 -14 -14.333 -30.333 -19 -49l-101 -472l689 495c14 11.333 21.667 21 23 29
c3.33301 14.667 -4.33398 24.334 -23.001 29.001l-36 6l8 40h366l-8 -40c-20 0 -40.667 -3.33301 -62 -10c-18.667 -6 -36.667 -15 -54 -27l-464 -337l298 -831c18 -38 41.333 -61.333 70 -70z" />
    <glyph glyph-name="uni041B" unicode="&#x41b;" horiz-adv-x="1260" 
d="M1259 -3l-305.003 0.00195312l9 41c24.667 4 43.667 11.667 57 23c15.333 12 26 33 32 63l223 1042c0.666992 6.66699 1.66699 12.667 3 18c1.33301 6.66699 2 13.334 2 20.001c0 8 -1.33301 15 -4 21c-6 12 -19.667 19 -41 21h-494c-19.333 0 -35.666 -8 -48.999 -24
c-5.33301 -6 -10 -15.333 -14 -28c-2 -4.66699 -5.33301 -16.334 -10 -35.001l-26 -124l-36 -172c-28.667 -133.333 -54 -241 -76 -323c-25.333 -94 -46.666 -162.333 -63.999 -205c-20 -50.667 -42.667 -99 -68 -145c-24 -43.333 -48.667 -80 -74 -110s-52 -53.333 -80 -70
c-26.667 -16 -55.667 -24 -87 -24c-30.667 0 -56.334 5.33301 -77.001 16c-19.333 10.667 -33.333 25 -42 43c-2.66699 8.66699 -4.66699 15.667 -6 21c-1.33301 6.66699 -2 12.667 -2 18l2 16c6 20.667 19.667 39.334 41 56.001c21.333 16 44 24 68 24
c16.667 0 30.334 -4 41.001 -12c0.666992 -0.666992 5.33398 -2 14.001 -4c16 0 34.667 11.667 56 35c16.667 18 33.334 44 50.001 78c15.333 31.333 26.666 61.666 33.999 90.999l51 208l71 297l48 221l29 135c1.33301 5.33301 2 9.33301 2 12v9c0 16.667 -5 30 -15 40
c-13.333 10 -32.666 17.667 -57.999 23l8 41h1077l-9 -42c-26.667 -4 -46 -11 -58 -21c-7.33301 -6.66699 -13.333 -14.334 -18 -23.001s-9 -22.667 -13 -42l-236 -1102c-2 -12 -3 -23 -3 -33c0 -12.667 2.33301 -22.334 7 -29.001c7.33301 -12 23.666 -20 48.999 -24z" />
    <glyph glyph-name="uni041C" unicode="&#x41c;" horiz-adv-x="1570" 
d="M1540 -3l-276 -0.00195312l9 42c38 6.66699 61 26.334 69 59.001l2 18l41 1039l-501 -837h-71l-162 825l-409 -1027l-5 -15c-1.33301 -10.667 -2 -16.334 -2 -17.001c0 -25.333 16 -40.666 48 -45.999l-9 -41h-244l9 42c40 8.66699 68 33 84 73l448 1127
c2 10.667 3 20.334 3 29.001c0 12 -2.33301 20.333 -7 25c-4.66699 8 -15 14.333 -31 19l9 42h215l158 -797l480 797h221l-8 -41c-35.333 -5.33301 -57 -26.666 -65 -63.999l-5 -32l-44 -1105c2 -23.333 6.66699 -40.333 14 -51c2 -1.33301 4 -2.83301 6 -4.5
s3.66699 -2.83398 5 -3.50098l4 -2l1 -1l22 -11z" />
    <glyph glyph-name="uni041D" unicode="&#x41d;" horiz-adv-x="1434" 
d="M1354 -3l-301.997 -0.000976562l9 41c25.333 4 44.666 11.667 57.999 23c15.333 11.333 26 32.333 32 63l126 585h-793l-126 -585c-2 -10.667 -3 -20.334 -3 -29.001c0 -12.667 2.66699 -23.667 8 -33c8 -10 24.333 -17.667 49 -23l-9 -42h-302l9 41
c24.667 4 44 12 58 24c14.667 12.667 25 33.334 31 62.001l236 1102c2 10.667 3 20.334 3 29.001c0 14 -3 25.333 -9 34c-4 4.66699 -9.66699 9 -17 13c-6.66699 3.33301 -16.667 6.66602 -30 9.99902l9 42h302l-8 -41c-26 -5.33301 -45.333 -13 -58 -23
c-16 -14 -27 -35.333 -33 -64l-88 -413h793l88 414c0.666992 3.33301 1 9 1 17c0 2 0.166992 4.33301 0.5 7s0.5 4.33398 0.5 5.00098c0 14 -2.66699 25.667 -8 35c-7.33301 8.66699 -23.333 15.667 -48 21l9 42h302l-9 -42c-26.667 -4 -46 -11 -58 -21
c-6.66699 -5.33301 -12.334 -13 -17.001 -23c-5.33301 -11.333 -10 -25.333 -14 -42l-236 -1102c-2.66699 -10 -4 -21 -4 -33s2.66699 -21.667 8 -29c7.33301 -12 23.666 -20 48.999 -24z" />
    <glyph glyph-name="uni041E" unicode="&#x41e;" horiz-adv-x="1551" 
d="M1622 672c-23.333 -104 -60 -197.667 -110 -281c-22.667 -38.667 -51.334 -78.334 -86.001 -119.001c-34 -40 -68.333 -74.667 -103 -104c-72.667 -62.667 -156 -111.334 -250 -146.001c-96 -35.333 -195.667 -53 -299 -53s-193.666 17.333 -270.999 52
c-38.667 17.333 -73.667 38 -105 62c-29.333 22.667 -57 51 -83 85c-46.667 60 -78 134.333 -94 223c-2.66699 14 -4.66699 30.667 -6 50c-1.33301 25.333 -2 44 -2 56c0 58 6.33301 116.333 19 175c13.333 60 29.333 114 48 162c20 50 44.667 97.333 74 142
c57.333 92 125 167.333 203 226c76.667 58 161 102.667 253 134c90 30.667 179.333 46 268 46c90.667 0 174 -15.333 250 -46c36 -14 70.667 -32.667 104 -56c34 -23.333 64 -49.666 90 -78.999c52 -58 88 -133 108 -225c8 -38.667 12 -79.667 12 -123
c0 -57.333 -6.66699 -117.666 -20 -180.999zM1446 672c6.66699 31.333 11.3311 62.665 13.998 93.998c2.66699 29.333 4 62.666 4 99.999c0 34 -2.66699 64 -8 90c-6 28 -14.667 57.667 -26 89c-21.333 55.333 -54 102 -98 140c-17.333 17.333 -41 33 -71 47
c-26.667 12.667 -56.667 22 -90 28c-48 8 -89.333 12 -124 12c-105.333 0 -202.333 -26.333 -291 -79c-89.333 -53.333 -163.333 -124.666 -222 -213.999c-59.333 -90.667 -101 -193 -125 -307c-7.33301 -35.333 -12.666 -71.333 -15.999 -108
c-2.66699 -30 -4 -70.667 -4 -122c0 -33.333 5 -65.666 15 -96.999c8.66699 -27.333 22.334 -59 41.001 -95c30.667 -54 76.334 -97.333 137.001 -130c61.333 -32.667 132.666 -49 213.999 -49c84 0 162.667 16 236 48c74 32.667 138 76.334 192 131.001
c56.667 58 102.667 121.667 138 191c36 71.333 64 148.333 84 231z" />
    <glyph glyph-name="uni041F" unicode="&#x41f;" horiz-adv-x="1369" 
d="M1354 -3h-301.997l9 41c25.333 4 44.666 11.667 57.999 23c15.333 11.333 26 32.333 32 63l240 1122h-793l-240 -1122c-2 -10.667 -3 -20.334 -3 -29.001c0 -12.667 2.66699 -23.667 8 -33c8 -10 24.333 -17.667 49 -23l-9 -42h-302l9 41c24.667 4 44 12 58 24
c14.667 12.667 25 33.334 31 62.001l236 1102c2 10.667 3 20.334 3 29.001c0 14 -3 25.333 -9 34c-4 4.66699 -9.66699 9 -17 13c-6.66699 3.33301 -16.667 6.66602 -30 9.99902l9 42h1253l-9 -42c-26.667 -4 -46 -11 -58 -21c-6.66699 -5.33301 -12.334 -13 -17.001 -23
c-5.33301 -11.333 -10 -25.333 -14 -42l-236 -1102c-2.66699 -10 -4 -21 -4 -33s2.66699 -21.667 8 -29c7.33301 -12 23.666 -20 48.999 -24z" />
    <glyph glyph-name="uni0420" unicode="&#x420;" horiz-adv-x="1091" 
d="M1302 1004c-18 -82 -57.334 -153.668 -118.001 -215.001c-61.333 -62.667 -134.666 -116.667 -219.999 -162c-45.333 -23.333 -91.333 -45 -138 -65c-47.333 -20 -97.333 -39.333 -150 -58l-254 -87l-63 -293c0 -2.66699 -0.166992 -6 -0.5 -10
s-0.666016 -7 -0.999023 -9s-0.5 -3.66699 -0.5 -5c0 -15.333 3.66699 -28.666 11 -39.999c6.66699 -10.667 21.667 -18 45 -22l-9 -41h-303l9 41c24.667 4 44 12 58 24c14.667 12.667 25 33.334 31 62.001l236 1102c2 10 3 19.333 3 28c0 13.333 -3 24.666 -9 33.999
s-20.333 17.333 -43 24l9 42h409c32 0 64.667 -1 98 -3c26.667 -1.33301 58 -4 94 -8c60 -6.66699 114.667 -20.334 164 -41.001c47.333 -20 85.666 -51 114.999 -93c23.333 -35.333 35 -77.666 35 -126.999v-16c-1.33301 -10.667 -2 -16.667 -2 -18zM1128 975.999
c3.33301 21.333 5.00195 37.6699 5.00195 49.0029c0 21.333 -3.66699 44.666 -11 69.999c-10.667 35.333 -32 67 -64 95c-31.333 27.333 -69 45 -113 53c-62.667 5.33301 -129.334 8 -200.001 8l-74 -1h-71l-153 -716l180 63c37.333 13.333 65.666 23.666 84.999 30.999
c24.667 10.667 41.334 18 50.001 22c21.333 9.33301 42.333 19.333 63 30c30 15.333 53 28 69 38c23.333 13.333 39.666 23.333 48.999 30c24 17.333 49 36.666 75 57.999c57.333 48 94 104.667 110 170z" />
    <glyph glyph-name="uni0421" unicode="&#x421;" horiz-adv-x="1335" 
d="M1561 1187l-196.003 -158.999l-27 33c4 6.66699 8.66699 14 14 22c5.33301 7.33301 9 16.333 11 27c2 9.33301 3 16 3 20c0 22.667 -10 44.667 -30 66c-25.333 24 -60.666 42.667 -105.999 56c-46 13.333 -96 20 -150 20c-42 0 -84 -4 -126 -12
c-42.667 -8 -85 -20.333 -127 -37c-46.667 -18.667 -87 -40.334 -121 -65.001c-37.333 -27.333 -73.666 -60.666 -108.999 -99.999c-68 -76 -115.333 -173 -142 -291c-11.333 -56.667 -17 -108 -17 -154c0 -76 15.667 -148 47 -216
c48.667 -101.333 120.667 -179.666 216 -234.999s191 -83 287 -83c36 0 73.667 5.66699 113 17c38.667 11.333 70 27 94 47c22.667 20.667 41 45 55 73h42l-48 -227c-59.333 -6.66699 -109 -11.334 -149 -14.001c-51.333 -3.33301 -93.666 -5 -126.999 -5h-12h-11
c-18 0 -31.667 0.333008 -41 1c-18.667 1.33301 -33 2.66602 -43 3.99902c-18.667 0 -35.667 1.33301 -51 4c-2 0.666992 -21.333 4.33398 -58 11.001c-24.667 4.66699 -44 9.33398 -58 14.001c-6 2 -14.333 5 -25 9s-18.334 6.66699 -23.001 8c-30 12 -62 28.333 -96 49
c-28 17.333 -58 39.666 -90 66.999c-26.667 23.333 -51 49 -73 77c-23.333 29.333 -43 60 -59 92c-18 35.333 -31.667 68.333 -41 99c-11.333 37.333 -19 72 -23 104c-4.66699 40.667 -7 70.667 -7 90c0 50.667 5.33301 99.667 16 147c21.333 98 59 184.667 113 260
c56 78.667 122 145 198 199c77.333 55.333 162.333 98.333 255 129c94 31.333 184 47 270 47c91.333 0 175.333 -16 252 -48c32 -12.667 65 -31.334 99 -56.001c30.667 -22.667 64.334 -52.667 101.001 -90z" />
    <glyph glyph-name="uni0422" unicode="&#x422;" horiz-adv-x="1197" 
d="M1430 1141l-38.002 -0.000976562c0 22.667 -1.33301 39.667 -4 51c-2.66699 12.667 -8.66699 23 -18 31c-19.333 15.333 -51.666 23 -96.999 23h-316l-240 -1122c-2 -10.667 -3 -20.667 -3 -30c0 -16 3.33301 -27.667 10 -35c4.66699 -4.66699 11.667 -9 21 -13
c6.66699 -3.33301 18 -6 34 -8l-9 -41h-324l9 41c14 0.666992 27 3.33398 39 8.00098s21 9 27 13c15.333 10 27 31.667 35 65l240 1122h-315c-43.333 0 -79.666 -7.66699 -108.999 -23c-24.667 -14.667 -44 -42 -58 -82h-35l45 213h1151z" />
    <glyph glyph-name="uni0423" unicode="&#x423;" horiz-adv-x="1197" 
d="M1471 1313c-27.333 -4 -50.998 -11.002 -70.998 -21.002c-20.667 -10.667 -39.334 -29 -56.001 -55l-655 -1021c-40 -63.333 -87 -116.333 -141 -159c-56 -44 -110.333 -66 -163 -66c-37.333 0 -72.333 12.333 -105 37l4 203l40 11c2 -18 5.33301 -32.667 10 -44
c3.33301 -8.66699 10.666 -21 21.999 -37c9.33301 -9.33301 20.666 -17.666 33.999 -24.999c10 -5.33301 22.667 -8 38 -8c24 0 47.333 9.33301 70 28c22.667 17.333 46.667 48 72 92l60 96l-226 900c-2 20.667 -15.333 37.334 -40 50.001
c-19.333 11.333 -38.666 18 -57.999 20l8 40h359l-9 -42c-10 -1.33301 -19.333 -3.33301 -28 -6l-18 -6c-15.333 -7.33301 -25 -19.333 -29 -36c-1.33301 -9.33301 -2 -16 -2 -20c0.666992 -2 1 -4.66699 1 -8l172 -719l446 708c4.66699 8 8.66699 17.667 12 29
c0.666992 2 1 4.66699 1 8v6c0 13.333 -5.66699 24 -17 32c-10 7.33301 -23.333 12 -40 14l8 40h309z" />
    <glyph glyph-name="uni0424" unicode="&#x424;" horiz-adv-x="1475" 
d="M1620 732c-16.667 -80 -49.9971 -156.667 -99.9971 -230c-49.333 -73.333 -111.333 -138 -186 -194c-32 -24.667 -69.333 -48.667 -112 -72c-36.667 -20 -78 -38.667 -124 -56c-2 -0.666992 -19.333 -5.33398 -52 -14.001c-14.667 -4 -32.667 -8 -54 -12
c-18.667 -3.33301 -37.334 -5.66602 -56.001 -6.99902c-22.667 -1.33301 -40 -2 -52 -2l-5 -21c-2.66699 -11.333 -4 -23 -4 -35c0 -11.333 2.33301 -20.666 7 -27.999c10 -10 25.667 -17.333 47 -22l-9 -42h-301l9 42c23.333 4.66699 42 12.334 56 23.001
c12.667 10 22.667 30.667 30 62l5 20c-56 0 -107 7.33301 -153 22s-92 36.334 -138 65.001c-79.333 51.333 -138 120.666 -176 207.999c-22 52.667 -33 109.334 -33 170.001c0 38 5 80.333 15 127c10 47.333 26.333 92.666 49 135.999s51.334 83.333 86.001 120
c66 72 147 127.667 243 167c94 38.667 191.333 58 292 58l44 -2c3.33301 16.667 5 31 5 43c0 13.333 -3 24 -9 32c-6.66699 8.66699 -21.334 16 -44.001 22l9 42h301l-9 -42c-22.667 -4.66699 -41.334 -12.334 -56.001 -23.001
c-6.66699 -6.66699 -12.334 -15.667 -17.001 -27c-5.33301 -12.667 -10.333 -28 -15 -46l45 1c96 0 183.333 -19 262 -57c79.333 -38 138 -94.333 176 -169c23.333 -46.667 35 -98.334 35 -155.001c0 -15.333 -1 -32 -3 -50c-1.33301 -12 -4 -30 -8 -54zM1481 735
c8 36 12 69.666 12 100.999c0 40.667 -7.66699 78 -23 112c-12 26.667 -27.333 49.334 -46 68.001c-20 20 -43 36.333 -69 49c-52 24 -110.667 36 -176 36c-26 0 -56.667 -2.33301 -92 -7l-180 -840c38 0 75 5.33301 111 16c33.333 10 74.333 26.333 123 49
c79.333 38 150.333 92.333 213 163s105 155 127 253zM742.003 253.999l180.001 840l-90 7c-104.667 0 -199.334 -29.333 -284.001 -88c-42.667 -28.667 -78.667 -66.334 -108 -113.001c-27.333 -44 -49 -99 -65 -165c-8 -39.333 -12 -75.666 -12 -108.999
c0 -51.333 9.66699 -99.333 29 -144c32.667 -70 81 -124.333 145 -163c60 -36 128.333 -57.667 205 -65z" />
    <glyph glyph-name="uni0425" unicode="&#x425;" horiz-adv-x="1284" 
d="M1272 -3l-359 0.00292969l9 42c46.667 11.333 72.334 27.666 77.001 48.999c2 9.33301 0.333008 18.666 -5 27.999l-238 496l-431 -485c-13.333 -13.333 -21.666 -27 -24.999 -41c-0.666992 -2 -1 -5 -1 -9c0 -22 17 -35 51 -39l-9 -41h-315l9 41
c14 3.33301 25.667 6.66602 35 9.99902s19.666 9 30.999 17c8 5.33301 19 13 33 23c10.667 8 20.667 18 30 30l549 596l-266 547c-9.33301 18 -20 31 -32 39c-12.667 8.66699 -28.334 13 -47.001 13l8 41h360l-8 -41c-46.667 -8.66699 -73 -25 -79 -49
c-2.66699 -8.66699 -1 -19.667 5 -33l196 -397l356 393c4.66699 4.66699 9.33398 11 14.001 19s7.33398 13.333 8.00098 16c1.33301 5.33301 2 10 2 14c0 10.667 -5.66699 19.667 -17 27c-4.66699 2 -10.334 4.33301 -17.001 7c-4.66699 2 -11 3 -19 3l8 41h305l-8 -41
c-40.667 -8 -82.334 -32.667 -125.001 -74l-463 -503l298 -618l25 -42l28 -26l7 -3.5c3.33301 -1.66699 6 -3.16699 8 -4.5c5.33301 -2.66699 12.333 -4 21 -4z" />
    <glyph glyph-name="uni0426" unicode="&#x426;" horiz-adv-x="1454" 
d="M1391 -278l-51 -0.000976562c1.33301 5.33301 3.33301 24.666 6 57.999c2 22.667 3 44.334 3 65.001s-3 40.334 -9 59.001c-5.33301 17.333 -14.666 34.333 -27.999 51c-22 30 -56 45 -102 45h-1108l9 41c24 4 43.333 11.667 58 23c14.667 13.333 25 34.333 31 63
l235 1099c2 10.667 3 20.334 3 29.001c0 14 -3 25.333 -9 34c-4 4.66699 -9.66699 9 -17 13c-6.66699 3.33301 -16.667 6.66602 -30 9.99902l9 42h301l-8 -40c-14.667 -3.33301 -25.334 -6.66602 -32.001 -9.99902c-8.66699 -4 -17 -8.66699 -25 -14
c-10 -10 -17 -18.667 -21 -26c-6 -10.667 -10.333 -23.334 -13 -38.001l-238 -1112h793l238 1113c1.33301 6.66699 2 12.334 2 17.001v12c0 14.667 -3 26.667 -9 36c-5.33301 8 -21 14.667 -47 20l9 42h302l-9 -42c-26.667 -4 -46 -11 -58 -21
c-7.33301 -6.66699 -13.333 -14.334 -18 -23.001c-3.33301 -6.66699 -8 -20.667 -14 -42l-238 -1112h168z" />
    <glyph glyph-name="uni0427" unicode="&#x427;" horiz-adv-x="1302" 
d="M1287 -3l-301 0.000976562l9 41c24.667 4 43.667 11.667 57 23c15.333 11.333 26 32.333 32 63l127 594c-94 -51.333 -184 -89.666 -270 -114.999c-37.333 -11.333 -79 -21 -125 -29c-38 -6.66699 -78 -10 -120 -10c-92.667 0 -178 20 -256 60c-32 17.333 -56 50 -72 98
c-10 28.667 -15 59 -15 91c0 18 2 37 6 57l76 356c2 10.667 3 20.334 3 29.001c0 14 -3 25.333 -9 34c-4 4.66699 -9.66699 9 -17 13c-6.66699 3.33301 -16.667 6.66602 -30 9.99902l9 42h302l-8 -41c-24 -4.66699 -43.333 -12.334 -58 -23.001c-16 -14 -27 -35.333 -33 -64
l-79 -370c-2 -8 -3 -16 -3 -24c0 -17.333 5.33301 -36.333 16 -57c12.667 -24.667 29 -43.334 49 -56.001c40.667 -20.667 93.667 -31 159 -31c131.333 0 297 43 497 129l87 410c1.33301 6.66699 2 12.334 2 17.001v12c0 14 -2.66699 25.667 -8 35
c-7.33301 9.33301 -23 16.333 -47 21l9 42h301l-9 -42c-26.667 -4 -46 -11 -58 -21c-7.33301 -6.66699 -13.333 -14.334 -18 -23.001s-9 -22.667 -13 -42l-236 -1102c-2 -11.333 -3 -21 -3 -29c0 -14 3 -25.333 9 -34c7.33301 -10 23 -17.333 47 -22z" />
    <glyph glyph-name="uni0428" unicode="&#x428;" horiz-adv-x="1711" 
d="M1706 -3l-1605 0.00292969l9 41c24.667 4 44 12 58 24c14.667 12.667 25 33.334 31 62.001l236 1102c2 10.667 3 20.334 3 29.001c0 14 -3 25.333 -9 34c-4 4.66699 -9.66699 9 -17 13c-6.66699 3.33301 -16.667 6.66602 -30 9.99902l9 42h301l-8 -41
c-26 -5.33301 -45.333 -13 -58 -23c-16 -14 -27 -35.333 -33 -64l-238 -1115h495l238 1115c2 10 3 19.333 3 28c0 14 -3.33301 25.667 -10 35c-4 5.33301 -9.66699 9.66602 -17 12.999c-6.66699 3.33301 -16.667 6.66602 -30 9.99902l9 42h301l-9 -42
c-26 -4.66699 -45.333 -12.334 -58 -23.001c-13.333 -12.667 -23.666 -33.667 -30.999 -63l-238 -1115h494l238 1115c2 11.333 3 21 3 29c0 14 -3.66699 25.667 -11 35c-8 10 -24.333 17.333 -49 22l9 42h304l-9 -42c-26 -4.66699 -45.333 -12.334 -58 -23.001
c-13.333 -12.667 -23.666 -33.667 -30.999 -63l-236 -1102c-2.66699 -10 -4 -21 -4 -33s2.66699 -21.667 8 -29c7.33301 -12 23.666 -20 48.999 -24z" />
    <glyph glyph-name="uni0429" unicode="&#x429;" horiz-adv-x="1816" 
d="M1740 -278l-55 0.000976562c2 11.333 4.33301 30.666 7 57.999c1.33301 15.333 2 37 2 65c0 40.667 -12 77.334 -36 110.001c-21.333 30 -54.333 45 -99 45h-1457l9 41c23.333 4 42.666 11.667 57.999 23c14.667 13.333 25 34.333 31 63l235 1099
c2 10.667 3 20.334 3 29.001c0 14 -3 25.333 -9 34c-10 10 -25.667 17.667 -47 23l9 42h301l-8 -40c-26 -6 -45.333 -14 -58 -24c-16 -14 -27 -35.333 -33 -64l-238 -1112h495l238 1112c2 9.33301 3 17.666 3 24.999c0 14 -3.66699 26.333 -11 37c-6.66699 10 -22 18 -46 24
l9 42h300l-9 -42c-25.333 -4.66699 -44.333 -12.334 -57 -23.001c-14 -12 -24.667 -33 -32 -63l-238 -1112h494l238 1112c2 11.333 3 21 3 29c0 14.667 -3.33301 26.334 -10 35.001c-7.33301 10 -24 17.333 -50 22l9 42h304l-9 -42
c-26 -4.66699 -45.333 -12.334 -58 -23.001c-13.333 -12.667 -23.666 -33.667 -30.999 -63l-238 -1112h164z" />
    <glyph glyph-name="uni042A" unicode="&#x42a;" horiz-adv-x="1496" 
d="M1563 393c-10 -47.333 -28.001 -93.3311 -54.001 -137.998c-34 -56.667 -76 -102.667 -126 -138c-26 -18.667 -51.667 -34 -77 -46c-24.667 -12 -52.667 -22.667 -84 -32c-57.333 -17.333 -115 -29 -173 -35c-5.33301 0 -38 -1.33301 -98 -4
c-44.667 -2 -77.667 -3 -99 -3h-515l9 41c25.333 4 44.666 11.667 57.999 23c15.333 11.333 26 32.333 32 63l240 1122h-196c-45.333 0 -80.666 -7.33301 -105.999 -22s-45.666 -42.334 -60.999 -83.001h-34l45 213h604l-9 -42
c-25.333 -4.66699 -44.333 -12.334 -57 -23.001c-14 -12 -24.667 -33 -32 -63l-89 -416h382c96.667 0 183.667 -18 261 -54c74.667 -34 129.667 -85 165 -153c15.333 -38 23 -79.333 23 -124c0 -27.333 -3 -56 -9 -86zM1393 404.002c3.33301 13.333 5.33301 25.334 6 36.001
c1.33301 14.667 2 26 2 34c0 24.667 -3.33301 46 -10 64c-11.333 37.333 -32.333 68.333 -63 93c-13.333 11.333 -29.333 21.666 -48 30.999c-15.333 7.33301 -35.333 14.666 -60 21.999c-22.667 6.66699 -45 11.334 -67 14.001c-25.333 3.33301 -49.333 5 -72 5h-363
l-127 -596h335c111.333 0 208 19 290 57s138.667 108.333 170 211z" />
    <glyph glyph-name="uni042B" unicode="&#x42b;" horiz-adv-x="1626" 
d="M1622 -3l-305.001 -0.00195312l9 41c23.333 4 43.333 11.667 60 23c14.667 12.667 25.667 33.667 33 63l236 1102c2 12 3 22 3 30c0 15.333 -3.33301 27.333 -10 36c-6 8 -22.667 14.667 -50 20l9 42h305l-9 -42c-28.667 -5.33301 -48.667 -12.333 -60 -21
c-5.33301 -5.33301 -10.666 -13.666 -15.999 -24.999c-6 -13.333 -10.667 -26.666 -14 -39.999l-236 -1102c-2 -12 -3 -22.333 -3 -31c0 -12 2.66699 -22.667 8 -32c8 -11.333 24.333 -19 49 -23zM1328 395.998c-8.66699 -44.667 -27.332 -91.334 -55.999 -140.001
c-19.333 -32 -38 -58 -56 -78c-19.333 -21.333 -42.333 -41.666 -69 -60.999c-48.667 -35.333 -101.667 -61.333 -159 -78c-60.667 -18 -117.334 -29.333 -170.001 -34c-60.667 -5.33301 -127 -8 -199 -8h-514l9 41c21.333 4 39.333 12 54 24
c7.33301 6.66699 13.666 14.667 18.999 24c4.66699 8.66699 8.66699 21.334 12 38.001l236 1102c2 10 3 19.667 3 29c0 14 -3 25.333 -9 34c-8.66699 10.667 -23 18.334 -43 23.001l9 42h297l-9 -42c-24.667 -5.33301 -43 -13 -55 -23
c-13.333 -12.667 -23.666 -33.667 -30.999 -63l-89 -416h378c97.333 0 184.333 -18 261 -54c36 -16 68.333 -37.333 97 -64s51 -56.334 67 -89.001c8.66699 -22.667 14.667 -40.334 18 -53.001c4 -14.667 6 -30.667 6 -48c0 -1.33301 0.166992 -3.83301 0.5 -7.5
s0.5 -6.5 0.5 -8.5v-12c0 -21.333 -2.66699 -47.333 -8 -78zM1156 403.998c2.66699 13.333 4.66699 25.333 6 36c1.33301 14.667 2 26 2 34c0 24.667 -3.33301 46 -10 64c-13.333 37.333 -34.666 68.333 -63.999 93c-26.667 23.333 -62.667 41.333 -108 54
c-27.333 6.66699 -49.333 11 -66 13c-25.333 3.33301 -49 5 -71 5h-360l-127 -596h331c74 0 140 7 198 21c59.333 14 112.333 40.667 159 80c47.333 39.333 81.666 95 102.999 167z" />
    <glyph glyph-name="uni042C" unicode="&#x42c;" horiz-adv-x="1260" 
d="M1333 396c-8.66699 -44.667 -27.332 -91.332 -55.999 -139.999c-18 -30 -37 -56 -57 -78c-20.667 -22.667 -43.334 -43 -68.001 -61c-51.333 -36 -105 -62.333 -161 -79c-56.667 -17.333 -113.667 -28.333 -171 -33c-60.667 -5.33301 -127 -8 -199 -8h-516l9 41
c22 4 40 12 54 24c7.33301 6.66699 13.666 14.667 18.999 24c4.66699 8.66699 8.66699 21.334 12 38.001l236 1102c2 10 3 19.667 3 29c0 13.333 -2.66699 23.666 -8 30.999c-6 8 -11.333 13.333 -16 16c-8 4 -17.333 7.33301 -28 10l9 42h298l-9 -42
c-22.667 -5.33301 -41 -13 -55 -23c-13.333 -12.667 -23.666 -33.667 -30.999 -63l-89 -416h380c97.333 0 184.333 -17.667 261 -53s132 -86.666 166 -153.999c8.66699 -22.667 14.667 -40.334 18 -53.001c4 -14.667 6 -30.667 6 -48v-16c0 -2 0.166992 -4.33301 0.5 -7
s0.5 -4.33398 0.5 -5.00098c0 -21.333 -2.66699 -47.333 -8 -78zM1160 404.002c2.66699 13.333 4.66797 25.335 6.00098 36.002c1.33301 14.667 2 26 2 34c0 24.667 -3.33301 46 -10 64c-13.333 37.333 -34.333 68 -63 92c-28 23.333 -64.667 41.666 -110 54.999
c-27.333 6.66699 -49.333 11 -66 13c-25.333 3.33301 -49.333 5 -72 5h-361l-127 -596h333c72.667 0 137.667 6.66699 195 20c60.667 14.667 115 42 163 82c47.333 39.333 81.666 94.666 102.999 165.999z" />
    <glyph glyph-name="uni042D" unicode="&#x42d;" horiz-adv-x="1302" 
d="M1447 746c-22 -104.667 -65.6641 -205.33 -130.997 -301.997c-66 -97.333 -146.667 -182.333 -242 -255c-96 -72.667 -199.667 -128.667 -311 -168c-103.333 -34 -217.333 -51 -342 -51c-80.667 0 -170.334 6.33301 -269.001 19l48 227h40
c0 -27.333 8 -51.666 24 -72.999c16 -20.667 40.333 -37 73 -49c11.333 -3.33301 28.333 -7 51 -11c15.333 -2.66699 34.333 -4 57 -4c67.333 0 140.666 13 219.999 39c74 24.667 154.333 65.334 241 122.001c80.667 52.667 152.667 119 216 199c29.333 38 56 80.333 80 127
c23.333 45.333 43 94.666 59 147.999h-510c-64 0 -106 -23.667 -126 -71h-34l53 244h33c0 -6.66699 0.666992 -14 2 -22c1.33301 -6.66699 4.33301 -12.334 9 -17.001c9.33301 -10.667 21.333 -18.667 36 -24c16 -4.66699 32 -7 48 -7h511
c1.33301 10.667 2.66602 27.667 3.99902 51c0.666992 13.333 1 24 1 32c0 50 -7 94 -21 132c-21.333 59.333 -52.666 105.666 -93.999 138.999c-38.667 33.333 -85.667 58.666 -141 75.999c-54 16.667 -110.333 25 -169 25c-56.667 0 -110 -6.66699 -160 -20
c-26 -6.66699 -49.333 -14.667 -70 -24c-22.667 -10 -41.667 -20.667 -57 -32c-34.667 -22.667 -55.667 -50.334 -63 -83.001c-1.33301 -6.66699 -2 -13.667 -2 -21c0 -11.333 1.66699 -22 5 -32l-40 -32l-131 158c57.333 40.667 100.666 69 129.999 85
c42.667 24 87.667 44.667 135 62c90.667 32 179.667 48 267 48c92.667 0 177 -15.333 253 -46c36.667 -14 72.667 -32.333 108 -55c31.333 -20 61.333 -45.333 90 -76c56 -54 94.667 -121 116 -201c11.333 -40 17 -83.333 17 -130c0 -22 -1 -43 -3 -63
c-1.33301 -16.667 -5 -38 -11 -64z" />
    <glyph glyph-name="uni042E" unicode="&#x42e;" horiz-adv-x="1753" 
d="M1879 672c-23.333 -104 -58.666 -197.999 -105.999 -281.999c-22 -38.667 -48.333 -78.334 -79 -119.001c-29.333 -38 -61.333 -73 -96 -105c-30 -27.333 -66 -54.666 -108 -81.999c-38 -24.667 -78.667 -45.667 -122 -63c-81.333 -34.667 -170.666 -52 -267.999 -52
c-100 0 -185.333 19.667 -256 59c-34 19.333 -64.667 42 -92 68c-26.667 26 -50.667 58 -72 96c-22 40 -38 75.667 -48 107c-13.333 43.333 -20 85 -20 125c-2.66699 19.333 -4 44.666 -4 75.999c0 63.333 8 133 24 209h-149l-126 -585c-2 -10.667 -3 -20 -3 -28
c0 -13.333 2.66699 -24.666 8 -33.999c8 -10 24.333 -17.667 49 -23l-9 -42h-301l9 41c23.333 4 42.666 11.667 57.999 23c14.667 12.667 25 33.667 31 63l236 1102c2 10 3 19.333 3 28c0 14.667 -3 26.334 -9 35.001c-10 10 -25.667 17.667 -47 23l9 42h301l-8 -41
c-26 -5.33301 -45.333 -13 -58 -23c-16 -14 -27 -35.333 -33 -64l-88 -413h159c36 98 80.667 180.667 134 248c54 72.667 114 132 180 178c32 23.333 65.333 43.666 100 60.999c36 18 72 33 108 45c73.333 24 145 36 215 36c80.667 0 155 -14.667 223 -44
c65.333 -28.667 123.666 -74 174.999 -136c46 -58.667 77 -133.334 93 -224.001c6 -34 9 -70 9 -108c0 -58 -7.33301 -123.667 -22 -197zM1714 672.001c14 66.667 20.998 131.335 20.998 194.002c0 32 -2.33301 62 -7 90c-5.33301 34 -12 63.333 -20 88
c-17.333 56 -44.666 102.667 -81.999 140s-86.333 62.666 -147 75.999c-20.667 4 -34 6.33301 -40 7c-25.333 3.33301 -48.666 5 -69.999 5c-94.667 0 -182.667 -26.333 -264 -79c-83.333 -54 -152 -126.667 -206 -218c-25.333 -42.667 -48.333 -90.334 -69 -143.001
c-20 -52.667 -36 -106 -48 -160c-9.33301 -38.667 -15.333 -75.667 -18 -111c-2.66699 -31.333 -4 -70.666 -4 -117.999c0 -34 4 -67 12 -99c7.33301 -29.333 19.666 -60.333 36.999 -93c26 -54 65.667 -98 119 -132c28 -16 57.333 -28 88 -36s66 -12 106 -12
c76 0 146.333 15.667 211 47c68 32.667 126.333 76 175 130c50.667 55.333 93.334 120 128.001 194c16 33.333 31 70.666 45 111.999c11.333 36 22.333 75.333 33 118z" />
    <glyph glyph-name="uni042F" unicode="&#x42f;" horiz-adv-x="1155" 
d="M1150 -3l-302.998 0.000976562l9 41c23.333 4 41.666 11.667 54.999 23c16 12 28 33 36 63l106 494h-195l-588 -621h-218l9 42c42 8.66699 78.667 26.667 110 54l513 533c-50 6.66699 -92 14.667 -126 24c-32.667 8.66699 -63.334 20.667 -92.001 36
s-52.334 32.333 -71.001 51c-19.333 19.333 -35.333 43.333 -48 72c-12.667 28 -19 62 -19 102c0 30.667 3.66699 61.667 11 93c5.33301 26.667 12 50 20 70c10 26 20.667 48 32 66c26.667 44 58 80.667 94 110c48.667 38.667 102.334 65.667 161.001 81
c32.667 8 63.334 13.667 92.001 17c33.333 4 67.666 6 102.999 6h596l-9 -42c-22.667 -4.66699 -41 -12.334 -55 -23.001c-13.333 -12.667 -23.666 -33.667 -30.999 -63l-236 -1102c-2 -12 -3 -22.333 -3 -31c0 -14 2.33301 -24.333 7 -31
c9.33301 -10 25.666 -17.667 48.999 -23zM1076 725.001l111.001 520.999h-309c-52.667 0 -95 -2.33301 -127 -7c-34.667 -5.33301 -68.334 -15.333 -101.001 -30c-33.333 -15.333 -62.333 -38.333 -87 -69c-26 -30 -46.667 -69.333 -62 -118l-10 -39
c-4.66699 -19.333 -7 -39.666 -7 -60.999c0 -131.333 110 -197 330 -197h262z" />
    <glyph glyph-name="uni0430" unicode="&#x430;" horiz-adv-x="993" 
d="M946 -3l-198.999 0.00195312l4 110c-68.667 -40.667 -133.334 -70.667 -194.001 -90c-32.667 -11.333 -63 -19.333 -91 -24c-30.667 -5.33301 -59.667 -8 -87 -8c-117.333 0 -195.333 45.333 -234 136c-11.333 28 -17 55.667 -17 83c0 19.333 2.33301 38.666 7 57.999
c5.33301 22 12.666 43.333 21.999 64c10.667 22.667 23.667 45.334 39 68.001c31.333 44.667 68.666 81.667 111.999 111c70.667 46 149.334 78 236.001 96c82 17.333 190.667 33.666 326 48.999c1.33301 8 2 14.667 2 20v15c0 30 -7 55.667 -21 77
c-15.333 27.333 -39.666 48 -72.999 62c-31.333 13.333 -68 20 -110 20c-36 0 -75 -6 -117 -18s-80 -29 -114 -51c-33.333 -24 -59.333 -48.667 -78 -74h-35l33 154c56 24.667 115.667 44.334 179 59.001c58.667 14 115 21 169 21c50 0 96 -5 138 -15
c43.333 -10 77 -23.333 101 -40c25.333 -17.333 44 -39.333 56 -66c11.333 -25.333 17 -57 17 -95c0 -29.333 -4.66699 -67.333 -14 -114l-104 -490c-2.66699 -8.66699 -4 -18.334 -4 -29.001c0 -14 3.33301 -25.667 10 -35c9.33301 -10.667 25.333 -18.334 48 -23.001z
M849.001 556.002c-100 -10 -179.669 -22.001 -239.002 -36.001s-117.666 -37.333 -174.999 -70c-33.333 -18 -64 -44.667 -92 -80c-13.333 -18 -23.666 -34.667 -30.999 -50c-8 -17.333 -14 -32.666 -18 -45.999c-3.33301 -12 -5 -26 -5 -42c0 -22.667 6 -43.667 18 -63
c30.667 -48.667 78 -73 142 -73c54 0 111 15 171 45c30.667 14.667 58.667 31 84 49c26.667 18.667 53 40 79 64z" />
    <glyph glyph-name="uni0431" unicode="&#x431;" horiz-adv-x="1024" 
d="M1117 449c-8.66699 -42.667 -22.3438 -84.001 -41.0107 -124.001c-17.333 -36.667 -41.666 -75.667 -72.999 -117c-55.333 -76 -124.666 -137.667 -207.999 -185c-80.667 -45.333 -163.667 -68 -249 -68c-62.667 0 -118.667 13 -168 39c-48.667 26 -91 63 -127 111
c-18 27.333 -31 51.666 -39 72.999c-9.33301 24.667 -17.666 54 -24.999 88c-4.66699 26 -7 56.333 -7 91c0 24 3.33301 55.333 10 94c7.33301 44 16 104.667 26 182l27 172c12 53.333 25.667 99 41 137c17.333 42 40.666 82.333 69.999 121
c30.667 39.333 69 74.333 115 105c48 32 97 57.667 147 77c53.333 20.667 103 35.334 149 44.001c12.667 2 26.334 4.5 41.001 7.5s25.334 5.16699 32.001 6.5s11.334 2 14.001 2c28.667 4.66699 59.334 7 92.001 7c54 0 101 5.66699 141 17
c38.667 10.667 68.334 26 89.001 46l50 -5l-54 -120c-2.66699 -7.33301 -11 -14.333 -25 -21c-10 -4.66699 -31.667 -12 -65 -22c-23.333 -7.33301 -53.333 -14 -90 -20c-27.333 -4.66699 -60.666 -7 -99.999 -7c-52 0 -102 -6 -150 -18c-48.667 -12 -98 -29.333 -148 -52
c-91.333 -42.667 -156.666 -109 -195.999 -199c-6.66699 -15.333 -12 -29.666 -16 -42.999c-4.66699 -16 -8.66699 -32.333 -12 -49c-4.66699 -21.333 -7 -32.333 -7 -33c-1.33301 -10.667 -2 -19.667 -2 -27c0 -10 1 -21.333 3 -34c18.667 26 37.334 48 56.001 66
c18.667 17.333 39.334 34 62.001 50c40 28.667 84.667 51.667 134 69c20 6.66699 44 12.667 72 18c20.667 4 43 6 67 6c61.333 0 118.333 -12.667 171 -38c52 -25.333 94.667 -60 128 -104c33.333 -44.667 56 -97.334 68 -158.001
c2.66699 -13.333 4.66699 -26.666 6 -39.999c1.33301 -16 2 -30 2 -42c0 -15.333 -1 -32 -3 -50c-1.33301 -14 -4 -31.667 -8 -53zM957.99 448.999c8.66699 39.333 13 79.6699 13 121.003v19v15c-1.33301 9.33301 -2 14.333 -2 15c-4.66699 52.667 -21.667 98 -51 136
c-25.333 37.333 -65.666 62.666 -120.999 75.999c-4 0.666992 -9.66699 1.5 -17 2.5s-12.666 1.5 -15.999 1.5c-14.667 1.33301 -25 2 -31 2c-66 0 -127 -19 -183 -57c-57.333 -38.667 -104.666 -89 -141.999 -151c-39.333 -65.333 -65.333 -128.666 -78 -189.999
c-2.66699 -14 -5.33398 -33.667 -8.00098 -59c-2 -20.667 -3 -42.334 -3 -65.001v-17c0 -20.667 2.66699 -40.667 8 -60c3.33301 -12.667 11.666 -33.334 24.999 -62.001c18.667 -36.667 45.334 -65.667 80.001 -87c36 -20 79.333 -30 130 -30c29.333 0 55.333 2.33301 78 7
c24.667 5.33301 47.667 13 69 23c43.333 21.333 82.333 50.666 117 87.999c19.333 20 34.666 39 45.999 57c10 15.333 22.333 38.333 37 69c19.333 41.333 35.666 90 48.999 146z" />
    <glyph glyph-name="uni0432" unicode="&#x432;" horiz-adv-x="961" 
d="M1020 271c-8.66699 -40.667 -29.333 -80.666 -62 -119.999c-21.333 -24 -43.333 -45 -66 -63c-20.667 -16 -48 -32.333 -82 -49c-58 -28 -123.667 -42 -197 -42h-526l8 34c11.333 0 21.666 2 30.999 6c6 2.66699 14.667 9 26 19c8.66699 8 16 17.333 22 28
c4.66699 9.33301 9.33398 25.333 14.001 48l139 651c2 11.333 3 21.333 3 30c0 36.667 -20.667 57 -62 61l6 31h501c76 0 140 -11.333 192 -34c24.667 -12 41.667 -27.667 51 -47c10 -21.333 15 -48.333 15 -81l-4 -26c-8 -35.333 -28.667 -73 -62 -113
c-16 -18 -35 -34.333 -57 -49c-20 -13.333 -48.333 -27.333 -85 -42c31.333 -6.66699 57.333 -14.334 78 -23.001c21.333 -8.66699 38.333 -18.667 51 -30c28 -22.667 47.667 -51 59 -85c7.33301 -20 11 -41.667 11 -65v-16c0 -2 -1.33301 -9.66699 -4 -23zM880.001 687.001
c1.33301 6.66699 2.00195 12.333 2.00195 17v13c0 30 -8 52 -24 66c-18.667 18.667 -50.334 28 -95.001 28h-285l-56 -262h242c18 0 36 1.66699 54 5c16 3.33301 32 8 48 14c16 6.66699 30 14 42 22c15.333 10.667 26.666 20 33.999 28c9.33301 10.667 17 21.334 23 32.001
c6 11.333 11 23.666 15 36.999zM881.003 293c1.33301 5.33301 2.33203 11.667 2.99902 19c0.666992 5.33301 1 12.333 1 21c0 40 -15.333 69.333 -46 88c-37.333 25.333 -98.666 38 -183.999 38h-252l-79 -369h277c24.667 0 49.667 3 75 9s52.333 16 81 30
c55.333 28 93.333 71.333 114 130z" />
    <glyph glyph-name="uni0433" unicode="&#x433;" horiz-adv-x="792" 
d="M932 740l-24.002 -0.000976562c0 26.667 -8 46 -24 58c-15.333 11.333 -44.666 17 -87.999 17h-315l-149 -697c-2.66699 -11.333 -4 -24 -4 -38c0 -8 0.666992 -14.667 2 -20c2 -7.33301 8.33301 -13.333 19 -18c8.66699 -4 21.334 -7.66699 38.001 -11l-8 -34h-292l8 34
c24 4 43.667 11.667 59 23c14.667 14 25 35.333 31 64l142 662c0.666992 6.66699 1.66699 12.667 3 18c1.33301 6.66699 2 13.334 2 20.001c0 12.667 -2.66699 22.667 -8 30c-6 10.667 -24.667 19 -56 25l6 32h693z" />
    <glyph glyph-name="uni0434" unicode="&#x434;" horiz-adv-x="1027" 
d="M1228 872c-14 -3.33301 -26.667 -7.33203 -38 -11.999c-10.667 -4 -19 -8.66699 -25 -14c-12.667 -10 -23.667 -33 -33 -69l-131 -614c-8.66699 -45.333 -13.334 -70.666 -14.001 -75.999c-6 -32 -12.667 -60.333 -20 -85c0 -9.33301 -2.66699 -25.333 -8 -48
c-1.33301 -6.66699 -3.66602 -16.5 -6.99902 -29.5s-5.66602 -22.5 -6.99902 -28.5c-12 -46.667 -22.667 -80 -32 -100c-12.667 -26.667 -35 -55.334 -67 -86.001c-24.667 -24 -52.334 -43.333 -83.001 -58c-21.333 -10 -55.333 -22.667 -102 -38
c-42.667 -12.667 -84.334 -22.667 -125.001 -30c-38 -6.66699 -80.333 -10 -127 -10c-22.667 0 -46 0.666992 -70 2c-14 0.666992 -34.667 4 -62 10c-108 24 -196.667 80.333 -266 169l187 136l19 -21c-20.667 -26.667 -32 -45 -34 -55s-3 -17 -3 -21
c0 -14.667 6.66699 -29.667 20 -45c51.333 -47.333 130 -71 236 -71c18 0 31.667 0.333008 41 1c18.667 1.33301 32.667 2.66602 42 3.99902c56 9.33301 95.333 18 118 26c34.667 11.333 65 27.666 91 48.999c28 22.667 47.333 52.334 58 89.001
c8 31.333 15 60.666 21 87.999c0.666992 2.66699 2.83398 12.334 6.50098 29.001s6.83398 32 9.50098 46c10.667 55.333 18 95 22 119c-32.667 -26 -63.667 -47.667 -93 -65c-29.333 -18 -59 -32 -89 -42c-34 -12 -63 -20 -87 -24c-30 -5.33301 -58.333 -8 -85 -8
c-79.333 0 -149 20 -209 60c-60.667 40 -98.334 95.333 -113.001 166c-6 30 -9 59.333 -9 88c0 31.333 3 63 9 95c8.66699 43.333 24 87 46 131c20 39.333 47.667 79 83 119c69.333 77.333 151 138.333 245 183c96.667 46 193.667 69 291 69h401zM989 804.001
c-44.667 4 -80.667 6 -108 6c-125.333 0 -231.333 -27.333 -318 -82c-54.667 -32.667 -103 -80.667 -145 -144c-40 -60.667 -68 -126 -84 -196c-6.66699 -27.333 -10 -55.333 -10 -84c0 -24.667 2.33301 -46 7 -64c10 -44 32.333 -79.667 67 -107
c37.333 -27.333 85 -41 143 -41c60.667 0 116.334 12 167.001 36c27.333 14 52.666 29.333 75.999 46c30.667 22 58 43 82 63z" />
    <glyph glyph-name="uni0435" unicode="&#x435;" horiz-adv-x="940" 
d="M1031 477h-695.002c-6.66699 -34 -10 -68.333 -10 -103c0 -25.333 2 -48 6 -68c4 -21.333 10 -41.666 18 -60.999c24 -59.333 61 -103.333 111 -132c49.333 -28.667 104 -43 164 -43s114.333 12.667 163 38c50.667 26.667 87.334 60 110.001 100h32l-36 -172
c-118.667 -44 -226.667 -66 -324 -66c-67.333 0 -129 11 -185 33c-58 24 -104.667 59.667 -140 107c-36 48 -59.333 102.333 -70 163c-4 24.667 -6 49.667 -6 75c0 37.333 4 75.333 12 114c7.33301 31.333 12.333 51 15 59c4.66699 15.333 12.334 34.666 23.001 57.999
c30 66.667 71 127 123 181s111.333 96.333 178 127c66 30.667 132 46 198 46c42 0 82.667 -6 122 -18c62.667 -18.667 109.667 -50.334 141 -95.001c18.667 -26 32.667 -50.667 42 -74c10 -24.667 15 -52 15 -82c2 -21.333 3 -43.333 3 -66
c0 -41.333 -3.33301 -81.666 -10 -120.999zM887.998 566c4.66699 26 7.00195 53.334 7.00195 82.001c0 48 -10 87.667 -30 119c-14.667 21.333 -36.334 38.333 -65.001 51c-26.667 12 -61.334 18 -104.001 18c-45.333 0 -92.333 -12 -141 -36c-24 -12 -46 -26 -66 -42
s-38.333 -34.333 -55 -55c-17.333 -20 -31.333 -41 -42 -63c-11.333 -22.667 -20.333 -47.334 -27 -74.001h523z" />
    <glyph glyph-name="uni0436" unicode="&#x436;" horiz-adv-x="1412" 
d="M1386 -3l-322.999 -0.00292969l7 33c6.66699 0 12.667 0.666992 18 2c6 1.33301 13.333 3.66602 22 6.99902c20.667 8.66699 33 21 37 37c0.666992 4.66699 -0.333008 12.334 -3 23.001l-171 384l-118 -94l-58 -271c-0.666992 -4 -1.66699 -9.33301 -3 -16
c-0.666992 -3.33301 -1 -9 -1 -17c0 -11.333 2.33301 -22 7 -32c4.66699 -10.667 20.334 -18 47.001 -22l-8 -34h-276l8 34c24.667 4 43 12 55 24c5.33301 6 10.666 14.333 15.999 25c5.33301 11.333 9.33301 24 12 38l58 271l-77 93l-332 -383c-8 -8 -13 -16.333 -15 -25
c-4 -14.667 2.33301 -26.334 19 -35.001c12.667 -5.33301 25 -8 37 -8l-8 -34h-323l8 35c36 8.66699 68.333 29.334 97 62.001l434 482l-215 251l-28 20c-11.333 9.33301 -23 16 -35 20c-6.66699 4 -14.334 6.33301 -23.001 7l6 31h322l-6 -31
c-26 -3.33301 -45.667 -8.66602 -59 -15.999c-13.333 -8 -21.666 -17.667 -24.999 -29c-2 -9.33301 0.666992 -18.666 8 -27.999l239 -302l62 291c2.66699 10 4 21.333 4 34s-2.33301 21.334 -7 26.001c-4 8 -18.667 15.667 -44 23l6 32h276l-6 -32
c-28 -5.33301 -47 -13 -57 -23c-4.66699 -4 -10 -11.333 -16 -22s-10.333 -23.334 -13 -38.001l-62 -291l372 302c8.66699 8.66699 14.667 17.667 18 27c0.666992 1.33301 1 3.33301 1 6c-3.33301 20 -25 33.333 -65 40l6 31h322l-6 -31
c-7.33301 0 -17.666 -2.33301 -30.999 -7c-3.33301 -1.33301 -7.33301 -2.66602 -12 -3.99902s-8 -2.33301 -10 -3c-4.66699 -1.33301 -12.334 -5.66602 -23.001 -12.999l-34 -20l-321 -251l227 -482c7.33301 -16.667 16.666 -29.667 27.999 -39
c12.667 -10.667 27 -18.334 43 -23.001z" />
    <glyph glyph-name="uni0437" unicode="&#x437;" horiz-adv-x="834" 
d="M867 258c-7.33301 -33.333 -20.998 -64.668 -40.998 -94.001c-20.667 -30 -44.667 -56.667 -72 -80c-26.667 -22.667 -58 -42.334 -94 -59.001c-68.667 -31.333 -140.667 -47 -216 -47s-147 13.667 -215 41c-36 16 -65.333 31.667 -88 47
c-24.667 16.667 -46.334 36.334 -65.001 59.001l176 142l18 -25c-14.667 -18.667 -24 -35.667 -28 -51c-1.33301 -10.667 -2 -16.334 -2 -17.001c0 -20 9.66699 -36.667 29 -50c9.33301 -5.33301 23 -11.666 41 -18.999c13.333 -5.33301 29.666 -10.666 48.999 -15.999
c12 -2 30 -4.33301 54 -7c19.333 -2 37.666 -3 54.999 -3h38c10 2 15.667 3.33301 17 4c15.333 3.33301 30 7.66602 44 12.999c14.667 6 30.334 13.333 47.001 22c30 16 55.333 36.333 76 61c12 14.667 20.333 26.334 25 35.001c8.66699 15.333 14 27.333 16 36
c3.33301 18.667 5 33.334 5 44.001c0 22.667 -4.33301 44 -13 64c-14.667 30.667 -34.667 53 -60 67c-24.667 15.333 -49.334 23 -74.001 23h-154l19 90l169 1c23.333 6.66699 44 14.667 62 24c17.333 9.33301 32.333 20.666 45 33.999c26.667 25.333 43 53 49 83
c2 9.33301 3 18.333 3 27c0 14.667 -3 30 -9 46c-8.66699 22 -26 41.333 -52 58c-15.333 9.33301 -29 15.666 -41 18.999c-14.667 4 -30.667 6 -48 6c-46 0 -97.667 -8.66699 -155 -26c-56 -17.333 -89 -45.333 -99 -84c-0.666992 -2 -1 -7.33301 -1 -16
c0 -9.33301 2 -19.666 6 -30.999l-35 -24l-88 147c50 33.333 110.333 62.333 181 87c42 14 78.667 23.667 110 29c35.333 6 69.333 9 102 9c52.667 0 101 -9.66699 145 -29c38.667 -16.667 69.667 -45 93 -85c8.66699 -14.667 14.334 -27.667 17.001 -39
c3.33301 -15.333 5 -30.333 5 -45v-26c-0.666992 -2 -1.33398 -4.5 -2.00098 -7.5s-1.16699 -5.33301 -1.5 -7s-0.5 -2.83398 -0.5 -3.50098c-8 -38.667 -26.333 -74.667 -55 -108c-14 -16 -30.333 -30.333 -49 -43c-19.333 -13.333 -44.666 -26.333 -75.999 -39
c36.667 -15.333 64 -30.333 82 -45c19.333 -15.333 33.666 -33.666 42.999 -54.999c12 -28 18 -57 18 -87c0 -10 -0.333008 -18 -1 -24c-1.33301 -12 -2.66602 -20.667 -3.99902 -26z" />
    <glyph glyph-name="uni0438" unicode="&#x438;" horiz-adv-x="1038" 
d="M1009 -2h-224.001l23 110c-70.667 -48 -134 -82.333 -190 -103c-58 -21.333 -113.667 -32 -167 -32c-31.333 0 -61.666 3.33301 -90.999 10c-122 24 -183 99.333 -183 226c0 16.667 1 34 3 52c2 20.667 5.33301 40.667 10 60l99 466c2.66699 13.333 4 23 4 29
c0 14.667 -3.33301 25.667 -10 33c-7.33301 10 -24.333 18 -51 24l6 32h221l-108 -506l-7 -36c-6.66699 -24.667 -11 -47.667 -13 -69c-2.66699 -23.333 -4 -35.666 -4 -36.999c-0.666992 -4 -1 -9.66699 -1 -17c0 -12 1.33301 -26 4 -42c2.66699 -18 10.667 -36 24 -54
c4.66699 -6.66699 12 -14 22 -22c12 -10 23.667 -17.667 35 -23c30 -14 62 -21 96 -21c47.333 0 99 13 155 39c30.667 15.333 57.667 30.333 81 45c30.667 19.333 60.667 39.666 90 60.999l120 564c2.66699 10 4 21 4 33c0 13.333 -3 23 -9 29
c-6.66699 10 -23.667 18 -51 24l6 32h220l-167 -783c-3.33301 -16.667 -5 -29 -5 -37c0 -6.66699 1 -12 3 -16c2 -11.333 9 -20.666 21 -27.999c2 -0.666992 5.33301 -1.5 10 -2.5s8 -1.83301 10 -2.5c9.33301 -2.66699 16.333 -4.33398 21 -5.00098z" />
    <glyph glyph-name="uni0439" unicode="&#x439;" 
d="M975 1165c-6 -29.333 -18.332 -57.001 -36.999 -83.001c-22.667 -36.667 -53.667 -65 -93 -85c-18.667 -9.33301 -39.334 -17 -62.001 -23c-20 -5.33301 -41 -8 -63 -8c-19.333 0 -39 2.66699 -59 8c-18 4.66699 -37 12.334 -57 23.001
c-31.333 19.333 -52.666 47.666 -63.999 84.999c-2.66699 11.333 -4 25.333 -4 42v22c0.666992 2 1.5 4.83301 2.5 8.5s1.5 5.83398 1.5 6.50098c6.66699 30.667 19 52 37 64l21 6c5.33301 0 9.33301 -2.33301 12 -7l12 -17l2 -17c0 -3.33301 0.5 -8.5 1.5 -15.5
s1.83301 -12.5 2.5 -16.5c0 -3.33301 2.33301 -17.333 7 -42l16 -32c4.66699 -10 9.66699 -18.333 15 -25c18.667 -14 41 -21 67 -21c38 0 70 14.333 96 43c11.333 11.333 23 26.666 35 45.999c22 36 35.667 58.333 41 67c1.33301 4.66699 3.33301 8.33398 6 11.001
c0.666992 0.666992 5 5.66699 13 15c5.33301 7.33301 13.666 11 24.999 11c3.33301 0 9.33301 -1.66699 18 -5c7.33301 -7.33301 11 -18 11 -32c0 -8 -1 -17.667 -3 -29zM1008 -3.00098l-224.001 0.00390625l24 110c-68 -46.667 -131.333 -80.667 -190 -102
c-58 -21.333 -113.667 -32 -167 -32c-31.333 0 -61.666 3.33301 -90.999 10c-122 25.333 -183 100.666 -183 225.999c0 32.667 4 69.667 12 111l99 463c2.66699 13.333 4 22.666 4 27.999c0 14 -3.66699 25.667 -11 35c-7.33301 10 -24.333 17.333 -51 22l7 32h221
l-107 -503l-8 -36l-13 -77c-1.33301 -6.66699 -2.33301 -14.667 -3 -24c-0.666992 -6 -1 -14.667 -1 -26v-13c1.33301 -8 2 -12.333 2 -13c3.33301 -25.333 12 -47 26 -65c6 -8.66699 13.333 -16.334 22 -23.001c10 -8 21.667 -15.333 35 -22c32 -13.333 64 -20 96 -20
c47.333 0 99 12.667 155 38c30.667 16 57.667 31 81 45c32 20 61.667 40.333 89 61l120 561c2.66699 10 4 20.667 4 32c0 13.333 -3 23 -9 29c-8 10 -25.333 18 -52 24l7 32h220l-166 -779c-3.33301 -16.667 -5 -28.667 -5 -36c0 -6.66699 1 -12 3 -16
c2 -14 9 -23.333 21 -28c2 -0.666992 5.33301 -1.5 10 -2.5s8 -1.83301 10 -2.5c9.33301 -2.66699 16.333 -4.33398 21 -5.00098z" />
    <glyph glyph-name="uni043A" unicode="&#x43a;" horiz-adv-x="1024" 
d="M1009 -3l-325 0.00195312l7 33c6 0 11.667 0.666992 17 2c8 2 15.667 4.33301 23 7c20.667 8.66699 33 21 37 37c2 7.33301 1 15 -3 23l-189 415l-188 -127l-58 -269c-1.33301 -5.33301 -2.33301 -11.333 -3 -18c-0.666992 -4.66699 -1 -10.334 -1 -17.001
c0 -11.333 2.33301 -21.666 7 -30.999c5.33301 -10 20 -17 44 -21l-8 -34h-282l8 34c20.667 4 39.334 11.667 56.001 23c16.667 14.667 28 36 34 64l142 662c2.66699 11.333 4 23.666 4 36.999c0 14 -3 24.667 -9 32c-5.33301 10 -23.333 18 -54 24l6 32h289l-6 -32
c-26 -5.33301 -44.667 -12.666 -56 -21.999c-10.667 -10.667 -19.667 -31 -27 -61l-63 -295l446 309c11.333 8.66699 17.666 17.334 18.999 26.001c4 15.333 -2 26.666 -18 33.999c-1.33301 0.666992 -4 1.66699 -8 3s-6.66699 2.33301 -8 3
c-2.66699 1.33301 -8 2.66602 -16 3.99902l6 31h324l-6 -30l-25 -5l-5 -2c-3.33301 -0.666992 -6 -1.33398 -8 -2.00098c-2.66699 -1.33301 -9 -5 -19 -11l-29 -17l-369 -244l251 -500c13.333 -30 37 -50.667 71 -62z" />
    <glyph glyph-name="uni043B" unicode="&#x43b;" horiz-adv-x="1091" 
d="M1073 -3l-292.995 0.00390625l7 33c11.333 0 22.333 2.66699 33 8c9.33301 4.66699 18 11 26 19c15.333 17.333 26.666 39 33.999 65l132 618c1.33301 10.667 2 16.334 2 17.001c0 33.333 -23.667 53.666 -71 60.999h-327c-46.667 -4.66699 -76 -31.667 -88 -81
c-20 -94.667 -42.667 -191.334 -68 -290.001c-22 -84 -46.333 -157.333 -73 -220c-18.667 -43.333 -36.334 -78.333 -53.001 -105c-19.333 -30 -40 -54.667 -62 -74c-44.667 -38.667 -95.334 -58 -152.001 -58c-37.333 0 -64.333 7.33301 -81 22
c-4 5.33301 -7 9.66602 -9 12.999c-4.66699 7.33301 -7 15.666 -7 24.999l2 14c7.33301 20 19 37 35 51c15.333 12.667 31.666 19 48.999 19c11.333 0 22.666 -3.66699 33.999 -11l14 -3c28 0 63.667 41.667 107 125c42.667 119.333 74.667 228.333 96 327
c2 8.66699 9.33301 47.334 22 116.001c4 23.333 9.66699 52.666 17 87.999l2 14c0 16 -7 33 -21 51c-17.333 16.667 -36.333 27.667 -57 33l6 31h916l-5 -27c-10 -0.666992 -19.333 -3.33398 -28 -8.00098c-7.33301 -4 -14.333 -9.66699 -21 -17
c-8.66699 -12.667 -16 -32.334 -22 -59.001l-143 -669c-3.33301 -16.667 -5 -28.667 -5 -36c0 -13.333 2.66699 -24.666 8 -33.999c8.66699 -16.667 25.667 -25 51 -25z" />
    <glyph glyph-name="uni043C" unicode="&#x43c;" horiz-adv-x="1327" 
d="M1305 -3l-287 -0.000976562l8 34c24 4 43.333 12.333 58 25c15.333 13.333 26 34.333 32 63l10 631l-401 -611h-59l-149 605l-265 -623c-4 -7.33301 -6.66699 -14 -8 -20c-0.666992 -3.33301 -1 -7 -1 -11v-6c0 -26.667 19.667 -44 59 -52l-8 -35h-295l8 34
c21.333 4 38.666 11.667 51.999 23c8.66699 8.66699 15 16.667 19 24c4 8 10 20.667 18 38l329 716l2 14c0 7.33301 -2.66699 15.333 -8 24c-9.33301 6.66699 -19.666 10.334 -30.999 11.001l5 24h188l161 -543l383 543h191l-4 -22c-30 -4 -48 -19.667 -54 -47
c-2 -7.33301 -2.66699 -13.666 -2 -18.999l4 -701c0 -28.667 3.33301 -49.334 10 -62.001c4.66699 -10 19 -17.333 43 -22z" />
    <glyph glyph-name="uni043D" unicode="&#x43d;" 
d="M1044 -3l-288.001 0.000976562l8 34c20.667 4 39 11.667 55 23c14 12.667 24.333 34 31 64l77 359h-520l-77 -359c-2.66699 -11.333 -4 -24 -4 -38c0 -8 0.666992 -14.667 2 -20c2 -7.33301 8.66699 -13.666 20 -18.999c6 -2.66699 12.667 -5 20 -7
c2.66699 -0.666992 5.83398 -1.33398 9.50098 -2.00098s5.83398 -1 6.50098 -1l-8 -34h-289l8 34c23.333 4 43 12.333 59 25c14.667 11.333 25 32 31 62l142 662c0.666992 6.66699 1.66699 12.667 3 18c1.33301 6.66699 2 13.334 2 20.001c0 13.333 -3 23.333 -9 30
c-6.66699 10.667 -25 19 -55 25l6 32h296l-6 -32c-25.333 -4.66699 -45.666 -12.667 -60.999 -24c-7.33301 -6 -13.333 -15.333 -18 -28c-5.33301 -14 -9.33301 -25.333 -12 -34l-47 -220h520l47 220c2 10 3 19 3 27c0 13.333 -2.66699 24.666 -8 33.999
c-7.33301 9.33301 -22 17.666 -44 24.999l6 32h288l-6 -31c-28.667 -4 -49.334 -11.333 -62.001 -22c-4.66699 -4 -10.667 -12 -18 -24c-6.66699 -10.667 -11.334 -24.334 -14.001 -41.001l-143 -669c-3.33301 -16.667 -5 -28.667 -5 -36c0 -5.33301 1 -10 3 -14
c2 -12 8.66699 -21 20 -27c8 -3.33301 21 -6.66602 39 -9.99902z" />
    <glyph glyph-name="uni043E" unicode="&#x43e;" horiz-adv-x="1050" 
d="M1103 452c-6.66699 -31.333 -16.665 -62.668 -29.998 -94.001c-12.667 -30 -28.334 -60.667 -47.001 -92c-18 -30 -38 -58 -60 -84c-22.667 -27.333 -47.334 -52.666 -74.001 -75.999c-54 -46.667 -113 -83.334 -177 -110.001c-66 -27.333 -131.667 -41 -197 -41
c-66.667 0 -126.667 13.667 -180 41c-52.667 26.667 -95.667 63.334 -129 110.001c-34 47.333 -57.333 100.666 -70 159.999c-5.33301 33.333 -8 62.333 -8 87c0 15.333 1 31.333 3 48c1.33301 11.333 4 28.333 8 51c12.667 61.333 38 122.333 76 183
c36 57.333 81 110 135 158c24.667 20.667 52 40.334 82 59.001c28 17.333 58.667 33.333 92 48c61.333 26.667 126.333 40 195 40c62.667 0 122 -12.667 178 -38c24 -10.667 48 -25.334 72 -44.001c21.333 -16.667 42 -37.667 62 -63c36 -44.667 60 -96.667 72 -156
c2.66699 -11.333 4.66699 -24.333 6 -39c1.33301 -20 2 -35 2 -45c0 -15.333 -0.666992 -32.333 -2 -51c-0.666992 -13.333 -3.66699 -30.666 -9 -51.999zM956.002 460.998c4 20.667 6.99805 42.667 8.99805 66s3 44.666 3 63.999s-2.33301 38 -7 56
c-5.33301 20 -11.666 38.333 -18.999 55c-14 33.333 -35 62 -63 86s-62.333 40 -103 48c-16.667 2.66699 -30 4.33398 -40 5.00098c-17.333 1.33301 -29 2 -35 2c-102 0 -188.333 -37.333 -259 -112c-34.667 -36.667 -63.667 -78.334 -87 -125.001
c-23.333 -46 -41.333 -97.333 -54 -154c-8.66699 -39.333 -13 -79.666 -13 -120.999c0 -16.667 0.333008 -29 1 -37c1.33301 -16 2.66602 -28 3.99902 -36c8 -58 32.667 -105.667 74 -143s99.333 -56 174 -56c64.667 0 127.667 19 189 57
c28.667 19.333 55.334 41.333 80.001 66c20.667 20.667 42 48.667 64 84c20.667 33.333 37.334 65.333 50.001 96c14 35.333 24.667 68.333 32 99z" />
    <glyph glyph-name="uni043F" unicode="&#x43f;" 
d="M1044 -3l-288 -0.000976562l8 34c20.667 4 39 11.667 55 23c14 12.667 24.333 34 31 64l150 700h-520l-150 -700c-2.66699 -11.333 -4 -24 -4 -38c0 -8 0.666992 -14.667 2 -20c2 -7.33301 8.66699 -13.666 20 -18.999c6 -2.66699 12.667 -5 20 -7
c2.66699 -0.666992 5.83398 -1.33398 9.50098 -2.00098s5.83398 -1 6.50098 -1l-8 -34h-289l8 34c23.333 4 43 12.333 59 25c14.667 11.333 25 32 31 62l142 662c0.666992 6.66699 1.66699 12.667 3 18c1.33301 6.66699 2 13.334 2 20.001c0 13.333 -3 23.333 -9 30
c-6.66699 10.667 -25 19 -55 25l6 32h964l-6 -31c-28.667 -4 -49.334 -11.333 -62.001 -22c-4.66699 -4 -10.667 -12 -18 -24c-6.66699 -10.667 -11.334 -24.334 -14.001 -41.001l-143 -669c-3.33301 -16.667 -5 -28.667 -5 -36c0 -5.33301 1 -10 3 -14
c2 -12 8.66699 -21 20 -27c8 -3.33301 21 -6.66602 39 -9.99902z" />
    <glyph glyph-name="uni0440" unicode="&#x440;" horiz-adv-x="1056" 
d="M1131 516c-4 -17.333 -10.333 -40.6709 -19 -70.0039c-6.66699 -22 -16 -43.667 -28 -65c-22.667 -48 -47 -88 -73 -120c-31.333 -38.667 -66 -73 -104 -103c-42 -33.333 -83.333 -60.666 -124 -81.999c-30 -15.333 -59.667 -28 -89 -38c-24 -8 -56.333 -15 -97 -21
c-63.333 -9.33301 -137.666 -14 -222.999 -14h-82l-67 -310c-2.66699 -11.333 -4 -24 -4 -38c0 -6 0.333008 -9.66699 1 -11c3.33301 -13.333 10 -22.666 20 -27.999c0.666992 -0.666992 6.66699 -3 18 -7l21 -7l-6 -30h-292l6 31c27.333 6 47.333 14.333 60 25
s23 32.334 31 65.001l233 1088c3.33301 16.667 5 29 5 37c0 14 -3 24 -9 30c-6.66699 10.667 -25 19 -55 25l6 32h224l-23 -110l56 36c28 17.333 53.333 31.333 76 42c38.667 20 75 34.667 109 44c20.667 5.33301 39 9.33301 55 12c15.333 2.66699 34.333 4 57 4
c18 0 38.667 -1.66699 62 -5c18.667 -2.66699 40 -8 64 -16c22 -7.33301 42.333 -17.333 61 -30c20 -11.333 37 -24.666 51 -39.999c13.333 -14.667 26.666 -32 39.999 -52c23.333 -36.667 38 -78.667 44 -126c0 -3.33301 0.166992 -8 0.5 -14s0.833008 -10.667 1.5 -14
c1.33301 -12 2 -22.667 2 -32c0 -28 -3 -57.333 -9 -88zM971 513.995c3.33301 10 5.33398 21.999 6.00098 35.999c1.33301 18.667 2 31.334 2 38.001c0 38.667 -6 72.334 -18 101.001c-12.667 31.333 -28.334 55.666 -47.001 72.999c-18.667 18 -43.334 32.667 -74.001 44
c-28 10.667 -57 16 -87 16c-88 0 -193.333 -46.667 -316 -140l-124 -578c44.667 -4 81.667 -6 111 -6c106 0 199.333 19.667 280 59c18.667 10 39 23 61 39c18.667 13.333 38.667 30.666 60 51.999c37.333 38.667 68.333 81.334 93 128.001
c24.667 47.333 42.334 93.333 53.001 138z" />
    <glyph glyph-name="uni0441" unicode="&#x441;" horiz-adv-x="993" 
d="M1121 782l-167.003 -147.998l-25 23c17.333 21.333 28 41.666 32 60.999c1.33301 6.66699 2 11 2 13c0 35.333 -33 64.333 -99 87c-33.333 9.33301 -66.666 14 -99.999 14c-53.333 0 -104 -10 -152 -30c-49.333 -20.667 -93.666 -50.667 -132.999 -90
c-17.333 -16 -34 -35.667 -50 -59c-15.333 -21.333 -29.666 -47.333 -42.999 -78c-13.333 -28.667 -24.333 -60.667 -33 -96c-6 -28.667 -9 -56.667 -9 -84c0 -48.667 10 -93 30 -133c32.667 -62 78.667 -109.333 138 -142c28 -16.667 57.333 -29 88 -37
c30 -8 61 -12 93 -12c43.333 0 80.666 8 111.999 24s55.333 38 72 66h32l-36 -170c-60.667 -12 -121 -18 -181 -18c-89.333 0 -172.333 14.667 -249 44c-60.667 24.667 -112.334 61 -155.001 109s-72.667 102.667 -90 164c-9.33301 35.333 -14 69 -14 101
c0 14 1 29.333 3 46c1.33301 12.667 4 28.667 8 48c6 33.333 16.333 65.666 31 96.999c22.667 52 52.667 99 90 141c16 20 34.667 39 56 57c14.667 12.667 36.667 28.667 66 48c21.333 14 46.333 28 75 42c24.667 12 50.334 22 77.001 30c32.667 10 59.667 17 81 21
c28.667 5.33301 55.334 8 80.001 8h12l16 1c70.667 0 134 -13.333 190 -40c50 -22.667 100.667 -58.667 152 -108z" />
    <glyph glyph-name="uni0442" unicode="&#x442;" horiz-adv-x="982" 
d="M1119 726h-32c-4 26.667 -9.66699 48 -17 64c-10.667 18.667 -31 28 -61 28h-237l-150 -700c-2 -10.667 -3 -20.334 -3 -29.001c0 -13.333 2.66699 -24.666 8 -33.999c8 -10 24.333 -17.667 49 -23l-8 -35h-292l8 34c22.667 4 42 12.333 58 25c14.667 11.333 25 32 31 62
l150 700h-237c-28.667 0 -52.667 -9.66699 -72 -29c-14 -14 -28 -35 -42 -63h-33l38 179h880z" />
    <glyph glyph-name="uni0443" unicode="&#x443;" horiz-adv-x="940" 
d="M1130 874c-33.333 -8.66699 -61.666 -32.6699 -84.999 -72.0029l-553 -928c-28 -46 -59 -88.667 -93 -128c-31.333 -36 -66.666 -68.333 -105.999 -97c-73.333 -52 -152 -78 -236 -78c-31.333 0 -61.333 3 -90 9l37 173h31c0 -52 26 -78 78 -78
c35.333 0 75.666 14 120.999 42c12.667 9.33301 24 18.333 34 27c9.33301 8 22.666 21 39.999 39c26 28 50 58.667 72 92c14.667 22.667 24 38.334 28 47.001c5.33301 10.667 10 24.667 14 42c2.66699 10.667 4 21.334 4 32.001c0 6 -0.333008 10 -1 12l-155 794
c-7.33301 25.333 -15 42.666 -23 51.999c-6 8.66699 -16.667 15.667 -32 21l6 30h271l-6 -30c-31.333 -7.33301 -49.333 -22.666 -54 -45.999c-0.666992 -1.33301 -1 -5.66602 -1 -12.999c0 -6 0.333008 -10 1 -12l120 -648l371 633l10 25c0.666992 2 1 6.66699 1 14
c0 23.333 -15.333 39 -46 47l6 30h242z" />
    <glyph glyph-name="uni0444" unicode="&#x444;" horiz-adv-x="1475" 
d="M1566 505c-14 -68 -40.3369 -132.002 -79.0039 -192.002c-20.667 -33.333 -41.667 -61.666 -63 -84.999c-27.333 -29.333 -54.333 -54.333 -81 -75c-55.333 -42.667 -110 -76.667 -164 -102c-53.333 -21.333 -102.333 -35 -147 -41c-25.333 -3.33301 -52 -5.33301 -80 -6
c-38.667 -1.33301 -76.334 -2 -113.001 -2l-66 -310c-2.66699 -11.333 -4 -23.666 -4 -36.999c0 -3.33301 0.666992 -8.33301 2 -15c0.666992 -4.66699 2.33398 -9.33398 5.00098 -14.001c1.33301 -2.66699 6 -6.33398 14 -11.001c1.33301 -0.666992 7.33301 -3 18 -7
c9.33301 -3.33301 15.333 -5.33301 18 -6l-6 -30h-287l6 31c28 4.66699 47.667 12.667 59 24c6 4.66699 12 12.667 18 24c6 10.667 10.333 24.334 13 41.001l66 310c-80 0 -143 2.66699 -189 8c-44 5.33301 -86.333 19 -127 41c-25.333 16 -45.666 30.667 -60.999 44
c-21.333 18.667 -40.333 38.334 -57 59.001c-38.667 41.333 -63.334 94 -74.001 158c-3.33301 12 -5.33301 26 -6 42c-1.33301 21.333 -2 36.333 -2 45c0 35.333 3.66699 69.666 11 102.999c12 56.667 31.333 108.667 58 156c14.667 26.667 29.334 49.667 44.001 69
c16 20.667 35 42 57 64c24.667 22 46.667 39.667 66 53c22.667 15.333 48.334 29.333 77.001 42c30 12.667 58 22 84 28c30 6.66699 58.333 10 85 10l44 2c54.667 0 115.334 -17.667 182.001 -53l72 364c0.666992 3.33301 1.66699 9 3 17c0.666992 4 1 9.66699 1 17
c0 14 -3 23.667 -9 29c-9.33301 9.33301 -27.333 17 -54 23l6 31h222l-102 -481c77.333 34 148 51 212 51c64.667 0 123.334 -13.333 176.001 -40c52 -26.667 93.667 -64.667 125 -114c13.333 -24 23 -49.667 29 -77c6.66699 -31.333 10 -62.666 10 -93.999
c0 -13.333 -1.33301 -30 -4 -50c-1.33301 -12 -4 -26.667 -8 -44zM1405 497.998c6 28 9 54.666 9 79.999c0 42 -8 82 -24 120c-25.333 58.667 -72.666 96.334 -141.999 113.001l-43 3c-31.333 0 -64.666 -6 -99.999 -18c-32 -10.667 -68 -29.667 -108 -57l-137 -642l22 -1
h11c76.667 0 151 16 223 48c35.333 16.667 68.666 36.667 99.999 60c32 23.333 60.667 50.333 86 81c25.333 30 46.666 63 63.999 99c17.333 34.667 30.333 72.667 39 114zM719.996 96.9971l137 641.999c-52 50 -111 75 -177 75h-18c-6 0 -15 -1 -27 -3
c-74 -16 -136.667 -53 -188 -111c-50.667 -57.333 -86 -124.666 -106 -201.999c-2 -9.33301 -4.33301 -24 -7 -44c-2 -16 -3 -30.667 -3 -44c0 -44.667 8.33301 -86 25 -124c26.667 -60 70.667 -106.333 132 -139c62.667 -33.333 140 -50 232 -50z" />
    <glyph glyph-name="uni0445" unicode="&#x445;" horiz-adv-x="919" 
d="M904 -3l-310.998 0.00195312l7 33c21.333 0 37.666 3.33301 48.999 10c12 7.33301 19.667 17 23 29c0.666992 8.66699 -0.333008 16.334 -3 23.001l-150 311l-269 -308c-4.66699 -4.66699 -8.66699 -11.334 -12 -20.001c-3.33301 -15.333 2 -27.333 16 -36
c12.667 -5.33301 24.334 -8 35.001 -8l-8 -34h-275l8 34c33.333 5.33301 62 20.333 86 45l378 413l-167 336c-16 27.333 -40.667 43.666 -74 48.999l6 31h315l-6 -30c-12 -2 -24 -5.66699 -36 -11c-14 -6 -23 -15.667 -27 -29c-1.33301 -10.667 0 -19.334 4 -26.001
l117 -238l202 224c5.33301 6.66699 8.66602 10.667 9.99902 12c6 8 9.33301 15 10 21c4.66699 24 -10 39.333 -44 46l6 31h267l-6 -30c-16.667 0 -33.334 -5 -50.001 -15c-17.333 -10 -34 -24 -50 -42l-302 -337l192 -398c16.667 -30.667 39 -48 67 -52z" />
    <glyph glyph-name="uni0446" unicode="&#x446;" horiz-adv-x="1070" 
d="M1006 -254l-48.001 0.000976562c6 30 9 58.333 9 85c0 32.667 -4.33301 61.667 -13 87c-15.333 55.333 -53.666 83 -114.999 83h-751l7 34c25.333 4 44.666 11.667 57.999 23c8.66699 8 15.667 16.667 21 26c4.66699 8.66699 8.66699 21 12 37l141 660
c2.66699 11.333 4 23.333 4 36c0 13.333 -2.66699 23.666 -8 30.999c-6.66699 10.667 -25 19 -55 25l6 32h296l-6 -32c-25.333 -4.66699 -45.666 -12.667 -60.999 -24c-7.33301 -6 -13.333 -15 -18 -27c-5.33301 -12.667 -9.33301 -24 -12 -34l-146 -687h520l146 687
c2 10 3 19 3 27c0 12.667 -2.66699 23.667 -8 33c-7.33301 10 -22 18.333 -44 25l6 32h288l-6 -31c-29.333 -4 -50.333 -11.333 -63 -22c-14 -12 -24.333 -33.333 -31 -64l-146 -687h90z" />
    <glyph glyph-name="uni0447" unicode="&#x447;" horiz-adv-x="1003" 
d="M995 -3h-288.997l8 34c24.667 4 43 11.667 55 23c14 12.667 24.333 34 31 64l78 364c-129.333 -50 -243.333 -75 -342 -75c-114.667 0 -195 29.333 -241 88c-9.33301 13.333 -14 31 -14 53c0 13.333 2 29 6 47l40 185c0.666992 6.66699 1.66699 12.667 3 18
c1.33301 6.66699 2 13.334 2 20.001c0 13.333 -3 23.333 -9 30c-6.66699 10.667 -25 19 -55 25l6 32h296l-6 -32c-24.667 -4.66699 -45 -12.667 -61 -24c-7.33301 -6 -13.333 -15.333 -18 -28c-5.33301 -14 -9.33301 -25.333 -12 -34l-33 -153c-0.666992 -2 -1 -7 -1 -15
c0 -6.66699 1 -15 3 -25c1.33301 -4.66699 3.66602 -12.667 6.99902 -24c2 -6.66699 4.33301 -11.667 7 -15c14.667 -15.333 35.667 -27 63 -35c30 -8.66699 64 -13 102 -13c48 0 94 5 138 15c45.333 10 91.333 26.333 138 49l46 216c2.66699 13.333 4 23.333 4 30
c0 11.333 -3 21.666 -9 30.999c-6.66699 10 -21.334 18.333 -44.001 25l6 32h289l-6 -31c-28.667 -4 -49.334 -11.333 -62.001 -22c-5.33301 -4 -11.666 -12 -18.999 -24c-4.66699 -8 -9.33398 -21.667 -14.001 -41l-143 -669c-2.66699 -11.333 -4 -24 -4 -38
c0 -6 0.333008 -9.66699 1 -11c4 -13.333 10.667 -22.333 20 -27c8 -4 21.667 -7.66699 41 -11z" />
    <glyph glyph-name="uni0448" unicode="&#x448;" horiz-adv-x="1559" 
d="M1555 -3l-1468 -0.00292969l8 34c24 4 43.333 11.667 58 23c14.667 14 25 35.333 31 64l143 669c0.666992 10 1.66699 17 3 21c0.666992 2.66699 1 6.33398 1 11.001c0 14 -3 24.333 -9 31c-8 10 -23.667 17.667 -47 23l6 32h287l-6 -31
c-23.333 -4 -42.666 -12.667 -57.999 -26s-26.333 -33.666 -33 -60.999l-147 -690h445l147 690c1.33301 9.33301 2.33301 16 3 20c0.666992 2.66699 1 6.33398 1 11.001c0 12 -3 22.333 -9 31c-3.33301 6.66699 -7.66602 11.334 -12.999 14.001
c-8.66699 4.66699 -17.667 8 -27 10l6 32h276l-6 -31c-24.667 -4 -43 -12 -55 -24c-11.333 -11.333 -20.666 -32.333 -27.999 -63l-147 -690h445l147 690c2 10 3 19 3 27c0 12 -3.33301 23.333 -10 34c-7.33301 11.333 -22.666 19.666 -45.999 24.999l6 32h287l-6 -31
c-24 -4 -43.333 -12 -58 -24c-15.333 -12 -26.333 -33 -33 -63l-143 -669c-2 -10.667 -3 -20.334 -3 -29.001c0 -13.333 2.66699 -24.666 8 -33.999c8 -10 24.333 -17.667 49 -23z" />
    <glyph glyph-name="uni0449" unicode="&#x449;" horiz-adv-x="1584" 
d="M1519 -254h-47.002c6 30 9 59 9 87c0 30.667 -4 59 -12 85c-16 55.333 -54 83 -114 83h-1267l7 34c25.333 4 44.666 11.667 57.999 23c16.667 15.333 27.334 36.333 32.001 63l142 667c0.666992 2 1.33398 4.83301 2.00098 8.5s1 6.16699 1 7.5
c0.666992 3.33301 1 8.66602 1 15.999c0 13.333 -3 23.333 -9 30c-8 10 -23.667 17.667 -47 23l6 32h287l-6 -31c-23.333 -4 -42.666 -12.667 -57.999 -26c-14.667 -13.333 -25.667 -33.333 -33 -60l-146 -687h445l146 687c2.66699 13.333 4 23.333 4 30
c0 12.667 -3 23 -9 31c-3.33301 6.66699 -7.66602 11.334 -12.999 14.001c-8.66699 4.66699 -17.667 8 -27 10l6 32h276l-6 -31c-24 -4 -42 -12 -54 -24c-12.667 -12.667 -22.334 -33.334 -29.001 -62.001l-146 -687h445l146 687c2 10 3 18.667 3 26
c0 13.333 -3.66699 25.333 -11 36s-22.333 18.334 -45 23.001l6 32h287l-6 -31c-24 -4 -43.333 -12 -58 -24s-25.667 -32.667 -33 -62l-146 -687h89z" />
    <glyph glyph-name="uni044A" unicode="&#x44a;" horiz-adv-x="1260" 
d="M1315 295c-15.333 -70.667 -42.998 -126.332 -82.998 -166.999c-35.333 -37.333 -69.333 -64.666 -102 -81.999c-34.667 -18.667 -70.334 -31.334 -107.001 -38.001c-38.667 -7.33301 -87.667 -11 -147 -11h-506l8 34c12 0 22.333 2 31 6
c7.33301 3.33301 15.666 9 24.999 17c8 6.66699 15 16.667 21 30s11 29.333 15 48l147 686h-232c-15.333 0 -28.333 -2 -39 -6c-11.333 -4 -22 -11.667 -32 -23c-14 -14 -28 -35 -42 -63h-33l38 179h575l-6 -31c-20.667 -2.66699 -40 -11 -58 -25
c-15.333 -15.333 -26.333 -36 -33 -62l-52 -242h351c30.667 0 59.334 -3 86.001 -9c27.333 -6 52.666 -15.667 75.999 -29c46.667 -25.333 77.667 -54 93 -86c9.33301 -16.667 14 -37.334 14 -62.001c0 -16 -2.66699 -37.333 -8 -64zM1190 284.002
c1.33301 6.66699 2.33301 12.334 3 17.001s1 10.667 1 18c0 39.333 -16.667 70.666 -50 93.999c-40 28 -96.667 42 -170 42h-290l-78 -365h304c44 0 83.667 6 119 18c32.667 11.333 63.667 30 93 56c26.667 24 46.667 55.667 60 95z" />
    <glyph glyph-name="uni044B" unicode="&#x44b;" horiz-adv-x="1327" 
d="M1312 -3l-290.999 0.000976562l8 34c22.667 4 41.667 11.667 57 23c15.333 13.333 26 34.666 32 63.999l143 669c2 10 3 19 3 27c0 14 -3.66699 25.667 -11 35c-6.66699 8.66699 -21.334 16.667 -44.001 24l6 32h291l-6 -31c-28.667 -4 -49.334 -11.333 -62.001 -22
c-13.333 -11.333 -24 -33 -32 -65l-143 -669c-2.66699 -11.333 -4 -24 -4 -38c0 -5.33301 1 -11.666 3 -18.999c2 -8 8 -14.667 18 -20c4 -2 11.333 -4 22 -6c2 -0.666992 4.5 -1.33398 7.5 -2.00098s5.33301 -1.16699 7 -1.5s2.83398 -0.5 3.50098 -0.5zM1031 295.001
c-14.667 -70.667 -42 -126.331 -82 -166.998c-15.333 -15.333 -32.333 -30.666 -51 -45.999c-17.333 -14 -34.333 -26 -51 -36c-34 -18.667 -69.667 -31.334 -107 -38.001c-40 -7.33301 -89.333 -11 -148 -11h-505l8 34c12.667 1.33301 23 3.66602 31 6.99902
c9.33301 4 18 10 26 18c9.33301 9.33301 16.333 19 21 29c5.33301 12 10 27.667 14 47l139 651c2.66699 13.333 4 23.333 4 30c0 36.667 -20.667 57 -62 61l6 31h295l-6 -31c-24 -4 -43.667 -12.667 -59 -26c-14 -12.667 -24.667 -33 -32 -61l-52 -242h350
c30.667 0 59.334 -3 86.001 -9c27.333 -6 52.666 -15.667 75.999 -29c46 -23.333 77.333 -52 94 -86c8.66699 -16.667 13 -37 13 -61c0 -16.667 -2.66699 -38.334 -8 -65.001zM905.001 285.004c1.33301 6.66699 2.33301 12.334 3 17.001s1 11 1 19
c0 39.333 -16.333 70 -49 92c-40 28 -96.667 42 -170 42h-289l-78 -365h304c22 0 42 1.33301 60 4c22 3.33301 41 7.66602 57 12.999c36.667 12.667 68 31 94 55c26.667 24.667 46.667 57 60 97z" />
    <glyph glyph-name="uni044C" unicode="&#x44c;" horiz-adv-x="982" 
d="M1037 295c-14.667 -71.333 -42.334 -126.998 -83.001 -166.998c-15.333 -15.333 -32.333 -30.666 -51 -45.999c-16.667 -14 -33.667 -26 -51 -36c-13.333 -6.66699 -30.666 -14.334 -51.999 -23.001c-15.333 -6 -34.666 -11.333 -57.999 -16
c-35.333 -6.66699 -84 -10 -146 -10h-509l8 34c11.333 0 21.666 2 30.999 6c6 2.66699 14.667 9 26 19c8.66699 8 16 17.333 22 28c4.66699 9.33301 9.33398 25.333 14.001 48l139 651c2 11.333 3 21.333 3 30c0 36.667 -20.667 57 -62 61l6 31h297l-6 -31
c-22.667 -4 -42.334 -12.667 -59.001 -26c-14.667 -12 -25.667 -32.333 -33 -61l-52 -242h353c32 0 61.333 -3 88 -9c26 -6 51 -15.667 75 -29c46.667 -24.667 78 -53.334 94 -86.001c9.33301 -16.667 14 -37.334 14 -62.001c0 -16 -2.66699 -37.333 -8 -64zM910 285.002
c1.33301 6.66699 2.33301 12.334 3 17.001s1 11 1 19c0 39.333 -16.333 70 -49 92c-40 28 -97 42 -171 42h-292l-78 -365h306c22.667 0 43 1.33301 61 4c22 3.33301 41 7.66602 57 12.999c38 13.333 70 32 96 56s45.667 56 59 96z" />
    <glyph glyph-name="uni044D" unicode="&#x44d;" horiz-adv-x="919" 
d="M1001 483c-6 -30 -12.999 -55.667 -20.999 -77c-7.33301 -20 -19 -43.333 -35 -70c-28 -48 -62.333 -92.667 -103 -134c-40 -40.667 -85 -77.334 -135 -110.001c-48.667 -29.333 -100 -54.333 -154 -75c-42.667 -14.667 -86.334 -25.667 -131.001 -33
c-46 -7.33301 -91.667 -11 -137 -11c-33.333 0 -63 1.33301 -89 4c-32.667 3.33301 -61 8 -85 14l36 170h33c4 -26 18.667 -48 44 -66c16 -9.33301 31.333 -15.666 46 -18.999c17.333 -4 36.333 -6 57 -6c59.333 0 125.666 16 198.999 48s138.333 77.333 195 136
c28.667 30.667 53 64 73 100c19.333 34.667 35.666 75.667 48.999 123h-389l19 89h381c0 43.333 -7.33301 80.666 -22 111.999c-15.333 32 -37 59.333 -65 82c-53.333 47.333 -118.333 71 -195 71c-36 0 -68.333 -4.33301 -97 -13c-41.333 -12 -73.666 -25.333 -96.999 -40
s-38 -35 -44 -61c-1.33301 -12 -2 -19.333 -2 -22c0 -13.333 2.33301 -26 7 -38l-33 -23l-100 148c70.667 49.333 137.334 86 200.001 110c66 25.333 133.667 38 203 38l14 -1h13c68.667 0 133 -16 193 -48c56.667 -28.667 101 -69 133 -121
c32.667 -53.333 49 -112.666 49 -177.999c0 -34.667 -3.33301 -67.667 -10 -99z" />
    <glyph glyph-name="uni044E" unicode="&#x44e;" horiz-adv-x="1412" 
d="M1501 452c-6.66699 -29.333 -16.333 -60.667 -29 -94c-12 -30.667 -27.667 -61.334 -47 -92.001c-20 -31.333 -40.333 -59.333 -61 -84s-45.334 -49.667 -74.001 -75c-52.667 -46.667 -112 -83.667 -178 -111c-32 -13.333 -64.667 -23.666 -98 -30.999
c-29.333 -6.66699 -62.333 -10 -99 -10c-66 0 -125.667 13.667 -179 41c-53.333 26.667 -96.333 64.667 -129 114c-14.667 21.333 -28 47 -40 77c-9.33301 24 -17 52.333 -23 85c-4.66699 26 -7 53 -7 81c0 36.667 5 78 15 124h-147l-77 -359
c-2.66699 -11.333 -4 -23.666 -4 -36.999c0 -6 0.333008 -10 1 -12c4 -12 11 -20.667 21 -26c8 -4 20 -7.66699 36 -11l-7 -34h-287l7 34c25.333 4 45 12 59 24s24 32.667 30 62l142 662c3.33301 16.667 5 29 5 37c0 12.667 -2.66699 22.667 -8 30
c-7.33301 11.333 -25.666 20 -54.999 26l6 31h294l-6 -31c-24.667 -5.33301 -44.667 -13.666 -60 -24.999c-12.667 -10 -23 -30.333 -31 -61l-47 -221h159c10.667 24.667 25 52 43 82c12.667 21.333 30 44.666 52 69.999c38 42.667 80 80.667 126 114
c46 32.667 97 59.334 153 80.001c29.333 9.33301 56.666 16.333 81.999 21c24 4.66699 52 7 84 7c62.667 0 121.334 -12.667 176.001 -38c24 -10.667 48 -25.334 72 -44.001c21.333 -16.667 42 -37.667 62 -63c35.333 -43.333 59.333 -95.333 72 -156
c4.66699 -23.333 7 -51 7 -83c0 -34.667 -3.66699 -69.334 -11 -104.001zM1347 451.999c8.66699 39.333 12.999 79 12.999 119c0 44 -6.66699 86 -20 126c-12.667 38.667 -32.667 69 -60 91s-61.666 38 -102.999 48c-21.333 2.66699 -35 4.33398 -41 5.00098
c-16 1.33301 -27.333 2 -34 2c-102 0 -189 -37.333 -261 -112c-68 -72 -114.667 -165 -140 -279c-9.33301 -46.667 -14 -88 -14 -124c0 -3.33301 0.166992 -7.5 0.5 -12.5s0.5 -8.83301 0.5 -11.5c0 -10 1.33301 -25.333 4 -46c9.33301 -60 34.333 -108 75 -144
c42 -36.667 99 -55 171 -55c31.333 0 58.333 2.33301 81 7c25.333 5.33301 49.333 13.666 72 24.999c24.667 10.667 46 22.667 64 36c22 16 41.333 33.333 58 52c17.333 18.667 32.333 37.334 45 56.001c12 18 24.667 40.333 38 67c10.667 21.333 20.334 45 29.001 71
c7.33301 21.333 14.666 47.666 21.999 78.999z" />
    <glyph glyph-name="uni044F" unicode="&#x44f;" horiz-adv-x="961" 
d="M953 -3l-288.999 0.00195312l8 34c20.667 4 39 11.667 55 23c14 12.667 24.333 34 31 64l64 298h-93l-468 -419h-209l8 35c10.667 2 26.334 6.66699 47.001 14c8.66699 2 17 4.66699 25 8c12 5.33301 22 11.333 30 18l400 350c-58.667 0 -109.667 6.66699 -153 20
s-79 30.666 -107 51.999c-36 28 -54 68.333 -54 121c0 18 2 37.333 6 58c16 74 59.333 131 130 171c72 40.667 147.333 61 226 61h537l-6 -31c-28.667 -4 -48.334 -11.333 -59.001 -22c-4.66699 -4 -10.667 -12 -18 -24c-6.66699 -10.667 -11.334 -24.334 -14.001 -41.001
l-145 -680c-2.66699 -10 -4 -21 -4 -33c0 -4 1 -9.33301 3 -16c2 -8 8.33301 -14.333 19 -19l38 -8zM841.001 506.002l66 309h-287c-42 0 -84.333 -10.667 -127 -32c-42 -20.667 -69 -56 -81 -106c-4 -18 -6 -34.333 -6 -49c0 -36.667 12.667 -64.667 38 -84
c36.667 -25.333 75.667 -38 117 -38h280z" />
    <glyph glyph-name="uni0451" unicode="&#x451;" horiz-adv-x="940" 
d="M1070 1176c-1.33301 -5.33301 -3.33398 -11.3301 -6.00098 -17.9971c-4.66699 -10.667 -8.33398 -18 -11.001 -22c-13.333 -21.333 -29 -37.333 -47 -48c-19.333 -11.333 -39.666 -17 -60.999 -17c-27.333 0 -51 10.333 -71 31c-12 13.333 -18 29.666 -18 48.999
c0 9.33301 1.33301 20.333 4 33c2.66699 13.333 10.667 28.666 24 45.999c16 16 31.333 29 46 39c18.667 8 37.334 12 56.001 12l20 -1c23.333 -6 41 -19 53 -39c8.66699 -12.667 13 -27.334 13 -44.001c0 -7.33301 -0.666992 -14.333 -2 -21zM590.999 1162
c-1.33301 -8 -3 -14.002 -5 -18.002c-4 -8.66699 -8 -16 -12 -22c-13.333 -21.333 -29.333 -37.666 -48 -48.999c-17.333 -10.667 -37.333 -16 -60 -16c-28 0 -51.333 10.333 -70 31c-12.667 12.667 -19 29.334 -19 50.001c0 8.66699 1.33301 19.334 4 32.001
c3.33301 14.667 11.666 29.667 24.999 45c14.667 16.667 29.667 30 45 40c18.667 8 37.334 12 56.001 12l20 -1c23.333 -6 41 -19 53 -39c8.66699 -12.667 13 -27.334 13 -44.001c0 -7.33301 -0.666992 -14.333 -2 -21zM1031 481.001l-695 0.000976562
c-6.66699 -34 -10 -68.333 -10 -103c0 -26.667 2 -50 6 -70c4 -19.333 10 -39.666 18 -60.999c24.667 -60 62 -104.333 112 -133c49.333 -28.667 103.666 -43 162.999 -43c58 0 112 13 162 39s87 59.333 111 100h32l-36 -173c-117.333 -44.667 -225.333 -67 -324 -67
c-68 0 -130 11.333 -186 34c-55.333 22.667 -101.333 57.667 -138 105c-36 47.333 -59.667 102.666 -71 165.999c-4 24.667 -6 50 -6 76c0 38 4 76.333 12 115c7.33301 31.333 12.333 51 15 59c4 13.333 11.667 33 23 59c30 67.333 71 128 123 182
c26.667 28 54 52.333 82 73c26.667 20 58.334 38.333 95.001 55c66 30.667 132.333 46 199 46c42 0 82.667 -6 122 -18c62.667 -18.667 109.667 -50.334 141 -95.001c17.333 -24 31.333 -49.333 42 -76c10 -24.667 15 -52 15 -82c2 -20.667 3 -42.667 3 -66
c0 -42 -3.33301 -82.667 -10 -122zM887.999 571.002c4.66699 26 6.99902 53.335 6.99902 82.002c0 48.667 -10 88.667 -30 120c-16 22.667 -38 40 -66 52s-62.333 18 -103 18c-45.333 0 -92.333 -12.333 -141 -37c-24 -12 -46 -26 -66 -42
c-21.333 -17.333 -39.666 -35.333 -54.999 -54c-18 -22.667 -32.333 -44.334 -43 -65.001c-11.333 -22.667 -20 -47.334 -26 -74.001h523z" />
    <glyph glyph-name="uni0452" unicode="&#x452;" 
d="M954 103c-3.33301 -15.333 -9.33301 -35.6689 -18 -61.002c-10.667 -31.333 -21 -56.666 -31 -75.999c-26 -43.333 -41.333 -68.333 -46 -75c-16 -22 -32.333 -46.333 -49 -73l-25 -30c-38.667 -46.667 -66.334 -79.334 -83.001 -98.001
c-17.333 -19.333 -41.666 -43.333 -72.999 -72l-66 -60l-50 41c28 30 51.333 57 70 81c25.333 31.333 48 61 68 89c7.33301 10.667 14.5 20.834 21.5 30.501s12.667 17.5 17 23.5s6.83301 9.66699 7.5 11c20.667 30.667 37 60.667 49 90c14.667 36.667 25 63 31 79
c14.667 39.333 25.334 72.666 32.001 99.999l79 371l10 46c4.66699 24 8.66699 46.667 12 68c3.33301 22 5 39.333 5 52c0 34 -7.66699 64.333 -23 91c-15.333 26 -44.666 45.667 -87.999 59c-4 1.33301 -10 2.83301 -18 4.5s-13 2.83398 -15 3.50098
c-10.667 2.66699 -25.334 4 -44.001 4c-72.667 -7.33301 -133 -25 -181 -53c-19.333 -11.333 -51 -36.666 -95 -75.999l-120 -554c-2.66699 -11.333 -4 -23.333 -4 -36c0 -6 1 -12.667 3 -20c2 -8 8.66699 -14.667 20 -20c6 -2.66699 12.667 -5 20 -7
c2.66699 -0.666992 5.83398 -1.33398 9.50098 -2.00098s5.83398 -1 6.50098 -1l-7 -33h-290l7 33c24 2.66699 43.667 10.334 59 23.001c14.667 13.333 25 34.333 31 63l196 917h-135l23 106h135l19 87c3.33301 20 5 33.667 5 41c0 10.667 -2.33301 20 -7 28
c-3.33301 6.66699 -10 12 -20 16c-10.667 4.66699 -23 8 -37 10l6 30h224l-45 -212h426l-23 -106h-426l-52 -247c23.333 16 45.666 30.667 66.999 44c23.333 15.333 52 30.666 86 45.999c27.333 12 54.666 20.333 81.999 25s56 7 86 7c57.333 0 112.666 -13.667 165.999 -41
c69.333 -37.333 104 -102.666 104 -195.999c0 -16 -1 -33 -3 -51c-2 -20 -5.33301 -39.333 -10 -58z" />
    <glyph glyph-name="uni0453" unicode="&#x453;" horiz-adv-x="792" 
d="M1036 1320l-401 -329h-14l234 329h181zM1086 738l-24.001 -0.000976562c2 8 3 15.333 3 22c0 14 -5 26 -15 36c-13.333 11.333 -42 17 -86 17h-319l-302 -702c-5.33301 -14.667 -9 -25 -11 -31c-2 -8 -2.66699 -14 -2 -18c0 -13.333 4.66699 -22.666 14 -27.999
c7.33301 -4 19.333 -7.66699 36 -11l-15 -34h-296l15 34c24.667 4 46.334 11.667 65.001 23c11.333 9.33301 19.666 18 24.999 26c6.66699 10 13.334 23 20.001 39l287 667c5.33301 12.667 9 22.667 11 30c2 9.33301 3 17.333 3 24c0 5.33301 -1 10 -3 14
c-4 11.333 -21 20 -51 26l13 32h703z" />
    <glyph glyph-name="uni0456" unicode="&#x456;" horiz-adv-x="438" 
d="M590 1183c-2.66699 -10.667 -8.66797 -24 -18.001 -40c-12 -21.333 -28.333 -37.333 -49 -48c-21.333 -11.333 -43 -17 -65 -17c-29.333 0 -54.333 10 -75 30c-14 14 -21 31 -21 51c0 9.33301 1.33301 20.333 4 33c2.66699 14 10.667 29 24 45c6 6 14 13 24 21
c10.667 8.66699 19.334 15 26.001 19c20 8 39.333 12 58 12l22 -1c26 -6 45.333 -19.333 58 -40c9.33301 -12.667 14 -27 14 -43c0 -8 -0.666992 -15.333 -2 -22zM396.999 -3l-328 -0.000976562l8 34c30 4 51.667 11 65 21c16 10 28 31.667 36 65l142 665
c2.66699 13.333 4 23 4 29c0 12.667 -4.66699 24.334 -14 35.001c-8.66699 10 -27 17.333 -55 22l7 31h245l-167 -782c-2.66699 -10 -4 -20.667 -4 -32c0 -14.667 3.33301 -25.667 10 -33c4 -3.33301 11.333 -7.33301 22 -12c8.66699 -4 21 -7 37 -9z" />
    <glyph glyph-name="uni0457" unicode="&#x457;" horiz-adv-x="635" 
d="M838 1159c-2.66699 -10.667 -8.66797 -24.001 -18.001 -40.001c-13.333 -21.333 -30 -37.666 -50 -48.999c-18.667 -10.667 -39.334 -16 -62.001 -16c-28.667 0 -53 10 -73 30c-13.333 13.333 -20 30.333 -20 51c0 6.66699 1.66699 17.667 5 33s11 30.333 23 45
c3.33301 3.33301 11 10.333 23 21c6.66699 6 15.334 12.333 26.001 19c18.667 8 37.667 12 57 12l21 -1c24.667 -6 43.334 -19.333 56.001 -40c9.33301 -12.667 14 -27 14 -43c0 -8 -0.666992 -15.333 -2 -22zM513.999 1159c-2.66699 -10.667 -8.66699 -24.001 -18 -40.001
c-13.333 -21.333 -30 -37.666 -50 -48.999c-18.667 -10.667 -39.334 -16 -62.001 -16c-28.667 0 -53 10 -73 30c-13.333 13.333 -20 30.333 -20 51c0 6.66699 1 15 3 25s5 19 9 27c4.66699 8.66699 10 16.667 16 24c6.66699 7.33301 14.334 15 23.001 23
c9.33301 8 18 14.333 26 19c18.667 8 37.667 12 57 12l21 -1c25.333 -6 44 -19.333 56 -40c9.33301 -12.667 14 -27 14 -43c0 -8 -0.666992 -15.333 -2 -22zM488.999 -3.00195h-319l8 34c29.333 4 50.333 11 63 21c16 11.333 28 33 36 65l142 665c2 10.667 3 20 3 28
c0 15.333 -4 27 -12 35c-8.66699 10.667 -26.334 18.667 -53.001 24l6 30h238l-167 -782c-1.33301 -9.33301 -2.33301 -16 -3 -20c-0.666992 -2.66699 -1 -6.33398 -1 -11.001c0 -15.333 3.33301 -26.666 10 -33.999c2.66699 -2.66699 10 -6.66699 22 -12
c8.66699 -4 20.334 -7 35.001 -9z" />
    <glyph glyph-name="uni0459" unicode="&#x459;" horiz-adv-x="1656" 
d="M1663 299c-15.333 -71.333 -42.998 -126.998 -82.998 -166.998c-18 -18 -34.667 -33.333 -50 -46c-17.333 -14 -34.333 -26 -51 -36c-31.333 -17.333 -67.666 -30.333 -108.999 -39c-26.667 -5.33301 -50.667 -9 -72 -11c-24 -2 -51 -3 -81 -3h-319l-213 1l7 33
c12 0 22.667 2.33301 32 7c8.66699 4.66699 17.667 12 27 22s16 19.333 20 28c4.66699 10 8.66699 21.667 12 35l132 618c1.33301 6.66699 2 13 2 19c0 32.667 -23.333 52.334 -70 59.001h-216c-46.667 -5.33301 -75.334 -32.333 -86.001 -81
c-4 -17.333 -8.5 -37.5 -13.5 -60.5s-9 -40.667 -12 -53s-5.16699 -21.833 -6.5 -28.5c-12.667 -52.667 -25 -100.667 -37 -144c-22 -88 -46.333 -162.667 -73 -224c-16 -40.667 -33.667 -76 -53 -106c-18.667 -28.667 -39.334 -53 -62.001 -73
c-43.333 -38.667 -93.666 -58 -150.999 -58c-36.667 0 -63.334 7.33301 -80.001 22c-4 5.33301 -7 9.66602 -9 12.999c-4.66699 7.33301 -7 15.666 -7 24.999c0 0.666992 0.166992 1.66699 0.5 3s0.666016 3 0.999023 5s0.5 4 0.5 6c6 17.333 17.667 34.333 35 51
c14.667 12.667 31 19 49 19c10.667 0 21.667 -3.66699 33 -11l15 -3c28 0 63.667 41.667 107 125c22 61.333 40.667 118.666 56 171.999c16 54 29 105.667 39 155c2 8.66699 9.33301 47.334 22 116.001c4 23.333 9.66699 52.666 17 87.999l2 14
c0 16.667 -7.33301 33.667 -22 51c-14 16.667 -32.333 27.667 -55 33l7 31h786l64 -1l-3 -27c-22.667 -4 -41.667 -12.667 -57 -26c-14 -12.667 -24.667 -33 -32 -61l-52 -242h349c61.333 0 115 -12.333 161 -37s77.333 -53.667 94 -87c8 -16.667 12 -37.334 12 -62.001
c0 -21.333 -2.33301 -42.666 -7 -63.999zM1537 290.002c1.33301 6.66699 2.33203 12.333 2.99902 17s1 10.667 1 18c0 39.333 -16.333 70 -49 92c-38.667 28 -95 42 -169 42h-288l-78 -365h302c44.667 0 84.334 6 119.001 18c32.667 11.333 63.667 30 93 56
c26 23.333 45.667 55 59 95z" />
    <glyph glyph-name="uni045A" unicode="&#x45a;" horiz-adv-x="1596" 
d="M1572 296c-14.667 -70.667 -42.001 -126.33 -82.001 -166.997c-12.667 -13.333 -29.334 -28.666 -50.001 -45.999c-16.667 -14 -34 -26 -52 -36c-34 -18.667 -69.667 -31.334 -107 -38.001c-40.667 -7.33301 -89.334 -11 -146.001 -11l-379 -1h-171l8 34
c20.667 4 39 11.667 55 23c14 12.667 24.333 34 31 64l77 359h-395l-77 -359c-2.66699 -11.333 -4 -24 -4 -38c0 -8 0.666992 -14.667 2 -20c2 -7.33301 8.66699 -13.666 20 -18.999c6 -2.66699 12.667 -5 20 -7c2.66699 -0.666992 5.83398 -1.33398 9.50098 -2.00098
s5.83398 -1 6.50098 -1l-8 -34h-287l8 34c24 4 43.333 11.667 58 23c14.667 14 25 35.333 31 64l142 662c0.666992 2.66699 1.5 6.16699 2.5 10.5s1.5 6.83301 1.5 7.5c0.666992 3.33301 1 10 1 20c0 12.667 -2.66699 22.667 -8 30c-6 10.667 -24.333 19 -55 25l6 32h294
l-6 -32c-25.333 -4.66699 -45.666 -12.667 -60.999 -24c-7.33301 -6 -13.333 -15.333 -18 -28c-5.33301 -14 -9.33301 -25.333 -12 -34l-47 -220h395l47 220c2 10 3 19 3 27c0 13.333 -2.66699 24.666 -8 33.999c-7.33301 9.33301 -22 17.666 -44 24.999l6 32l185 1h148
l-7 -31c-24.667 -4 -43.667 -12.333 -57 -25c-14.667 -14 -26 -34.667 -34 -62l-51 -242h350c62 0 115.333 -12.333 160 -37c46 -25.333 77.333 -54.333 94 -87c8.66699 -16.667 13 -37 13 -61c0 -16.667 -2.66699 -38.334 -8 -65.001zM1446 286.004
c1.33301 5.33301 2.33203 11.334 2.99902 18.001c0.666992 4.66699 1 10.667 1 18c0 39.333 -16.333 70 -49 92c-39.333 28 -95.666 42 -168.999 42h-289l-78 -365h303c22.667 0 43 1.33301 61 4c22 3.33301 41 7.66602 57 12.999c36 13.333 68 32.333 96 57
c24 23.333 43.333 55 58 95z" />
    <glyph glyph-name="uni045B" unicode="&#x45b;" 
d="M1044 -3l-294.999 -0.00390625l7 33c26 5.33301 46.333 13.333 61 24c7.33301 6.66699 14.333 15.334 21 26.001c5.33301 9.33301 9.66602 21.666 12.999 36.999l79 371l10 47c5.33301 26 9.33301 48.333 12 67c3.33301 22 5 39.667 5 53c0 16 -1.66699 32.333 -5 49
c-2.66699 14.667 -8.66699 28.667 -18 42c-14.667 26 -43.667 45.667 -87 59c-4 1.33301 -9.83301 2.83301 -17.5 4.5s-12.834 2.83398 -15.501 3.50098c-10.667 2.66699 -25 4 -43 4c-43.333 0 -90.666 -11.667 -141.999 -35c-52 -23.333 -112 -60 -180 -110l-119 -555
c-2.66699 -11.333 -4 -23.333 -4 -36c0 -3.33301 1 -9.66602 3 -18.999c2 -8.66699 8.66699 -15.667 20 -21l35 -11l-7 -33h-289l7 33c24.667 4.66699 44.667 13.334 60 26.001c14.667 12 25 32.333 31 61l196 918h-135l23 107h135l19 87c2.66699 11.333 4 19.333 4 24
c0 0.666992 0.166992 2.83398 0.5 6.50098s0.5 6.83398 0.5 9.50098c0 12.667 -2.66699 22.667 -8 30c-3.33301 6 -9.33301 11 -18 15c-8 3.33301 -20.667 6.66602 -38 9.99902l6 30h223l-45 -212h425l-23 -107h-425l-53 -247c76 50.667 142 86 198 106
c28.667 10 57 18 85 24c28.667 6 56 9 82 9c57.333 0 112.333 -14 165 -42c70 -37.333 105 -102.666 105 -195.999c0 -16 -1 -33 -3 -51c-2 -20 -5.33301 -39.333 -10 -58l-99 -463c-3.33301 -14.667 -5 -27.334 -5 -38.001c0 -6 1 -12.333 3 -19
c2 -8 8.33301 -14.333 19 -19l38 -11z" />
    <glyph glyph-name="uni045C" unicode="&#x45c;" horiz-adv-x="1024" 
d="M1136 1312l-404 -330h-14l232 330h186zM1026 5l-325.002 -0.00585938l14 33c6.66699 0 12.667 0.666992 18 2c8 2 16 4.33301 24 7c22.667 8.66699 37.667 21.334 45 38.001c2.66699 4.66699 4 9.33398 4 14.001c0 0.666992 -0.666992 3.66699 -2 9l-100 418l-215 -128
l-116 -271c-8.66699 -20 -13 -37 -13 -51c0 -6 0.666992 -12 2 -18c2 -8.66699 15 -15 39 -19l-15 -34h-282l15 34c22 4 42.333 11.667 61 23c20.667 14.667 36.667 36.334 48 65.001l285 667c9.33301 24.667 14 42.334 14 53.001c0 6.66699 -1.33301 12.334 -4 17.001
c-3.33301 10 -19.666 18 -48.999 24l13 32h289l-13 -32c-26 -5.33301 -46.333 -12.666 -61 -21.999c-13.333 -10.667 -26.666 -31.334 -39.999 -62.001l-127 -297l513 311c14 10 22 18.667 24 26c2.66699 4.66699 4 9.66699 4 15c0 8 -4.66699 14.667 -14 20
c-2 0.666992 -4.33301 1.5 -7 2.5s-5 1.83301 -7 2.5c-6 2.66699 -11.333 4.33398 -16 5.00098l13 31h324l-13 -30l-26 -5c-1.33301 -0.666992 -3.33301 -1.5 -6 -2.5s-4.66699 -1.83301 -6 -2.5c-10 -4 -17.667 -7.33301 -23 -10l-33 -18l-421 -245l143 -504
c6.66699 -30.667 26 -51.667 58 -63z" />
    </font>
</defs>
</svg>
