<?xml version="1.0" standalone="no"?>
<!DOCTYPE svg PUBLIC "-//W3C//DTD SVG 1.1//EN" "http://www.w3.org/Graphics/SVG/1.1/DTD/svg11.dtd" >
<svg xmlns="http://www.w3.org/2000/svg" xmlns:xlink="http://www.w3.org/1999/xlink" version="1.1">
<metadata>
Created by FontForge 20161116 at Sat Feb  7 20:16:44 2009
 By Jimmy Warting
Copyright (c) ParaGraph Intl., 1990-1995. All Rights Reserved. ITC Korinna is a registered trade mark of International Typeface Corporation.
</metadata>
<defs>
<font id="KorinnaC-Bold" horiz-adv-x="630" >
  <font-face 
    font-family="KorinnaC"
    font-weight="700"
    font-stretch="normal"
    units-per-em="1000"
    panose-1="2 0 8 4 6 0 0 2 0 3"
    ascent="800"
    descent="-200"
    x-height="482"
    cap-height="700"
    bbox="-198 -232 1287 938"
    underline-thickness="50"
    underline-position="-100"
    stemh="81"
    stemv="118"
    unicode-range="U+0020-2122"
  />
<missing-glyph horiz-adv-x="233" 
 />
    <glyph glyph-name=".notdef" horiz-adv-x="233" 
 />
    <glyph glyph-name="space" unicode=" " horiz-adv-x="233" 
 />
    <glyph glyph-name="exclam" unicode="!" horiz-adv-x="338" 
d="M198 184h-58l-44 445c-5 47 24 86 73 86s78 -39 73 -86zM93 61c0 42 34 76 76 76s76 -34 76 -76s-34 -76 -76 -76s-76 34 -76 76z" />
    <glyph glyph-name="quotedbl" unicode="&#x22;" horiz-adv-x="508" 
d="M148 435l-23 200c-4 31 0 54 21 70c8 6 18 10 28 10s20 -4 28 -10c21 -16 25 -39 21 -70l-23 -200c-1 -10 -2 -35 -26 -35s-25 25 -26 35zM313 435l-23 200c-4 31 0 54 21 70s42 11 56 0c21 -16 25 -39 21 -70l-23 -200c-1 -10 -2 -35 -26 -35s-25 25 -26 35z" />
    <glyph glyph-name="numbersign" unicode="#" horiz-adv-x="542" 
d="M457 328v-54h-86l-27 -148h-66l27 148h-95l-27 -148h-66l27 148h-86v54h95l14 77h-84v54h93l25 139h66l-25 -139h95l24 139h66l-24 -139h80v-54h-89l-14 -77h77zM328 405h-95l-14 -77h95z" />
    <glyph glyph-name="dollar" unicode="$" 
d="M281 715v105h68v-105c31 -3 140 -17 216 -133l-96 -98l-29 23c4 6 8 14 8 29c0 28 -17 70 -79 87c-17 5 -34 7 -51 7c-16 0 -33 -1 -49 -5c-55 -15 -70 -55 -70 -84c0 -49 36 -66 69 -78c56 -21 150 -39 205 -67c49 -25 107 -75 107 -181c0 -114 -84 -219 -231 -228v-106
h-68v106c-41 4 -157 23 -231 179l124 97l26 -30c-16 -19 -19 -41 -19 -50c0 -51 46 -111 136 -111c86 0 145 57 145 121c0 83 -73 102 -166 126c-110 28 -214 55 -214 194c0 128 100 193 199 202z" />
    <glyph glyph-name="percent" unicode="%" horiz-adv-x="922" 
d="M721 700l-427 -700h-94l427 700h94zM234 349c-96 0 -141 64 -158 99c-13 26 -19 54 -19 83s6 57 19 83c17 35 62 99 158 99s141 -64 158 -99c13 -26 19 -54 19 -83s-6 -57 -19 -83c-17 -35 -62 -99 -158 -99zM234 424c34 0 77 23 77 107s-43 107 -77 107
s-77 -23 -77 -107s43 -107 77 -107zM688 -15c-96 0 -141 64 -158 99c-13 26 -19 54 -19 83s6 57 19 83c17 35 62 99 158 99s141 -64 158 -99c13 -26 19 -54 19 -83s-6 -57 -19 -83c-17 -35 -62 -99 -158 -99zM688 60c34 0 77 23 77 107s-43 107 -77 107s-77 -23 -77 -107
s43 -107 77 -107z" />
    <glyph glyph-name="ampersand" unicode="&#x26;" horiz-adv-x="786" 
d="M425 422v-80h-32c-169 0 -203 -74 -203 -126c0 -62 64 -141 188 -141c125 0 163 58 163 105s-36 61 -68 60v62h289v-62c-61 3 -68 -32 -73 -51c-27 -108 -97 -158 -174 -183c-45 -15 -92 -21 -139 -21c-100 0 -224 30 -284 104c-27 33 -44 77 -44 120c0 30 7 60 22 86
c22 38 68 76 127 92c-74 25 -110 89 -110 142c0 56 34 134 150 170c34 11 68 16 103 16c29 0 58 -2 86 -7c50 -8 111 -24 156 -38v-152h-58c-11 26 -48 107 -161 107c-19 0 -37 -1 -55 -6c-65 -18 -79 -63 -79 -90c0 -99 108 -107 177 -107h19z" />
    <glyph glyph-name="quotesingle" unicode="'" horiz-adv-x="292" 
d="M121 435l-23 200c-4 31 0 54 21 70c8 6 18 10 28 10s20 -4 28 -10c21 -16 25 -39 21 -70l-23 -200c-1 -10 -2 -35 -26 -35s-25 25 -26 35z" />
    <glyph glyph-name="parenleft" unicode="(" horiz-adv-x="414" 
d="M359 -196l-40 -34c-76 78 -169 203 -212 320c-18 49 -29 100 -29 152s11 103 29 152c43 117 136 242 212 320l40 -34c-54 -78 -120 -194 -152 -306c-12 -43 -21 -88 -21 -132s9 -89 21 -132c32 -112 98 -228 152 -306z" />
    <glyph glyph-name="parenright" unicode=")" horiz-adv-x="414" 
d="M78 680l40 34c76 -78 169 -203 212 -320c18 -49 29 -100 29 -152s-11 -103 -29 -152c-43 -117 -136 -242 -212 -320l-40 34c54 78 120 194 152 306c12 43 21 88 21 132s-9 89 -21 132c-32 112 -98 228 -152 306z" />
    <glyph glyph-name="asterisk" unicode="*" horiz-adv-x="631" 
d="M343 506l22 -15c43 -29 67 -46 80 -68c21 -34 0 -63 -20 -74c-15 -8 -35 -8 -50 1c-33 21 -49 88 -60 135c-11 -47 -27 -114 -60 -135c-7 -5 -16 -7 -25 -7s-17 2 -25 6c-20 11 -41 40 -20 74c13 22 37 39 80 68l22 15l-56 -1c-42 -1 -68 3 -85 15c-13 10 -22 26 -22 42
c0 8 2 16 5 23c8 17 27 29 46 29c9 0 22 -5 51 -23c20 -12 39 -26 58 -41l13 -10l-5 14c-6 16 -20 64 -24 77c-16 62 15 84 47 84s63 -22 47 -84c-4 -13 -18 -61 -24 -77l-5 -14l13 10c19 15 38 29 58 41c29 18 42 23 51 23c19 0 38 -12 46 -29c3 -7 5 -15 5 -23
c0 -16 -9 -32 -22 -42c-17 -12 -43 -16 -85 -15z" />
    <glyph glyph-name="plus" unicode="+" horiz-adv-x="632" 
d="M99 257h177v176h80v-176h177v-80h-177v-176h-80v176h-177v80z" />
    <glyph glyph-name="comma" unicode="," horiz-adv-x="295" 
d="M125 -151l-34 33c27 30 55 73 66 129c-11 -9 -21 -10 -27 -10c-19 0 -42 14 -52 37c-4 8 -6 18 -6 27c0 11 1 22 6 32c11 25 39 40 63 40c33 0 64 -24 76 -51c6 -13 7 -28 7 -43c0 -22 -4 -43 -11 -63c-17 -49 -56 -99 -88 -131z" />
    <glyph glyph-name="hyphen" unicode="-" horiz-adv-x="377" 
d="M74 293h229v-98h-229v98z" />
    <glyph glyph-name="period" unicode="." horiz-adv-x="318" 
d="M83 61c0 42 34 76 76 76s76 -34 76 -76s-34 -76 -76 -76s-76 34 -76 76z" />
    <glyph glyph-name="slash" unicode="/" horiz-adv-x="403" 
d="M390 700l-303 -857h-74l303 857h74z" />
    <glyph glyph-name="zero" unicode="0" horiz-adv-x="631" 
d="M315 -15c-86 0 -197 42 -250 217c-15 49 -22 98 -22 148s7 99 22 148c53 175 164 217 250 217s197 -42 250 -217c15 -49 22 -98 22 -148s-7 -99 -22 -148c-53 -175 -164 -217 -250 -217zM315 75c29 0 58 17 78 40c30 34 52 98 52 235c0 138 -22 201 -52 235
c-20 23 -49 40 -78 40s-58 -17 -78 -40c-30 -34 -52 -98 -52 -235s22 -201 52 -235c20 -23 49 -40 78 -40z" />
    <glyph glyph-name="one" unicode="1" 
d="M312 700h92v-586c0 -26 1 -71 46 -75l32 -3v-36h-306v36l44 4c52 5 50 55 50 74v481c-29 -16 -59 -26 -124 -37v55c101 21 146 64 166 87z" />
    <glyph glyph-name="two" unicode="2" 
d="M151 106h301c25 0 67 4 75 57h49v-163h-523v20c0 85 7 162 176 266c73 45 141 83 174 139c13 22 21 47 21 72c0 22 -7 43 -18 62c-18 30 -57 72 -139 72c-75 0 -129 -43 -146 -115h-57v144c44 23 96 41 158 50c23 3 46 5 69 5c111 0 199 -46 240 -104
c23 -32 35 -73 35 -113c0 -42 -15 -83 -38 -118c-24 -36 -75 -89 -195 -147c-122 -59 -155 -73 -182 -127z" />
    <glyph glyph-name="three" unicode="3" 
d="M88 543v120c39 20 82 36 133 45c24 4 49 7 73 7c34 0 67 -4 101 -13c88 -23 147 -71 147 -159c0 -78 -51 -132 -118 -149c35 -8 93 -31 127 -108c10 -23 16 -48 16 -73c0 -43 -15 -87 -41 -121c-57 -74 -171 -107 -276 -107c-21 0 -41 1 -62 4c-35 5 -89 17 -126 28v133
h49c14 -33 45 -75 144 -75c68 0 117 25 143 59c18 23 27 53 27 83c0 28 -8 57 -25 79s-55 55 -125 55h-74v80h64c54 0 102 10 125 54c8 14 10 31 10 47c0 18 -5 35 -15 49c-20 28 -61 44 -108 44c-61 0 -116 -22 -135 -82h-54z" />
    <glyph glyph-name="four" unicode="4" 
d="M368 169h-333v84l311 447h147v-447h107v-84h-107v-81c0 -13 0 -53 46 -52v-36h-229v36c29 -1 58 14 58 52v81zM368 586l-234 -333h234v333z" />
    <glyph glyph-name="five" unicode="5" 
d="M196 594l-10 -153c25 28 52 43 94 51c15 3 31 5 46 5c107 0 179 -60 215 -127c19 -34 29 -73 29 -112c0 -48 -15 -96 -41 -136c-52 -79 -152 -137 -279 -137c-74 0 -147 21 -191 36v132h49c14 -36 38 -56 74 -68c20 -7 41 -10 62 -10c94 0 139 48 158 79
c17 28 26 61 26 93c0 23 -5 46 -14 67c-27 61 -77 85 -122 85c-16 0 -31 -1 -46 -6c-52 -16 -75 -53 -84 -69l-76 20l25 356h445l-39 -106h-321z" />
    <glyph glyph-name="six" unicode="6" 
d="M542 691v-130h-49c-8 21 -22 44 -59 57c-17 6 -34 7 -52 7c-26 0 -52 -5 -76 -16c-63 -29 -114 -101 -114 -187v-46c20 26 66 73 168 73c158 0 233 -116 233 -223c0 -129 -96 -241 -259 -241c-143 0 -219 75 -257 162c-24 55 -33 116 -33 176c0 70 13 141 43 204
c48 101 121 155 212 177c30 7 60 11 90 11c33 0 80 -3 153 -24zM326 359c-68 0 -134 -46 -134 -141c0 -92 57 -143 131 -143c75 0 128 53 128 146c0 104 -73 138 -125 138z" />
    <glyph glyph-name="seven" unicode="7" 
d="M62 534v166h500c2 -63 -19 -106 -41 -152c-69 -146 -154 -317 -154 -518v-30h-155c3 184 66 313 138 429c54 87 68 100 88 136l16 29h-272c-6 0 -66 -1 -71 -60h-49z" />
    <glyph glyph-name="eight" unicode="8" horiz-adv-x="638" 
d="M443 397v-2c84 -18 145 -88 145 -176c0 -132 -105 -234 -269 -234s-269 102 -269 234c0 88 61 158 145 176v2c-64 18 -111 71 -111 148c0 85 53 133 137 157c33 9 65 13 98 13s65 -4 98 -13c84 -24 137 -72 137 -157c0 -77 -47 -130 -111 -148zM319 434
c73 0 108 49 108 101c0 42 -23 96 -108 96s-108 -54 -108 -96c0 -52 35 -101 108 -101zM319 69c74 0 127 48 127 139c0 89 -51 142 -127 142s-127 -53 -127 -142c0 -91 53 -139 127 -139z" />
    <glyph glyph-name="nine" unicode="9" 
d="M80 121h49c8 -29 25 -44 59 -52c14 -3 29 -4 43 -4c19 0 39 1 58 6c81 20 150 97 150 248v26h-2c-43 -65 -112 -83 -166 -83c-127 0 -222 95 -222 221c0 123 93 232 249 232c141 0 282 -90 282 -334c0 -248 -141 -396 -348 -396c-28 0 -72 3 -152 23v113zM309 625
c-80 0 -118 -68 -118 -139c0 -81 52 -134 117 -134c57 0 127 47 127 134c0 70 -44 139 -126 139z" />
    <glyph glyph-name="colon" unicode=":" horiz-adv-x="318" 
d="M83 421c0 42 34 76 76 76s76 -34 76 -76s-34 -76 -76 -76s-76 34 -76 76zM83 61c0 42 34 76 76 76s76 -34 76 -76s-34 -76 -76 -76s-76 34 -76 76z" />
    <glyph glyph-name="semicolon" unicode=";" horiz-adv-x="318" 
d="M83 421c0 42 34 76 76 76s76 -34 76 -76s-34 -76 -76 -76s-76 34 -76 76zM136 -151l-34 33c49 49 62 94 66 113c-11 -9 -21 -10 -27 -10c-9 0 -18 3 -26 8c-11 7 -21 17 -26 29c-4 8 -6 18 -6 27c0 16 -1 33 6 48c9 20 34 40 63 40c16 0 32 -6 46 -15
c13 -9 24 -22 30 -36c6 -13 7 -28 7 -43c0 -22 -4 -43 -11 -63c-17 -49 -56 -99 -88 -131z" />
    <glyph glyph-name="less" unicode="&#x3c;" horiz-adv-x="632" 
d="M112 277v76l407 180v-71l-329 -147l329 -147v-71z" />
    <glyph glyph-name="equal" unicode="=" horiz-adv-x="632" 
d="M99 333h434v-80h-434v80zM99 180h434v-80h-434v80z" />
    <glyph glyph-name="greater" unicode="&#x3e;" horiz-adv-x="632" 
d="M520 277l-407 -180v71l329 147l-329 147v71l407 -180v-76z" />
    <glyph glyph-name="question" unicode="?" horiz-adv-x="570" 
d="M186 190v174l44 -1c125 -3 173 63 173 122c0 68 -62 140 -161 140c-66 0 -116 -35 -133 -99h-56v160c44 13 115 29 188 29c185 0 261 -109 285 -190c6 -22 10 -44 10 -67c0 -45 -13 -92 -40 -128c-40 -54 -123 -100 -223 -91v-49h-87zM159 61c0 42 34 76 76 76
s76 -34 76 -76s-34 -76 -76 -76s-76 34 -76 76z" />
    <glyph glyph-name="at" unicode="@" horiz-adv-x="787" 
d="M532 514l14 19l58 -12l-99 -258c-6 -14 -11 -24 -11 -37c0 -7 3 -30 24 -30c35 0 104 46 136 147c8 24 11 50 11 75c0 79 -51 162 -144 207c-38 18 -79 29 -121 29c-49 0 -98 -11 -139 -37c-52 -33 -113 -99 -113 -236c0 -187 108 -285 204 -319c30 -11 62 -16 93 -16
c39 0 78 6 117 21v-58c-51 -17 -100 -24 -151 -24c-168 0 -258 88 -307 171c-33 57 -51 122 -51 187c0 64 17 128 50 182c60 100 192 190 341 190c127 0 215 -58 262 -131c28 -44 43 -97 43 -149c0 -46 -14 -93 -36 -133c-46 -83 -138 -150 -216 -150c-28 0 -59 12 -58 45
c-26 -35 -72 -41 -95 -41c-53 0 -87 23 -108 60c-14 24 -21 51 -21 79c0 34 6 69 21 100c41 86 133 138 216 136c37 -1 66 -11 80 -17zM428 253l86 218c-13 4 -25 7 -38 7c-47 0 -96 -16 -129 -55c-26 -30 -43 -75 -43 -111c0 -31 11 -63 31 -79c12 -10 29 -14 46 -14
c32 0 41 19 47 34z" />
    <glyph glyph-name="A" unicode="A" horiz-adv-x="746" 
d="M438 700l241 -614c12 -30 21 -47 48 -50v-36h-230v36c26 0 42 18 42 32c0 8 -11 35 -13 41l-60 146h-240l-55 -146c-6 -15 -10 -25 -10 -34c0 -13 12 -36 40 -39v-36h-192v36c37 11 47 40 57 65l229 599h143zM343 572l-89 -233h181z" />
    <glyph glyph-name="B" unicode="B" horiz-adv-x="709" 
d="M48 700h321c70 0 158 -1 212 -72c20 -27 30 -60 30 -94c0 -26 -6 -53 -19 -75c-20 -34 -63 -64 -107 -78v-2c84 -10 127 -59 146 -90c17 -28 26 -60 26 -93c0 -42 -12 -84 -38 -116c-61 -77 -168 -80 -206 -80h-365v36c25 1 43 16 43 36v556c0 20 -18 35 -43 36v36z
M225 616v-191h99c40 0 103 -1 134 36c14 16 19 39 19 62c0 20 -6 40 -18 55c-32 39 -97 38 -135 38h-99zM225 84h91c49 0 129 -2 170 41c21 22 29 55 29 88c0 28 -8 56 -24 76c-47 59 -156 52 -213 52h-53v-257z" />
    <glyph glyph-name="C" unicode="C" horiz-adv-x="682" 
d="M636 142v-141c-36 -9 -77 -16 -149 -16c-53 0 -107 4 -159 18c-163 44 -240 158 -270 250c-12 37 -18 75 -18 114c0 65 16 130 49 186c63 107 177 162 294 162c34 0 68 -6 100 -16c65 -21 132 -67 182 -136l-123 -113l-38 30c12 15 15 27 15 40c0 19 -7 70 -79 95
c-19 7 -39 10 -59 10c-35 0 -72 -11 -101 -31c-63 -44 -98 -135 -98 -215c0 -106 55 -216 151 -269c42 -23 90 -35 138 -35c18 0 35 1 52 6c34 9 54 27 64 61h49z" />
    <glyph glyph-name="D" unicode="D" horiz-adv-x="741" 
d="M48 700h233c92 0 227 -17 324 -121c63 -67 96 -163 96 -254c0 -101 -40 -174 -80 -218c-91 -98 -222 -107 -300 -107h-273v36c25 1 43 16 43 36v556c0 20 -18 35 -43 36v36zM225 616v-532h58c86 0 221 7 264 143c10 31 12 64 12 97c0 56 -11 113 -39 160
c-36 60 -118 132 -259 132h-36z" />
    <glyph glyph-name="E" unicode="E" horiz-adv-x="636" 
d="M48 700h542v-141h-49c-2 20 -14 57 -53 57h-263v-181h172c31 0 70 3 74 49h49v-182h-49c-4 46 -43 49 -74 49h-172v-267h259c27 0 78 4 83 64h49v-148h-568v36c25 1 43 16 43 36v556c0 20 -18 35 -43 36v36z" />
    <glyph glyph-name="F" unicode="F" horiz-adv-x="636" 
d="M225 425h183c26 0 72 -1 75 49h49v-182h-49c-3 50 -49 49 -75 49h-183v-269c0 -20 18 -35 43 -36v-36h-220v36c25 1 43 16 43 36v556c0 20 -18 35 -43 36v36h568v-148h-49c-3 61 -46 64 -94 64h-248v-191z" />
    <glyph glyph-name="G" unicode="G" horiz-adv-x="745" 
d="M525 69v244c0 21 -23 35 -43 36v36h215v-36c-19 -3 -38 -17 -38 -36v-239c0 -33 25 -38 38 -38v-36c-38 -8 -67 -11 -110 -13c-21 -1 -41 -2 -62 -2c-252 0 -388 97 -451 230c-22 47 -34 99 -34 151c0 150 89 259 186 309c50 26 106 40 162 40c32 0 64 -3 96 -11
c94 -23 152 -70 191 -116l-108 -121l-36 24c14 14 18 30 18 43c0 28 -21 71 -90 86c-16 4 -33 5 -49 5c-132 0 -188 -91 -208 -141c-14 -36 -20 -74 -20 -112c0 -49 10 -98 32 -142c33 -65 117 -161 273 -161h38z" />
    <glyph glyph-name="H" unicode="H" horiz-adv-x="748" 
d="M480 700h220v-36c-25 -1 -43 -16 -43 -36v-556c0 -20 18 -35 43 -36v-36h-220v36c25 1 43 16 43 36v271h-298v-271c0 -20 18 -35 43 -36v-36h-220v36c25 1 43 16 43 36v556c0 20 -18 35 -43 36v36h220v-36c-25 -1 -43 -16 -43 -36v-201h298v201c0 20 -18 35 -43 36v36z
" />
    <glyph glyph-name="I" unicode="I" horiz-adv-x="316" 
d="M268 700v-36c-25 -1 -43 -16 -43 -36v-556c0 -20 18 -35 43 -36v-36h-220v36c25 1 43 16 43 36v556c0 20 -18 35 -43 36v36h220z" />
    <glyph glyph-name="J" unicode="J" horiz-adv-x="584" 
d="M8 172l132 96l30 -35c-7 -5 -26 -19 -26 -55c0 -33 16 -71 61 -92c15 -7 32 -11 49 -11c24 0 49 6 68 21c41 33 43 91 43 113v419c0 20 -18 35 -43 36v36h220v-36c-25 -1 -43 -16 -43 -36v-416c0 -58 -13 -145 -109 -198c-40 -22 -86 -29 -132 -29c-40 0 -79 9 -114 27
c-51 26 -106 81 -136 160z" />
    <glyph glyph-name="K" unicode="K" horiz-adv-x="733" 
d="M412 457l243 -366c26 -39 47 -50 61 -55v-36h-234v36h8c24 0 28 13 28 20c0 8 -6 16 -10 22l-190 286l-93 -94v-198c0 -20 18 -35 43 -36v-36h-220v36c25 1 43 16 43 36v556c0 20 -18 35 -43 36v36h220v-36c-25 -1 -43 -16 -43 -36v-236l209 218c9 9 17 19 17 31
c0 9 -9 21 -39 23v36h256v-36c-38 -1 -61 -18 -100 -56z" />
    <glyph glyph-name="L" unicode="L" horiz-adv-x="578" 
d="M518 157h49v-157h-519v36c25 1 43 16 43 36v556c0 20 -18 35 -43 36v36h220v-36c-25 -1 -43 -16 -43 -36v-544h188c28 0 98 0 105 73z" />
    <glyph glyph-name="M" unicode="M" horiz-adv-x="824" 
d="M413 365l106 335h224v-36c-12 1 -46 -1 -39 -56l69 -511c3 -25 9 -52 41 -61v-36h-209v36c22 2 39 21 36 45l-61 505h-2l-136 -428h-87l-134 428h-2l-62 -498c-3 -26 5 -48 34 -52v-36h-182v36c22 -3 41 11 45 40l73 529c3 25 7 61 -35 59v36h216z" />
    <glyph glyph-name="N" unicode="N" horiz-adv-x="742" 
d="M510 700h184v-36c-25 -1 -43 -16 -43 -36v-556c0 -20 18 -35 43 -36v-36h-184v36c25 1 43 16 43 36v138l-364 355v-493c0 -20 18 -35 43 -36v-36h-184v36c25 1 43 16 43 36v556c0 20 -18 35 -43 36v36h198l307 -311v239c0 20 -18 35 -43 36v36z" />
    <glyph glyph-name="O" unicode="O" horiz-adv-x="828" 
d="M414 -15c-71 0 -142 16 -203 52c-94 55 -171 159 -171 313s77 258 171 313c61 36 132 52 203 52s142 -16 203 -52c94 -55 171 -159 171 -313s-77 -258 -171 -313c-61 -36 -132 -52 -203 -52zM414 69c101 0 232 61 232 281s-131 281 -232 281s-232 -61 -232 -281
s131 -281 232 -281z" />
    <glyph glyph-name="P" unicode="P" horiz-adv-x="637" 
d="M48 700h306c43 0 160 -2 222 -73c30 -34 42 -81 42 -128c0 -53 -20 -105 -53 -144c-56 -67 -155 -108 -340 -160v-123c0 -20 18 -35 43 -36v-36h-220v36c25 1 43 16 43 36v556c0 20 -18 35 -43 36v36zM225 616v-338c70 22 174 64 217 119c22 28 34 65 34 102
c0 18 -3 36 -11 52c-30 62 -94 65 -174 65h-66z" />
    <glyph glyph-name="Q" unicode="Q" horiz-adv-x="869" 
d="M785 131h44v-131c-9 -4 -33 -15 -75 -15c-38 0 -81 13 -137 52c-68 -35 -134 -52 -203 -52s-142 16 -203 52c-94 55 -171 160 -171 313s77 258 171 313c61 36 132 52 203 52s142 -16 203 -52c94 -55 171 -160 171 -313c0 -62 -14 -158 -85 -242c15 -13 30 -17 46 -17
c21 0 37 17 36 40zM341 160l-30 61c56 36 92 40 118 40c24 0 49 -3 72 -11c32 -11 79 -43 109 -69c17 31 36 78 36 169c0 220 -131 281 -232 281s-232 -61 -232 -281c0 -78 14 -179 97 -239c39 -28 88 -42 135 -42c42 0 82 11 123 34c-20 26 -50 53 -83 65
c-15 6 -32 9 -48 9c-14 0 -34 -1 -65 -17z" />
    <glyph glyph-name="R" unicode="R" horiz-adv-x="715" 
d="M48 700h352c161 0 229 -100 229 -189c0 -75 -49 -168 -158 -189l150 -240c18 -29 34 -43 61 -46v-36h-173l-179 302h-105v-230c0 -20 18 -35 43 -36v-36h-220v36c25 1 43 16 43 36v556c0 20 -18 35 -43 36v36zM225 386h122c118 0 148 56 148 112c0 79 -72 118 -154 118
h-116v-230z" />
    <glyph glyph-name="S" unicode="S" horiz-adv-x="707" 
d="M44 166l144 97l31 -30c-21 -21 -23 -40 -23 -57c0 -19 11 -78 98 -100c18 -5 36 -7 54 -7c55 0 121 18 151 56c13 17 22 39 22 62c0 24 -6 49 -20 66c-29 36 -93 46 -208 72c-97 22 -213 63 -213 188c0 67 31 150 160 187c38 11 77 15 116 15s78 -4 115 -15
c57 -16 123 -51 174 -118l-112 -98l-33 23c8 14 9 22 9 35c0 60 -64 77 -96 83c-24 5 -48 6 -72 6c-17 0 -34 -1 -51 -5c-65 -15 -76 -56 -76 -79c0 -58 41 -72 80 -83c89 -25 154 -36 207 -53c68 -22 162 -70 162 -196c0 -48 -15 -160 -176 -211c-44 -14 -89 -19 -135 -19
c-44 0 -89 6 -131 22c-59 22 -129 72 -177 159z" />
    <glyph glyph-name="T" unicode="T" horiz-adv-x="628" 
d="M20 700h588v-145h-49l-6 27c-4 19 -24 34 -44 34h-128v-544c0 -20 18 -35 43 -36v-36h-220v36c25 1 43 16 43 36v544h-128c-20 0 -40 -15 -44 -34l-6 -27h-49v145z" />
    <glyph glyph-name="U" unicode="U" horiz-adv-x="705" 
d="M132 700h216v-36c-90 -60 -127 -141 -149 -230c-10 -40 -17 -80 -17 -122c0 -41 4 -84 23 -120c25 -45 80 -102 202 -102h73v538c0 20 -18 35 -43 36v36h220v-36c-25 -1 -43 -16 -43 -36v-556c0 -20 18 -35 43 -36v-36h-308c-166 0 -255 85 -286 182
c-11 33 -15 68 -15 102c0 48 8 95 22 141c19 64 43 108 68 152c18 32 31 50 31 64s-17 25 -37 23v36z" />
    <glyph glyph-name="V" unicode="V" horiz-adv-x="706" 
d="M374 149l153 449c8 22 19 64 -26 66v36h184v-36c-34 -7 -42 -33 -51 -58l-210 -606h-140l-213 606c-14 39 -27 52 -50 58v36h224v-36c-22 -1 -34 -10 -34 -33c0 -13 4 -22 8 -33z" />
    <glyph glyph-name="W" unicode="W" horiz-adv-x="882" 
d="M440 367l-93 -367h-125l-181 625c-9 32 -20 39 -35 39v36h209v-36c-14 -1 -36 -9 -36 -29c0 -12 4 -22 7 -34l112 -413h2l91 359l-22 72c-5 16 -8 40 -38 45v36h212v-36c-20 2 -47 -7 -38 -40l113 -436l110 394c8 27 8 40 8 46c0 21 -16 34 -35 36v36h175v-36
c-30 -3 -36 -28 -41 -46l-172 -618h-120l-101 367h-2z" />
    <glyph glyph-name="X" unicode="X" horiz-adv-x="705" 
d="M36 700h252v-36h-6c-25 0 -28 -18 -28 -22c0 -9 6 -19 17 -36l100 -149l94 137c7 10 19 33 19 44c0 9 -5 26 -29 26h-9v36h228v-36c-38 -1 -52 -22 -73 -52l-167 -233l191 -276c26 -38 42 -58 72 -67v-36h-251v36h7c25 0 29 18 29 24c0 9 -4 18 -14 33l-130 196
l-128 -183c-14 -20 -22 -31 -22 -41c0 -12 20 -29 44 -29v-36h-224v36c15 5 39 17 66 55l199 277l-170 247c-21 30 -38 45 -67 49v36z" />
    <glyph glyph-name="Y" unicode="Y" horiz-adv-x="648" 
d="M258 274l-178 319c-17 31 -29 57 -63 71v36h224v-36c-33 -1 -32 -28 -19 -53l119 -232l108 206c6 12 16 37 16 50c0 22 -22 29 -36 29v36h202v-36c-32 -9 -46 -30 -60 -56l-179 -334v-202c0 -20 18 -35 43 -36v-36h-220v36c25 1 43 16 43 36v202z" />
    <glyph glyph-name="Z" unicode="Z" horiz-adv-x="628" 
d="M576 700v-78l-375 -537h219c28 0 115 3 125 104h49v-189h-560v84l373 532h-212c-45 0 -71 -25 -74 -59l-2 -21h-49v164h506z" />
    <glyph glyph-name="bracketleft" unicode="[" horiz-adv-x="275" 
d="M62 -216v931h175v-63c-8 1 -16 0 -25 0c-20 -1 -42 -3 -42 -41v-723c0 -38 22 -40 42 -41c9 0 17 -1 25 0v-63h-175z" />
    <glyph glyph-name="backslash" unicode="\" horiz-adv-x="392" 
d="M101 700l270 -857h-80l-270 857h80z" />
    <glyph glyph-name="bracketright" unicode="]" horiz-adv-x="275" 
d="M213 715v-931h-175v63c8 -1 16 0 25 0c20 1 42 3 42 41v723c0 38 -22 40 -42 41c-9 0 -17 1 -25 0v63h175z" />
    <glyph glyph-name="asciicircum" unicode="^" horiz-adv-x="631" 
d="M177 318h-79l180 382h74l180 -382h-79l-138 299z" />
    <glyph glyph-name="underscore" unicode="_" horiz-adv-x="490" 
d="M0 -76h490v-71h-490v71z" />
    <glyph glyph-name="grave" unicode="`" horiz-adv-x="311" 
d="M261 570l-17 -26l-137 59c-44 19 -57 44 -57 63c0 28 24 50 49 50c24 0 45 -19 68 -44z" />
    <glyph glyph-name="a" unicode="a" horiz-adv-x="547" 
d="M357 0v53c-28 -33 -62 -52 -89 -60c-19 -6 -38 -8 -58 -8c-77 0 -121 38 -142 70c-16 25 -24 56 -24 86c0 40 17 80 43 109c62 69 191 82 270 83c-1 32 -12 60 -55 75c-18 6 -37 8 -56 8s-38 -1 -57 -6c-33 -8 -55 -23 -72 -49h-32v107c43 12 117 29 196 29
c42 0 85 -5 121 -26c64 -39 73 -100 73 -149v-255c0 -31 20 -36 39 -35v-32h-157zM357 181v84c-51 -2 -128 -22 -162 -60c-15 -17 -26 -39 -26 -61c0 -15 4 -29 11 -42c14 -25 35 -36 64 -36c23 0 46 6 65 19c25 17 48 53 48 96z" />
    <glyph glyph-name="b" unicode="b" horiz-adv-x="570" 
d="M38 700h152v-255c49 41 107 52 143 52c34 0 68 -9 97 -26c54 -32 105 -102 105 -204c0 -133 -87 -267 -290 -267h-212v32c27 0 39 14 39 35v571c0 16 -14 29 -34 30v32zM190 345v-264h38c41 0 114 5 157 76c18 29 25 63 25 96c0 52 -18 113 -56 142c-17 13 -40 21 -62 21
c-51 0 -86 -44 -102 -71z" />
    <glyph glyph-name="c" unicode="c" horiz-adv-x="530" 
d="M495 415l-86 -100l-36 22c7 18 8 25 8 30c0 21 -21 43 -46 51c-10 3 -20 5 -31 5c-25 0 -51 -7 -73 -20c-40 -25 -71 -75 -71 -138c0 -65 38 -140 96 -175c25 -15 55 -24 85 -24c38 0 76 15 95 55h32v-124c-34 -9 -66 -12 -100 -12c-144 0 -245 64 -294 141
c-26 40 -39 88 -39 136c0 46 14 92 39 130c41 61 114 105 215 105c49 0 136 -12 206 -82z" />
    <glyph glyph-name="d" unicode="d" horiz-adv-x="574" 
d="M502 700v-633c0 -21 16 -34 39 -35v-32h-157v68c-33 -48 -87 -83 -153 -83c-51 0 -134 24 -177 132c-13 32 -19 65 -19 99c0 41 9 83 27 121c73 150 221 160 301 160h21v141c0 16 -14 29 -34 30v32h152zM384 416h-21c-140 0 -203 -91 -203 -188c0 -104 60 -153 117 -153
c33 0 70 16 107 72v269z" />
    <glyph glyph-name="e" unicode="e" horiz-adv-x="534" 
d="M475 255h-315c-1 -73 35 -138 80 -167c23 -15 51 -22 78 -22c48 0 106 22 133 80h32v-118c-35 -17 -74 -30 -123 -38c-18 -3 -35 -5 -53 -5c-77 0 -165 32 -216 96c-38 48 -56 113 -56 166c0 102 56 184 121 221c33 19 71 29 110 29c41 0 83 -11 117 -34
c39 -27 92 -90 92 -192v-16zM160 324h186c-1 25 -9 99 -87 99c-64 0 -93 -55 -99 -99z" />
    <glyph glyph-name="f" unicode="f" horiz-adv-x="336" 
d="M192 482h99v-66h-99v-349c0 -22 14 -37 43 -35v-32h-200v32c27 0 39 14 39 35v349h-54v66h54v66c0 80 32 122 62 143c25 17 57 24 88 24c49 0 84 -10 106 -20v-114h-32c-6 18 -18 35 -32 44c-9 6 -20 9 -32 9c-11 0 -22 -4 -29 -11c-11 -12 -13 -38 -13 -53v-88z" />
    <glyph glyph-name="g" unicode="g" horiz-adv-x="570" 
d="M27 -113l103 83l23 -24c-12 -18 -9 -41 6 -59c24 -28 79 -36 110 -36c86 0 126 50 126 101c0 18 -5 29 -8 41c-5 17 -7 32 -7 46c-52 -48 -115 -54 -142 -54c-79 0 -150 48 -183 120c-14 30 -20 64 -20 97c0 55 15 111 46 157c40 59 122 123 243 123h213v-32
c-33 3 -39 -16 -39 -30v-368c0 -17 3 -49 5 -60l2 -9c4 -20 8 -32 8 -52c0 -70 -58 -161 -245 -161c-89 0 -183 28 -241 117zM380 138v257c-13 4 -24 6 -40 6c-70 0 -122 -28 -155 -89c-17 -31 -25 -66 -25 -100c0 -19 4 -39 11 -57c21 -56 63 -80 101 -80c13 0 25 3 37 7
c28 11 54 34 71 56z" />
    <glyph glyph-name="h" unicode="h" horiz-adv-x="571" 
d="M538 32v-32h-196v32c23 1 39 14 39 35v239c0 18 -1 69 -31 94c-15 12 -35 16 -55 16c-15 0 -29 -2 -42 -8c-21 -9 -51 -31 -63 -73v-268c0 -21 16 -34 39 -35v-32h-196v32c23 1 39 14 39 35v571c0 18 -13 30 -34 30v32h152v-260c31 30 61 42 102 51c16 3 32 6 48 6
c26 0 52 -6 75 -18c40 -22 84 -72 84 -155v-257c0 -21 16 -34 39 -35z" />
    <glyph glyph-name="i" unicode="i" horiz-adv-x="262" 
d="M190 482v-415c0 -21 16 -34 39 -35v-32h-196v32c23 1 39 14 39 35v353c0 18 -17 31 -39 30v32h157zM46 635c0 44 36 80 80 80s80 -36 80 -80s-36 -80 -80 -80s-80 36 -80 80z" />
    <glyph glyph-name="j" unicode="j" horiz-adv-x="262" 
d="M-198 -136l91 100l30 -22c-3 -6 -6 -14 -6 -21c0 -14 5 -39 48 -51c10 -3 21 -5 31 -5c48 0 94 26 94 83c0 11 -3 28 -5 37c-4 14 -13 30 -13 54v381c0 18 -17 31 -39 30v32h157v-437c0 -13 0 -21 1 -28c4 -26 17 -33 17 -80c0 -45 -24 -111 -126 -141
c-28 -8 -56 -12 -85 -12c-75 0 -143 27 -195 80zM46 635c0 44 36 80 80 80s80 -36 80 -80s-36 -80 -80 -80s-80 36 -80 80z" />
    <glyph glyph-name="k" unicode="k" horiz-adv-x="567" 
d="M350 482h193v-32c-29 -3 -43 -16 -73 -43l-100 -88l156 -260c8 -13 18 -23 39 -27v-32h-207v32c10 0 30 6 30 15c0 5 -2 11 -8 20l-104 175l-86 -77v-98c0 -21 16 -34 39 -35v-32h-196v32c23 1 39 14 39 35v571c0 16 -14 29 -34 30v32h152v-441l172 159c9 8 13 13 13 18
c0 10 -13 12 -18 13l-7 1v32z" />
    <glyph glyph-name="l" unicode="l" horiz-adv-x="268" 
d="M196 700v-633c0 -21 16 -34 39 -35v-32h-196v32c23 1 39 14 39 35v561c0 23 -20 40 -45 40v32h163z" />
    <glyph glyph-name="m" unicode="m" horiz-adv-x="880" 
d="M190 482v-56c19 28 45 49 87 62c20 6 40 9 61 9c20 0 40 -2 59 -8c38 -11 65 -32 84 -67c23 24 61 55 120 69c54 13 95 3 123 -12c40 -22 84 -75 84 -155v-257c0 -21 16 -34 39 -35v-32h-196v32c23 1 39 14 39 35v239c0 18 -1 69 -31 94c-24 20 -69 20 -97 8
c-15 -6 -50 -25 -63 -73v-268c0 -21 16 -34 39 -35v-32h-196v32c23 1 39 14 39 35v239c0 18 -1 69 -31 94c-14 12 -35 16 -54 16c-15 0 -30 -2 -43 -8c-21 -9 -51 -31 -63 -73v-268c0 -21 16 -34 39 -35v-32h-196v32c23 1 39 14 39 35v353c0 16 -14 29 -34 30v32h152z" />
    <glyph glyph-name="n" unicode="n" horiz-adv-x="571" 
d="M190 482v-42c31 30 61 42 102 51c16 3 32 6 48 6c26 0 52 -5 75 -18c40 -22 84 -75 84 -155v-257c0 -21 16 -34 39 -35v-32h-196v32c23 1 39 14 39 35v239c0 18 -1 69 -31 94c-14 12 -34 16 -53 16c-15 0 -30 -2 -44 -8c-21 -9 -51 -31 -63 -73v-268c0 -21 16 -34 39 -35
v-32h-196v32c23 1 39 14 39 35v353c0 16 -14 29 -34 30v32h152z" />
    <glyph glyph-name="o" unicode="o" horiz-adv-x="570" 
d="M285 -15c-147 0 -250 117 -250 256s103 256 250 256s250 -117 250 -256s-103 -256 -250 -256zM285 66c36 0 118 17 118 175s-82 175 -118 175s-118 -17 -118 -175s82 -175 118 -175z" />
    <glyph glyph-name="p" unicode="p" horiz-adv-x="573" 
d="M190 482v-62c22 35 50 56 90 68c19 6 40 9 60 9c55 0 137 -21 179 -127c13 -32 19 -65 19 -99c0 -59 -12 -121 -45 -169c-64 -94 -171 -114 -262 -117c-14 0 -27 -1 -41 0v-148c0 -21 16 -34 39 -35v-32h-196v32c23 1 39 14 39 35v583c0 15 -13 29 -34 30v32h152z
M190 336v-269c18 -5 33 -7 48 -7c82 0 129 38 154 90c16 33 21 71 21 108c0 77 -21 118 -49 139c-17 13 -39 19 -60 19c-15 0 -29 -3 -43 -8c-26 -10 -56 -31 -71 -72z" />
    <glyph glyph-name="q" unicode="q" horiz-adv-x="562" 
d="M524 482v-32c-20 -1 -34 -14 -34 -30v-583c0 -21 16 -34 39 -35v-32h-196v32c23 1 39 14 39 35v194c-27 -23 -57 -36 -87 -42c-13 -3 -27 -4 -41 -4c-62 0 -138 28 -181 107c-19 36 -28 77 -28 118c0 38 8 75 23 109c31 69 105 163 259 163h207zM372 401h-50
c-44 0 -106 -9 -143 -85c-15 -31 -19 -65 -19 -98c0 -22 3 -43 10 -64c26 -81 82 -88 106 -88c32 0 75 20 96 62v273z" />
    <glyph glyph-name="r" unicode="r" horiz-adv-x="373" 
d="M38 450v32h140v-57h2c14 24 37 51 83 65c15 5 30 7 46 7c12 0 31 -2 40 -5l3 -1v-128h-32c-3 22 -15 33 -25 38c-8 4 -17 6 -26 6c-12 0 -24 -4 -34 -10c-21 -13 -45 -42 -45 -85v-245c0 -20 14 -35 39 -35v-32h-196v32c25 0 39 15 39 35v353c0 16 -14 29 -34 30z" />
    <glyph glyph-name="s" unicode="s" horiz-adv-x="532" 
d="M473 446l-67 -109l-37 15c2 6 4 13 4 21c0 37 -52 55 -92 55c-54 0 -85 -20 -85 -51c0 -33 29 -47 54 -56c53 -20 103 -29 147 -49c31 -14 92 -47 92 -125c0 -32 -11 -63 -31 -87c-43 -53 -132 -75 -202 -75c-110 0 -180 43 -217 73l77 106l37 -19c-4 -9 -6 -15 -6 -22
c0 -47 54 -60 71 -64c14 -3 28 -5 42 -5c13 0 26 2 39 5c51 12 65 40 65 64c0 15 -6 30 -16 41c-16 19 -47 33 -115 54c-59 18 -114 35 -142 72c-13 17 -20 40 -20 62c0 28 11 56 28 77c39 48 118 68 183 68c23 0 46 -2 68 -6c48 -8 86 -23 123 -45z" />
    <glyph glyph-name="t" unicode="t" horiz-adv-x="374" 
d="M192 482h134v-66h-134v-275c0 -29 1 -53 13 -65c8 -8 21 -10 34 -10c29 0 52 16 55 48h32v-103c-25 -12 -48 -19 -80 -23c-13 -2 -25 -3 -38 -3c-34 0 -71 7 -96 29c-36 32 -38 79 -38 109v293h-55v66h55v135l118 40v-175z" />
    <glyph glyph-name="u" unicode="u" horiz-adv-x="566" 
d="M376 0v58c-19 -23 -51 -52 -106 -66c-17 -4 -34 -7 -52 -7c-29 0 -58 5 -83 20c-61 36 -68 100 -68 141v274c0 16 -14 29 -34 30v32h152v-307c0 -27 3 -63 31 -85c14 -11 33 -15 52 -15c15 0 30 4 44 10c36 17 62 52 64 55v280c0 16 -14 29 -34 30v32h152v-415
c0 -31 20 -36 39 -35v-32h-157z" />
    <glyph glyph-name="v" unicode="v" horiz-adv-x="490" 
d="M335 482h151v-32c-27 -6 -32 -23 -38 -39l-146 -411h-115l-147 416c-10 30 -28 33 -36 34v32h196v-32l-12 -1c-28 -2 -16 -31 -12 -44l93 -271l88 258c8 23 8 31 8 33c0 23 -21 25 -30 25v32z" />
    <glyph glyph-name="w" unicode="w" horiz-adv-x="746" 
d="M369 232l-75 -232h-98l-138 402c-12 34 -20 46 -41 48v32h179v-32c-17 -2 -25 -15 -18 -36l84 -264l68 202l-19 59c-5 14 -11 38 -40 39v32h184v-32h-7c-14 0 -22 -1 -22 -18c0 -2 1 -9 7 -28l81 -254l84 247c7 20 15 51 -29 53v32h160v-32c-26 -6 -36 -21 -50 -61
l-138 -389h-94z" />
    <glyph glyph-name="x" unicode="x" horiz-adv-x="530" 
d="M9 0v32c23 8 33 23 44 37l141 180l-110 158c-23 33 -42 42 -61 43v32h214v-32h-9c-4 0 -20 0 -20 -14c0 -7 3 -10 6 -14l70 -102l64 87c4 6 12 14 12 23s-7 20 -23 20v32h172v-32c-15 -2 -37 -9 -63 -44l-105 -140l126 -189c25 -37 43 -44 54 -45v-32h-192v32l5 1
c4 1 13 3 13 12c0 8 -6 16 -12 24l-86 123l-85 -119c-5 -7 -9 -13 -9 -21c0 -13 9 -20 19 -20h6v-32h-171z" />
    <glyph glyph-name="y" unicode="y" horiz-adv-x="510" 
d="M8 482h191v-32c-15 1 -26 -8 -26 -21s4 -23 8 -33l99 -245l91 245c4 10 8 21 8 31c0 15 -11 18 -21 21l-8 2v32h151v-32c-22 -4 -28 -16 -41 -51l-158 -431c-29 -80 -65 -155 -152 -179c-18 -5 -36 -6 -54 -6c-46 0 -74 12 -88 18v127h32c7 -30 24 -45 37 -53
c10 -6 22 -11 34 -11c17 0 34 7 48 17c28 21 51 64 61 98l-173 433c-10 26 -18 37 -39 38v32z" />
    <glyph glyph-name="z" unicode="z" horiz-adv-x="472" 
d="M433 482v-71l-242 -330h89c32 0 102 0 121 67h32v-148h-394v73l234 328h-82c-67 0 -93 -6 -104 -44h-32v125h378z" />
    <glyph glyph-name="braceleft" unicode="{" horiz-adv-x="413" 
d="M268 590v-196c0 -62 -7 -137 -95 -149c88 -12 95 -87 95 -149v-196c0 -103 54 -110 83 -108v-16c-33 -3 -114 -5 -153 32c-35 34 -38 88 -38 131v186c0 53 -4 104 -73 104h-13v32h13c69 0 73 51 73 104v186c0 43 3 97 38 131c39 37 120 35 153 32v-16
c-29 2 -83 -5 -83 -108z" />
    <glyph glyph-name="bar" unicode="|" horiz-adv-x="298" 
d="M109 0v700h80v-700h-80z" />
    <glyph glyph-name="braceright" unicode="}" horiz-adv-x="413" 
d="M145 -100v196c0 62 7 137 95 149c-88 12 -95 87 -95 149v196c0 103 -54 110 -83 108v16c33 3 114 5 153 -32c35 -34 38 -88 38 -131v-186c0 -53 4 -104 73 -104h13v-32h-13c-69 0 -73 -51 -73 -104v-186c0 -43 -3 -97 -38 -131c-39 -37 -120 -35 -153 -32v16
c29 -2 83 5 83 108z" />
    <glyph glyph-name="asciitilde" unicode="~" horiz-adv-x="627" 
d="M496 645l60 -39l-8 -13c-36 -58 -85 -89 -129 -89c-25 0 -72 14 -102 26l-22 9c-24 10 -59 22 -80 22c-34 0 -57 -23 -75 -54l-10 -17l-59 39l19 31c44 71 100 77 123 77c26 0 54 -10 82 -20l56 -19c24 -8 48 -18 67 -18c32 0 59 36 69 51z" />
    <glyph glyph-name="afii10051" unicode="&#x402;" horiz-adv-x="829" 
d="M20 700h588v-145h-49l-6 27c-4 19 -24 34 -44 34h-128v-214c30 4 87 11 142 11c49 0 116 -6 173 -37c64 -35 93 -90 93 -161c0 -72 -34 -132 -79 -172c-56 -49 -116 -58 -159 -58c-32 0 -66 5 -93 11v130h49c4 -24 20 -52 58 -52c28 0 46 11 59 31c4 6 23 33 23 82
c0 58 -20 96 -44 115c-32 25 -82 27 -109 27c-16 0 -59 -1 -113 -11v-318h-177v36c25 1 43 16 43 36v544h-128c-20 0 -40 -15 -44 -34l-6 -27h-49v145z" />
    <glyph glyph-name="afii10052" unicode="&#x403;" horiz-adv-x="596" 
d="M565 700v-134h-49c-1 39 -26 50 -64 50h-227v-544c0 -20 18 -35 43 -36v-36h-220v36c25 1 43 16 43 36v556c0 20 -18 35 -43 36v36h517zM234 762l113 123c26 28 55 53 83 53c21 0 47 -17 55 -36c3 -8 3 -16 3 -25c0 -11 -3 -21 -8 -30c-8 -14 -41 -38 -60 -46l-166 -71z
" />
    <glyph glyph-name="quotesinglbase" unicode="&#x201a;" horiz-adv-x="295" 
d="M125 -151l-34 33c27 30 55 73 66 129c-11 -9 -21 -10 -27 -10c-19 0 -42 14 -52 37c-4 8 -6 18 -6 27c0 11 1 22 6 32c11 25 39 40 63 40c33 0 64 -24 76 -51c6 -13 7 -28 7 -43c0 -22 -4 -43 -11 -63c-17 -49 -56 -99 -88 -131z" />
    <glyph glyph-name="afii10100" unicode="&#x453;" horiz-adv-x="461" 
d="M33 482h405v-130h-32c-7 55 -51 49 -75 49h-141v-334c0 -21 16 -34 39 -35v-32h-196v32c23 1 39 14 39 35v348c0 21 -16 34 -39 35v32zM170 570l94 102c23 25 44 44 68 44c25 0 49 -22 49 -50c0 -19 -13 -44 -57 -63l-137 -59z" />
    <glyph glyph-name="quotedblbase" unicode="&#x201e;" horiz-adv-x="505" 
d="M125 -151l-34 33c27 30 55 73 66 129c-11 -9 -21 -10 -27 -10c-19 0 -42 14 -52 37c-4 8 -6 18 -6 27c0 11 1 22 6 32c11 25 39 40 63 40c33 0 64 -24 76 -51c6 -13 7 -28 7 -43c0 -22 -4 -43 -11 -63c-17 -49 -56 -99 -88 -131zM335 -151l-34 33c27 30 55 73 66 129
c-11 -9 -21 -10 -27 -10c-19 0 -42 14 -52 37c-4 8 -6 18 -6 27c0 11 1 22 6 32c11 25 39 40 63 40c33 0 64 -24 76 -51c6 -13 7 -28 7 -43c0 -22 -4 -43 -11 -63c-17 -49 -56 -99 -88 -131z" />
    <glyph glyph-name="ellipsis" unicode="&#x2026;" horiz-adv-x="984" 
d="M90 61c0 42 34 76 76 76s76 -34 76 -76s-34 -76 -76 -76s-76 34 -76 76zM416 61c0 42 34 76 76 76s76 -34 76 -76s-34 -76 -76 -76s-76 34 -76 76zM742 61c0 42 34 76 76 76s76 -34 76 -76s-34 -76 -76 -76s-76 34 -76 76z" />
    <glyph glyph-name="dagger" unicode="&#x2020;" horiz-adv-x="633" 
d="M291 -216v314c0 86 4 159 -45 253c40 53 47 100 48 123l-9 -4c-64 -28 -89 -36 -107 -36c-29 0 -59 16 -59 57c0 40 28 55 52 55c20 0 43 -8 91 -26l32 -12l-6 18c-30 90 -35 112 -35 130c0 34 28 59 63 59s63 -25 63 -59c0 -18 -5 -40 -35 -130l-6 -18l32 12
c48 18 71 26 91 26c24 0 52 -15 52 -55c0 -41 -30 -57 -59 -57c-18 0 -43 8 -107 36l-9 4c1 -23 8 -70 48 -123c-49 -94 -45 -167 -45 -253v-314h-50z" />
    <glyph glyph-name="daggerdbl" unicode="&#x2021;" horiz-adv-x="626" 
d="M288 -212v229c0 65 2 120 -35 188c13 15 27 35 43 75c-69 -30 -94 -31 -107 -31c-28 0 -50 20 -50 52c0 33 25 50 53 50c23 0 43 -11 79 -25l25 -10l-31 91c18 28 18 45 30 80l1 3c-23 -11 -78 -31 -107 -31c-28 0 -50 21 -50 52c0 38 32 50 53 50c29 0 61 -19 84 -28
l20 -8c-39 78 -42 108 -42 120c0 34 28 55 59 55s59 -21 59 -55c0 -12 -3 -42 -42 -120l20 8c23 9 55 28 84 28c21 0 53 -12 53 -50c0 -31 -22 -52 -50 -52c-29 0 -84 20 -107 31l1 -3c12 -35 12 -52 30 -80l-31 -91l25 10c36 14 56 25 79 25c28 0 53 -17 53 -50
c0 -32 -22 -52 -50 -52c-13 0 -38 1 -107 31c16 -40 30 -60 43 -75c-37 -68 -35 -123 -35 -188v-229h-50z" />
    <glyph glyph-name="perthousand" unicode="&#x2030;" horiz-adv-x="1344" 
d="M721 700l-427 -700h-94l427 700h94zM234 349c-96 0 -141 64 -158 99c-13 26 -19 54 -19 83s6 57 19 83c17 35 62 99 158 99s141 -64 158 -99c13 -26 19 -54 19 -83s-6 -57 -19 -83c-17 -35 -62 -99 -158 -99zM234 424c34 0 77 23 77 107s-43 107 -77 107
s-77 -23 -77 -107s43 -107 77 -107zM688 -15c-96 0 -141 64 -158 99c-13 26 -19 54 -19 83s6 57 19 83c17 35 62 99 158 99s141 -64 158 -99c13 -26 19 -54 19 -83s-6 -57 -19 -83c-17 -35 -62 -99 -158 -99zM688 60c34 0 77 23 77 107s-43 107 -77 107s-77 -23 -77 -107
s43 -107 77 -107zM1110 -15c-96 0 -141 64 -158 99c-13 26 -19 54 -19 83s6 57 19 83c17 35 62 99 158 99s141 -64 158 -99c13 -26 19 -54 19 -83s-6 -57 -19 -83c-17 -35 -62 -99 -158 -99zM1110 60c34 0 77 23 77 107s-43 107 -77 107s-77 -23 -77 -107s43 -107 77 -107z
" />
    <glyph glyph-name="afii10058" unicode="&#x409;" horiz-adv-x="1151" 
d="M695 700v-36c-25 -1 -43 -16 -43 -36v-191l51 -2c165 -6 323 -35 385 -148c15 -27 23 -58 23 -90c0 -36 -8 -73 -28 -103c-61 -92 -187 -94 -238 -94h-370v36c25 1 43 16 43 36v544h-191l-6 -74c-9 -113 -17 -232 -40 -340c-41 -197 -127 -217 -185 -217
c-37 0 -62 8 -86 22v135h49v-9c0 -20 12 -36 33 -36c39 0 60 31 73 59c35 77 56 283 62 372c3 44 9 124 -43 133l-18 3v36h529zM652 84h163c33 0 78 3 114 32c32 26 40 58 40 82c0 25 -8 51 -22 71c-60 84 -246 85 -295 84v-269z" />
    <glyph glyph-name="guilsinglleft" unicode="&#x2039;" horiz-adv-x="270" 
d="M68 245l94 195l40 -25l-48 -170l48 -170l-40 -25z" />
    <glyph glyph-name="afii10059" unicode="&#x40a;" horiz-adv-x="1156" 
d="M480 700h220v-36c-25 -1 -43 -16 -43 -36v-191l51 -2c165 -6 323 -35 385 -148c15 -27 23 -58 23 -90c0 -36 -8 -73 -28 -103c-61 -92 -187 -94 -238 -94h-370v36c25 1 43 16 43 36v271h-298v-271c0 -20 18 -35 43 -36v-36h-220v36c25 1 43 16 43 36v556
c0 20 -18 35 -43 36v36h220v-36c-25 -1 -43 -16 -43 -36v-201h298v201c0 20 -18 35 -43 36v36zM657 84h163c33 0 78 3 114 32c32 26 40 58 40 82c0 25 -8 51 -22 71c-60 84 -246 85 -295 84v-269z" />
    <glyph glyph-name="afii10061" unicode="&#x40c;" horiz-adv-x="715" 
d="M48 700h220v-36c-25 -1 -43 -16 -43 -36v-220c134 16 242 92 274 172c6 14 8 29 8 45c0 24 -14 35 -31 37l-21 2v36h188l-3 -28c-18 -172 -140 -254 -170 -272l136 -276c37 -74 81 -85 100 -88v-36h-182l-178 351c-38 -12 -78 -21 -121 -27v-252c0 -20 18 -35 43 -36v-36
h-220v36c25 1 43 16 43 36v556c0 20 -18 35 -43 36v36zM230 762l113 123c26 28 55 53 83 53c21 0 47 -17 55 -36c3 -8 3 -16 3 -25c0 -11 -3 -21 -8 -30c-8 -14 -41 -38 -60 -46l-166 -71z" />
    <glyph glyph-name="afii10060" unicode="&#x40b;" horiz-adv-x="869" 
d="M20 700h588v-145h-49l-6 27c-4 19 -24 34 -44 34h-128v-214c20 2 84 8 130 8c66 0 167 -8 220 -59c45 -44 47 -98 47 -148v-131c0 -20 18 -35 43 -36v-36h-220v36c25 1 43 16 43 36v98c0 30 1 73 -17 103c-32 52 -100 53 -140 53c-35 0 -64 -1 -106 -8v-246
c0 -20 18 -35 43 -36v-36h-220v36c25 1 43 16 43 36v544h-128c-20 0 -40 -15 -44 -34l-6 -27h-49v145z" />
    <glyph glyph-name="afii10145" unicode="&#x40f;" horiz-adv-x="738" 
d="M470 664v36h220v-36c-25 -1 -43 -16 -43 -36v-556c0 -20 18 -35 43 -36v-36h-127c-164 0 -154 -69 -161 -148l-3 -32h-60l-3 32c-7 79 3 148 -161 148h-127v36c25 1 43 16 43 36v556c0 20 -18 35 -43 36v36h220v-36c-25 -1 -43 -16 -43 -36v-544h288v544
c0 20 -18 35 -43 36z" />
    <glyph glyph-name="afii10099" unicode="&#x452;" horiz-adv-x="558" 
d="M199 700v-89h149v-62h-149v-109c22 21 41 31 65 41c29 12 48 16 80 16c38 0 78 -5 116 -44c61 -63 63 -165 63 -252c0 -77 -1 -207 -51 -305c-48 -93 -120 -116 -182 -116c-26 0 -61 6 -84 12v124h32c5 -33 29 -55 57 -55c46 0 65 37 75 72c20 69 21 208 21 273
c0 85 4 162 -36 194c-15 12 -35 16 -55 16c-13 0 -26 -3 -38 -8c-21 -9 -51 -31 -63 -73v-268c0 -21 16 -34 39 -35v-32h-196v32c23 1 39 14 39 35v482h-48v62h48v27c0 18 -13 30 -34 30v32h152z" />
    <glyph glyph-name="quoteleft" unicode="&#x2018;" horiz-adv-x="296" 
d="M170 716l34 -33c-27 -30 -55 -73 -66 -129c11 9 21 10 27 10c21 0 43 -14 53 -37c4 -8 6 -18 6 -27c0 -11 -1 -22 -6 -32c-10 -22 -36 -40 -64 -40c-33 0 -64 23 -76 51c-6 13 -7 28 -7 43c0 22 4 43 11 63c22 63 77 120 88 131z" />
    <glyph glyph-name="quoteright" unicode="&#x2019;" horiz-adv-x="296" 
d="M125 428l-34 33c27 30 55 73 66 129c-11 -9 -21 -10 -27 -10c-21 0 -43 14 -53 37c-4 8 -6 18 -6 27c0 11 1 22 6 32c10 22 36 40 64 40c33 0 64 -23 76 -51c6 -13 7 -28 7 -43c0 -22 -4 -43 -11 -63c-22 -63 -77 -120 -88 -131z" />
    <glyph glyph-name="quotedblleft" unicode="&#x201c;" horiz-adv-x="505" 
d="M381 716l34 -33c-27 -30 -55 -73 -66 -129c11 9 21 10 27 10c19 0 42 -14 52 -37c4 -8 6 -18 6 -27c0 -11 -1 -22 -6 -32c-11 -25 -39 -40 -63 -40c-33 0 -64 24 -76 51c-6 13 -7 28 -7 43c0 22 4 43 11 63c17 49 56 99 88 131zM171 716l34 -33c-27 -30 -55 -73 -66 -129
c11 9 21 10 27 10c19 0 42 -14 52 -37c4 -8 6 -18 6 -27c0 -11 -1 -22 -6 -32c-11 -25 -39 -40 -63 -40c-33 0 -64 24 -76 51c-6 13 -7 28 -7 43c0 22 4 43 11 63c17 49 56 99 88 131z" />
    <glyph glyph-name="quotedblright" unicode="&#x201d;" horiz-adv-x="505" 
d="M125 428l-34 33c27 30 55 73 66 129c-11 -9 -21 -10 -27 -10c-19 0 -42 14 -52 37c-4 8 -6 18 -6 27c0 11 1 22 6 32c11 25 39 40 63 40c33 0 64 -24 76 -51c6 -13 7 -28 7 -43c0 -22 -4 -43 -11 -63c-17 -49 -56 -99 -88 -131zM335 428l-34 33c27 30 55 73 66 129
c-11 -9 -21 -10 -27 -10c-19 0 -42 14 -52 37c-4 8 -6 18 -6 27c0 11 1 22 6 32c11 25 39 40 63 40c33 0 64 -24 76 -51c6 -13 7 -28 7 -43c0 -22 -4 -43 -11 -63c-17 -49 -56 -99 -88 -131z" />
    <glyph glyph-name="bullet" unicode="&#x2022;" horiz-adv-x="695" 
d="M171 344c0 96 80 176 176 176s176 -80 176 -176s-80 -176 -176 -176s-176 80 -176 176z" />
    <glyph glyph-name="endash" unicode="&#x2013;" horiz-adv-x="620" 
d="M70 293h480v-98h-480v98z" />
    <glyph glyph-name="emdash" unicode="&#x2014;" horiz-adv-x="984" 
d="M70 293h844v-98h-844v98z" />
    <glyph glyph-name="trademark" unicode="&#x2122;" horiz-adv-x="828" 
d="M26 700h301v-91h-31c0 11 0 60 -42 60h-40v-250c0 -15 13 -26 45 -24v-31h-165v31c32 -2 45 9 45 24v250h-40c-42 0 -42 -49 -42 -60h-31v91zM757 641v-208c0 -23 16 -38 35 -38v-31h-139v31c32 -3 33 30 33 38v218h-1l-112 -287h-14l-118 287h-2v-223
c0 -10 2 -39 37 -33v-31h-110v31c12 -1 36 2 36 33v217c0 26 -15 24 -22 24h-7v31h121l87 -221l98 221h113v-31c-32 1 -35 -17 -35 -28z" />
    <glyph glyph-name="afii10106" unicode="&#x459;" horiz-adv-x="824" 
d="M531 482v-32c-23 -1 -39 -14 -39 -35v-109c13 1 26 1 39 1c197 0 269 -73 269 -162c0 -60 -34 -145 -193 -145h-272v32c23 1 39 14 39 35v334h-123l-4 -41c-4 -41 -7 -83 -15 -139c-14 -96 -32 -144 -53 -176c-33 -51 -66 -60 -112 -60c-24 0 -38 2 -57 15v119h32v-10
c0 -17 5 -28 27 -28c47 0 62 59 70 99c10 50 25 151 27 202c1 31 1 63 -31 67l-8 1v32h404zM492 237v-156h68c42 0 122 3 122 67c0 36 -19 83 -144 89c-15 1 -31 1 -46 0z" />
    <glyph glyph-name="guilsinglright" unicode="&#x203a;" horiz-adv-x="270" 
d="M202 245l-94 -195l-40 25l48 170l-48 170l40 25z" />
    <glyph glyph-name="afii10107" unicode="&#x45a;" horiz-adv-x="831" 
d="M229 482v-32c-23 -1 -39 -14 -39 -35v-113h191v113c0 21 -16 34 -39 35v32h196v-32c-23 -1 -39 -14 -39 -35v-109c13 1 26 1 39 1c197 0 269 -73 269 -162c0 -60 -34 -145 -193 -145h-272v32c23 1 39 14 39 35v154h-191v-154c0 -21 16 -34 39 -35v-32h-196v32
c23 1 39 14 39 35v348c0 21 -16 34 -39 35v32h196zM499 237v-156h68c42 0 122 3 122 67c0 36 -19 83 -144 89c-15 1 -31 1 -46 0z" />
    <glyph glyph-name="afii10109" unicode="&#x45c;" horiz-adv-x="541" 
d="M33 482h196v-32c-23 -1 -39 -14 -39 -35v-130c37 0 81 8 112 25c52 28 63 71 63 100c0 20 -10 37 -27 39l-8 1v32h152c4 -138 -53 -200 -107 -231l97 -169c26 -45 49 -53 63 -56v-26h-153l-120 219c-25 -7 -49 -9 -72 -9v-143c0 -21 16 -34 39 -35v-32h-196v32
c23 1 39 14 39 35v348c0 21 -16 34 -39 35v32zM165 570l94 102c23 25 44 44 68 44c25 0 49 -22 49 -50c0 -19 -13 -44 -57 -63l-137 -59z" />
    <glyph glyph-name="afii10108" unicode="&#x45b;" horiz-adv-x="580" 
d="M199 700v-89h149v-62h-149v-109c31 30 61 42 102 51c16 3 32 6 48 6c26 0 52 -6 75 -18c40 -22 84 -72 84 -155v-257c0 -21 16 -34 39 -35v-32h-196v32c23 1 39 14 39 35v239c0 18 -1 69 -31 94c-15 12 -35 16 -55 16c-15 0 -29 -2 -42 -8c-21 -9 -51 -31 -63 -73v-268
c0 -21 16 -34 39 -35v-32h-196v32c23 1 39 14 39 35v482h-48v62h48v27c0 18 -13 30 -34 30v32h152z" />
    <glyph glyph-name="afii10193" unicode="&#x45f;" horiz-adv-x="568" 
d="M339 450v32h196v-32c-23 -1 -39 -14 -39 -35v-348c0 -21 16 -34 39 -35v-32h-147c-22 0 -52 -4 -69 -62c-8 -28 -12 -64 -13 -88h-44c-1 24 -5 60 -13 88c-17 58 -47 62 -69 62h-147v32c23 1 39 14 39 35v348c0 21 -16 34 -39 35v32h196v-32c-23 -1 -39 -14 -39 -35v-334
h188v334c0 21 -16 34 -39 35z" />
    <glyph glyph-name="afii10062" unicode="&#x40e;" horiz-adv-x="671" 
d="M19 700h220v-36h-4c-12 0 -46 -1 -23 -43l168 -305l117 294c1 3 8 21 8 31c0 9 -5 21 -22 22l-12 1v36h184v-36c-29 -4 -42 -20 -58 -57l-172 -409c-43 -101 -95 -210 -225 -213c-44 -1 -88 11 -100 15v131h49l1 -16c1 -17 26 -29 55 -29c61 0 97 64 110 101l-246 434
c-17 30 -27 42 -50 43v36zM515 884v-80c-39 -39 -92 -71 -180 -71s-141 32 -180 71v80h47c18 -55 74 -85 133 -85c61 0 115 31 133 85h47z" />
    <glyph glyph-name="afii10110" unicode="&#x45e;" horiz-adv-x="509" 
d="M8 482h191v-32c-15 1 -26 -8 -26 -21s4 -23 8 -33l99 -245l91 245c4 10 8 21 8 31c0 15 -11 18 -21 21l-8 2v32h151v-32c-22 -4 -28 -16 -41 -51l-158 -431c-29 -80 -65 -155 -152 -179c-18 -5 -36 -6 -54 -6c-46 0 -74 12 -88 18v127h32c7 -30 24 -45 37 -53
c10 -6 22 -11 34 -11c17 0 34 7 48 17c28 21 51 64 61 98l-173 433c-10 26 -18 37 -39 38v32zM109 649h36c15 -43 58 -68 110 -68s95 25 110 68h36v-87c-44 -24 -99 -40 -146 -40s-102 16 -146 40v87z" />
    <glyph glyph-name="afii10057" unicode="&#x408;" horiz-adv-x="584" 
d="M8 172l132 96l30 -35c-7 -5 -26 -19 -26 -55c0 -33 16 -71 61 -92c15 -7 32 -11 49 -11c24 0 49 6 68 21c41 33 43 91 43 113v419c0 20 -18 35 -43 36v36h220v-36c-25 -1 -43 -16 -43 -36v-416c0 -58 -13 -145 -109 -198c-40 -22 -86 -29 -132 -29c-40 0 -79 9 -114 27
c-51 26 -106 81 -136 160z" />
    <glyph glyph-name="currency" unicode="&#xa4;" horiz-adv-x="632" 
d="M106 150l35 36c-13 19 -38 60 -38 122s25 105 38 124l-35 36l49 51l36 -37c21 15 63 40 125 40s105 -26 124 -40l36 37l50 -51l-36 -36c27 -42 38 -88 38 -127c0 -38 -12 -81 -38 -119l36 -36l-50 -50l-36 36c-37 -25 -84 -41 -128 -41c-41 0 -86 17 -121 41l-36 -36z
M317 179c20 0 40 6 57 16c40 24 66 73 66 118c0 48 -30 91 -64 110c-18 10 -38 15 -58 15s-41 -4 -59 -14c-43 -23 -68 -70 -68 -115c0 -48 27 -94 69 -116c17 -9 37 -14 57 -14z" />
    <glyph glyph-name="afii10050" unicode="&#x490;" horiz-adv-x="596" 
d="M48 700h404c38 0 63 11 64 50h49v-134h-340v-544c0 -20 18 -35 43 -36v-36h-220v36c25 1 43 16 43 36v556c0 20 -18 35 -43 36v36z" />
    <glyph glyph-name="brokenbar" unicode="&#xa6;" horiz-adv-x="298" 
d="M109 0v274h80v-274h-80zM109 426v274h80v-274h-80z" />
    <glyph glyph-name="section" unicode="&#xa7;" 
d="M89 -26h49c19 -76 71 -107 87 -115c26 -14 57 -19 87 -19c16 0 32 2 47 7c52 16 68 52 68 78c0 66 -85 95 -152 127c-107 51 -210 97 -210 209c0 72 54 131 112 164c-18 10 -79 50 -79 123c0 83 71 167 220 167c50 0 112 -7 184 -56v-127h-49c-10 68 -67 112 -136 112
c-13 0 -27 -1 -40 -5c-53 -14 -61 -48 -61 -65c0 -48 57 -67 111 -92l87 -40c67 -31 151 -77 151 -185c0 -56 -33 -127 -98 -173c67 -44 77 -95 77 -131c0 -107 -97 -183 -235 -183c-42 0 -122 7 -220 68v136zM237 396c-16 -10 -41 -29 -53 -52c-6 -12 -10 -25 -10 -38
c0 -20 9 -40 21 -57c43 -58 108 -60 218 -131c42 32 62 65 62 94c0 69 -96 115 -155 144z" />
    <glyph glyph-name="afii10023" unicode="&#x401;" horiz-adv-x="636" 
d="M48 700h542v-141h-49c-2 20 -14 57 -53 57h-263v-181h172c31 0 70 3 74 49h49v-182h-49c-4 46 -43 49 -74 49h-172v-267h259c27 0 78 4 83 64h49v-148h-568v36c25 1 43 16 43 36v556c0 20 -18 35 -43 36v36zM124 810c0 45 36 81 81 81s81 -36 81 -81s-36 -81 -81 -81
s-81 36 -81 81zM351 810c0 45 36 81 81 81s81 -36 81 -81s-36 -81 -81 -81s-81 36 -81 81z" />
    <glyph glyph-name="copyright" unicode="&#xa9;" horiz-adv-x="786" 
d="M27 350c0 202 164 366 366 366s366 -164 366 -366s-164 -366 -366 -366s-366 164 -366 366zM111 350c0 -155 127 -282 282 -282s282 127 282 282s-127 282 -282 282s-282 -127 -282 -282zM559 485l-73 -66l-22 17c4 7 8 17 8 24c0 25 -29 52 -73 52
c-67 0 -117 -56 -117 -135c0 -26 5 -53 16 -77c27 -57 83 -93 151 -93c40 0 55 12 65 29h27v-72c-29 -11 -63 -20 -104 -20c-105 0 -202 50 -237 159c-7 21 -11 44 -11 66c0 38 10 77 29 110c44 76 118 96 175 96c20 0 39 -3 58 -9c38 -12 79 -40 108 -81z" />
    <glyph glyph-name="afii10053" unicode="&#x404;" horiz-adv-x="712" 
d="M695 599l-94 -134l-60 34c7 8 10 16 10 28c0 49 -49 104 -152 104c-69 0 -122 -26 -160 -73c-33 -41 -52 -98 -51 -157h301v-81h-301c2 -48 16 -105 67 -161c55 -61 118 -85 209 -85c88 0 116 29 128 68h49v-140c-48 -9 -111 -17 -168 -17c-55 0 -211 3 -322 115
c-51 51 -105 142 -105 279c0 125 46 204 90 247c70 70 168 89 256 89c68 0 186 -11 303 -116z" />
    <glyph glyph-name="guillemotleft" unicode="&#xab;" horiz-adv-x="414" 
d="M68 245l94 195l40 -25l-48 -170l48 -170l-40 -25zM212 245l94 195l40 -25l-48 -170l48 -170l-40 -25z" />
    <glyph glyph-name="logicalnot" unicode="&#xac;" horiz-adv-x="631" 
d="M452 70v183h-353v80h433v-263h-80z" />
    <glyph glyph-name="sfthyphen" unicode="&#xad;" horiz-adv-x="377" 
d="M74 293h229v-98h-229v98z" />
    <glyph glyph-name="registered" unicode="&#xae;" horiz-adv-x="786" 
d="M27 350c0 202 164 366 366 366s366 -164 366 -366s-164 -366 -366 -366s-366 164 -366 366zM111 350c0 -155 127 -282 282 -282s282 127 282 282s-127 282 -282 282s-282 -127 -282 -282zM472 337l74 -134c12 -22 23 -26 31 -26v-20h-87l-91 169h-54v-109
c0 -17 -1 -35 22 -40v-20h-113v20c24 4 23 24 23 40v272c0 16 1 36 -23 39v21h160c25 0 138 -2 138 -106c0 -44 -26 -92 -80 -106zM345 374h32c32 0 68 -4 89 24c8 10 11 24 11 38c0 15 -4 30 -13 41c-21 25 -58 25 -87 25h-32v-128z" />
    <glyph glyph-name="afii10056" unicode="&#x407;" horiz-adv-x="316" 
d="M268 700v-36c-25 -1 -43 -16 -43 -36v-556c0 -20 18 -35 43 -36v-36h-220v36c25 1 43 16 43 36v556c0 20 -18 35 -43 36v36h220zM-36 810c0 45 36 81 81 81s81 -36 81 -81s-36 -81 -81 -81s-81 36 -81 81zM191 810c0 45 36 81 81 81s81 -36 81 -81s-36 -81 -81 -81
s-81 36 -81 81z" />
    <glyph glyph-name="degree" unicode="&#xb0;" horiz-adv-x="391" 
d="M50 568c0 80 66 146 146 146s146 -66 146 -146s-66 -146 -146 -146s-146 66 -146 146zM120 568c0 -42 34 -76 76 -76s76 34 76 76s-34 76 -76 76s-76 -34 -76 -76z" />
    <glyph glyph-name="plusminus" unicode="&#xb1;" horiz-adv-x="632" 
d="M99 375h177v147h80v-147h177v-80h-177v-147h-80v147h-177v80zM533 0h-434v80h434v-80z" />
    <glyph glyph-name="afii10055" unicode="&#x406;" horiz-adv-x="316" 
d="M268 700v-36c-25 -1 -43 -16 -43 -36v-556c0 -20 18 -35 43 -36v-36h-220v36c25 1 43 16 43 36v556c0 20 -18 35 -43 36v36h220z" />
    <glyph glyph-name="afii10103" unicode="&#x456;" horiz-adv-x="262" 
d="M190 482v-415c0 -21 16 -34 39 -35v-32h-196v32c23 1 39 14 39 35v353c0 18 -17 31 -39 30v32h157zM46 635c0 44 36 80 80 80s80 -36 80 -80s-36 -80 -80 -80s-80 36 -80 80z" />
    <glyph glyph-name="afii10098" unicode="&#x491;" horiz-adv-x="461" 
d="M33 482h321c31 0 49 22 52 49h32v-130h-248v-334c0 -21 16 -34 39 -35v-32h-196v32c23 1 39 14 39 35v348c0 21 -16 34 -39 35v32z" />
    <glyph glyph-name="mu" unicode="&#xb5;" horiz-adv-x="632" 
d="M164 482v-315c0 -66 40 -101 94 -101c55 0 97 35 97 101v315h118v-363c0 -15 0 -53 31 -53c22 0 34 25 41 37l7 11l38 -24l-13 -24c-37 -68 -84 -81 -122 -81c-39 0 -73 17 -87 49l-10 23l-3 1c-22 -47 -65 -73 -99 -73c-31 0 -82 16 -104 79v-56c0 -98 4 -50 5 -169
c0 -19 1 -71 -56 -71c-52 0 -55 50 -56 70c-2 38 1 76 1 193v451h118z" />
    <glyph glyph-name="mu" unicode="&#x3bc;" horiz-adv-x="632" 
d="M164 482v-315c0 -66 40 -101 94 -101c55 0 97 35 97 101v315h118v-363c0 -15 0 -53 31 -53c22 0 34 25 41 37l7 11l38 -24l-13 -24c-37 -68 -84 -81 -122 -81c-39 0 -73 17 -87 49l-10 23l-3 1c-22 -47 -65 -73 -99 -73c-31 0 -82 16 -104 79v-56c0 -98 4 -50 5 -169
c0 -19 1 -71 -56 -71c-52 0 -55 50 -56 70c-2 38 1 76 1 193v451h118z" />
    <glyph glyph-name="paragraph" unicode="&#xb6;" horiz-adv-x="629" 
d="M559 700v-36c-44 2 -44 -36 -44 -58v-729c0 -26 1 -61 44 -56v-37h-128v874h-48v-874h-127v37c40 -4 43 27 43 56v440c-138 -7 -226 88 -226 198c0 62 26 185 230 185h256z" />
    <glyph glyph-name="periodcentered" unicode="&#xb7;" horiz-adv-x="318" 
d="M83 217c0 42 34 76 76 76s76 -34 76 -76s-34 -76 -76 -76s-76 34 -76 76z" />
    <glyph glyph-name="afii10071" unicode="&#x451;" horiz-adv-x="534" 
d="M475 255h-315c-1 -73 35 -138 80 -167c23 -15 51 -22 78 -22c48 0 106 22 133 80h32v-118c-35 -17 -74 -30 -123 -38c-18 -3 -35 -5 -53 -5c-77 0 -165 32 -216 96c-38 48 -56 113 -56 166c0 102 56 184 121 221c33 19 71 29 110 29c41 0 83 -11 117 -34
c39 -27 92 -90 92 -192v-16zM160 324h186c-1 25 -9 99 -87 99c-64 0 -93 -55 -99 -99zM67 632c0 45 36 81 81 81s81 -36 81 -81s-36 -81 -81 -81s-81 36 -81 81zM305 632c0 45 36 81 81 81s81 -36 81 -81s-36 -81 -81 -81s-81 36 -81 81z" />
    <glyph glyph-name="afii61352" unicode="&#x2116;" horiz-adv-x="1210" 
d="M511 700h184v-36c-25 -1 -43 -16 -43 -36v-556c0 -20 18 -35 43 -36v-36h-184v36c25 1 43 16 43 36v138l-364 355v-493c0 -20 18 -35 43 -36v-36h-184v36c25 1 43 16 43 36v556c0 20 -18 35 -43 36v36h198l307 -311v239c0 20 -18 35 -43 36v36zM752 324h351v-61h-351v61z
M928 360c-82 0 -124 45 -143 79c-16 28 -23 59 -23 91s7 63 23 91c19 34 61 79 143 79s124 -45 143 -79c16 -28 23 -59 23 -91s-7 -63 -23 -91c-19 -34 -61 -79 -143 -79zM928 418c26 0 60 11 73 58c5 18 5 36 5 54s0 36 -5 54c-13 47 -47 58 -73 58s-60 -11 -73 -58
c-5 -18 -5 -36 -5 -54s0 -36 5 -54c13 -47 47 -58 73 -58z" />
    <glyph glyph-name="afii10101" unicode="&#x454;" horiz-adv-x="530" 
d="M495 423l-86 -100l-36 22c5 7 8 20 8 28c0 23 -27 50 -78 50c-73 0 -137 -52 -143 -140h199v-72h-199c8 -60 49 -102 91 -124c28 -14 59 -21 90 -21c18 0 70 3 95 55h32v-124c-39 -9 -73 -12 -113 -12c-83 0 -214 16 -285 135c-24 41 -35 90 -35 138c0 47 12 95 37 134
c56 88 146 105 219 105c51 0 130 -8 204 -74z" />
    <glyph glyph-name="guillemotright" unicode="&#xbb;" horiz-adv-x="414" 
d="M202 245l-94 -195l-40 25l48 170l-48 170l40 25zM346 245l-94 -195l-40 25l48 170l-48 170l40 25z" />
    <glyph glyph-name="afii10105" unicode="&#x458;" horiz-adv-x="262" 
d="M-198 -136l91 100l30 -22c-3 -6 -6 -14 -6 -21c0 -14 5 -39 48 -51c10 -3 21 -5 31 -5c48 0 94 26 94 83c0 11 -3 28 -5 37c-4 14 -13 30 -13 54v381c0 18 -17 31 -39 30v32h157v-437c0 -13 0 -21 1 -28c4 -26 17 -33 17 -80c0 -45 -24 -111 -126 -141
c-28 -8 -56 -12 -85 -12c-75 0 -143 27 -195 80zM46 635c0 44 36 80 80 80s80 -36 80 -80s-36 -80 -80 -80s-80 36 -80 80z" />
    <glyph glyph-name="afii10054" unicode="&#x405;" horiz-adv-x="707" 
d="M44 166l144 97l31 -30c-21 -21 -23 -40 -23 -57c0 -19 11 -78 98 -100c18 -5 36 -7 54 -7c55 0 121 18 151 56c13 17 22 39 22 62c0 24 -6 49 -20 66c-29 36 -93 46 -208 72c-97 22 -213 63 -213 188c0 67 31 150 160 187c38 11 77 15 116 15s78 -4 115 -15
c57 -16 123 -51 174 -118l-112 -98l-33 23c8 14 9 22 9 35c0 60 -64 77 -96 83c-24 5 -48 6 -72 6c-17 0 -34 -1 -51 -5c-65 -15 -76 -56 -76 -79c0 -58 41 -72 80 -83c89 -25 154 -36 207 -53c68 -22 162 -70 162 -196c0 -48 -15 -160 -176 -211c-44 -14 -89 -19 -135 -19
c-44 0 -89 6 -131 22c-59 22 -129 72 -177 159z" />
    <glyph glyph-name="afii10102" unicode="&#x455;" horiz-adv-x="532" 
d="M473 446l-67 -109l-37 15c2 6 4 13 4 21c0 37 -52 55 -92 55c-54 0 -85 -20 -85 -51c0 -33 29 -47 54 -56c53 -20 103 -29 147 -49c31 -14 92 -47 92 -125c0 -32 -11 -63 -31 -87c-43 -53 -132 -75 -202 -75c-110 0 -180 43 -217 73l77 106l37 -19c-4 -9 -6 -15 -6 -22
c0 -47 54 -60 71 -64c14 -3 28 -5 42 -5c13 0 26 2 39 5c51 12 65 40 65 64c0 15 -6 30 -16 41c-16 19 -47 33 -115 54c-59 18 -114 35 -142 72c-13 17 -20 40 -20 62c0 28 11 56 28 77c39 48 118 68 183 68c23 0 46 -2 68 -6c48 -8 86 -23 123 -45z" />
    <glyph glyph-name="afii10104" unicode="&#x457;" horiz-adv-x="262" 
d="M190 482v-415c0 -21 16 -34 39 -35v-32h-196v32c23 1 39 14 39 35v354c0 18 -17 30 -39 29v32h157zM-69 632c0 45 36 81 81 81s81 -36 81 -81s-36 -81 -81 -81s-81 36 -81 81zM169 632c0 45 36 81 81 81s81 -36 81 -81s-36 -81 -81 -81s-81 36 -81 81z" />
    <glyph glyph-name="afii10017" unicode="&#x410;" horiz-adv-x="746" 
d="M438 700l241 -614c12 -30 21 -47 48 -50v-36h-230v36c26 0 42 18 42 32c0 8 -11 35 -13 41l-60 146h-240l-55 -146c-6 -15 -10 -25 -10 -34c0 -13 12 -36 40 -39v-36h-192v36c37 11 47 40 57 65l229 599h143zM343 572l-89 -233h181z" />
    <glyph glyph-name="afii10018" unicode="&#x411;" horiz-adv-x="717" 
d="M225 437l55 -2c162 -6 326 -35 385 -148c14 -27 21 -58 21 -90c0 -36 -7 -73 -26 -103c-59 -92 -189 -94 -238 -94h-374v36c25 1 43 16 43 36v556c0 20 -18 35 -43 36v36h561v-134h-49c-1 39 -23 50 -64 50h-271v-179zM225 84h131c82 0 142 3 175 65c8 15 13 32 13 49
c0 26 -9 52 -24 72c-60 80 -230 85 -295 83v-269z" />
    <glyph glyph-name="afii10019" unicode="&#x412;" horiz-adv-x="709" 
d="M48 700h321c70 0 158 -1 212 -72c20 -27 30 -60 30 -94c0 -26 -6 -53 -19 -75c-20 -34 -63 -64 -107 -78v-2c84 -10 127 -59 146 -90c17 -28 26 -60 26 -93c0 -42 -12 -84 -38 -116c-61 -77 -168 -80 -206 -80h-365v36c25 1 43 16 43 36v556c0 20 -18 35 -43 36v36z
M225 616v-191h99c40 0 103 -1 134 36c14 16 19 39 19 62c0 20 -6 40 -18 55c-32 39 -97 38 -135 38h-99zM225 84h91c49 0 129 -2 170 41c21 22 29 55 29 88c0 28 -8 56 -24 76c-47 59 -156 52 -213 52h-53v-257z" />
    <glyph glyph-name="afii10020" unicode="&#x413;" horiz-adv-x="596" 
d="M565 700v-134h-49c-1 39 -26 50 -64 50h-227v-544c0 -20 18 -35 43 -36v-36h-220v36c25 1 43 16 43 36v556c0 20 -18 35 -43 36v36h517z" />
    <glyph glyph-name="afii10021" unicode="&#x414;" horiz-adv-x="725" 
d="M677 700v-36c-25 -1 -43 -16 -43 -36v-544h102v-262h-59v27c0 141 -75 151 -120 151h-354c-134 0 -154 -72 -154 -141v-37h-59v262h91c29 210 113 358 171 458c32 55 38 73 38 88c0 20 -17 34 -45 34h-12v36h444zM500 84v532l-40 -1c-56 -1 -106 -49 -174 -186
c-54 -109 -91 -220 -105 -345h319z" />
    <glyph glyph-name="afii10022" unicode="&#x415;" horiz-adv-x="636" 
d="M48 700h542v-141h-49c-2 20 -14 57 -53 57h-263v-181h172c31 0 70 3 74 49h49v-182h-49c-4 46 -43 49 -74 49h-172v-267h259c27 0 78 4 83 64h49v-148h-568v36c25 1 43 16 43 36v556c0 20 -18 35 -43 36v36z" />
    <glyph glyph-name="afii10024" unicode="&#x416;" horiz-adv-x="1058" 
d="M798 700h188l-3 -28c-18 -172 -140 -254 -170 -272l136 -276c37 -74 81 -85 100 -88v-36h-182l-178 351c-31 -9 -62 -17 -93 -23v-256c0 -20 18 -35 43 -36v-36h-220v36c25 1 43 16 43 36v256c-31 6 -62 14 -93 23l-178 -351h-182v36c19 3 63 14 100 88l136 276
c-30 18 -152 100 -170 272l-3 28h188v-36l-21 -2c-17 -2 -31 -13 -31 -37c0 -16 2 -31 8 -45c31 -78 127 -144 246 -168v216c0 20 -18 35 -43 36v36h220v-36c-25 -1 -43 -16 -43 -36v-216c119 24 215 90 246 168c6 14 8 29 8 45c0 24 -14 35 -31 37l-21 2v36z" />
    <glyph glyph-name="afii10025" unicode="&#x417;" horiz-adv-x="679" 
d="M47 178h49c14 -42 51 -109 204 -109c115 0 162 51 179 92c7 17 10 35 10 53s-1 35 -8 51c-13 30 -49 67 -147 67h-97v84h85c44 0 122 1 146 67c5 13 6 28 6 42c0 18 -6 37 -16 52c-34 51 -106 54 -142 54c-38 0 -77 -1 -113 -14c-51 -19 -58 -47 -58 -65
c0 -9 4 -20 7 -27l-45 -16l-52 140c60 34 144 66 267 66c167 0 242 -59 273 -119c11 -22 17 -46 17 -70c0 -50 -29 -117 -107 -145c45 -8 87 -34 109 -70c15 -24 21 -53 21 -81s-5 -55 -15 -80c-28 -69 -101 -135 -217 -157c-34 -6 -68 -8 -102 -8c-107 0 -186 21 -254 49
v144z" />
    <glyph glyph-name="afii10026" unicode="&#x418;" horiz-adv-x="756" 
d="M708 700v-36c-25 -1 -43 -16 -43 -36v-556c0 -20 18 -35 43 -36v-36h-220v36c25 1 43 16 43 36v360l-306 -250v-110c0 -20 18 -35 43 -36v-36h-220v36c25 1 43 16 43 36v556c0 20 -18 35 -43 36v36h220v-36c-25 -1 -43 -16 -43 -36v-328l306 249v79c0 20 -18 35 -43 36
v36h220z" />
    <glyph glyph-name="afii10027" unicode="&#x419;" horiz-adv-x="756" 
d="M708 700v-36c-25 -1 -43 -16 -43 -36v-556c0 -20 18 -35 43 -36v-36h-220v36c25 1 43 16 43 36v360l-306 -250v-110c0 -20 18 -35 43 -36v-36h-220v36c25 1 43 16 43 36v556c0 20 -18 35 -43 36v36h220v-36c-25 -1 -43 -16 -43 -36v-328l306 249v79c0 20 -18 35 -43 36
v36h220zM558 884v-80c-39 -39 -92 -71 -180 -71s-141 32 -180 71v80h47c18 -55 74 -85 133 -85c61 0 115 31 133 85h47z" />
    <glyph glyph-name="afii10028" unicode="&#x41a;" horiz-adv-x="715" 
d="M48 700h220v-36c-25 -1 -43 -16 -43 -36v-220c134 16 242 92 274 172c6 14 8 29 8 45c0 24 -14 35 -31 37l-21 2v36h188l-3 -28c-18 -172 -140 -254 -170 -272l136 -276c37 -74 81 -85 100 -88v-36h-182l-178 351c-38 -12 -78 -21 -121 -27v-252c0 -20 18 -35 43 -36v-36
h-220v36c25 1 43 16 43 36v556c0 20 -18 35 -43 36v36z" />
    <glyph glyph-name="afii10029" unicode="&#x41b;" horiz-adv-x="743" 
d="M695 700v-36c-25 -1 -43 -16 -43 -36v-556c0 -20 18 -35 43 -36v-36h-220v36c25 1 43 16 43 36v544h-191l-6 -74c-9 -113 -17 -232 -40 -340c-41 -197 -127 -217 -185 -217c-37 0 -62 8 -86 22v135h49v-9c0 -20 12 -36 33 -36c39 0 60 31 73 59c38 82 56 287 62 372
c3 44 9 124 -43 133l-18 3v36h529z" />
    <glyph glyph-name="afii10030" unicode="&#x41c;" horiz-adv-x="824" 
d="M413 365l106 335h224v-36c-12 1 -46 -1 -39 -56l69 -511c3 -25 9 -52 41 -61v-36h-209v36c22 2 39 21 36 45l-61 505h-2l-136 -428h-87l-134 428h-2l-62 -498c-3 -26 5 -48 34 -52v-36h-182v36c22 -3 41 11 45 40l73 529c3 25 7 61 -35 59v36h216z" />
    <glyph glyph-name="afii10031" unicode="&#x41d;" horiz-adv-x="748" 
d="M480 700h220v-36c-25 -1 -43 -16 -43 -36v-556c0 -20 18 -35 43 -36v-36h-220v36c25 1 43 16 43 36v271h-298v-271c0 -20 18 -35 43 -36v-36h-220v36c25 1 43 16 43 36v556c0 20 -18 35 -43 36v36h220v-36c-25 -1 -43 -16 -43 -36v-201h298v201c0 20 -18 35 -43 36v36z
" />
    <glyph glyph-name="afii10032" unicode="&#x41e;" horiz-adv-x="828" 
d="M414 -15c-71 0 -142 16 -203 52c-94 55 -171 159 -171 313s77 258 171 313c61 36 132 52 203 52s142 -16 203 -52c94 -55 171 -159 171 -313s-77 -258 -171 -313c-61 -36 -132 -52 -203 -52zM414 69c101 0 232 61 232 281s-131 281 -232 281s-232 -61 -232 -281
s131 -281 232 -281z" />
    <glyph glyph-name="afii10033" unicode="&#x41f;" horiz-adv-x="736" 
d="M268 36v-36h-220v36c25 1 43 16 43 36v556c0 20 -18 35 -43 36v36h640v-36c-25 -1 -43 -16 -43 -36v-556c0 -20 18 -35 43 -36v-36h-220v36c25 1 43 16 43 36v544h-286v-544c0 -20 18 -35 43 -36z" />
    <glyph glyph-name="afii10034" unicode="&#x420;" horiz-adv-x="637" 
d="M48 700h306c43 0 160 -2 222 -73c30 -34 42 -81 42 -128c0 -53 -20 -105 -53 -144c-56 -67 -155 -108 -340 -160v-123c0 -20 18 -35 43 -36v-36h-220v36c25 1 43 16 43 36v556c0 20 -18 35 -43 36v36zM225 616v-338c70 22 174 64 217 119c22 28 34 65 34 102
c0 18 -3 36 -11 52c-30 62 -94 65 -174 65h-66z" />
    <glyph glyph-name="afii10035" unicode="&#x421;" horiz-adv-x="682" 
d="M636 142v-141c-36 -9 -77 -16 -149 -16c-53 0 -107 4 -159 18c-163 44 -240 158 -270 250c-12 37 -18 75 -18 114c0 65 16 130 49 186c63 107 177 162 294 162c34 0 68 -6 100 -16c65 -21 132 -67 182 -136l-123 -113l-38 30c12 15 15 27 15 40c0 19 -7 70 -79 95
c-19 7 -39 10 -59 10c-35 0 -72 -11 -101 -31c-63 -44 -98 -135 -98 -215c0 -106 55 -216 151 -269c42 -23 90 -35 138 -35c18 0 35 1 52 6c34 9 54 27 64 61h49z" />
    <glyph glyph-name="afii10036" unicode="&#x422;" horiz-adv-x="628" 
d="M20 700h588v-145h-49l-6 27c-4 19 -24 34 -44 34h-128v-544c0 -20 18 -35 43 -36v-36h-220v36c25 1 43 16 43 36v544h-128c-20 0 -40 -15 -44 -34l-6 -27h-49v145z" />
    <glyph glyph-name="afii10037" unicode="&#x423;" horiz-adv-x="671" 
d="M19 700h220v-36h-4c-12 0 -46 -1 -23 -43l168 -305l117 294c1 3 8 21 8 31c0 9 -5 21 -22 22l-12 1v36h184v-36c-29 -4 -42 -20 -58 -57l-172 -409c-43 -101 -95 -210 -225 -213c-44 -1 -88 11 -100 15v131h49l1 -16c1 -17 26 -29 55 -29c61 0 97 64 110 101l-246 434
c-17 30 -27 42 -50 43v36z" />
    <glyph glyph-name="afii10038" unicode="&#x424;" horiz-adv-x="938" 
d="M536 555v-318c92 3 171 59 203 123c11 22 17 46 17 71c0 31 -13 62 -34 83c-40 39 -106 39 -151 40zM579 736v-36c-25 -1 -43 -16 -43 -36v-26l68 -1c87 -1 200 -8 259 -82c23 -28 35 -66 35 -103c0 -62 -30 -122 -72 -168c-14 -15 -110 -117 -290 -131v-81
c0 -20 18 -35 43 -36v-36h-220v36c25 1 43 16 43 36v81c-180 14 -276 116 -290 131c-42 46 -72 106 -72 168c0 37 12 75 35 103c65 82 199 81 264 82l63 1v26c0 20 -18 35 -43 36v36h220zM402 237v317l-35 -1c-44 -1 -111 -1 -151 -39c-22 -21 -34 -52 -34 -83
c0 -25 6 -49 17 -71c32 -64 111 -120 203 -123z" />
    <glyph glyph-name="afii10039" unicode="&#x425;" horiz-adv-x="705" 
d="M36 700h252v-36h-6c-25 0 -28 -18 -28 -22c0 -9 6 -19 17 -36l100 -149l94 137c7 10 19 33 19 44c0 9 -5 26 -29 26h-9v36h228v-36c-38 -1 -52 -22 -73 -52l-167 -233l191 -276c26 -38 42 -58 72 -67v-36h-251v36h7c25 0 29 18 29 24c0 9 -4 18 -14 33l-130 196
l-128 -183c-14 -20 -22 -31 -22 -41c0 -12 20 -29 44 -29v-36h-224v36c15 5 39 17 66 55l199 277l-170 247c-21 30 -38 45 -67 49v36z" />
    <glyph glyph-name="afii10040" unicode="&#x426;" horiz-adv-x="770" 
d="M690 700v-36c-25 -1 -43 -16 -43 -36v-544h113v-258h-59l-3 26c-18 156 -68 148 -161 148h-489v36c25 1 43 16 43 36v556c0 20 -18 35 -43 36v36h220v-36c-25 -1 -43 -16 -43 -36v-544h288v544c0 20 -18 35 -43 36v36h220z" />
    <glyph glyph-name="afii10041" unicode="&#x427;" horiz-adv-x="685" 
d="M637 700v-36c-25 -1 -43 -16 -43 -36v-556c0 -20 18 -35 43 -36v-36h-220v36c25 1 43 16 43 36v246c-15 -1 -30 -1 -45 -1c-37 0 -75 2 -112 5c-237 21 -240 138 -240 200v106c0 20 -18 35 -43 36v36h220v-36c-25 -1 -43 -16 -43 -36v-118c0 -58 39 -85 99 -99
c40 -9 79 -10 119 -10h45v227c0 20 -18 35 -43 36v36h220z" />
    <glyph glyph-name="afii10042" unicode="&#x428;" horiz-adv-x="1106" 
d="M48 700h220v-36c-25 -1 -43 -16 -43 -36v-544h261v544c0 20 -18 35 -43 36v36h220v-36c-25 -1 -43 -16 -43 -36v-544h261v544c0 20 -18 35 -43 36v36h220v-36c-25 -1 -43 -16 -43 -36v-556c0 -20 18 -35 43 -36v-36h-1010v36c25 1 43 16 43 36v556c0 20 -18 35 -43 36v36
z" />
    <glyph glyph-name="afii10043" unicode="&#x429;" horiz-adv-x="1138" 
d="M48 700h220v-36c-25 -1 -43 -16 -43 -36v-544h261v544c0 20 -18 35 -43 36v36h220v-36c-25 -1 -43 -16 -43 -36v-544h261v544c0 20 -18 35 -43 36v36h220v-36c-25 -1 -43 -16 -43 -36l1 -544h112v-258h-59l-4 27c-23 154 -58 147 -159 147h-858v36c25 1 43 16 43 36v556
c0 20 -18 35 -43 36v36z" />
    <glyph glyph-name="afii10044" unicode="&#x42a;" horiz-adv-x="914" 
d="M30 700h428v-36c-25 -1 -43 -16 -43 -36v-191l51 -2c165 -6 323 -35 385 -148c15 -27 23 -58 23 -90c0 -36 -8 -73 -28 -103c-61 -92 -187 -94 -238 -94h-370v36c25 1 43 16 43 36v544h-140c-24 0 -53 -2 -60 -47l-2 -13h-49v144zM415 84h163c33 0 78 3 114 32
c19 16 40 43 40 84c0 24 -8 49 -22 69c-60 84 -246 85 -295 84v-269z" />
    <glyph glyph-name="afii10045" unicode="&#x42b;" horiz-adv-x="1000" 
d="M48 0v36c25 1 43 16 43 36v556c0 20 -18 35 -43 36v36h220v-36c-25 -1 -43 -16 -43 -36v-191l51 -2c165 -6 323 -35 385 -148c15 -27 23 -58 23 -90c0 -36 -8 -73 -28 -103c-61 -92 -187 -94 -238 -94h-370zM225 84h163c30 0 80 3 114 32c23 20 40 55 40 82
c0 25 -7 51 -22 71c-61 84 -244 85 -295 84v-269zM952 700v-36c-25 -1 -43 -16 -43 -36v-556c0 -20 18 -35 43 -36v-36h-220v36c25 1 43 16 43 36v556c0 20 -18 35 -43 36v36h220z" />
    <glyph glyph-name="afii10046" unicode="&#x42c;" horiz-adv-x="724" 
d="M48 0v36c25 1 43 16 43 36v556c0 20 -18 35 -43 36v36h220v-36c-25 -1 -43 -16 -43 -36v-191l51 -2c165 -6 323 -35 385 -148c15 -27 23 -58 23 -90c0 -36 -8 -73 -28 -103c-61 -92 -187 -94 -238 -94h-370zM225 84h163c33 0 78 3 114 32c32 26 40 58 40 82
c0 25 -8 51 -22 71c-60 84 -246 85 -295 84v-269z" />
    <glyph glyph-name="afii10047" unicode="&#x42d;" horiz-adv-x="729" 
d="M134 465l-94 134c117 105 235 116 305 116c220 0 344 -125 344 -326c0 -259 -184 -404 -427 -404c-56 0 -121 9 -168 17v140h49c12 -39 40 -68 128 -68c151 0 268 98 276 246h-301v81h301c0 106 -52 230 -211 230c-103 0 -152 -55 -152 -104c0 -12 3 -20 10 -28z" />
    <glyph glyph-name="afii10048" unicode="&#x42e;" horiz-adv-x="1110" 
d="M225 427h138c33 170 175 288 352 288c203 0 355 -157 355 -361c0 -176 -112 -369 -358 -369c-267 0 -353 200 -357 358h-130v-271c0 -20 18 -35 43 -36v-36h-220v36c25 1 43 16 43 36v556c0 20 -18 35 -43 36v36h220v-36c-25 -1 -43 -16 -43 -36v-201zM710 69
c110 0 218 82 218 285c0 215 -127 277 -214 277c-103 0 -220 -77 -220 -284c0 -203 117 -278 216 -278z" />
    <glyph glyph-name="afii10049" unicode="&#x42f;" horiz-adv-x="715" 
d="M667 700v-36c-25 -1 -43 -16 -43 -36v-556c0 -20 18 -35 43 -36v-36h-220v36c25 1 43 16 43 36v231h-121l-206 -303h-152v37c32 9 54 33 64 47l164 235c-62 11 -178 54 -178 186c0 90 62 195 253 195h353zM490 387v229h-128c-32 0 -159 2 -159 -122
c0 -90 87 -107 168 -107h119z" />
    <glyph glyph-name="afii10065" unicode="&#x430;" horiz-adv-x="547" 
d="M357 0v53c-28 -33 -62 -52 -89 -60c-19 -6 -38 -8 -58 -8c-77 0 -121 38 -142 70c-16 25 -24 56 -24 86c0 40 17 80 43 109c62 69 191 82 270 83c-1 32 -12 60 -55 75c-18 6 -37 8 -56 8s-38 -1 -57 -6c-33 -8 -55 -23 -72 -49h-32v107c43 12 117 29 196 29
c42 0 85 -5 121 -26c64 -39 73 -100 73 -149v-255c0 -31 20 -36 39 -35v-32h-157zM357 181v84c-51 -2 -128 -22 -162 -60c-15 -17 -26 -39 -26 -61c0 -15 4 -29 11 -42c14 -25 35 -36 64 -36c23 0 46 6 65 19c25 17 48 53 48 96z" />
    <glyph glyph-name="afii10066" unicode="&#x431;" horiz-adv-x="582" 
d="M138 416l5 -1c31 41 82 82 171 82c127 0 233 -107 233 -253c0 -143 -104 -259 -250 -259c-88 0 -224 48 -249 238c-3 27 -5 53 -5 80c0 44 3 88 9 132c10 70 28 163 122 219c54 32 104 34 154 34c18 0 37 0 55 -1c19 -1 39 -2 58 -2c35 0 52 6 64 23l28 -14l-51 -112
c-61 6 -99 6 -153 6c-37 0 -91 1 -135 -37c-39 -34 -50 -85 -56 -135zM297 66c56 0 118 35 118 182c0 137 -65 168 -118 168s-118 -31 -118 -168c0 -147 62 -182 118 -182z" />
    <glyph glyph-name="afii10067" unicode="&#x432;" horiz-adv-x="555" 
d="M33 482h260c57 0 107 -1 147 -21c49 -24 61 -63 61 -91c0 -14 -3 -28 -9 -40c-8 -17 -33 -58 -99 -64c49 -4 85 -31 105 -60c15 -22 21 -48 21 -74c0 -22 -8 -44 -20 -63c-42 -65 -111 -69 -155 -69h-311v32c23 1 39 14 39 35v348c0 21 -16 34 -39 35v32zM190 416v-126
h40c44 0 96 0 123 28c10 10 16 25 16 39c0 12 -5 25 -13 34c-23 26 -68 25 -136 25h-30zM190 229v-151h61c39 0 100 -1 126 38c8 11 11 26 11 40s-4 29 -13 40c-27 35 -89 33 -148 33h-37z" />
    <glyph glyph-name="afii10068" unicode="&#x433;" horiz-adv-x="461" 
d="M33 482h405v-130h-32c-7 55 -51 49 -75 49h-141v-334c0 -21 16 -34 39 -35v-32h-196v32c23 1 39 14 39 35v348c0 21 -16 34 -39 35v32z" />
    <glyph glyph-name="afii10069" unicode="&#x434;" horiz-adv-x="539" 
d="M505 482v-32c-23 -1 -39 -14 -39 -35v-334h63v-201h-45l-1 12c-8 97 -42 108 -84 108h-289c-42 0 -76 -11 -84 -108l-1 -12h-45v201h56c24 129 74 229 118 307c21 36 9 58 -17 61l-8 1v32h376zM348 81v320h-48c-41 0 -68 -25 -104 -104c-39 -85 -59 -148 -70 -216h222z
" />
    <glyph glyph-name="afii10070" unicode="&#x435;" horiz-adv-x="534" 
d="M475 255h-315c-1 -73 35 -138 80 -167c23 -15 51 -22 78 -22c48 0 106 22 133 80h32v-118c-35 -17 -74 -30 -123 -38c-18 -3 -35 -5 -53 -5c-77 0 -165 32 -216 96c-38 48 -56 113 -56 166c0 102 56 184 121 221c33 19 71 29 110 29c41 0 83 -11 117 -34
c39 -27 92 -90 92 -192v-16zM160 324h186c-1 25 -9 99 -87 99c-64 0 -93 -55 -99 -99z" />
    <glyph glyph-name="afii10072" unicode="&#x436;" horiz-adv-x="784" 
d="M294 482h196v-32c-23 -1 -39 -14 -39 -35v-130c31 1 73 8 104 25c52 28 63 71 63 100c0 20 -10 37 -27 39l-8 1v32h148c4 -138 -53 -200 -107 -231l97 -169c26 -45 49 -53 63 -56v-26h-149l-120 219c-20 -5 -42 -8 -64 -9v-143c0 -21 16 -34 39 -35v-32h-196v32
c23 1 39 14 39 35v143c-22 1 -44 4 -64 9l-120 -219h-149v26c14 3 37 11 63 56l97 169c-54 31 -111 93 -107 231h148v-32l-8 -1c-17 -2 -27 -19 -27 -39c0 -29 11 -72 63 -100c31 -17 73 -24 104 -25v130c0 21 -16 34 -39 35v32z" />
    <glyph glyph-name="afii10073" unicode="&#x437;" horiz-adv-x="486" 
d="M160 210v76h58c80 0 93 39 93 66c0 26 -15 67 -99 67c-42 0 -84 -11 -97 -32c-7 -12 -7 -31 -4 -44l-31 -11l-47 127c43 17 111 38 210 38c162 0 200 -78 200 -131c0 -56 -42 -88 -82 -100c55 -8 94 -49 94 -106c0 -60 -33 -111 -71 -137c-47 -32 -124 -38 -164 -38
c-50 0 -126 8 -189 42v117h32l6 -16c15 -40 72 -62 139 -62c22 0 78 2 103 31c10 12 16 28 16 44c0 13 -3 26 -10 36c-21 31 -65 33 -92 33h-65z" />
    <glyph glyph-name="afii10074" unicode="&#x438;" horiz-adv-x="598" 
d="M229 482v-32c-23 -1 -39 -14 -39 -35v-225l218 211v14c0 21 -16 34 -39 35v32h196v-32c-23 -1 -39 -14 -39 -35v-348c0 -21 16 -34 39 -35v-32h-196v32c23 1 39 14 39 35v235l-218 -219v-16c0 -21 16 -34 39 -35v-32h-196v32c23 1 39 14 39 35v348c0 21 -16 34 -39 35v32
h196z" />
    <glyph glyph-name="afii10075" unicode="&#x439;" horiz-adv-x="598" 
d="M229 482v-32c-23 -1 -39 -14 -39 -35v-225l218 211v14c0 21 -16 34 -39 35v32h196v-32c-23 -1 -39 -14 -39 -35v-348c0 -21 16 -34 39 -35v-32h-196v32c23 1 39 14 39 35v235l-218 -219v-16c0 -21 16 -34 39 -35v-32h-196v32c23 1 39 14 39 35v348c0 21 -16 34 -39 35v32
h196zM153 649h36c15 -43 58 -68 110 -68s95 25 110 68h36v-87c-44 -24 -99 -40 -146 -40s-102 16 -146 40v87z" />
    <glyph glyph-name="afii10076" unicode="&#x43a;" horiz-adv-x="541" 
d="M33 482h196v-32c-23 -1 -39 -14 -39 -35v-130c37 0 81 8 112 25c52 28 63 71 63 100c0 20 -10 37 -27 39l-8 1v32h152c4 -138 -53 -200 -107 -231l97 -169c26 -45 49 -53 63 -56v-26h-153l-120 219c-25 -7 -49 -9 -72 -9v-143c0 -21 16 -34 39 -35v-32h-196v32
c23 1 39 14 39 35v348c0 21 -16 34 -39 35v32z" />
    <glyph glyph-name="afii10077" unicode="&#x43b;" horiz-adv-x="564" 
d="M531 482v-32c-23 -1 -39 -14 -39 -35v-348c0 -21 16 -34 39 -35v-32h-196v32c23 1 39 14 39 35v334h-123l-4 -41c-4 -41 -7 -83 -15 -139c-14 -96 -32 -144 -53 -176c-33 -51 -66 -60 -112 -60c-24 0 -38 2 -57 15v119h32v-10c0 -17 5 -28 27 -28c47 0 62 59 70 99
c10 50 25 151 27 202c1 31 1 63 -31 67l-8 1v32h404z" />
    <glyph glyph-name="afii10078" unicode="&#x43c;" horiz-adv-x="662" 
d="M309 111l-156 196v-240c0 -21 16 -34 39 -35v-32h-159v32c23 1 39 14 39 35v348c0 21 -16 34 -39 35v32h120l169 -215l156 215h151v-32c-23 -1 -39 -14 -39 -35v-348c0 -21 16 -34 39 -35v-32h-196v32c23 1 39 14 39 35v262z" />
    <glyph glyph-name="afii10079" unicode="&#x43d;" horiz-adv-x="571" 
d="M229 482v-32c-23 -1 -39 -14 -39 -35v-113h191v113c0 21 -16 34 -39 35v32h196v-32c-23 -1 -39 -14 -39 -35v-348c0 -21 16 -34 39 -35v-32h-196v32c23 1 39 14 39 35v154h-191v-154c0 -21 16 -34 39 -35v-32h-196v32c23 1 39 14 39 35v348c0 21 -16 34 -39 35v32h196z
" />
    <glyph glyph-name="afii10080" unicode="&#x43e;" horiz-adv-x="570" 
d="M285 -15c-147 0 -250 117 -250 256s103 256 250 256s250 -117 250 -256s-103 -256 -250 -256zM285 66c36 0 118 17 118 175s-82 175 -118 175s-118 -17 -118 -175s82 -175 118 -175z" />
    <glyph glyph-name="afii10081" unicode="&#x43f;" horiz-adv-x="572" 
d="M229 32v-32h-196v32c23 1 39 14 39 35v348c0 21 -16 34 -39 35v32h506v-32c-23 -1 -39 -14 -39 -35v-348c0 -21 16 -34 39 -35v-32h-196v32c23 1 39 14 39 35v334h-192v-334c0 -21 16 -34 39 -35z" />
    <glyph glyph-name="afii10082" unicode="&#x440;" horiz-adv-x="573" 
d="M190 482v-62c22 35 50 56 90 68c19 6 40 9 60 9c55 0 137 -21 179 -127c13 -32 19 -65 19 -99c0 -59 -12 -121 -45 -169c-64 -94 -171 -114 -262 -117c-14 0 -27 -1 -41 0v-148c0 -21 16 -34 39 -35v-32h-196v32c23 1 39 14 39 35v583c0 15 -13 29 -34 30v32h152z
M190 336v-269c18 -5 33 -7 48 -7c82 0 129 38 154 90c16 33 21 71 21 108c0 77 -21 118 -49 139c-17 13 -39 19 -60 19c-15 0 -29 -3 -43 -8c-26 -10 -56 -31 -71 -72z" />
    <glyph glyph-name="afii10083" unicode="&#x441;" horiz-adv-x="530" 
d="M495 415l-86 -100l-36 22c7 18 8 25 8 30c0 21 -21 43 -46 51c-10 3 -20 5 -31 5c-25 0 -51 -7 -73 -20c-40 -25 -71 -75 -71 -138c0 -65 38 -140 96 -175c25 -15 55 -24 85 -24c38 0 76 15 95 55h32v-124c-34 -9 -66 -12 -100 -12c-144 0 -245 64 -294 141
c-26 40 -39 88 -39 136c0 46 14 92 39 130c41 61 114 105 215 105c49 0 136 -12 206 -82z" />
    <glyph glyph-name="afii10084" unicode="&#x442;" horiz-adv-x="472" 
d="M22 482h428v-123h-32c1 44 -42 42 -51 42h-72v-334c0 -21 16 -34 39 -35v-32h-196v32c23 1 39 14 39 35v334h-72c-9 0 -52 2 -51 -42h-32v123z" />
    <glyph glyph-name="afii10085" unicode="&#x443;" horiz-adv-x="510" 
d="M8 482h191v-32c-15 1 -26 -8 -26 -21s4 -23 8 -33l99 -245l91 245c4 10 8 21 8 31c0 15 -11 18 -21 21l-8 2v32h151v-32c-22 -4 -28 -16 -41 -51l-158 -431c-29 -80 -65 -155 -152 -179c-18 -5 -36 -6 -54 -6c-46 0 -74 12 -88 18v127h32c7 -30 24 -45 37 -53
c10 -6 22 -11 34 -11c17 0 34 7 48 17c28 21 51 64 61 98l-173 433c-10 26 -18 37 -39 38v32z" />
    <glyph glyph-name="afii10086" unicode="&#x444;" horiz-adv-x="842" 
d="M480 700v-228c39 17 80 25 117 25c95 0 153 -48 186 -118c18 -39 24 -83 24 -126c0 -35 -6 -69 -18 -102c-41 -113 -134 -148 -187 -159c-43 -9 -92 -8 -122 -5v-136c0 -21 16 -34 39 -35v-32h-196v32c23 1 39 14 39 35v136c-30 -3 -79 -4 -122 5
c-53 11 -146 46 -187 159c-12 33 -18 67 -18 102c0 43 6 87 24 126c33 70 91 118 186 118c37 0 78 -8 117 -25v161c0 21 -16 34 -39 35v32h157zM362 61v338c-24 12 -47 17 -71 17c-116 0 -124 -112 -124 -154c0 -80 21 -126 47 -152c41 -42 109 -50 148 -49zM480 399v-338
c39 -1 107 7 148 49c26 26 47 72 47 152c0 42 -8 154 -124 154c-24 0 -47 -5 -71 -17z" />
    <glyph glyph-name="afii10087" unicode="&#x445;" horiz-adv-x="530" 
d="M9 0v32c23 8 33 23 44 37l141 180l-110 158c-23 33 -42 42 -61 43v32h214v-32h-9c-4 0 -20 0 -20 -14c0 -7 3 -10 6 -14l70 -102l64 87c4 6 12 14 12 23s-7 20 -23 20v32h172v-32c-15 -2 -37 -9 -63 -44l-105 -140l126 -189c25 -37 43 -44 54 -45v-32h-192v32l5 1
c4 1 13 3 13 12c0 8 -6 16 -12 24l-86 123l-85 -119c-5 -7 -9 -13 -9 -21c0 -13 9 -20 19 -20h6v-32h-171z" />
    <glyph glyph-name="afii10088" unicode="&#x446;" horiz-adv-x="581" 
d="M229 482v-32c-23 -1 -39 -14 -39 -35v-334h187v334c0 21 -16 34 -39 35v32h196v-32c-23 -1 -39 -14 -39 -35v-334h76v-201h-44c-4 100 -40 120 -86 120h-408v32c23 1 39 14 39 35v348c0 21 -16 34 -39 35v32h196z" />
    <glyph glyph-name="afii10089" unicode="&#x447;" horiz-adv-x="543" 
d="M510 482v-32c-23 -1 -39 -14 -39 -35v-348c0 -21 16 -34 39 -35v-32h-196v32c23 1 39 14 39 35v131c-7 -1 -54 -5 -99 -5c-36 0 -124 0 -169 47c-39 41 -36 100 -36 142v33c0 21 -16 34 -39 35v32h196v-32c-23 -1 -39 -14 -39 -35v-62c0 -20 0 -44 19 -63
c22 -22 62 -23 94 -23c28 0 46 0 73 4v144c0 21 -16 34 -39 35v32h196z" />
    <glyph glyph-name="afii10090" unicode="&#x448;" horiz-adv-x="820" 
d="M33 0v32c23 1 39 14 39 35v348c0 21 -16 34 -39 35v32h192v-32c-23 -1 -39 -14 -39 -35v-334h167v334c0 21 -16 34 -39 35v32h192v-32c-23 -1 -39 -14 -39 -35v-334h167v334c0 21 -16 34 -39 35v32h192v-32c-23 -1 -39 -14 -39 -35v-348c0 -21 16 -34 39 -35v-32h-754z
" />
    <glyph glyph-name="afii10091" unicode="&#x449;" horiz-adv-x="834" 
d="M33 0v32c23 1 39 14 39 35v348c0 21 -16 34 -39 35v32h192v-32c-23 -1 -39 -14 -39 -35v-334h167v334c0 21 -16 34 -39 35v32h192v-32c-23 -1 -39 -14 -39 -35v-334h167v334c0 21 -16 34 -39 35v32h192v-32c-23 -1 -39 -14 -39 -35v-334h76v-201h-44
c-4 102 -44 120 -80 120h-667z" />
    <glyph glyph-name="afii10092" unicode="&#x44a;" horiz-adv-x="644" 
d="M10 482h341v-32c-23 -1 -39 -14 -39 -35v-109c92 -1 174 2 241 -42c47 -31 67 -71 67 -117c0 -63 -34 -147 -193 -147h-272v32c23 1 39 14 39 35v334h-79c-22 0 -66 5 -73 -47h-32v128zM312 237v-156h68c37 0 122 1 122 71c0 36 -29 93 -190 85z" />
    <glyph glyph-name="afii10093" unicode="&#x44b;" horiz-adv-x="771" 
d="M33 482h196v-32c-23 -1 -39 -14 -39 -35v-109c16 1 32 1 48 1c245 0 260 -122 260 -164c0 -64 -27 -143 -193 -143h-272v32c23 1 39 14 39 35v348c0 21 -16 34 -39 35v32zM190 237v-156h68c35 0 122 1 122 72c0 38 -28 78 -144 84c-15 1 -31 1 -46 0zM542 450v32h196v-32
c-23 -1 -39 -14 -39 -35v-348c0 -21 16 -34 39 -35v-32h-196v32c23 1 39 14 39 35v348c0 21 -16 34 -39 35z" />
    <glyph glyph-name="afii10094" unicode="&#x44c;" horiz-adv-x="522" 
d="M33 482h196v-32c-23 -1 -39 -14 -39 -35v-109c13 1 26 1 39 1c197 0 269 -73 269 -162c0 -60 -34 -145 -193 -145h-272v32c23 1 39 14 39 35v348c0 21 -16 34 -39 35v32zM190 237v-156h68c42 0 122 3 122 67c0 36 -19 83 -144 89c-15 1 -31 1 -46 0z" />
    <glyph glyph-name="afii10095" unicode="&#x44d;" horiz-adv-x="523" 
d="M109 321l-74 102c66 59 142 74 199 74c120 0 186 -52 219 -105c24 -39 35 -86 35 -132c0 -47 -12 -94 -35 -134c-80 -138 -236 -141 -298 -141c-36 0 -64 3 -100 12v124h32c10 -21 34 -55 95 -55c31 0 61 5 89 18c46 22 88 68 91 127h-203v72h203c1 66 -39 107 -70 124
c-22 12 -48 16 -73 16c-11 0 -21 -2 -31 -5c-24 -8 -46 -30 -46 -51c0 -8 5 -23 6 -26z" />
    <glyph glyph-name="afii10096" unicode="&#x44e;" horiz-adv-x="819" 
d="M190 301h94c26 118 128 196 252 196c141 0 248 -110 248 -253c0 -145 -105 -259 -250 -259c-113 0 -240 76 -252 235h-92v-153c0 -21 16 -34 39 -35v-32h-196v32c23 1 39 14 39 35v348c0 21 -16 34 -39 35v32h196v-32c-23 -1 -39 -14 -39 -35v-114zM530 66
c92 0 122 77 122 183c0 78 -19 167 -121 167c-104 0 -122 -90 -122 -167c0 -107 30 -183 121 -183z" />
    <glyph glyph-name="afii10097" unicode="&#x44f;" horiz-adv-x="541" 
d="M508 482v-32c-23 -1 -39 -14 -39 -35v-348c0 -21 16 -34 39 -35v-32h-196v32c23 1 39 14 39 35v121h-66l-127 -188h-144v32c19 2 42 10 63 41l92 136c-41 9 -83 33 -104 65c-14 22 -20 48 -20 75c0 30 11 60 30 83c41 47 100 50 156 50h277zM351 261v140h-90
c-23 0 -91 -2 -91 -75c0 -42 42 -65 90 -65h91z" />
    </font>
</defs>
</svg>
